<svg width="1024" height="1024" viewBox="0 0 1024 1024" fill="none" xmlns="http://www.w3.org/2000/svg">
<g clip-path="url(#clip0_295_46324)">
<rect width="1024" height="1024" fill="#04274B"/>
<g clip-path="url(#clip1_295_46324)">
<path fill-rule="evenodd" clip-rule="evenodd" d="M50.7824 29.7374V0H-3.47852V29.7374H22.36V55.596H-3.47852V56.8889H50.7824V55.596H24.9438V29.7374H50.7824ZM-2.18659 27.1515V1.29293H49.4904V27.1515H-2.18659Z" fill="#093C70"/>
<path fill-rule="evenodd" clip-rule="evenodd" d="M105.043 29.7374V0H50.7822V29.7374H76.6207V55.596H50.7822V56.8889H105.043V55.596H79.2046V29.7374H105.043ZM52.0742 27.1515V1.29293H103.751V27.1515H52.0742Z" fill="#093C70"/>
<path fill-rule="evenodd" clip-rule="evenodd" d="M159.304 29.7374V0H105.043V29.7374H130.881V55.596H105.043V56.8889H159.304V55.596H133.465V29.7374H159.304ZM106.335 27.1515V1.29293H158.012V27.1515H106.335Z" fill="#093C70"/>
<path fill-rule="evenodd" clip-rule="evenodd" d="M213.566 29.7374V0H159.305V29.7374H185.143V55.596H159.305V56.8889H213.566V55.596H187.727V29.7374H213.566ZM160.597 27.1515V1.29293H212.274V27.1515H160.597Z" fill="#093C70"/>
<path fill-rule="evenodd" clip-rule="evenodd" d="M267.826 29.7374V0H213.565V29.7374H239.404V55.596H213.565V56.8889H267.826V55.596H241.988V29.7374H267.826ZM214.857 27.1515V1.29293H266.534V27.1515H214.857Z" fill="#093C70"/>
<path fill-rule="evenodd" clip-rule="evenodd" d="M322.087 29.7374V0H267.826V29.7374H293.665V55.596H267.826V56.8889H322.087V55.596H296.249V29.7374H322.087ZM269.118 27.1515V1.29293H320.795V27.1515H269.118Z" fill="#093C70"/>
<path fill-rule="evenodd" clip-rule="evenodd" d="M376.348 29.7374V0H322.087V29.7374H347.925V55.596H322.087V56.8889H376.348V55.596H350.509V29.7374H376.348ZM323.379 27.1515V1.29293H375.056V27.1515H323.379Z" fill="#093C70"/>
<path fill-rule="evenodd" clip-rule="evenodd" d="M430.609 29.7374V0H376.348V29.7374H402.186V55.596H376.348V56.8889H430.609V55.596H404.77V29.7374H430.609ZM377.64 27.1515V1.29293H429.317V27.1515H377.64Z" fill="#093C70"/>
<path fill-rule="evenodd" clip-rule="evenodd" d="M484.869 29.7374V0H430.608V29.7374H456.447V55.596H430.608V56.8889H484.869V55.596H459.031V29.7374H484.869ZM431.9 27.1515V1.29293H483.577V27.1515H431.9Z" fill="#093C70"/>
<path fill-rule="evenodd" clip-rule="evenodd" d="M539.13 29.7374V0H484.869V29.7374H510.708V55.596H484.869V56.8889H539.13V55.596H513.292V29.7374H539.13ZM486.161 27.1515V1.29293H537.838V27.1515H486.161Z" fill="#093C70"/>
<path fill-rule="evenodd" clip-rule="evenodd" d="M593.392 29.7374V0H539.131V29.7374H564.969V55.596H539.131V56.8889H593.392V55.596H567.553V29.7374H593.392ZM540.423 27.1515V1.29293H592.1V27.1515H540.423Z" fill="#093C70"/>
<path fill-rule="evenodd" clip-rule="evenodd" d="M647.652 29.7374V0H593.392V29.7374H619.23V55.596H593.392V56.8889H647.652V55.596H621.814V29.7374H647.652ZM594.684 27.1515V1.29293H646.361V27.1515H594.684Z" fill="#093C70"/>
<path fill-rule="evenodd" clip-rule="evenodd" d="M701.913 29.7374V0H647.652V29.7374H673.491V55.596H647.652V56.8889H701.913V55.596H676.075V29.7374H701.913ZM648.944 27.1515V1.29293H700.621V27.1515H648.944Z" fill="#093C70"/>
<path fill-rule="evenodd" clip-rule="evenodd" d="M756.174 29.7374V0H701.913V29.7374H727.752V55.596H701.913V56.8889H756.174V55.596H730.335V29.7374H756.174ZM703.205 27.1515V1.29293H754.882V27.1515H703.205Z" fill="#093C70"/>
<path fill-rule="evenodd" clip-rule="evenodd" d="M810.435 29.7374V0H756.174V29.7374H782.012V55.596H756.174V56.8889H810.435V55.596H784.596V29.7374H810.435ZM757.466 27.1515V1.29293H809.143V27.1515H757.466Z" fill="#093C70"/>
<path fill-rule="evenodd" clip-rule="evenodd" d="M864.695 29.7374V0H810.435V29.7374H836.273V55.596H810.435V56.8889H864.695V55.596H838.857V29.7374H864.695ZM811.726 27.1515V1.29293H863.404V27.1515H811.726Z" fill="#093C70"/>
<path fill-rule="evenodd" clip-rule="evenodd" d="M918.956 29.7374V0H864.695V29.7374H890.534V55.596H864.695V56.8889H918.956V55.596H893.118V29.7374H918.956ZM865.987 27.1515V1.29293H917.664V27.1515H865.987Z" fill="#093C70"/>
<path fill-rule="evenodd" clip-rule="evenodd" d="M973.218 29.7374V0H918.957V29.7374H944.796V55.596H918.957V56.8889H973.218V55.596H947.379V29.7374H973.218ZM920.249 27.1515V1.29293H971.926V27.1515H920.249Z" fill="#093C70"/>
<path fill-rule="evenodd" clip-rule="evenodd" d="M1027.48 29.7374V0H973.218V29.7374H999.056V55.596H973.218V56.8889H1027.48V55.596H1001.64V29.7374H1027.48ZM974.51 27.1515V1.29293H1026.19V27.1515H974.51Z" fill="#093C70"/>
<path fill-rule="evenodd" clip-rule="evenodd" d="M50.7824 86.626V56.8887H-3.47852V86.626H22.36V112.485H-3.47852V113.778H50.7824V112.485H24.9438V86.626H50.7824ZM-2.18659 84.0402V58.1816H49.4904V84.0402H-2.18659Z" fill="#093C70"/>
<path fill-rule="evenodd" clip-rule="evenodd" d="M105.043 86.626V56.8887H50.7822V86.626H76.6207V112.485H50.7822V113.778H105.043V112.485H79.2046V86.626H105.043ZM52.0742 84.0402V58.1816H103.751V84.0402H52.0742Z" fill="#093C70"/>
<path fill-rule="evenodd" clip-rule="evenodd" d="M159.304 86.626V56.8887H105.043V86.626H130.881V112.485H105.043V113.778H159.304V112.485H133.465V86.626H159.304ZM106.335 84.0402V58.1816H158.012V84.0402H106.335Z" fill="#093C70"/>
<path fill-rule="evenodd" clip-rule="evenodd" d="M213.566 86.626V56.8887H159.305V86.626H185.143V112.485H159.305V113.778H213.566V112.485H187.727V86.626H213.566ZM160.597 84.0402V58.1816H212.274V84.0402H160.597Z" fill="#093C70"/>
<path fill-rule="evenodd" clip-rule="evenodd" d="M267.826 86.626V56.8887H213.565V86.626H239.404V112.485H213.565V113.778H267.826V112.485H241.988V86.626H267.826ZM214.857 84.0402V58.1816H266.534V84.0402H214.857Z" fill="#093C70"/>
<path fill-rule="evenodd" clip-rule="evenodd" d="M322.087 86.626V56.8887H267.826V86.626H293.665V112.485H267.826V113.778H322.087V112.485H296.249V86.626H322.087ZM269.118 84.0402V58.1816H320.795V84.0402H269.118Z" fill="#093C70"/>
<path fill-rule="evenodd" clip-rule="evenodd" d="M376.348 86.626V56.8887H322.087V86.626H347.925V112.485H322.087V113.778H376.348V112.485H350.509V86.626H376.348ZM323.379 84.0402V58.1816H375.056V84.0402H323.379Z" fill="#093C70"/>
<path fill-rule="evenodd" clip-rule="evenodd" d="M430.609 86.626V56.8887H376.348V86.626H402.186V112.485H376.348V113.778H430.609V112.485H404.77V86.626H430.609ZM377.64 84.0402V58.1816H429.317V84.0402H377.64Z" fill="#093C70"/>
<path fill-rule="evenodd" clip-rule="evenodd" d="M484.869 86.626V56.8887H430.608V86.626H456.447V112.485H430.608V113.778H484.869V112.485H459.031V86.626H484.869ZM431.9 84.0402V58.1816H483.577V84.0402H431.9Z" fill="#093C70"/>
<path fill-rule="evenodd" clip-rule="evenodd" d="M539.13 86.626V56.8887H484.869V86.626H510.708V112.485H484.869V113.778H539.13V112.485H513.292V86.626H539.13ZM486.161 84.0402V58.1816H537.838V84.0402H486.161Z" fill="#093C70"/>
<path fill-rule="evenodd" clip-rule="evenodd" d="M593.392 86.626V56.8887H539.131V86.626H564.969V112.485H539.131V113.778H593.392V112.485H567.553V86.626H593.392ZM540.423 84.0402V58.1816H592.1V84.0402H540.423Z" fill="#093C70"/>
<path fill-rule="evenodd" clip-rule="evenodd" d="M647.652 86.626V56.8887H593.392V86.626H619.23V112.485H593.392V113.778H647.652V112.485H621.814V86.626H647.652ZM594.684 84.0402V58.1816H646.361V84.0402H594.684Z" fill="#093C70"/>
<path fill-rule="evenodd" clip-rule="evenodd" d="M701.913 86.626V56.8887H647.652V86.626H673.491V112.485H647.652V113.778H701.913V112.485H676.075V86.626H701.913ZM648.944 84.0402V58.1816H700.621V84.0402H648.944Z" fill="#093C70"/>
<path fill-rule="evenodd" clip-rule="evenodd" d="M756.174 86.626V56.8887H701.913V86.626H727.752V112.485H701.913V113.778H756.174V112.485H730.335V86.626H756.174ZM703.205 84.0402V58.1816H754.882V84.0402H703.205Z" fill="#093C70"/>
<path fill-rule="evenodd" clip-rule="evenodd" d="M810.435 86.626V56.8887H756.174V86.626H782.012V112.485H756.174V113.778H810.435V112.485H784.596V86.626H810.435ZM757.466 84.0402V58.1816H809.143V84.0402H757.466Z" fill="#093C70"/>
<path fill-rule="evenodd" clip-rule="evenodd" d="M864.695 86.626V56.8887H810.435V86.626H836.273V112.485H810.435V113.778H864.695V112.485H838.857V86.626H864.695ZM811.726 84.0402V58.1816H863.404V84.0402H811.726Z" fill="#093C70"/>
<path fill-rule="evenodd" clip-rule="evenodd" d="M918.956 86.626V56.8887H864.695V86.626H890.534V112.485H864.695V113.778H918.956V112.485H893.118V86.626H918.956ZM865.987 84.0402V58.1816H917.664V84.0402H865.987Z" fill="#093C70"/>
<path fill-rule="evenodd" clip-rule="evenodd" d="M973.218 86.626V56.8887H918.957V86.626H944.796V112.485H918.957V113.778H973.218V112.485H947.379V86.626H973.218ZM920.249 84.0402V58.1816H971.926V84.0402H920.249Z" fill="#093C70"/>
<path fill-rule="evenodd" clip-rule="evenodd" d="M1027.48 86.626V56.8887H973.218V86.626H999.056V112.485H973.218V113.778H1027.48V112.485H1001.64V86.626H1027.48ZM974.51 84.0402V58.1816H1026.19V84.0402H974.51Z" fill="#093C70"/>
<path fill-rule="evenodd" clip-rule="evenodd" d="M50.7824 143.515V113.777H-3.47852V143.515H22.36V169.373H-3.47852V170.666H50.7824V169.373H24.9438V143.515H50.7824ZM-2.18659 140.929V115.07H49.4904V140.929H-2.18659Z" fill="#093C70"/>
<path fill-rule="evenodd" clip-rule="evenodd" d="M105.043 143.515V113.777H50.7822V143.515H76.6207V169.373H50.7822V170.666H105.043V169.373H79.2046V143.515H105.043ZM52.0742 140.929V115.07H103.751V140.929H52.0742Z" fill="#093C70"/>
<path fill-rule="evenodd" clip-rule="evenodd" d="M159.304 143.515V113.777H105.043V143.515H130.881V169.373H105.043V170.666H159.304V169.373H133.465V143.515H159.304ZM106.335 140.929V115.07H158.012V140.929H106.335Z" fill="#093C70"/>
<path fill-rule="evenodd" clip-rule="evenodd" d="M213.566 143.515V113.777H159.305V143.515H185.143V169.373H159.305V170.666H213.566V169.373H187.727V143.515H213.566ZM160.597 140.929V115.07H212.274V140.929H160.597Z" fill="#093C70"/>
<path fill-rule="evenodd" clip-rule="evenodd" d="M267.826 143.515V113.777H213.565V143.515H239.404V169.373H213.565V170.666H267.826V169.373H241.988V143.515H267.826ZM214.857 140.929V115.07H266.534V140.929H214.857Z" fill="#093C70"/>
<path fill-rule="evenodd" clip-rule="evenodd" d="M322.087 143.515V113.777H267.826V143.515H293.665V169.373H267.826V170.666H322.087V169.373H296.249V143.515H322.087ZM269.118 140.929V115.07H320.795V140.929H269.118Z" fill="#093C70"/>
<path fill-rule="evenodd" clip-rule="evenodd" d="M376.348 143.515V113.777H322.087V143.515H347.925V169.373H322.087V170.666H376.348V169.373H350.509V143.515H376.348ZM323.379 140.929V115.07H375.056V140.929H323.379Z" fill="#093C70"/>
<path fill-rule="evenodd" clip-rule="evenodd" d="M430.609 143.515V113.777H376.348V143.515H402.186V169.373H376.348V170.666H430.609V169.373H404.77V143.515H430.609ZM377.64 140.929V115.07H429.317V140.929H377.64Z" fill="#093C70"/>
<path fill-rule="evenodd" clip-rule="evenodd" d="M484.869 143.515V113.777H430.608V143.515H456.447V169.373H430.608V170.666H484.869V169.373H459.031V143.515H484.869ZM431.9 140.929V115.07H483.577V140.929H431.9Z" fill="#093C70"/>
<path fill-rule="evenodd" clip-rule="evenodd" d="M539.13 143.515V113.777H484.869V143.515H510.708V169.373H484.869V170.666H539.13V169.373H513.292V143.515H539.13ZM486.161 140.929V115.07H537.838V140.929H486.161Z" fill="#093C70"/>
<path fill-rule="evenodd" clip-rule="evenodd" d="M593.392 143.515V113.777H539.131V143.515H564.969V169.373H539.131V170.666H593.392V169.373H567.553V143.515H593.392ZM540.423 140.929V115.07H592.1V140.929H540.423Z" fill="#093C70"/>
<path fill-rule="evenodd" clip-rule="evenodd" d="M647.652 143.515V113.777H593.392V143.515H619.23V169.373H593.392V170.666H647.652V169.373H621.814V143.515H647.652ZM594.684 140.929V115.07H646.361V140.929H594.684Z" fill="#093C70"/>
<path fill-rule="evenodd" clip-rule="evenodd" d="M701.913 143.515V113.777H647.652V143.515H673.491V169.373H647.652V170.666H701.913V169.373H676.075V143.515H701.913ZM648.944 140.929V115.07H700.621V140.929H648.944Z" fill="#093C70"/>
<path fill-rule="evenodd" clip-rule="evenodd" d="M756.174 143.515V113.777H701.913V143.515H727.752V169.373H701.913V170.666H756.174V169.373H730.335V143.515H756.174ZM703.205 140.929V115.07H754.882V140.929H703.205Z" fill="#093C70"/>
<path fill-rule="evenodd" clip-rule="evenodd" d="M810.435 143.515V113.777H756.174V143.515H782.012V169.373H756.174V170.666H810.435V169.373H784.596V143.515H810.435ZM757.466 140.929V115.07H809.143V140.929H757.466Z" fill="#093C70"/>
<path fill-rule="evenodd" clip-rule="evenodd" d="M864.695 143.515V113.777H810.435V143.515H836.273V169.373H810.435V170.666H864.695V169.373H838.857V143.515H864.695ZM811.726 140.929V115.07H863.404V140.929H811.726Z" fill="#093C70"/>
<path fill-rule="evenodd" clip-rule="evenodd" d="M918.956 143.515V113.777H864.695V143.515H890.534V169.373H864.695V170.666H918.956V169.373H893.118V143.515H918.956ZM865.987 140.929V115.07H917.664V140.929H865.987Z" fill="#093C70"/>
<path fill-rule="evenodd" clip-rule="evenodd" d="M973.218 143.515V113.777H918.957V143.515H944.796V169.373H918.957V170.666H973.218V169.373H947.379V143.515H973.218ZM920.249 140.929V115.07H971.926V140.929H920.249Z" fill="#093C70"/>
<path fill-rule="evenodd" clip-rule="evenodd" d="M1027.48 143.515V113.777H973.218V143.515H999.056V169.373H973.218V170.666H1027.48V169.373H1001.64V143.515H1027.48ZM974.51 140.929V115.07H1026.19V140.929H974.51Z" fill="#093C70"/>
<path fill-rule="evenodd" clip-rule="evenodd" d="M50.7824 200.404V170.667H-3.47852V200.404H22.36V226.263H-3.47852V227.556H50.7824V226.263H24.9438V200.404H50.7824ZM-2.18659 197.819V171.96H49.4904V197.819H-2.18659Z" fill="#093C70"/>
<path fill-rule="evenodd" clip-rule="evenodd" d="M105.043 200.404V170.667H50.7822V200.404H76.6207V226.263H50.7822V227.556H105.043V226.263H79.2046V200.404H105.043ZM52.0742 197.819V171.96H103.751V197.819H52.0742Z" fill="#093C70"/>
<path fill-rule="evenodd" clip-rule="evenodd" d="M159.304 200.404V170.667H105.043V200.404H130.881V226.263H105.043V227.556H159.304V226.263H133.465V200.404H159.304ZM106.335 197.819V171.96H158.012V197.819H106.335Z" fill="#093C70"/>
<path fill-rule="evenodd" clip-rule="evenodd" d="M213.566 200.404V170.667H159.305V200.404H185.143V226.263H159.305V227.556H213.566V226.263H187.727V200.404H213.566ZM160.597 197.819V171.96H212.274V197.819H160.597Z" fill="#093C70"/>
<path fill-rule="evenodd" clip-rule="evenodd" d="M267.826 200.404V170.667H213.565V200.404H239.404V226.263H213.565V227.556H267.826V226.263H241.988V200.404H267.826ZM214.857 197.819V171.96H266.534V197.819H214.857Z" fill="#093C70"/>
<path fill-rule="evenodd" clip-rule="evenodd" d="M322.087 200.404V170.667H267.826V200.404H293.665V226.263H267.826V227.556H322.087V226.263H296.249V200.404H322.087ZM269.118 197.819V171.96H320.795V197.819H269.118Z" fill="#093C70"/>
<path fill-rule="evenodd" clip-rule="evenodd" d="M376.348 200.404V170.667H322.087V200.404H347.925V226.263H322.087V227.556H376.348V226.263H350.509V200.404H376.348ZM323.379 197.819V171.96H375.056V197.819H323.379Z" fill="#093C70"/>
<path fill-rule="evenodd" clip-rule="evenodd" d="M430.609 200.404V170.667H376.348V200.404H402.186V226.263H376.348V227.556H430.609V226.263H404.77V200.404H430.609ZM377.64 197.819V171.96H429.317V197.819H377.64Z" fill="#093C70"/>
<path fill-rule="evenodd" clip-rule="evenodd" d="M484.869 200.404V170.667H430.608V200.404H456.447V226.263H430.608V227.556H484.869V226.263H459.031V200.404H484.869ZM431.9 197.819V171.96H483.577V197.819H431.9Z" fill="#093C70"/>
<path fill-rule="evenodd" clip-rule="evenodd" d="M539.13 200.404V170.667H484.869V200.404H510.708V226.263H484.869V227.556H539.13V226.263H513.292V200.404H539.13ZM486.161 197.819V171.96H537.838V197.819H486.161Z" fill="#093C70"/>
<path fill-rule="evenodd" clip-rule="evenodd" d="M593.392 200.404V170.667H539.131V200.404H564.969V226.263H539.131V227.556H593.392V226.263H567.553V200.404H593.392ZM540.423 197.819V171.96H592.1V197.819H540.423Z" fill="#093C70"/>
<path fill-rule="evenodd" clip-rule="evenodd" d="M647.652 200.404V170.667H593.392V200.404H619.23V226.263H593.392V227.556H647.652V226.263H621.814V200.404H647.652ZM594.684 197.819V171.96H646.361V197.819H594.684Z" fill="#093C70"/>
<path fill-rule="evenodd" clip-rule="evenodd" d="M701.913 200.404V170.667H647.652V200.404H673.491V226.263H647.652V227.556H701.913V226.263H676.075V200.404H701.913ZM648.944 197.819V171.96H700.621V197.819H648.944Z" fill="#093C70"/>
<path fill-rule="evenodd" clip-rule="evenodd" d="M756.174 200.404V170.667H701.913V200.404H727.752V226.263H701.913V227.556H756.174V226.263H730.335V200.404H756.174ZM703.205 197.819V171.96H754.882V197.819H703.205Z" fill="#093C70"/>
<path fill-rule="evenodd" clip-rule="evenodd" d="M810.435 200.404V170.667H756.174V200.404H782.012V226.263H756.174V227.556H810.435V226.263H784.596V200.404H810.435ZM757.466 197.819V171.96H809.143V197.819H757.466Z" fill="#093C70"/>
<path fill-rule="evenodd" clip-rule="evenodd" d="M864.695 200.404V170.667H810.435V200.404H836.273V226.263H810.435V227.556H864.695V226.263H838.857V200.404H864.695ZM811.726 197.819V171.96H863.404V197.819H811.726Z" fill="#093C70"/>
<path fill-rule="evenodd" clip-rule="evenodd" d="M918.956 200.404V170.667H864.695V200.404H890.534V226.263H864.695V227.556H918.956V226.263H893.118V200.404H918.956ZM865.987 197.819V171.96H917.664V197.819H865.987Z" fill="#093C70"/>
<path fill-rule="evenodd" clip-rule="evenodd" d="M973.218 200.404V170.667H918.957V200.404H944.796V226.263H918.957V227.556H973.218V226.263H947.379V200.404H973.218ZM920.249 197.819V171.96H971.926V197.819H920.249Z" fill="#093C70"/>
<path fill-rule="evenodd" clip-rule="evenodd" d="M1027.48 200.404V170.667H973.218V200.404H999.056V226.263H973.218V227.556H1027.48V226.263H1001.64V200.404H1027.48ZM974.51 197.819V171.96H1026.19V197.819H974.51Z" fill="#093C70"/>
<path fill-rule="evenodd" clip-rule="evenodd" d="M50.7824 257.293V227.556H-3.47852V257.293H22.36V283.152H-3.47852V284.445H50.7824V283.152H24.9438V257.293H50.7824ZM-2.18659 254.707V228.849H49.4904V254.707H-2.18659Z" fill="#093C70"/>
<path fill-rule="evenodd" clip-rule="evenodd" d="M105.043 257.293V227.556H50.7822V257.293H76.6207V283.152H50.7822V284.445H105.043V283.152H79.2046V257.293H105.043ZM52.0742 254.707V228.849H103.751V254.707H52.0742Z" fill="#093C70"/>
<path fill-rule="evenodd" clip-rule="evenodd" d="M159.304 257.293V227.556H105.043V257.293H130.881V283.152H105.043V284.445H159.304V283.152H133.465V257.293H159.304ZM106.335 254.707V228.849H158.012V254.707H106.335Z" fill="#093C70"/>
<path fill-rule="evenodd" clip-rule="evenodd" d="M213.566 257.293V227.556H159.305V257.293H185.143V283.152H159.305V284.445H213.566V283.152H187.727V257.293H213.566ZM160.597 254.707V228.849H212.274V254.707H160.597Z" fill="#093C70"/>
<path fill-rule="evenodd" clip-rule="evenodd" d="M267.826 257.293V227.556H213.565V257.293H239.404V283.152H213.565V284.445H267.826V283.152H241.988V257.293H267.826ZM214.857 254.707V228.849H266.534V254.707H214.857Z" fill="#093C70"/>
<path fill-rule="evenodd" clip-rule="evenodd" d="M322.087 257.293V227.556H267.826V257.293H293.665V283.152H267.826V284.445H322.087V283.152H296.249V257.293H322.087ZM269.118 254.707V228.849H320.795V254.707H269.118Z" fill="#093C70"/>
<path fill-rule="evenodd" clip-rule="evenodd" d="M376.348 257.293V227.556H322.087V257.293H347.925V283.152H322.087V284.445H376.348V283.152H350.509V257.293H376.348ZM323.379 254.707V228.849H375.056V254.707H323.379Z" fill="#093C70"/>
<path fill-rule="evenodd" clip-rule="evenodd" d="M430.609 257.293V227.556H376.348V257.293H402.186V283.152H376.348V284.445H430.609V283.152H404.77V257.293H430.609ZM377.64 254.707V228.849H429.317V254.707H377.64Z" fill="#093C70"/>
<path fill-rule="evenodd" clip-rule="evenodd" d="M484.869 257.293V227.556H430.608V257.293H456.447V283.152H430.608V284.445H484.869V283.152H459.031V257.293H484.869ZM431.9 254.707V228.849H483.577V254.707H431.9Z" fill="#093C70"/>
<path fill-rule="evenodd" clip-rule="evenodd" d="M539.13 257.293V227.556H484.869V257.293H510.708V283.152H484.869V284.445H539.13V283.152H513.292V257.293H539.13ZM486.161 254.707V228.849H537.838V254.707H486.161Z" fill="#093C70"/>
<path fill-rule="evenodd" clip-rule="evenodd" d="M593.392 257.293V227.556H539.131V257.293H564.969V283.152H539.131V284.445H593.392V283.152H567.553V257.293H593.392ZM540.423 254.707V228.849H592.1V254.707H540.423Z" fill="#093C70"/>
<path fill-rule="evenodd" clip-rule="evenodd" d="M647.652 257.293V227.556H593.392V257.293H619.23V283.152H593.392V284.445H647.652V283.152H621.814V257.293H647.652ZM594.684 254.707V228.849H646.361V254.707H594.684Z" fill="#093C70"/>
<path fill-rule="evenodd" clip-rule="evenodd" d="M701.913 257.293V227.556H647.652V257.293H673.491V283.152H647.652V284.445H701.913V283.152H676.075V257.293H701.913ZM648.944 254.707V228.849H700.621V254.707H648.944Z" fill="#093C70"/>
<path fill-rule="evenodd" clip-rule="evenodd" d="M756.174 257.293V227.556H701.913V257.293H727.752V283.152H701.913V284.445H756.174V283.152H730.335V257.293H756.174ZM703.205 254.707V228.849H754.882V254.707H703.205Z" fill="#093C70"/>
<path fill-rule="evenodd" clip-rule="evenodd" d="M810.435 257.293V227.556H756.174V257.293H782.012V283.152H756.174V284.445H810.435V283.152H784.596V257.293H810.435ZM757.466 254.707V228.849H809.143V254.707H757.466Z" fill="#093C70"/>
<path fill-rule="evenodd" clip-rule="evenodd" d="M864.695 257.293V227.556H810.435V257.293H836.273V283.152H810.435V284.445H864.695V283.152H838.857V257.293H864.695ZM811.726 254.707V228.849H863.404V254.707H811.726Z" fill="#093C70"/>
<path fill-rule="evenodd" clip-rule="evenodd" d="M918.956 257.293V227.556H864.695V257.293H890.534V283.152H864.695V284.445H918.956V283.152H893.118V257.293H918.956ZM865.987 254.707V228.849H917.664V254.707H865.987Z" fill="#093C70"/>
<path fill-rule="evenodd" clip-rule="evenodd" d="M973.218 257.293V227.556H918.957V257.293H944.796V283.152H918.957V284.445H973.218V283.152H947.379V257.293H973.218ZM920.249 254.707V228.849H971.926V254.707H920.249Z" fill="#093C70"/>
<path fill-rule="evenodd" clip-rule="evenodd" d="M1027.48 257.293V227.556H973.218V257.293H999.056V283.152H973.218V284.445H1027.48V283.152H1001.64V257.293H1027.48ZM974.51 254.707V228.849H1026.19V254.707H974.51Z" fill="#093C70"/>
<path fill-rule="evenodd" clip-rule="evenodd" d="M50.7824 314.182V284.444H-3.47852V314.182H22.36V340.04H-3.47852V341.333H50.7824V340.04H24.9438V314.182H50.7824ZM-2.18659 311.596V285.737H49.4904V311.596H-2.18659Z" fill="#093C70"/>
<path fill-rule="evenodd" clip-rule="evenodd" d="M105.043 314.182V284.444H50.7822V314.182H76.6207V340.04H50.7822V341.333H105.043V340.04H79.2046V314.182H105.043ZM52.0742 311.596V285.737H103.751V311.596H52.0742Z" fill="#093C70"/>
<path fill-rule="evenodd" clip-rule="evenodd" d="M159.304 314.182V284.444H105.043V314.182H130.881V340.04H105.043V341.333H159.304V340.04H133.465V314.182H159.304ZM106.335 311.596V285.737H158.012V311.596H106.335Z" fill="#093C70"/>
<path fill-rule="evenodd" clip-rule="evenodd" d="M213.566 314.182V284.444H159.305V314.182H185.143V340.04H159.305V341.333H213.566V340.04H187.727V314.182H213.566ZM160.597 311.596V285.737H212.274V311.596H160.597Z" fill="#093C70"/>
<path fill-rule="evenodd" clip-rule="evenodd" d="M267.826 314.182V284.444H213.565V314.182H239.404V340.04H213.565V341.333H267.826V340.04H241.988V314.182H267.826ZM214.857 311.596V285.737H266.534V311.596H214.857Z" fill="#093C70"/>
<path fill-rule="evenodd" clip-rule="evenodd" d="M322.087 314.182V284.444H267.826V314.182H293.665V340.04H267.826V341.333H322.087V340.04H296.249V314.182H322.087ZM269.118 311.596V285.737H320.795V311.596H269.118Z" fill="#093C70"/>
<path fill-rule="evenodd" clip-rule="evenodd" d="M376.348 314.182V284.444H322.087V314.182H347.925V340.04H322.087V341.333H376.348V340.04H350.509V314.182H376.348ZM323.379 311.596V285.737H375.056V311.596H323.379Z" fill="#093C70"/>
<path fill-rule="evenodd" clip-rule="evenodd" d="M430.609 314.182V284.444H376.348V314.182H402.186V340.04H376.348V341.333H430.609V340.04H404.77V314.182H430.609ZM377.64 311.596V285.737H429.317V311.596H377.64Z" fill="#093C70"/>
<path fill-rule="evenodd" clip-rule="evenodd" d="M484.869 314.182V284.444H430.608V314.182H456.447V340.04H430.608V341.333H484.869V340.04H459.031V314.182H484.869ZM431.9 311.596V285.737H483.577V311.596H431.9Z" fill="#093C70"/>
<path fill-rule="evenodd" clip-rule="evenodd" d="M539.13 314.182V284.444H484.869V314.182H510.708V340.04H484.869V341.333H539.13V340.04H513.292V314.182H539.13ZM486.161 311.596V285.737H537.838V311.596H486.161Z" fill="#093C70"/>
<path fill-rule="evenodd" clip-rule="evenodd" d="M593.392 314.182V284.444H539.131V314.182H564.969V340.04H539.131V341.333H593.392V340.04H567.553V314.182H593.392ZM540.423 311.596V285.737H592.1V311.596H540.423Z" fill="#093C70"/>
<path fill-rule="evenodd" clip-rule="evenodd" d="M647.652 314.182V284.444H593.392V314.182H619.23V340.04H593.392V341.333H647.652V340.04H621.814V314.182H647.652ZM594.684 311.596V285.737H646.361V311.596H594.684Z" fill="#093C70"/>
<path fill-rule="evenodd" clip-rule="evenodd" d="M701.913 314.182V284.444H647.652V314.182H673.491V340.04H647.652V341.333H701.913V340.04H676.075V314.182H701.913ZM648.944 311.596V285.737H700.621V311.596H648.944Z" fill="#093C70"/>
<path fill-rule="evenodd" clip-rule="evenodd" d="M756.174 314.182V284.444H701.913V314.182H727.752V340.04H701.913V341.333H756.174V340.04H730.335V314.182H756.174ZM703.205 311.596V285.737H754.882V311.596H703.205Z" fill="#093C70"/>
<path fill-rule="evenodd" clip-rule="evenodd" d="M810.435 314.182V284.444H756.174V314.182H782.012V340.04H756.174V341.333H810.435V340.04H784.596V314.182H810.435ZM757.466 311.596V285.737H809.143V311.596H757.466Z" fill="#093C70"/>
<path fill-rule="evenodd" clip-rule="evenodd" d="M864.695 314.182V284.444H810.435V314.182H836.273V340.04H810.435V341.333H864.695V340.04H838.857V314.182H864.695ZM811.726 311.596V285.737H863.404V311.596H811.726Z" fill="#093C70"/>
<path fill-rule="evenodd" clip-rule="evenodd" d="M918.956 314.182V284.444H864.695V314.182H890.534V340.04H864.695V341.333H918.956V340.04H893.118V314.182H918.956ZM865.987 311.596V285.737H917.664V311.596H865.987Z" fill="#093C70"/>
<path fill-rule="evenodd" clip-rule="evenodd" d="M973.218 314.182V284.444H918.957V314.182H944.796V340.04H918.957V341.333H973.218V340.04H947.379V314.182H973.218ZM920.249 311.596V285.737H971.926V311.596H920.249Z" fill="#093C70"/>
<path fill-rule="evenodd" clip-rule="evenodd" d="M1027.48 314.182V284.444H973.218V314.182H999.056V340.04H973.218V341.333H1027.48V340.04H1001.64V314.182H1027.48ZM974.51 311.596V285.737H1026.19V311.596H974.51Z" fill="#093C70"/>
<path fill-rule="evenodd" clip-rule="evenodd" d="M50.7824 371.07V341.333H-3.47852V371.07H22.36V396.929H-3.47852V398.222H50.7824V396.929H24.9438V371.07H50.7824ZM-2.18659 368.485V342.626H49.4904V368.485H-2.18659Z" fill="#093C70"/>
<path fill-rule="evenodd" clip-rule="evenodd" d="M105.043 371.07V341.333H50.7822V371.07H76.6207V396.929H50.7822V398.222H105.043V396.929H79.2046V371.07H105.043ZM52.0742 368.485V342.626H103.751V368.485H52.0742Z" fill="#093C70"/>
<path fill-rule="evenodd" clip-rule="evenodd" d="M159.304 371.07V341.333H105.043V371.07H130.881V396.929H105.043V398.222H159.304V396.929H133.465V371.07H159.304ZM106.335 368.485V342.626H158.012V368.485H106.335Z" fill="#093C70"/>
<path fill-rule="evenodd" clip-rule="evenodd" d="M213.566 371.07V341.333H159.305V371.07H185.143V396.929H159.305V398.222H213.566V396.929H187.727V371.07H213.566ZM160.597 368.485V342.626H212.274V368.485H160.597Z" fill="#093C70"/>
<path fill-rule="evenodd" clip-rule="evenodd" d="M267.826 371.07V341.333H213.565V371.07H239.404V396.929H213.565V398.222H267.826V396.929H241.988V371.07H267.826ZM214.857 368.485V342.626H266.534V368.485H214.857Z" fill="#093C70"/>
<path fill-rule="evenodd" clip-rule="evenodd" d="M322.087 371.07V341.333H267.826V371.07H293.665V396.929H267.826V398.222H322.087V396.929H296.249V371.07H322.087ZM269.118 368.485V342.626H320.795V368.485H269.118Z" fill="#093C70"/>
<path fill-rule="evenodd" clip-rule="evenodd" d="M376.348 371.07V341.333H322.087V371.07H347.925V396.929H322.087V398.222H376.348V396.929H350.509V371.07H376.348ZM323.379 368.485V342.626H375.056V368.485H323.379Z" fill="#093C70"/>
<path fill-rule="evenodd" clip-rule="evenodd" d="M430.609 371.07V341.333H376.348V371.07H402.186V396.929H376.348V398.222H430.609V396.929H404.77V371.07H430.609ZM377.64 368.485V342.626H429.317V368.485H377.64Z" fill="#093C70"/>
<path fill-rule="evenodd" clip-rule="evenodd" d="M484.869 371.07V341.333H430.608V371.07H456.447V396.929H430.608V398.222H484.869V396.929H459.031V371.07H484.869ZM431.9 368.485V342.626H483.577V368.485H431.9Z" fill="#093C70"/>
<path fill-rule="evenodd" clip-rule="evenodd" d="M539.13 371.07V341.333H484.869V371.07H510.708V396.929H484.869V398.222H539.13V396.929H513.292V371.07H539.13ZM486.161 368.485V342.626H537.838V368.485H486.161Z" fill="#093C70"/>
<path fill-rule="evenodd" clip-rule="evenodd" d="M593.392 371.07V341.333H539.131V371.07H564.969V396.929H539.131V398.222H593.392V396.929H567.553V371.07H593.392ZM540.423 368.485V342.626H592.1V368.485H540.423Z" fill="#093C70"/>
<path fill-rule="evenodd" clip-rule="evenodd" d="M647.652 371.07V341.333H593.392V371.07H619.23V396.929H593.392V398.222H647.652V396.929H621.814V371.07H647.652ZM594.684 368.485V342.626H646.361V368.485H594.684Z" fill="#093C70"/>
<path fill-rule="evenodd" clip-rule="evenodd" d="M701.913 371.07V341.333H647.652V371.07H673.491V396.929H647.652V398.222H701.913V396.929H676.075V371.07H701.913ZM648.944 368.485V342.626H700.621V368.485H648.944Z" fill="#093C70"/>
<path fill-rule="evenodd" clip-rule="evenodd" d="M756.174 371.07V341.333H701.913V371.07H727.752V396.929H701.913V398.222H756.174V396.929H730.335V371.07H756.174ZM703.205 368.485V342.626H754.882V368.485H703.205Z" fill="#093C70"/>
<path fill-rule="evenodd" clip-rule="evenodd" d="M810.435 371.07V341.333H756.174V371.07H782.012V396.929H756.174V398.222H810.435V396.929H784.596V371.07H810.435ZM757.466 368.485V342.626H809.143V368.485H757.466Z" fill="#093C70"/>
<path fill-rule="evenodd" clip-rule="evenodd" d="M864.695 371.07V341.333H810.435V371.07H836.273V396.929H810.435V398.222H864.695V396.929H838.857V371.07H864.695ZM811.726 368.485V342.626H863.404V368.485H811.726Z" fill="#093C70"/>
<path fill-rule="evenodd" clip-rule="evenodd" d="M918.956 371.07V341.333H864.695V371.07H890.534V396.929H864.695V398.222H918.956V396.929H893.118V371.07H918.956ZM865.987 368.485V342.626H917.664V368.485H865.987Z" fill="#093C70"/>
<path fill-rule="evenodd" clip-rule="evenodd" d="M973.218 371.07V341.333H918.957V371.07H944.796V396.929H918.957V398.222H973.218V396.929H947.379V371.07H973.218ZM920.249 368.485V342.626H971.926V368.485H920.249Z" fill="#093C70"/>
<path fill-rule="evenodd" clip-rule="evenodd" d="M1027.48 371.07V341.333H973.218V371.07H999.056V396.929H973.218V398.222H1027.48V396.929H1001.64V371.07H1027.48ZM974.51 368.485V342.626H1026.19V368.485H974.51Z" fill="#093C70"/>
<path fill-rule="evenodd" clip-rule="evenodd" d="M50.7824 427.96V398.223H-3.47852V427.96H22.36V453.819H-3.47852V455.112H50.7824V453.819H24.9438V427.96H50.7824ZM-2.18659 425.374V399.516H49.4904V425.374H-2.18659Z" fill="#093C70"/>
<path fill-rule="evenodd" clip-rule="evenodd" d="M105.043 427.96V398.223H50.7822V427.96H76.6207V453.819H50.7822V455.112H105.043V453.819H79.2046V427.96H105.043ZM52.0742 425.374V399.516H103.751V425.374H52.0742Z" fill="#093C70"/>
<path fill-rule="evenodd" clip-rule="evenodd" d="M159.304 427.96V398.223H105.043V427.96H130.881V453.819H105.043V455.112H159.304V453.819H133.465V427.96H159.304ZM106.335 425.374V399.516H158.012V425.374H106.335Z" fill="#093C70"/>
<path fill-rule="evenodd" clip-rule="evenodd" d="M213.566 427.96V398.223H159.305V427.96H185.143V453.819H159.305V455.112H213.566V453.819H187.727V427.96H213.566ZM160.597 425.374V399.516H212.274V425.374H160.597Z" fill="#093C70"/>
<path fill-rule="evenodd" clip-rule="evenodd" d="M267.826 427.96V398.223H213.565V427.96H239.404V453.819H213.565V455.112H267.826V453.819H241.988V427.96H267.826ZM214.857 425.374V399.516H266.534V425.374H214.857Z" fill="#093C70"/>
<path fill-rule="evenodd" clip-rule="evenodd" d="M322.087 427.96V398.223H267.826V427.96H293.665V453.819H267.826V455.112H322.087V453.819H296.249V427.96H322.087ZM269.118 425.374V399.516H320.795V425.374H269.118Z" fill="#093C70"/>
<path fill-rule="evenodd" clip-rule="evenodd" d="M376.348 427.96V398.223H322.087V427.96H347.925V453.819H322.087V455.112H376.348V453.819H350.509V427.96H376.348ZM323.379 425.374V399.516H375.056V425.374H323.379Z" fill="#093C70"/>
<path fill-rule="evenodd" clip-rule="evenodd" d="M430.609 427.96V398.223H376.348V427.96H402.186V453.819H376.348V455.112H430.609V453.819H404.77V427.96H430.609ZM377.64 425.374V399.516H429.317V425.374H377.64Z" fill="#093C70"/>
<path fill-rule="evenodd" clip-rule="evenodd" d="M484.869 427.96V398.223H430.608V427.96H456.447V453.819H430.608V455.112H484.869V453.819H459.031V427.96H484.869ZM431.9 425.374V399.516H483.577V425.374H431.9Z" fill="#093C70"/>
<path fill-rule="evenodd" clip-rule="evenodd" d="M539.13 427.96V398.223H484.869V427.96H510.708V453.819H484.869V455.112H539.13V453.819H513.292V427.96H539.13ZM486.161 425.374V399.516H537.838V425.374H486.161Z" fill="#093C70"/>
<path fill-rule="evenodd" clip-rule="evenodd" d="M593.392 427.96V398.223H539.131V427.96H564.969V453.819H539.131V455.112H593.392V453.819H567.553V427.96H593.392ZM540.423 425.374V399.516H592.1V425.374H540.423Z" fill="#093C70"/>
<path fill-rule="evenodd" clip-rule="evenodd" d="M647.652 427.96V398.223H593.392V427.96H619.23V453.819H593.392V455.112H647.652V453.819H621.814V427.96H647.652ZM594.684 425.374V399.516H646.361V425.374H594.684Z" fill="#093C70"/>
<path fill-rule="evenodd" clip-rule="evenodd" d="M701.913 427.96V398.223H647.652V427.96H673.491V453.819H647.652V455.112H701.913V453.819H676.075V427.96H701.913ZM648.944 425.374V399.516H700.621V425.374H648.944Z" fill="#093C70"/>
<path fill-rule="evenodd" clip-rule="evenodd" d="M756.174 427.96V398.223H701.913V427.96H727.752V453.819H701.913V455.112H756.174V453.819H730.335V427.96H756.174ZM703.205 425.374V399.516H754.882V425.374H703.205Z" fill="#093C70"/>
<path fill-rule="evenodd" clip-rule="evenodd" d="M810.435 427.96V398.223H756.174V427.96H782.012V453.819H756.174V455.112H810.435V453.819H784.596V427.96H810.435ZM757.466 425.374V399.516H809.143V425.374H757.466Z" fill="#093C70"/>
<path fill-rule="evenodd" clip-rule="evenodd" d="M864.695 427.96V398.223H810.435V427.96H836.273V453.819H810.435V455.112H864.695V453.819H838.857V427.96H864.695ZM811.726 425.374V399.516H863.404V425.374H811.726Z" fill="#093C70"/>
<path fill-rule="evenodd" clip-rule="evenodd" d="M918.956 427.96V398.223H864.695V427.96H890.534V453.819H864.695V455.112H918.956V453.819H893.118V427.96H918.956ZM865.987 425.374V399.516H917.664V425.374H865.987Z" fill="#093C70"/>
<path fill-rule="evenodd" clip-rule="evenodd" d="M973.218 427.96V398.223H918.957V427.96H944.796V453.819H918.957V455.112H973.218V453.819H947.379V427.96H973.218ZM920.249 425.374V399.516H971.926V425.374H920.249Z" fill="#093C70"/>
<path fill-rule="evenodd" clip-rule="evenodd" d="M1027.48 427.96V398.223H973.218V427.96H999.056V453.819H973.218V455.112H1027.48V453.819H1001.64V427.96H1027.48ZM974.51 425.374V399.516H1026.19V425.374H974.51Z" fill="#093C70"/>
<path fill-rule="evenodd" clip-rule="evenodd" d="M50.7824 484.849V455.111H-3.47852V484.849H22.36V510.707H-3.47852V512H50.7824V510.707H24.9438V484.849H50.7824ZM-2.18659 482.263V456.404H49.4904V482.263H-2.18659Z" fill="#093C70"/>
<path fill-rule="evenodd" clip-rule="evenodd" d="M105.043 484.849V455.111H50.7822V484.849H76.6207V510.707H50.7822V512H105.043V510.707H79.2046V484.849H105.043ZM52.0742 482.263V456.404H103.751V482.263H52.0742Z" fill="#093C70"/>
<path fill-rule="evenodd" clip-rule="evenodd" d="M159.304 484.849V455.111H105.043V484.849H130.881V510.707H105.043V512H159.304V510.707H133.465V484.849H159.304ZM106.335 482.263V456.404H158.012V482.263H106.335Z" fill="#093C70"/>
<path fill-rule="evenodd" clip-rule="evenodd" d="M213.566 484.849V455.111H159.305V484.849H185.143V510.707H159.305V512H213.566V510.707H187.727V484.849H213.566ZM160.597 482.263V456.404H212.274V482.263H160.597Z" fill="#093C70"/>
<path fill-rule="evenodd" clip-rule="evenodd" d="M267.826 484.849V455.111H213.565V484.849H239.404V510.707H213.565V512H267.826V510.707H241.988V484.849H267.826ZM214.857 482.263V456.404H266.534V482.263H214.857Z" fill="#093C70"/>
<path fill-rule="evenodd" clip-rule="evenodd" d="M322.087 484.849V455.111H267.826V484.849H293.665V510.707H267.826V512H322.087V510.707H296.249V484.849H322.087ZM269.118 482.263V456.404H320.795V482.263H269.118Z" fill="#093C70"/>
<path fill-rule="evenodd" clip-rule="evenodd" d="M376.348 484.849V455.111H322.087V484.849H347.925V510.707H322.087V512H376.348V510.707H350.509V484.849H376.348ZM323.379 482.263V456.404H375.056V482.263H323.379Z" fill="#093C70"/>
<path fill-rule="evenodd" clip-rule="evenodd" d="M430.609 484.849V455.111H376.348V484.849H402.186V510.707H376.348V512H430.609V510.707H404.77V484.849H430.609ZM377.64 482.263V456.404H429.317V482.263H377.64Z" fill="#093C70"/>
<path fill-rule="evenodd" clip-rule="evenodd" d="M484.869 484.849V455.111H430.608V484.849H456.447V510.707H430.608V512H484.869V510.707H459.031V484.849H484.869ZM431.9 482.263V456.404H483.577V482.263H431.9Z" fill="#093C70"/>
<path fill-rule="evenodd" clip-rule="evenodd" d="M539.13 484.849V455.111H484.869V484.849H510.708V510.707H484.869V512H539.13V510.707H513.292V484.849H539.13ZM486.161 482.263V456.404H537.838V482.263H486.161Z" fill="#093C70"/>
<path fill-rule="evenodd" clip-rule="evenodd" d="M593.392 484.849V455.111H539.131V484.849H564.969V510.707H539.131V512H593.392V510.707H567.553V484.849H593.392ZM540.423 482.263V456.404H592.1V482.263H540.423Z" fill="#093C70"/>
<path fill-rule="evenodd" clip-rule="evenodd" d="M647.652 484.849V455.111H593.392V484.849H619.23V510.707H593.392V512H647.652V510.707H621.814V484.849H647.652ZM594.684 482.263V456.404H646.361V482.263H594.684Z" fill="#093C70"/>
<path fill-rule="evenodd" clip-rule="evenodd" d="M701.913 484.849V455.111H647.652V484.849H673.491V510.707H647.652V512H701.913V510.707H676.075V484.849H701.913ZM648.944 482.263V456.404H700.621V482.263H648.944Z" fill="#093C70"/>
<path fill-rule="evenodd" clip-rule="evenodd" d="M756.174 484.849V455.111H701.913V484.849H727.752V510.707H701.913V512H756.174V510.707H730.335V484.849H756.174ZM703.205 482.263V456.404H754.882V482.263H703.205Z" fill="#093C70"/>
<path fill-rule="evenodd" clip-rule="evenodd" d="M810.435 484.849V455.111H756.174V484.849H782.012V510.707H756.174V512H810.435V510.707H784.596V484.849H810.435ZM757.466 482.263V456.404H809.143V482.263H757.466Z" fill="#093C70"/>
<path fill-rule="evenodd" clip-rule="evenodd" d="M864.695 484.849V455.111H810.435V484.849H836.273V510.707H810.435V512H864.695V510.707H838.857V484.849H864.695ZM811.726 482.263V456.404H863.404V482.263H811.726Z" fill="#093C70"/>
<path fill-rule="evenodd" clip-rule="evenodd" d="M918.956 484.849V455.111H864.695V484.849H890.534V510.707H864.695V512H918.956V510.707H893.118V484.849H918.956ZM865.987 482.263V456.404H917.664V482.263H865.987Z" fill="#093C70"/>
<path fill-rule="evenodd" clip-rule="evenodd" d="M973.218 484.849V455.111H918.957V484.849H944.796V510.707H918.957V512H973.218V510.707H947.379V484.849H973.218ZM920.249 482.263V456.404H971.926V482.263H920.249Z" fill="#093C70"/>
<path fill-rule="evenodd" clip-rule="evenodd" d="M1027.48 484.849V455.111H973.218V484.849H999.056V510.707H973.218V512H1027.48V510.707H1001.64V484.849H1027.48ZM974.51 482.263V456.404H1026.19V482.263H974.51Z" fill="#093C70"/>
<path fill-rule="evenodd" clip-rule="evenodd" d="M50.7824 541.737V512H-3.47852V541.737H22.36V567.596H-3.47852V568.889H50.7824V567.596H24.9438V541.737H50.7824ZM-2.18659 539.152V513.293H49.4904V539.152H-2.18659Z" fill="#093C70"/>
<path fill-rule="evenodd" clip-rule="evenodd" d="M105.043 541.737V512H50.7822V541.737H76.6207V567.596H50.7822V568.889H105.043V567.596H79.2046V541.737H105.043ZM52.0742 539.152V513.293H103.751V539.152H52.0742Z" fill="#093C70"/>
<path fill-rule="evenodd" clip-rule="evenodd" d="M159.304 541.737V512H105.043V541.737H130.881V567.596H105.043V568.889H159.304V567.596H133.465V541.737H159.304ZM106.335 539.152V513.293H158.012V539.152H106.335Z" fill="#093C70"/>
<path fill-rule="evenodd" clip-rule="evenodd" d="M213.566 541.737V512H159.305V541.737H185.143V567.596H159.305V568.889H213.566V567.596H187.727V541.737H213.566ZM160.597 539.152V513.293H212.274V539.152H160.597Z" fill="#093C70"/>
<path fill-rule="evenodd" clip-rule="evenodd" d="M267.826 541.737V512H213.565V541.737H239.404V567.596H213.565V568.889H267.826V567.596H241.988V541.737H267.826ZM214.857 539.152V513.293H266.534V539.152H214.857Z" fill="#093C70"/>
<path fill-rule="evenodd" clip-rule="evenodd" d="M322.087 541.737V512H267.826V541.737H293.665V567.596H267.826V568.889H322.087V567.596H296.249V541.737H322.087ZM269.118 539.152V513.293H320.795V539.152H269.118Z" fill="#093C70"/>
<path fill-rule="evenodd" clip-rule="evenodd" d="M376.348 541.737V512H322.087V541.737H347.925V567.596H322.087V568.889H376.348V567.596H350.509V541.737H376.348ZM323.379 539.152V513.293H375.056V539.152H323.379Z" fill="#093C70"/>
<path fill-rule="evenodd" clip-rule="evenodd" d="M430.609 541.737V512H376.348V541.737H402.186V567.596H376.348V568.889H430.609V567.596H404.77V541.737H430.609ZM377.64 539.152V513.293H429.317V539.152H377.64Z" fill="#093C70"/>
<path fill-rule="evenodd" clip-rule="evenodd" d="M484.869 541.737V512H430.608V541.737H456.447V567.596H430.608V568.889H484.869V567.596H459.031V541.737H484.869ZM431.9 539.152V513.293H483.577V539.152H431.9Z" fill="#093C70"/>
<path fill-rule="evenodd" clip-rule="evenodd" d="M539.13 541.737V512H484.869V541.737H510.708V567.596H484.869V568.889H539.13V567.596H513.292V541.737H539.13ZM486.161 539.152V513.293H537.838V539.152H486.161Z" fill="#093C70"/>
<path fill-rule="evenodd" clip-rule="evenodd" d="M593.392 541.737V512H539.131V541.737H564.969V567.596H539.131V568.889H593.392V567.596H567.553V541.737H593.392ZM540.423 539.152V513.293H592.1V539.152H540.423Z" fill="#093C70"/>
<path fill-rule="evenodd" clip-rule="evenodd" d="M647.652 541.737V512H593.392V541.737H619.23V567.596H593.392V568.889H647.652V567.596H621.814V541.737H647.652ZM594.684 539.152V513.293H646.361V539.152H594.684Z" fill="#093C70"/>
<path fill-rule="evenodd" clip-rule="evenodd" d="M701.913 541.737V512H647.652V541.737H673.491V567.596H647.652V568.889H701.913V567.596H676.075V541.737H701.913ZM648.944 539.152V513.293H700.621V539.152H648.944Z" fill="#093C70"/>
<path fill-rule="evenodd" clip-rule="evenodd" d="M756.174 541.737V512H701.913V541.737H727.752V567.596H701.913V568.889H756.174V567.596H730.335V541.737H756.174ZM703.205 539.152V513.293H754.882V539.152H703.205Z" fill="#093C70"/>
<path fill-rule="evenodd" clip-rule="evenodd" d="M810.435 541.737V512H756.174V541.737H782.012V567.596H756.174V568.889H810.435V567.596H784.596V541.737H810.435ZM757.466 539.152V513.293H809.143V539.152H757.466Z" fill="#093C70"/>
<path fill-rule="evenodd" clip-rule="evenodd" d="M864.695 541.737V512H810.435V541.737H836.273V567.596H810.435V568.889H864.695V567.596H838.857V541.737H864.695ZM811.726 539.152V513.293H863.404V539.152H811.726Z" fill="#093C70"/>
<path fill-rule="evenodd" clip-rule="evenodd" d="M918.956 541.737V512H864.695V541.737H890.534V567.596H864.695V568.889H918.956V567.596H893.118V541.737H918.956ZM865.987 539.152V513.293H917.664V539.152H865.987Z" fill="#093C70"/>
<path fill-rule="evenodd" clip-rule="evenodd" d="M973.218 541.737V512H918.957V541.737H944.796V567.596H918.957V568.889H973.218V567.596H947.379V541.737H973.218ZM920.249 539.152V513.293H971.926V539.152H920.249Z" fill="#093C70"/>
<path fill-rule="evenodd" clip-rule="evenodd" d="M1027.48 541.737V512H973.218V541.737H999.056V567.596H973.218V568.889H1027.48V567.596H1001.64V541.737H1027.48ZM974.51 539.152V513.293H1026.19V539.152H974.51Z" fill="#093C70"/>
<path fill-rule="evenodd" clip-rule="evenodd" d="M50.7824 598.626V568.889H-3.47852V598.626H22.36V624.485H-3.47852V625.778H50.7824V624.485H24.9438V598.626H50.7824ZM-2.18659 596.04V570.182H49.4904V596.04H-2.18659Z" fill="#093C70"/>
<path fill-rule="evenodd" clip-rule="evenodd" d="M105.043 598.626V568.889H50.7822V598.626H76.6207V624.485H50.7822V625.778H105.043V624.485H79.2046V598.626H105.043ZM52.0742 596.04V570.182H103.751V596.04H52.0742Z" fill="#093C70"/>
<path fill-rule="evenodd" clip-rule="evenodd" d="M159.304 598.626V568.889H105.043V598.626H130.881V624.485H105.043V625.778H159.304V624.485H133.465V598.626H159.304ZM106.335 596.04V570.182H158.012V596.04H106.335Z" fill="#093C70"/>
<path fill-rule="evenodd" clip-rule="evenodd" d="M213.566 598.626V568.889H159.305V598.626H185.143V624.485H159.305V625.778H213.566V624.485H187.727V598.626H213.566ZM160.597 596.04V570.182H212.274V596.04H160.597Z" fill="#093C70"/>
<path fill-rule="evenodd" clip-rule="evenodd" d="M267.826 598.626V568.889H213.565V598.626H239.404V624.485H213.565V625.778H267.826V624.485H241.988V598.626H267.826ZM214.857 596.04V570.182H266.534V596.04H214.857Z" fill="#093C70"/>
<path fill-rule="evenodd" clip-rule="evenodd" d="M322.087 598.626V568.889H267.826V598.626H293.665V624.485H267.826V625.778H322.087V624.485H296.249V598.626H322.087ZM269.118 596.04V570.182H320.795V596.04H269.118Z" fill="#093C70"/>
<path fill-rule="evenodd" clip-rule="evenodd" d="M376.348 598.626V568.889H322.087V598.626H347.925V624.485H322.087V625.778H376.348V624.485H350.509V598.626H376.348ZM323.379 596.04V570.182H375.056V596.04H323.379Z" fill="#093C70"/>
<path fill-rule="evenodd" clip-rule="evenodd" d="M430.609 598.626V568.889H376.348V598.626H402.186V624.485H376.348V625.778H430.609V624.485H404.77V598.626H430.609ZM377.64 596.04V570.182H429.317V596.04H377.64Z" fill="#093C70"/>
<path fill-rule="evenodd" clip-rule="evenodd" d="M484.869 598.626V568.889H430.608V598.626H456.447V624.485H430.608V625.778H484.869V624.485H459.031V598.626H484.869ZM431.9 596.04V570.182H483.577V596.04H431.9Z" fill="#093C70"/>
<path fill-rule="evenodd" clip-rule="evenodd" d="M539.13 598.626V568.889H484.869V598.626H510.708V624.485H484.869V625.778H539.13V624.485H513.292V598.626H539.13ZM486.161 596.04V570.182H537.838V596.04H486.161Z" fill="#093C70"/>
<path fill-rule="evenodd" clip-rule="evenodd" d="M593.392 598.626V568.889H539.131V598.626H564.969V624.485H539.131V625.778H593.392V624.485H567.553V598.626H593.392ZM540.423 596.04V570.182H592.1V596.04H540.423Z" fill="#093C70"/>
<path fill-rule="evenodd" clip-rule="evenodd" d="M647.652 598.626V568.889H593.392V598.626H619.23V624.485H593.392V625.778H647.652V624.485H621.814V598.626H647.652ZM594.684 596.04V570.182H646.361V596.04H594.684Z" fill="#093C70"/>
<path fill-rule="evenodd" clip-rule="evenodd" d="M701.913 598.626V568.889H647.652V598.626H673.491V624.485H647.652V625.778H701.913V624.485H676.075V598.626H701.913ZM648.944 596.04V570.182H700.621V596.04H648.944Z" fill="#093C70"/>
<path fill-rule="evenodd" clip-rule="evenodd" d="M756.174 598.626V568.889H701.913V598.626H727.752V624.485H701.913V625.778H756.174V624.485H730.335V598.626H756.174ZM703.205 596.04V570.182H754.882V596.04H703.205Z" fill="#093C70"/>
<path fill-rule="evenodd" clip-rule="evenodd" d="M810.435 598.626V568.889H756.174V598.626H782.012V624.485H756.174V625.778H810.435V624.485H784.596V598.626H810.435ZM757.466 596.04V570.182H809.143V596.04H757.466Z" fill="#093C70"/>
<path fill-rule="evenodd" clip-rule="evenodd" d="M864.695 598.626V568.889H810.435V598.626H836.273V624.485H810.435V625.778H864.695V624.485H838.857V598.626H864.695ZM811.726 596.04V570.182H863.404V596.04H811.726Z" fill="#093C70"/>
<path fill-rule="evenodd" clip-rule="evenodd" d="M918.956 598.626V568.889H864.695V598.626H890.534V624.485H864.695V625.778H918.956V624.485H893.118V598.626H918.956ZM865.987 596.04V570.182H917.664V596.04H865.987Z" fill="#093C70"/>
<path fill-rule="evenodd" clip-rule="evenodd" d="M973.218 598.626V568.889H918.957V598.626H944.796V624.485H918.957V625.778H973.218V624.485H947.379V598.626H973.218ZM920.249 596.04V570.182H971.926V596.04H920.249Z" fill="#093C70"/>
<path fill-rule="evenodd" clip-rule="evenodd" d="M1027.48 598.626V568.889H973.218V598.626H999.056V624.485H973.218V625.778H1027.48V624.485H1001.64V598.626H1027.48ZM974.51 596.04V570.182H1026.19V596.04H974.51Z" fill="#093C70"/>
<path fill-rule="evenodd" clip-rule="evenodd" d="M50.7824 655.515V625.777H-3.47852V655.515H22.36V681.373H-3.47852V682.666H50.7824V681.373H24.9438V655.515H50.7824ZM-2.18659 652.929V627.07H49.4904V652.929H-2.18659Z" fill="#093C70"/>
<path fill-rule="evenodd" clip-rule="evenodd" d="M105.043 655.515V625.777H50.7822V655.515H76.6207V681.373H50.7822V682.666H105.043V681.373H79.2046V655.515H105.043ZM52.0742 652.929V627.07H103.751V652.929H52.0742Z" fill="#093C70"/>
<path fill-rule="evenodd" clip-rule="evenodd" d="M159.304 655.515V625.777H105.043V655.515H130.881V681.373H105.043V682.666H159.304V681.373H133.465V655.515H159.304ZM106.335 652.929V627.07H158.012V652.929H106.335Z" fill="#093C70"/>
<path fill-rule="evenodd" clip-rule="evenodd" d="M213.566 655.515V625.777H159.305V655.515H185.143V681.373H159.305V682.666H213.566V681.373H187.727V655.515H213.566ZM160.597 652.929V627.07H212.274V652.929H160.597Z" fill="#093C70"/>
<path fill-rule="evenodd" clip-rule="evenodd" d="M267.826 655.515V625.777H213.565V655.515H239.404V681.373H213.565V682.666H267.826V681.373H241.988V655.515H267.826ZM214.857 652.929V627.07H266.534V652.929H214.857Z" fill="#093C70"/>
<path fill-rule="evenodd" clip-rule="evenodd" d="M322.087 655.515V625.777H267.826V655.515H293.665V681.373H267.826V682.666H322.087V681.373H296.249V655.515H322.087ZM269.118 652.929V627.07H320.795V652.929H269.118Z" fill="#093C70"/>
<path fill-rule="evenodd" clip-rule="evenodd" d="M376.348 655.515V625.777H322.087V655.515H347.925V681.373H322.087V682.666H376.348V681.373H350.509V655.515H376.348ZM323.379 652.929V627.07H375.056V652.929H323.379Z" fill="#093C70"/>
<path fill-rule="evenodd" clip-rule="evenodd" d="M430.609 655.515V625.777H376.348V655.515H402.186V681.373H376.348V682.666H430.609V681.373H404.77V655.515H430.609ZM377.64 652.929V627.07H429.317V652.929H377.64Z" fill="#093C70"/>
<path fill-rule="evenodd" clip-rule="evenodd" d="M484.869 655.515V625.777H430.608V655.515H456.447V681.373H430.608V682.666H484.869V681.373H459.031V655.515H484.869ZM431.9 652.929V627.07H483.577V652.929H431.9Z" fill="#093C70"/>
<path fill-rule="evenodd" clip-rule="evenodd" d="M539.13 655.515V625.777H484.869V655.515H510.708V681.373H484.869V682.666H539.13V681.373H513.292V655.515H539.13ZM486.161 652.929V627.07H537.838V652.929H486.161Z" fill="#093C70"/>
<path fill-rule="evenodd" clip-rule="evenodd" d="M593.392 655.515V625.777H539.131V655.515H564.969V681.373H539.131V682.666H593.392V681.373H567.553V655.515H593.392ZM540.423 652.929V627.07H592.1V652.929H540.423Z" fill="#093C70"/>
<path fill-rule="evenodd" clip-rule="evenodd" d="M647.652 655.515V625.777H593.392V655.515H619.23V681.373H593.392V682.666H647.652V681.373H621.814V655.515H647.652ZM594.684 652.929V627.07H646.361V652.929H594.684Z" fill="#093C70"/>
<path fill-rule="evenodd" clip-rule="evenodd" d="M701.913 655.515V625.777H647.652V655.515H673.491V681.373H647.652V682.666H701.913V681.373H676.075V655.515H701.913ZM648.944 652.929V627.07H700.621V652.929H648.944Z" fill="#093C70"/>
<path fill-rule="evenodd" clip-rule="evenodd" d="M756.174 655.515V625.777H701.913V655.515H727.752V681.373H701.913V682.666H756.174V681.373H730.335V655.515H756.174ZM703.205 652.929V627.07H754.882V652.929H703.205Z" fill="#093C70"/>
<path fill-rule="evenodd" clip-rule="evenodd" d="M810.435 655.515V625.777H756.174V655.515H782.012V681.373H756.174V682.666H810.435V681.373H784.596V655.515H810.435ZM757.466 652.929V627.07H809.143V652.929H757.466Z" fill="#093C70"/>
<path fill-rule="evenodd" clip-rule="evenodd" d="M864.695 655.515V625.777H810.435V655.515H836.273V681.373H810.435V682.666H864.695V681.373H838.857V655.515H864.695ZM811.726 652.929V627.07H863.404V652.929H811.726Z" fill="#093C70"/>
<path fill-rule="evenodd" clip-rule="evenodd" d="M918.956 655.515V625.777H864.695V655.515H890.534V681.373H864.695V682.666H918.956V681.373H893.118V655.515H918.956ZM865.987 652.929V627.07H917.664V652.929H865.987Z" fill="#093C70"/>
<path fill-rule="evenodd" clip-rule="evenodd" d="M973.218 655.515V625.777H918.957V655.515H944.796V681.373H918.957V682.666H973.218V681.373H947.379V655.515H973.218ZM920.249 652.929V627.07H971.926V652.929H920.249Z" fill="#093C70"/>
<path fill-rule="evenodd" clip-rule="evenodd" d="M1027.48 655.515V625.777H973.218V655.515H999.056V681.373H973.218V682.666H1027.48V681.373H1001.64V655.515H1027.48ZM974.51 652.929V627.07H1026.19V652.929H974.51Z" fill="#093C70"/>
<path fill-rule="evenodd" clip-rule="evenodd" d="M50.7824 712.404V682.667H-3.47852V712.404H22.36V738.263H-3.47852V739.556H50.7824V738.263H24.9438V712.404H50.7824ZM-2.18659 709.819V683.96H49.4904V709.819H-2.18659Z" fill="#093C70"/>
<path fill-rule="evenodd" clip-rule="evenodd" d="M105.043 712.404V682.667H50.7822V712.404H76.6207V738.263H50.7822V739.556H105.043V738.263H79.2046V712.404H105.043ZM52.0742 709.819V683.96H103.751V709.819H52.0742Z" fill="#093C70"/>
<path fill-rule="evenodd" clip-rule="evenodd" d="M159.304 712.404V682.667H105.043V712.404H130.881V738.263H105.043V739.556H159.304V738.263H133.465V712.404H159.304ZM106.335 709.819V683.96H158.012V709.819H106.335Z" fill="#093C70"/>
<path fill-rule="evenodd" clip-rule="evenodd" d="M213.566 712.404V682.667H159.305V712.404H185.143V738.263H159.305V739.556H213.566V738.263H187.727V712.404H213.566ZM160.597 709.819V683.96H212.274V709.819H160.597Z" fill="#093C70"/>
<path fill-rule="evenodd" clip-rule="evenodd" d="M267.826 712.404V682.667H213.565V712.404H239.404V738.263H213.565V739.556H267.826V738.263H241.988V712.404H267.826ZM214.857 709.819V683.96H266.534V709.819H214.857Z" fill="#093C70"/>
<path fill-rule="evenodd" clip-rule="evenodd" d="M322.087 712.404V682.667H267.826V712.404H293.665V738.263H267.826V739.556H322.087V738.263H296.249V712.404H322.087ZM269.118 709.819V683.96H320.795V709.819H269.118Z" fill="#093C70"/>
<path fill-rule="evenodd" clip-rule="evenodd" d="M376.348 712.404V682.667H322.087V712.404H347.925V738.263H322.087V739.556H376.348V738.263H350.509V712.404H376.348ZM323.379 709.819V683.96H375.056V709.819H323.379Z" fill="#093C70"/>
<path fill-rule="evenodd" clip-rule="evenodd" d="M430.609 712.404V682.667H376.348V712.404H402.186V738.263H376.348V739.556H430.609V738.263H404.77V712.404H430.609ZM377.64 709.819V683.96H429.317V709.819H377.64Z" fill="#093C70"/>
<path fill-rule="evenodd" clip-rule="evenodd" d="M484.869 712.404V682.667H430.608V712.404H456.447V738.263H430.608V739.556H484.869V738.263H459.031V712.404H484.869ZM431.9 709.819V683.96H483.577V709.819H431.9Z" fill="#093C70"/>
<path fill-rule="evenodd" clip-rule="evenodd" d="M539.13 712.404V682.667H484.869V712.404H510.708V738.263H484.869V739.556H539.13V738.263H513.292V712.404H539.13ZM486.161 709.819V683.96H537.838V709.819H486.161Z" fill="#093C70"/>
<path fill-rule="evenodd" clip-rule="evenodd" d="M593.392 712.404V682.667H539.131V712.404H564.969V738.263H539.131V739.556H593.392V738.263H567.553V712.404H593.392ZM540.423 709.819V683.96H592.1V709.819H540.423Z" fill="#093C70"/>
<path fill-rule="evenodd" clip-rule="evenodd" d="M647.652 712.404V682.667H593.392V712.404H619.23V738.263H593.392V739.556H647.652V738.263H621.814V712.404H647.652ZM594.684 709.819V683.96H646.361V709.819H594.684Z" fill="#093C70"/>
<path fill-rule="evenodd" clip-rule="evenodd" d="M701.913 712.404V682.667H647.652V712.404H673.491V738.263H647.652V739.556H701.913V738.263H676.075V712.404H701.913ZM648.944 709.819V683.96H700.621V709.819H648.944Z" fill="#093C70"/>
<path fill-rule="evenodd" clip-rule="evenodd" d="M756.174 712.404V682.667H701.913V712.404H727.752V738.263H701.913V739.556H756.174V738.263H730.335V712.404H756.174ZM703.205 709.819V683.96H754.882V709.819H703.205Z" fill="#093C70"/>
<path fill-rule="evenodd" clip-rule="evenodd" d="M810.435 712.404V682.667H756.174V712.404H782.012V738.263H756.174V739.556H810.435V738.263H784.596V712.404H810.435ZM757.466 709.819V683.96H809.143V709.819H757.466Z" fill="#093C70"/>
<path fill-rule="evenodd" clip-rule="evenodd" d="M864.695 712.404V682.667H810.435V712.404H836.273V738.263H810.435V739.556H864.695V738.263H838.857V712.404H864.695ZM811.726 709.819V683.96H863.404V709.819H811.726Z" fill="#093C70"/>
<path fill-rule="evenodd" clip-rule="evenodd" d="M918.956 712.404V682.667H864.695V712.404H890.534V738.263H864.695V739.556H918.956V738.263H893.118V712.404H918.956ZM865.987 709.819V683.96H917.664V709.819H865.987Z" fill="#093C70"/>
<path fill-rule="evenodd" clip-rule="evenodd" d="M973.218 712.404V682.667H918.957V712.404H944.796V738.263H918.957V739.556H973.218V738.263H947.379V712.404H973.218ZM920.249 709.819V683.96H971.926V709.819H920.249Z" fill="#093C70"/>
<path fill-rule="evenodd" clip-rule="evenodd" d="M1027.48 712.404V682.667H973.218V712.404H999.056V738.263H973.218V739.556H1027.48V738.263H1001.64V712.404H1027.48ZM974.51 709.819V683.96H1026.19V709.819H974.51Z" fill="#093C70"/>
<path fill-rule="evenodd" clip-rule="evenodd" d="M50.7824 769.293V739.556H-3.47852V769.293H22.36V795.152H-3.47852V796.445H50.7824V795.152H24.9438V769.293H50.7824ZM-2.18659 766.707V740.849H49.4904V766.707H-2.18659Z" fill="#093C70"/>
<path fill-rule="evenodd" clip-rule="evenodd" d="M105.043 769.293V739.556H50.7822V769.293H76.6207V795.152H50.7822V796.445H105.043V795.152H79.2046V769.293H105.043ZM52.0742 766.707V740.849H103.751V766.707H52.0742Z" fill="#093C70"/>
<path fill-rule="evenodd" clip-rule="evenodd" d="M159.304 769.293V739.556H105.043V769.293H130.881V795.152H105.043V796.445H159.304V795.152H133.465V769.293H159.304ZM106.335 766.707V740.849H158.012V766.707H106.335Z" fill="#093C70"/>
<path fill-rule="evenodd" clip-rule="evenodd" d="M213.566 769.293V739.556H159.305V769.293H185.143V795.152H159.305V796.445H213.566V795.152H187.727V769.293H213.566ZM160.597 766.707V740.849H212.274V766.707H160.597Z" fill="#093C70"/>
<path fill-rule="evenodd" clip-rule="evenodd" d="M267.826 769.293V739.556H213.565V769.293H239.404V795.152H213.565V796.445H267.826V795.152H241.988V769.293H267.826ZM214.857 766.707V740.849H266.534V766.707H214.857Z" fill="#093C70"/>
<path fill-rule="evenodd" clip-rule="evenodd" d="M322.087 769.293V739.556H267.826V769.293H293.665V795.152H267.826V796.445H322.087V795.152H296.249V769.293H322.087ZM269.118 766.707V740.849H320.795V766.707H269.118Z" fill="#093C70"/>
<path fill-rule="evenodd" clip-rule="evenodd" d="M376.348 769.293V739.556H322.087V769.293H347.925V795.152H322.087V796.445H376.348V795.152H350.509V769.293H376.348ZM323.379 766.707V740.849H375.056V766.707H323.379Z" fill="#093C70"/>
<path fill-rule="evenodd" clip-rule="evenodd" d="M430.609 769.293V739.556H376.348V769.293H402.186V795.152H376.348V796.445H430.609V795.152H404.77V769.293H430.609ZM377.64 766.707V740.849H429.317V766.707H377.64Z" fill="#093C70"/>
<path fill-rule="evenodd" clip-rule="evenodd" d="M484.869 769.293V739.556H430.608V769.293H456.447V795.152H430.608V796.445H484.869V795.152H459.031V769.293H484.869ZM431.9 766.707V740.849H483.577V766.707H431.9Z" fill="#093C70"/>
<path fill-rule="evenodd" clip-rule="evenodd" d="M539.13 769.293V739.556H484.869V769.293H510.708V795.152H484.869V796.445H539.13V795.152H513.292V769.293H539.13ZM486.161 766.707V740.849H537.838V766.707H486.161Z" fill="#093C70"/>
<path fill-rule="evenodd" clip-rule="evenodd" d="M593.392 769.293V739.556H539.131V769.293H564.969V795.152H539.131V796.445H593.392V795.152H567.553V769.293H593.392ZM540.423 766.707V740.849H592.1V766.707H540.423Z" fill="#093C70"/>
<path fill-rule="evenodd" clip-rule="evenodd" d="M647.652 769.293V739.556H593.392V769.293H619.23V795.152H593.392V796.445H647.652V795.152H621.814V769.293H647.652ZM594.684 766.707V740.849H646.361V766.707H594.684Z" fill="#093C70"/>
<path fill-rule="evenodd" clip-rule="evenodd" d="M701.913 769.293V739.556H647.652V769.293H673.491V795.152H647.652V796.445H701.913V795.152H676.075V769.293H701.913ZM648.944 766.707V740.849H700.621V766.707H648.944Z" fill="#093C70"/>
<path fill-rule="evenodd" clip-rule="evenodd" d="M756.174 769.293V739.556H701.913V769.293H727.752V795.152H701.913V796.445H756.174V795.152H730.335V769.293H756.174ZM703.205 766.707V740.849H754.882V766.707H703.205Z" fill="#093C70"/>
<path fill-rule="evenodd" clip-rule="evenodd" d="M810.435 769.293V739.556H756.174V769.293H782.012V795.152H756.174V796.445H810.435V795.152H784.596V769.293H810.435ZM757.466 766.707V740.849H809.143V766.707H757.466Z" fill="#093C70"/>
<path fill-rule="evenodd" clip-rule="evenodd" d="M864.695 769.293V739.556H810.435V769.293H836.273V795.152H810.435V796.445H864.695V795.152H838.857V769.293H864.695ZM811.726 766.707V740.849H863.404V766.707H811.726Z" fill="#093C70"/>
<path fill-rule="evenodd" clip-rule="evenodd" d="M918.956 769.293V739.556H864.695V769.293H890.534V795.152H864.695V796.445H918.956V795.152H893.118V769.293H918.956ZM865.987 766.707V740.849H917.664V766.707H865.987Z" fill="#093C70"/>
<path fill-rule="evenodd" clip-rule="evenodd" d="M973.218 769.293V739.556H918.957V769.293H944.796V795.152H918.957V796.445H973.218V795.152H947.379V769.293H973.218ZM920.249 766.707V740.849H971.926V766.707H920.249Z" fill="#093C70"/>
<path fill-rule="evenodd" clip-rule="evenodd" d="M1027.48 769.293V739.556H973.218V769.293H999.056V795.152H973.218V796.445H1027.48V795.152H1001.64V769.293H1027.48ZM974.51 766.707V740.849H1026.19V766.707H974.51Z" fill="#093C70"/>
<path fill-rule="evenodd" clip-rule="evenodd" d="M50.7824 826.182V796.444H-3.47852V826.182H22.36V852.04H-3.47852V853.333H50.7824V852.04H24.9438V826.182H50.7824ZM-2.18659 823.596V797.737H49.4904V823.596H-2.18659Z" fill="#093C70"/>
<path fill-rule="evenodd" clip-rule="evenodd" d="M105.043 826.182V796.444H50.7822V826.182H76.6207V852.04H50.7822V853.333H105.043V852.04H79.2046V826.182H105.043ZM52.0742 823.596V797.737H103.751V823.596H52.0742Z" fill="#093C70"/>
<path fill-rule="evenodd" clip-rule="evenodd" d="M159.304 826.182V796.444H105.043V826.182H130.881V852.04H105.043V853.333H159.304V852.04H133.465V826.182H159.304ZM106.335 823.596V797.737H158.012V823.596H106.335Z" fill="#093C70"/>
<path fill-rule="evenodd" clip-rule="evenodd" d="M213.566 826.182V796.444H159.305V826.182H185.143V852.04H159.305V853.333H213.566V852.04H187.727V826.182H213.566ZM160.597 823.596V797.737H212.274V823.596H160.597Z" fill="#093C70"/>
<path fill-rule="evenodd" clip-rule="evenodd" d="M267.826 826.182V796.444H213.565V826.182H239.404V852.04H213.565V853.333H267.826V852.04H241.988V826.182H267.826ZM214.857 823.596V797.737H266.534V823.596H214.857Z" fill="#093C70"/>
<path fill-rule="evenodd" clip-rule="evenodd" d="M322.087 826.182V796.444H267.826V826.182H293.665V852.04H267.826V853.333H322.087V852.04H296.249V826.182H322.087ZM269.118 823.596V797.737H320.795V823.596H269.118Z" fill="#093C70"/>
<path fill-rule="evenodd" clip-rule="evenodd" d="M376.348 826.182V796.444H322.087V826.182H347.925V852.04H322.087V853.333H376.348V852.04H350.509V826.182H376.348ZM323.379 823.596V797.737H375.056V823.596H323.379Z" fill="#093C70"/>
<path fill-rule="evenodd" clip-rule="evenodd" d="M430.609 826.182V796.444H376.348V826.182H402.186V852.04H376.348V853.333H430.609V852.04H404.77V826.182H430.609ZM377.64 823.596V797.737H429.317V823.596H377.64Z" fill="#093C70"/>
<path fill-rule="evenodd" clip-rule="evenodd" d="M484.869 826.182V796.444H430.608V826.182H456.447V852.04H430.608V853.333H484.869V852.04H459.031V826.182H484.869ZM431.9 823.596V797.737H483.577V823.596H431.9Z" fill="#093C70"/>
<path fill-rule="evenodd" clip-rule="evenodd" d="M539.13 826.182V796.444H484.869V826.182H510.708V852.04H484.869V853.333H539.13V852.04H513.292V826.182H539.13ZM486.161 823.596V797.737H537.838V823.596H486.161Z" fill="#093C70"/>
<path fill-rule="evenodd" clip-rule="evenodd" d="M593.392 826.182V796.444H539.131V826.182H564.969V852.04H539.131V853.333H593.392V852.04H567.553V826.182H593.392ZM540.423 823.596V797.737H592.1V823.596H540.423Z" fill="#093C70"/>
<path fill-rule="evenodd" clip-rule="evenodd" d="M647.652 826.182V796.444H593.392V826.182H619.23V852.04H593.392V853.333H647.652V852.04H621.814V826.182H647.652ZM594.684 823.596V797.737H646.361V823.596H594.684Z" fill="#093C70"/>
<path fill-rule="evenodd" clip-rule="evenodd" d="M701.913 826.182V796.444H647.652V826.182H673.491V852.04H647.652V853.333H701.913V852.04H676.075V826.182H701.913ZM648.944 823.596V797.737H700.621V823.596H648.944Z" fill="#093C70"/>
<path fill-rule="evenodd" clip-rule="evenodd" d="M756.174 826.182V796.444H701.913V826.182H727.752V852.04H701.913V853.333H756.174V852.04H730.335V826.182H756.174ZM703.205 823.596V797.737H754.882V823.596H703.205Z" fill="#093C70"/>
<path fill-rule="evenodd" clip-rule="evenodd" d="M810.435 826.182V796.444H756.174V826.182H782.012V852.04H756.174V853.333H810.435V852.04H784.596V826.182H810.435ZM757.466 823.596V797.737H809.143V823.596H757.466Z" fill="#093C70"/>
<path fill-rule="evenodd" clip-rule="evenodd" d="M864.695 826.182V796.444H810.435V826.182H836.273V852.04H810.435V853.333H864.695V852.04H838.857V826.182H864.695ZM811.726 823.596V797.737H863.404V823.596H811.726Z" fill="#093C70"/>
<path fill-rule="evenodd" clip-rule="evenodd" d="M918.956 826.182V796.444H864.695V826.182H890.534V852.04H864.695V853.333H918.956V852.04H893.118V826.182H918.956ZM865.987 823.596V797.737H917.664V823.596H865.987Z" fill="#093C70"/>
<path fill-rule="evenodd" clip-rule="evenodd" d="M973.218 826.182V796.444H918.957V826.182H944.796V852.04H918.957V853.333H973.218V852.04H947.379V826.182H973.218ZM920.249 823.596V797.737H971.926V823.596H920.249Z" fill="#093C70"/>
<path fill-rule="evenodd" clip-rule="evenodd" d="M1027.48 826.182V796.444H973.218V826.182H999.056V852.04H973.218V853.333H1027.48V852.04H1001.64V826.182H1027.48ZM974.51 823.596V797.737H1026.19V823.596H974.51Z" fill="#093C70"/>
<path fill-rule="evenodd" clip-rule="evenodd" d="M50.7824 883.07V853.333H-3.47852V883.07H22.36V908.929H-3.47852V910.222H50.7824V908.929H24.9438V883.07H50.7824ZM-2.18659 880.485V854.626H49.4904V880.485H-2.18659Z" fill="#093C70"/>
<path fill-rule="evenodd" clip-rule="evenodd" d="M105.043 883.07V853.333H50.7822V883.07H76.6207V908.929H50.7822V910.222H105.043V908.929H79.2046V883.07H105.043ZM52.0742 880.485V854.626H103.751V880.485H52.0742Z" fill="#093C70"/>
<path fill-rule="evenodd" clip-rule="evenodd" d="M159.304 883.07V853.333H105.043V883.07H130.881V908.929H105.043V910.222H159.304V908.929H133.465V883.07H159.304ZM106.335 880.485V854.626H158.012V880.485H106.335Z" fill="#093C70"/>
<path fill-rule="evenodd" clip-rule="evenodd" d="M213.566 883.07V853.333H159.305V883.07H185.143V908.929H159.305V910.222H213.566V908.929H187.727V883.07H213.566ZM160.597 880.485V854.626H212.274V880.485H160.597Z" fill="#093C70"/>
<path fill-rule="evenodd" clip-rule="evenodd" d="M267.826 883.07V853.333H213.565V883.07H239.404V908.929H213.565V910.222H267.826V908.929H241.988V883.07H267.826ZM214.857 880.485V854.626H266.534V880.485H214.857Z" fill="#093C70"/>
<path fill-rule="evenodd" clip-rule="evenodd" d="M322.087 883.07V853.333H267.826V883.07H293.665V908.929H267.826V910.222H322.087V908.929H296.249V883.07H322.087ZM269.118 880.485V854.626H320.795V880.485H269.118Z" fill="#093C70"/>
<path fill-rule="evenodd" clip-rule="evenodd" d="M376.348 883.07V853.333H322.087V883.07H347.925V908.929H322.087V910.222H376.348V908.929H350.509V883.07H376.348ZM323.379 880.485V854.626H375.056V880.485H323.379Z" fill="#093C70"/>
<path fill-rule="evenodd" clip-rule="evenodd" d="M430.609 883.07V853.333H376.348V883.07H402.186V908.929H376.348V910.222H430.609V908.929H404.77V883.07H430.609ZM377.64 880.485V854.626H429.317V880.485H377.64Z" fill="#093C70"/>
<path fill-rule="evenodd" clip-rule="evenodd" d="M484.869 883.07V853.333H430.608V883.07H456.447V908.929H430.608V910.222H484.869V908.929H459.031V883.07H484.869ZM431.9 880.485V854.626H483.577V880.485H431.9Z" fill="#093C70"/>
<path fill-rule="evenodd" clip-rule="evenodd" d="M539.13 883.07V853.333H484.869V883.07H510.708V908.929H484.869V910.222H539.13V908.929H513.292V883.07H539.13ZM486.161 880.485V854.626H537.838V880.485H486.161Z" fill="#093C70"/>
<path fill-rule="evenodd" clip-rule="evenodd" d="M593.392 883.07V853.333H539.131V883.07H564.969V908.929H539.131V910.222H593.392V908.929H567.553V883.07H593.392ZM540.423 880.485V854.626H592.1V880.485H540.423Z" fill="#093C70"/>
<path fill-rule="evenodd" clip-rule="evenodd" d="M647.652 883.07V853.333H593.392V883.07H619.23V908.929H593.392V910.222H647.652V908.929H621.814V883.07H647.652ZM594.684 880.485V854.626H646.361V880.485H594.684Z" fill="#093C70"/>
<path fill-rule="evenodd" clip-rule="evenodd" d="M701.913 883.07V853.333H647.652V883.07H673.491V908.929H647.652V910.222H701.913V908.929H676.075V883.07H701.913ZM648.944 880.485V854.626H700.621V880.485H648.944Z" fill="#093C70"/>
<path fill-rule="evenodd" clip-rule="evenodd" d="M756.174 883.07V853.333H701.913V883.07H727.752V908.929H701.913V910.222H756.174V908.929H730.335V883.07H756.174ZM703.205 880.485V854.626H754.882V880.485H703.205Z" fill="#093C70"/>
<path fill-rule="evenodd" clip-rule="evenodd" d="M810.435 883.07V853.333H756.174V883.07H782.012V908.929H756.174V910.222H810.435V908.929H784.596V883.07H810.435ZM757.466 880.485V854.626H809.143V880.485H757.466Z" fill="#093C70"/>
<path fill-rule="evenodd" clip-rule="evenodd" d="M864.695 883.07V853.333H810.435V883.07H836.273V908.929H810.435V910.222H864.695V908.929H838.857V883.07H864.695ZM811.726 880.485V854.626H863.404V880.485H811.726Z" fill="#093C70"/>
<path fill-rule="evenodd" clip-rule="evenodd" d="M918.956 883.07V853.333H864.695V883.07H890.534V908.929H864.695V910.222H918.956V908.929H893.118V883.07H918.956ZM865.987 880.485V854.626H917.664V880.485H865.987Z" fill="#093C70"/>
<path fill-rule="evenodd" clip-rule="evenodd" d="M973.218 883.07V853.333H918.957V883.07H944.796V908.929H918.957V910.222H973.218V908.929H947.379V883.07H973.218ZM920.249 880.485V854.626H971.926V880.485H920.249Z" fill="#093C70"/>
<path fill-rule="evenodd" clip-rule="evenodd" d="M1027.48 883.07V853.333H973.218V883.07H999.056V908.929H973.218V910.222H1027.48V908.929H1001.64V883.07H1027.48ZM974.51 880.485V854.626H1026.19V880.485H974.51Z" fill="#093C70"/>
<path fill-rule="evenodd" clip-rule="evenodd" d="M50.7824 939.96V910.223H-3.47852V939.96H22.36V965.819H-3.47852V967.112H50.7824V965.819H24.9438V939.96H50.7824ZM-2.18659 937.374V911.516H49.4904V937.374H-2.18659Z" fill="#093C70"/>
<path fill-rule="evenodd" clip-rule="evenodd" d="M105.043 939.96V910.223H50.7822V939.96H76.6207V965.819H50.7822V967.112H105.043V965.819H79.2046V939.96H105.043ZM52.0742 937.374V911.516H103.751V937.374H52.0742Z" fill="#093C70"/>
<path fill-rule="evenodd" clip-rule="evenodd" d="M159.304 939.96V910.223H105.043V939.96H130.881V965.819H105.043V967.112H159.304V965.819H133.465V939.96H159.304ZM106.335 937.374V911.516H158.012V937.374H106.335Z" fill="#093C70"/>
<path fill-rule="evenodd" clip-rule="evenodd" d="M213.566 939.96V910.223H159.305V939.96H185.143V965.819H159.305V967.112H213.566V965.819H187.727V939.96H213.566ZM160.597 937.374V911.516H212.274V937.374H160.597Z" fill="#093C70"/>
<path fill-rule="evenodd" clip-rule="evenodd" d="M267.826 939.96V910.223H213.565V939.96H239.404V965.819H213.565V967.112H267.826V965.819H241.988V939.96H267.826ZM214.857 937.374V911.516H266.534V937.374H214.857Z" fill="#093C70"/>
<path fill-rule="evenodd" clip-rule="evenodd" d="M322.087 939.96V910.223H267.826V939.96H293.665V965.819H267.826V967.112H322.087V965.819H296.249V939.96H322.087ZM269.118 937.374V911.516H320.795V937.374H269.118Z" fill="#093C70"/>
<path fill-rule="evenodd" clip-rule="evenodd" d="M376.348 939.96V910.223H322.087V939.96H347.925V965.819H322.087V967.112H376.348V965.819H350.509V939.96H376.348ZM323.379 937.374V911.516H375.056V937.374H323.379Z" fill="#093C70"/>
<path fill-rule="evenodd" clip-rule="evenodd" d="M430.609 939.96V910.223H376.348V939.96H402.186V965.819H376.348V967.112H430.609V965.819H404.77V939.96H430.609ZM377.64 937.374V911.516H429.317V937.374H377.64Z" fill="#093C70"/>
<path fill-rule="evenodd" clip-rule="evenodd" d="M484.869 939.96V910.223H430.608V939.96H456.447V965.819H430.608V967.112H484.869V965.819H459.031V939.96H484.869ZM431.9 937.374V911.516H483.577V937.374H431.9Z" fill="#093C70"/>
<path fill-rule="evenodd" clip-rule="evenodd" d="M539.13 939.96V910.223H484.869V939.96H510.708V965.819H484.869V967.112H539.13V965.819H513.292V939.96H539.13ZM486.161 937.374V911.516H537.838V937.374H486.161Z" fill="#093C70"/>
<path fill-rule="evenodd" clip-rule="evenodd" d="M593.392 939.96V910.223H539.131V939.96H564.969V965.819H539.131V967.112H593.392V965.819H567.553V939.96H593.392ZM540.423 937.374V911.516H592.1V937.374H540.423Z" fill="#093C70"/>
<path fill-rule="evenodd" clip-rule="evenodd" d="M647.652 939.96V910.223H593.392V939.96H619.23V965.819H593.392V967.112H647.652V965.819H621.814V939.96H647.652ZM594.684 937.374V911.516H646.361V937.374H594.684Z" fill="#093C70"/>
<path fill-rule="evenodd" clip-rule="evenodd" d="M701.913 939.96V910.223H647.652V939.96H673.491V965.819H647.652V967.112H701.913V965.819H676.075V939.96H701.913ZM648.944 937.374V911.516H700.621V937.374H648.944Z" fill="#093C70"/>
<path fill-rule="evenodd" clip-rule="evenodd" d="M756.174 939.96V910.223H701.913V939.96H727.752V965.819H701.913V967.112H756.174V965.819H730.335V939.96H756.174ZM703.205 937.374V911.516H754.882V937.374H703.205Z" fill="#093C70"/>
<path fill-rule="evenodd" clip-rule="evenodd" d="M810.435 939.96V910.223H756.174V939.96H782.012V965.819H756.174V967.112H810.435V965.819H784.596V939.96H810.435ZM757.466 937.374V911.516H809.143V937.374H757.466Z" fill="#093C70"/>
<path fill-rule="evenodd" clip-rule="evenodd" d="M864.695 939.96V910.223H810.435V939.96H836.273V965.819H810.435V967.112H864.695V965.819H838.857V939.96H864.695ZM811.726 937.374V911.516H863.404V937.374H811.726Z" fill="#093C70"/>
<path fill-rule="evenodd" clip-rule="evenodd" d="M918.956 939.96V910.223H864.695V939.96H890.534V965.819H864.695V967.112H918.956V965.819H893.118V939.96H918.956ZM865.987 937.374V911.516H917.664V937.374H865.987Z" fill="#093C70"/>
<path fill-rule="evenodd" clip-rule="evenodd" d="M973.218 939.96V910.223H918.957V939.96H944.796V965.819H918.957V967.112H973.218V965.819H947.379V939.96H973.218ZM920.249 937.374V911.516H971.926V937.374H920.249Z" fill="#093C70"/>
<path fill-rule="evenodd" clip-rule="evenodd" d="M1027.48 939.96V910.223H973.218V939.96H999.056V965.819H973.218V967.112H1027.48V965.819H1001.64V939.96H1027.48ZM974.51 937.374V911.516H1026.19V937.374H974.51Z" fill="#093C70"/>
<path fill-rule="evenodd" clip-rule="evenodd" d="M50.7824 996.849V967.111H-3.47852V996.849H22.36V1022.71H-3.47852V1024H50.7824V1022.71H24.9438V996.849H50.7824ZM-2.18659 994.263V968.404H49.4904V994.263H-2.18659Z" fill="#093C70"/>
<path fill-rule="evenodd" clip-rule="evenodd" d="M105.043 996.849V967.111H50.7822V996.849H76.6207V1022.71H50.7822V1024H105.043V1022.71H79.2046V996.849H105.043ZM52.0742 994.263V968.404H103.751V994.263H52.0742Z" fill="#093C70"/>
<path fill-rule="evenodd" clip-rule="evenodd" d="M159.304 996.849V967.111H105.043V996.849H130.881V1022.71H105.043V1024H159.304V1022.71H133.465V996.849H159.304ZM106.335 994.263V968.404H158.012V994.263H106.335Z" fill="#093C70"/>
<path fill-rule="evenodd" clip-rule="evenodd" d="M213.566 996.849V967.111H159.305V996.849H185.143V1022.71H159.305V1024H213.566V1022.71H187.727V996.849H213.566ZM160.597 994.263V968.404H212.274V994.263H160.597Z" fill="#093C70"/>
<path fill-rule="evenodd" clip-rule="evenodd" d="M267.826 996.849V967.111H213.565V996.849H239.404V1022.71H213.565V1024H267.826V1022.71H241.988V996.849H267.826ZM214.857 994.263V968.404H266.534V994.263H214.857Z" fill="#093C70"/>
<path fill-rule="evenodd" clip-rule="evenodd" d="M322.087 996.849V967.111H267.826V996.849H293.665V1022.71H267.826V1024H322.087V1022.71H296.249V996.849H322.087ZM269.118 994.263V968.404H320.795V994.263H269.118Z" fill="#093C70"/>
<path fill-rule="evenodd" clip-rule="evenodd" d="M376.348 996.849V967.111H322.087V996.849H347.925V1022.71H322.087V1024H376.348V1022.71H350.509V996.849H376.348ZM323.379 994.263V968.404H375.056V994.263H323.379Z" fill="#093C70"/>
<path fill-rule="evenodd" clip-rule="evenodd" d="M430.609 996.849V967.111H376.348V996.849H402.186V1022.71H376.348V1024H430.609V1022.71H404.77V996.849H430.609ZM377.64 994.263V968.404H429.317V994.263H377.64Z" fill="#093C70"/>
<path fill-rule="evenodd" clip-rule="evenodd" d="M484.869 996.849V967.111H430.608V996.849H456.447V1022.71H430.608V1024H484.869V1022.71H459.031V996.849H484.869ZM431.9 994.263V968.404H483.577V994.263H431.9Z" fill="#093C70"/>
<path fill-rule="evenodd" clip-rule="evenodd" d="M539.13 996.849V967.111H484.869V996.849H510.708V1022.71H484.869V1024H539.13V1022.71H513.292V996.849H539.13ZM486.161 994.263V968.404H537.838V994.263H486.161Z" fill="#093C70"/>
<path fill-rule="evenodd" clip-rule="evenodd" d="M593.392 996.849V967.111H539.131V996.849H564.969V1022.71H539.131V1024H593.392V1022.71H567.553V996.849H593.392ZM540.423 994.263V968.404H592.1V994.263H540.423Z" fill="#093C70"/>
<path fill-rule="evenodd" clip-rule="evenodd" d="M647.652 996.849V967.111H593.392V996.849H619.23V1022.71H593.392V1024H647.652V1022.71H621.814V996.849H647.652ZM594.684 994.263V968.404H646.361V994.263H594.684Z" fill="#093C70"/>
<path fill-rule="evenodd" clip-rule="evenodd" d="M701.913 996.849V967.111H647.652V996.849H673.491V1022.71H647.652V1024H701.913V1022.71H676.075V996.849H701.913ZM648.944 994.263V968.404H700.621V994.263H648.944Z" fill="#093C70"/>
<path fill-rule="evenodd" clip-rule="evenodd" d="M756.174 996.849V967.111H701.913V996.849H727.752V1022.71H701.913V1024H756.174V1022.71H730.335V996.849H756.174ZM703.205 994.263V968.404H754.882V994.263H703.205Z" fill="#093C70"/>
<path fill-rule="evenodd" clip-rule="evenodd" d="M810.435 996.849V967.111H756.174V996.849H782.012V1022.71H756.174V1024H810.435V1022.71H784.596V996.849H810.435ZM757.466 994.263V968.404H809.143V994.263H757.466Z" fill="#093C70"/>
<path fill-rule="evenodd" clip-rule="evenodd" d="M864.695 996.849V967.111H810.435V996.849H836.273V1022.71H810.435V1024H864.695V1022.71H838.857V996.849H864.695ZM811.726 994.263V968.404H863.404V994.263H811.726Z" fill="#093C70"/>
<path fill-rule="evenodd" clip-rule="evenodd" d="M918.956 996.849V967.111H864.695V996.849H890.534V1022.71H864.695V1024H918.956V1022.71H893.118V996.849H918.956ZM865.987 994.263V968.404H917.664V994.263H865.987Z" fill="#093C70"/>
<path fill-rule="evenodd" clip-rule="evenodd" d="M973.218 996.849V967.111H918.957V996.849H944.796V1022.71H918.957V1024H973.218V1022.71H947.379V996.849H973.218ZM920.249 994.263V968.404H971.926V994.263H920.249Z" fill="#093C70"/>
<path fill-rule="evenodd" clip-rule="evenodd" d="M1027.48 996.849V967.111H973.218V996.849H999.056V1022.71H973.218V1024H1027.48V1022.71H1001.64V996.849H1027.48ZM974.51 994.263V968.404H1026.19V994.263H974.51Z" fill="#093C70"/>
</g>
</g>
<defs>
<clipPath id="clip0_295_46324">
<rect width="1024" height="1024" fill="white"/>
</clipPath>
<clipPath id="clip1_295_46324">
<rect width="1248" height="1024" fill="white" transform="translate(-112)"/>
</clipPath>
</defs>
</svg>
