<svg width="1024" height="1024" viewBox="0 0 1024 1024" fill="none" xmlns="http://www.w3.org/2000/svg">
<g clip-path="url(#clip0_295_63055)">
<rect width="1024" height="1024" fill="#04274B"/>
<g clip-path="url(#clip1_295_63055)">
<path d="M148.547 754.526C150.568 745.432 159.326 739.368 168.421 741.389C177.516 743.411 183.579 752.168 181.558 761.263C179.537 770.358 170.779 776.421 161.684 774.4C154.947 773.053 149.895 768 148.547 761.263H0V754.526H148.547ZM687.495 916.211C689.516 907.116 698.274 901.053 707.368 903.074C716.463 905.095 722.526 913.853 720.505 922.947C718.484 932.042 709.726 938.105 700.632 936.084C693.895 934.737 688.842 929.684 687.495 922.947H276.211V916.211H687.495ZM882.189 761.263C880.168 770.358 871.411 776.421 862.316 774.4C853.221 772.379 847.158 763.621 849.179 754.526C851.2 745.432 859.958 739.368 869.053 741.389C875.789 742.737 880.842 747.789 882.189 754.526H1024V761.263H882.189ZM882.189 815.158C880.168 824.253 871.411 830.316 862.316 828.295C853.221 826.274 847.158 817.516 849.179 808.421C851.2 799.326 859.958 793.263 869.053 795.284C875.789 796.632 880.842 801.684 882.189 808.421H1024V815.158H882.189ZM903.074 431.158C905.095 422.063 913.853 416 922.947 418.021C932.042 420.042 938.105 428.8 936.084 437.895C934.063 446.989 925.305 453.053 916.211 451.032C909.474 449.684 904.421 444.632 903.074 437.895H612.716C610.695 446.989 601.937 453.053 592.842 451.032C583.747 449.011 577.684 440.253 579.705 431.158C581.726 422.063 590.484 416 599.579 418.021C606.316 419.368 611.368 424.421 612.716 431.158H903.074ZM40.7579 269.474C42.7789 260.379 51.5368 254.316 60.6316 256.337C69.7263 258.358 75.7895 267.116 73.7684 276.211C71.7474 285.305 62.9895 291.368 53.8947 289.347C47.1579 288 42.1053 282.947 40.7579 276.211H0V269.474H40.7579ZM666.611 384C664.589 393.095 655.832 399.158 646.737 397.137C637.642 395.116 631.579 386.358 633.6 377.263C635.621 368.168 644.379 362.105 653.474 364.126C660.211 365.474 665.263 370.526 666.611 377.263H956.968C958.99 368.168 967.747 362.105 976.842 364.126C985.937 366.147 992 374.905 989.979 384C987.958 393.095 979.2 399.158 970.105 397.137C963.368 395.789 958.316 390.737 956.968 384H666.611ZM869.053 40.7579C878.147 42.7789 884.211 51.5368 882.189 60.6316C880.168 69.7263 871.411 75.7895 862.316 73.7684C853.221 71.7474 847.158 62.9895 849.179 53.8947C850.526 47.1579 855.579 42.1053 862.316 40.7579V0H869.053V40.7579ZM653.474 741.389C662.568 743.411 668.632 752.168 666.611 761.263C664.589 770.358 655.832 776.421 646.737 774.4C637.642 772.379 631.579 763.621 633.6 754.526C634.947 747.789 640 742.737 646.737 741.389V558.821C637.642 556.8 631.579 548.042 633.6 538.947C635.621 529.853 644.379 523.789 653.474 525.811C662.568 527.832 668.632 536.589 666.611 545.684C665.263 552.421 660.211 557.474 653.474 558.821V741.389ZM815.158 73.7684V269.474H1024V276.211H808.421V73.7684C799.326 71.7474 793.263 62.9895 795.284 53.8947C797.305 44.8 806.063 38.7368 815.158 40.7579C824.253 42.7789 830.316 51.5368 828.295 60.6316C826.947 67.3684 821.895 72.4211 815.158 73.7684ZM869.053 127.663V215.579H1024V222.316H862.316V127.663C853.221 125.642 847.158 116.884 849.179 107.789C851.2 98.6947 859.958 92.6316 869.053 94.6526C878.147 96.6737 884.211 105.432 882.189 114.526C880.842 121.263 875.789 126.316 869.053 127.663ZM437.895 451.032V700.632H491.789V741.389C500.884 743.411 506.947 752.168 504.926 761.263C502.905 770.358 494.147 776.421 485.053 774.4C475.958 772.379 469.895 763.621 471.916 754.526C473.263 747.789 478.316 742.737 485.053 741.389V707.368H431.158V451.032C422.063 449.011 416 440.253 418.021 431.158C420.042 422.063 428.8 416 437.895 418.021C446.989 420.042 453.053 428.8 451.032 437.895C449.684 444.632 444.632 449.684 437.895 451.032ZM418.021 377.263C420.042 368.168 428.8 362.105 437.895 364.126C446.989 366.147 453.053 374.905 451.032 384C449.011 393.095 440.253 399.158 431.158 397.137C424.421 395.789 419.368 390.737 418.021 384H384V545.684H289.347C287.326 554.779 278.568 560.842 269.474 558.821C260.379 556.8 254.316 548.042 256.337 538.947C258.358 529.853 267.116 523.789 276.211 525.811C282.947 527.158 288 532.211 289.347 538.947H377.263V377.263H418.021ZM397.137 815.158C395.116 824.253 386.358 830.316 377.263 828.295C368.168 826.274 362.105 817.516 364.126 808.421C366.147 799.326 374.905 793.263 384 795.284C390.737 796.632 395.789 801.684 397.137 808.421H592.842V558.821C583.747 556.8 577.684 548.042 579.705 538.947C581.726 529.853 590.484 523.789 599.579 525.811C608.674 527.832 614.737 536.589 612.716 545.684C611.368 552.421 606.316 557.474 599.579 558.821V815.158H397.137ZM343.242 599.579C341.221 608.674 332.463 614.737 323.368 612.716C314.274 610.695 308.211 601.937 310.232 592.842C312.253 583.747 321.011 577.684 330.105 579.705C336.842 581.053 341.895 586.105 343.242 592.842H384V754.526H418.021C420.042 745.432 428.8 739.368 437.895 741.389C446.989 743.411 453.053 752.168 451.032 761.263C449.011 770.358 440.253 776.421 431.158 774.4C424.421 773.053 419.368 768 418.021 761.263H377.263V599.579H343.242ZM222.316 956.968C231.411 958.99 237.474 967.747 235.453 976.842C233.432 985.937 224.674 992 215.579 989.979C206.484 987.958 200.421 979.2 202.442 970.105C203.789 963.368 208.842 958.316 215.579 956.968V922.947H168.421V1024H161.684V916.211H222.316V956.968ZM795.284 592.842C797.305 583.747 806.063 577.684 815.158 579.705C824.253 581.726 830.316 590.484 828.295 599.579C826.274 608.674 817.516 614.737 808.421 612.716C801.684 611.368 796.632 606.316 795.284 599.579H761.263V916.211H922.947V1024H916.211V922.947H754.526V592.842H795.284ZM882.189 491.789C880.168 500.884 871.411 506.947 862.316 504.926C853.221 502.905 847.158 494.147 849.179 485.053C851.2 475.958 859.958 469.895 869.053 471.916C875.789 473.263 880.842 478.316 882.189 485.053H922.947V633.6C932.042 635.621 938.105 644.379 936.084 653.474C934.063 662.568 925.305 668.632 916.211 666.611C907.116 664.589 901.053 655.832 903.074 646.737C904.421 640 909.474 634.947 916.211 633.6V491.789H882.189ZM666.611 815.158C664.589 824.253 655.832 830.316 646.737 828.295C637.642 826.274 631.579 817.516 633.6 808.421C635.621 799.326 644.379 793.263 653.474 795.284C660.211 796.632 665.263 801.684 666.611 808.421H700.632V538.947H754.526V491.789H612.716C610.695 500.884 601.937 506.947 592.842 504.926C583.747 502.905 577.684 494.147 579.705 485.053C581.726 475.958 590.484 469.895 599.579 471.916C606.316 473.263 611.368 478.316 612.716 485.053H761.263V545.684H707.368V815.158H666.611ZM956.968 107.789C958.99 98.6947 967.747 92.6316 976.842 94.6526C985.937 96.6737 992 105.432 989.979 114.526C987.958 123.621 979.2 129.684 970.105 127.663C963.368 126.316 958.316 121.263 956.968 114.526H916.211V0H922.947V107.789H956.968ZM330.105 343.242V491.789H181.558C179.537 500.884 170.779 506.947 161.684 504.926C152.589 502.905 146.526 494.147 148.547 485.053C150.568 475.958 159.326 469.895 168.421 471.916C175.158 473.263 180.211 478.316 181.558 485.053H323.368V343.242C314.274 341.221 308.211 332.463 310.232 323.368C312.253 314.274 321.011 308.211 330.105 310.232C339.2 312.253 345.263 321.011 343.242 330.105C341.895 336.842 336.842 341.895 330.105 343.242ZM181.558 114.526C179.537 123.621 170.779 129.684 161.684 127.663C152.589 125.642 146.526 116.884 148.547 107.789C150.568 98.6947 159.326 92.6316 168.421 94.6526C175.158 96 180.211 101.053 181.558 107.789H269.474V0H276.211V114.526H181.558ZM384 127.663V222.316H276.211V437.895H235.453C233.432 446.989 224.674 453.053 215.579 451.032C206.484 449.011 200.421 440.253 202.442 431.158C204.463 422.063 213.221 416 222.316 418.021C229.053 419.368 234.105 424.421 235.453 431.158H269.474V215.579H377.263V127.663C368.168 125.642 362.105 116.884 364.126 107.789C366.147 98.6947 374.905 92.6316 384 94.6526C393.095 96.6737 399.158 105.432 397.137 114.526C395.789 121.263 390.737 126.316 384 127.663ZM343.242 276.211C341.221 285.305 332.463 291.368 323.368 289.347C314.274 287.326 308.211 278.568 310.232 269.474C312.253 260.379 321.011 254.316 330.105 256.337C336.842 257.684 341.895 262.737 343.242 269.474H431.158V127.663C422.063 125.642 416 116.884 418.021 107.789C420.042 98.6947 428.8 92.6316 437.895 94.6526C446.989 96.6737 453.053 105.432 451.032 114.526C449.684 121.263 444.632 126.316 437.895 127.663V276.211H343.242ZM397.137 60.6316C395.116 69.7263 386.358 75.7895 377.263 73.7684C368.168 71.7474 362.105 62.9895 364.126 53.8947C366.147 44.8 374.905 38.7368 384 40.7579C390.737 42.1053 395.789 47.1579 397.137 53.8947H491.789V202.442C500.884 204.463 506.947 213.221 504.926 222.316C502.905 231.411 494.147 237.474 485.053 235.453C475.958 233.432 469.895 224.674 471.916 215.579C473.263 208.842 478.316 203.789 485.053 202.442V60.6316H397.137ZM741.389 970.105C743.411 961.011 752.168 954.947 761.263 956.968C770.358 958.99 776.421 967.747 774.4 976.842C772.379 985.937 763.621 992 754.526 989.979C747.789 988.632 742.737 983.579 741.389 976.842H330.105V1024H323.368V970.105H741.389ZM815.158 504.926V538.947H869.053V653.474H815.158V862.316H976.842V1024H970.105V869.053H808.421V646.737H862.316V545.684H808.421V504.926C799.326 502.905 793.263 494.147 795.284 485.053C797.305 475.958 806.063 469.895 815.158 471.916C824.253 473.937 830.316 482.695 828.295 491.789C826.947 498.526 821.895 503.579 815.158 504.926ZM181.558 60.6316C179.537 69.7263 170.779 75.7895 161.684 73.7684C152.589 71.7474 146.526 62.9895 148.547 53.8947C150.568 44.8 159.326 38.7368 168.421 40.7579C175.158 42.1053 180.211 47.1579 181.558 53.8947H215.579V6.73684H161.684V0H222.316V60.6316H181.558ZM558.821 168.421C556.8 177.516 548.042 183.579 538.947 181.558C529.853 179.537 523.789 170.779 525.811 161.684C527.832 152.589 536.589 146.526 545.684 148.547C552.421 149.895 557.474 154.947 558.821 161.684H646.737V0H815.158V6.73684H653.474V168.421H558.821ZM397.137 6.73684C395.116 15.8316 386.358 21.8947 377.263 19.8737C368.168 17.8526 362.105 9.09474 364.126 0H371.2C369.516 5.38947 372.211 11.1158 377.263 12.8C382.316 14.4842 388.379 11.7895 390.063 6.73684C390.737 4.71579 390.737 2.35789 390.063 0H599.579V114.526H538.947V73.7684C529.853 71.7474 523.789 62.9895 525.811 53.8947C527.832 44.8 536.589 38.7368 545.684 40.7579C554.779 42.7789 560.842 51.5368 558.821 60.6316C557.474 67.3684 552.421 72.4211 545.684 73.7684V107.789H592.842V6.73684H397.137ZM397.137 330.105C395.116 339.2 386.358 345.263 377.263 343.242C368.168 341.221 362.105 332.463 364.126 323.368C366.147 314.274 374.905 308.211 384 310.232C390.737 311.579 395.789 316.632 397.137 323.368H461.474L569.263 215.579H700.632V73.7684C691.537 71.7474 685.474 62.9895 687.495 53.8947C689.516 44.8 698.274 38.7368 707.368 40.7579C716.463 42.7789 722.526 51.5368 720.505 60.6316C719.158 67.3684 714.105 72.4211 707.368 73.7684V222.316H571.958L464.168 330.105H397.137ZM491.789 633.6C500.884 635.621 506.947 644.379 504.926 653.474C502.905 662.568 494.147 668.632 485.053 666.611C475.958 664.589 469.895 655.832 471.916 646.737C473.263 640 478.316 634.947 485.053 633.6V375.916L591.495 269.474H754.526V73.7684C745.432 71.7474 739.368 62.9895 741.389 53.8947C743.411 44.8 752.168 38.7368 761.263 40.7579C770.358 42.7789 776.421 51.5368 774.4 60.6316C773.053 67.3684 768 72.4211 761.263 73.7684V276.211H594.189L491.789 378.611V633.6ZM545.684 741.389C554.779 743.411 560.842 752.168 558.821 761.263C556.8 770.358 548.042 776.421 538.947 774.4C529.853 772.379 523.789 763.621 525.811 754.526C527.158 747.789 532.211 742.737 538.947 741.389V406.232L621.811 323.368H1010.86C1012.21 316.632 1017.26 311.579 1024 310.232V317.305C1018.61 318.989 1015.92 325.053 1017.94 330.105C1018.95 333.137 1021.31 335.158 1024 336.168V343.242C1017.26 341.895 1012.21 336.842 1010.86 330.105H624.505L545.684 408.926V741.389ZM60.6316 525.811C69.7263 527.832 75.7895 536.589 73.7684 545.684C71.7474 554.779 62.9895 560.842 53.8947 558.821C44.8 556.8 38.7368 548.042 40.7579 538.947C42.1053 532.211 47.1579 527.158 53.8947 525.811V514.021L215.579 352.337V161.684H323.368V0H330.105V168.421H222.316V355.032L60.6316 516.716V525.811ZM168.421 181.558V328.084L6.73684 489.768V700.632H94.6526C96.6737 691.537 105.432 685.474 114.526 687.495C123.621 689.516 129.684 698.274 127.663 707.368C125.642 716.463 116.884 722.526 107.789 720.505C101.053 719.158 96 714.105 94.6526 707.368H0V487.074L161.684 325.389V181.558C152.589 179.537 146.526 170.779 148.547 161.684C150.568 152.589 159.326 146.526 168.421 148.547C177.516 150.568 183.579 159.326 181.558 168.421C180.211 175.158 175.158 180.211 168.421 181.558ZM114.526 235.453V301.137L0 415.663V406.232L107.789 298.442V235.453C98.6947 233.432 92.6316 224.674 94.6526 215.579C96.6737 206.484 105.432 200.421 114.526 202.442C123.621 204.463 129.684 213.221 127.663 222.316C126.316 229.053 121.263 234.105 114.526 235.453ZM40.7579 107.789C42.7789 98.6947 51.5368 92.6316 60.6316 94.6526C69.7263 96.6737 75.7895 105.432 73.7684 114.526C71.7474 123.621 62.9895 129.684 53.8947 127.663C47.1579 126.316 42.1053 121.263 40.7579 114.526H31.6632L0 146.189V136.758L28.9684 107.789H40.7579ZM936.084 168.421C934.063 177.516 925.305 183.579 916.211 181.558C907.116 179.537 901.053 170.779 903.074 161.684C905.095 152.589 913.853 146.526 922.947 148.547C929.684 149.895 934.737 154.947 936.084 161.684H999.074L1024 136.758V146.189L1001.77 168.421H936.084ZM882.189 707.368C880.168 716.463 871.411 722.526 862.316 720.505C853.221 718.484 847.158 709.726 849.179 700.632C851.2 691.537 859.958 685.474 869.053 687.495C875.789 688.842 880.842 693.895 882.189 700.632H970.105V460.126L1024 406.232V415.663L976.842 462.821V707.368H882.189ZM181.558 815.158C179.537 824.253 170.779 830.316 161.684 828.295C152.589 826.274 146.526 817.516 148.547 808.421C150.568 799.326 159.326 793.263 168.421 795.284C175.158 796.632 180.211 801.684 181.558 808.421H215.579V732.295L136.758 653.474H73.7684C71.7474 662.568 62.9895 668.632 53.8947 666.611C44.8 664.589 38.7368 655.832 40.7579 646.737C42.7789 637.642 51.5368 631.579 60.6316 633.6C67.3684 634.947 72.4211 640 73.7684 646.737H139.453L222.316 729.6V815.158H181.558ZM687.495 862.316C689.516 853.221 698.274 847.158 707.368 849.179C716.463 851.2 722.526 859.958 720.505 869.053C718.484 878.147 709.726 884.211 700.632 882.189C693.895 880.842 688.842 875.789 687.495 869.053H323.368V678.4L190.653 545.684H127.663C125.642 554.779 116.884 560.842 107.789 558.821C98.6947 556.8 92.6316 548.042 94.6526 538.947C96.6737 529.853 105.432 523.789 114.526 525.811C121.263 527.158 126.316 532.211 127.663 538.947H193.347L330.105 675.705V862.316H687.495ZM181.558 869.053C179.537 878.147 170.779 884.211 161.684 882.189C152.589 880.168 146.526 871.411 148.547 862.316C150.568 853.221 159.326 847.158 168.421 849.179C175.158 850.526 180.211 855.579 181.558 862.316H269.474V705.347L163.705 599.579H73.7684C71.7474 608.674 62.9895 614.737 53.8947 612.716C44.8 610.695 38.7368 601.937 40.7579 592.842C42.7789 583.747 51.5368 577.684 60.6316 579.705C67.3684 581.053 72.4211 586.105 73.7684 592.842H166.4L276.211 702.653V869.053H181.558ZM114.526 134.063V139.453L31.6632 222.316H0V215.579H28.9684L107.789 136.758V0H114.526V134.063ZM6.73684 1010.86C13.4737 1012.21 18.5263 1017.26 19.8737 1024H12.8C10.7789 1018.61 5.05263 1015.92 0 1017.94V862.316H60.6316V1024H53.8947V869.053H6.73684V1010.86ZM114.526 811.789V1024H107.789V815.158H0V808.421H114.526V811.789ZM57.2632 60.6316H0V53.8947H53.8947V0H60.6316V60.6316H57.2632ZM976.842 53.8947H1024V60.6316H970.105V0H976.842V53.8947ZM869.053 973.474V1024H862.316V976.842H815.158V1024H808.421V970.105H869.053V973.474ZM0 310.232C9.09474 308.547 18.1895 314.274 19.8737 323.368C20.2105 324.716 20.2105 325.726 20.2105 326.737C20.2105 336.168 12.8 343.579 3.36842 343.579C2.35789 343.579 1.01053 343.579 0 343.242V336.168C5.38947 337.853 11.1158 335.158 12.8 330.105C14.4842 325.053 12.1263 318.989 6.73684 317.305C4.71579 316.632 2.35789 316.632 0 317.305V310.232ZM269.474 916.211H276.211V1024H269.474V916.211ZM397.137 1024H390.063C388.379 1018.61 382.316 1015.92 377.263 1017.94C374.232 1018.95 372.211 1021.31 371.2 1024H364.126C365.811 1014.91 374.905 1008.84 384 1010.86C390.737 1012.21 395.789 1017.26 397.137 1024ZM19.8737 0C21.5579 9.09474 15.8316 18.1895 6.73684 19.8737C4.37895 20.2105 2.02105 20.2105 0 19.8737V12.8C5.38947 14.8211 11.1158 12.1263 12.8 6.73684C13.4737 4.71579 13.4737 2.02105 12.8 0H19.8737ZM1010.86 0H1017.94C1015.92 5.38947 1018.95 11.1158 1024 12.8V19.8737C1014.91 17.8526 1008.84 9.09474 1010.86 0ZM1024 1010.86V1017.94C1020.97 1018.95 1018.95 1021.31 1017.94 1024H1010.86C1012.21 1017.26 1017.26 1012.21 1024 1010.86ZM326.737 336.842C332.463 336.842 336.842 332.463 336.842 326.737C336.842 321.011 332.463 316.632 326.737 316.632C321.011 316.632 316.632 321.011 316.632 326.737C316.632 332.463 321.011 336.842 326.737 336.842ZM326.737 282.947C332.463 282.947 336.842 278.568 336.842 272.842C336.842 267.116 332.463 262.737 326.737 262.737C321.011 262.737 316.632 267.116 316.632 272.842C316.632 278.568 321.011 282.947 326.737 282.947ZM380.632 336.842C386.358 336.842 390.737 332.463 390.737 326.737C390.737 321.011 386.358 316.632 380.632 316.632C374.905 316.632 370.526 321.011 370.526 326.737C370.526 332.463 374.905 336.842 380.632 336.842ZM434.526 390.737C440.253 390.737 444.632 386.358 444.632 380.632C444.632 374.905 440.253 370.526 434.526 370.526C428.8 370.526 424.421 374.905 424.421 380.632C424.421 386.358 428.8 390.737 434.526 390.737ZM434.526 444.632C440.253 444.632 444.632 440.253 444.632 434.526C444.632 428.8 440.253 424.421 434.526 424.421C428.8 424.421 424.421 428.8 424.421 434.526C424.421 440.253 428.8 444.632 434.526 444.632ZM272.842 552.421C278.568 552.421 282.947 548.042 282.947 542.316C282.947 536.589 278.568 532.211 272.842 532.211C267.116 532.211 262.737 536.589 262.737 542.316C262.737 548.042 267.116 552.421 272.842 552.421ZM326.737 606.316C332.463 606.316 336.842 601.937 336.842 596.211C336.842 590.484 332.463 586.105 326.737 586.105C321.011 586.105 316.632 590.484 316.632 596.211C316.632 601.937 321.011 606.316 326.737 606.316ZM434.526 768C440.253 768 444.632 763.621 444.632 757.895C444.632 752.168 440.253 747.789 434.526 747.789C428.8 747.789 424.421 752.168 424.421 757.895C424.421 763.621 428.8 768 434.526 768ZM380.632 821.895C386.358 821.895 390.737 817.516 390.737 811.789C390.737 806.063 386.358 801.684 380.632 801.684C374.905 801.684 370.526 806.063 370.526 811.789C370.526 817.516 374.905 821.895 380.632 821.895ZM488.421 768C494.147 768 498.526 763.621 498.526 757.895C498.526 752.168 494.147 747.789 488.421 747.789C482.695 747.789 478.316 752.168 478.316 757.895C478.316 763.621 482.695 768 488.421 768ZM488.421 660.211C494.147 660.211 498.526 655.832 498.526 650.105C498.526 644.379 494.147 640 488.421 640C482.695 640 478.316 644.379 478.316 650.105C478.316 655.832 482.695 660.211 488.421 660.211ZM542.316 768C548.042 768 552.421 763.621 552.421 757.895C552.421 752.168 548.042 747.789 542.316 747.789C536.589 747.789 532.211 752.168 532.211 757.895C532.211 763.621 536.589 768 542.316 768ZM650.105 821.895C655.832 821.895 660.211 817.516 660.211 811.789C660.211 806.063 655.832 801.684 650.105 801.684C644.379 801.684 640 806.063 640 811.789C640 817.516 644.379 821.895 650.105 821.895ZM650.105 768C655.832 768 660.211 763.621 660.211 757.895C660.211 752.168 655.832 747.789 650.105 747.789C644.379 747.789 640 752.168 640 757.895C640 763.621 644.379 768 650.105 768ZM596.211 552.421C601.937 552.421 606.316 548.042 606.316 542.316C606.316 536.589 601.937 532.211 596.211 532.211C590.484 532.211 586.105 536.589 586.105 542.316C586.105 548.042 590.484 552.421 596.211 552.421ZM650.105 552.421C655.832 552.421 660.211 548.042 660.211 542.316C660.211 536.589 655.832 532.211 650.105 532.211C644.379 532.211 640 536.589 640 542.316C640 548.042 644.379 552.421 650.105 552.421ZM704 875.789C709.726 875.789 714.105 871.411 714.105 865.684C714.105 859.958 709.726 855.579 704 855.579C698.274 855.579 693.895 859.958 693.895 865.684C693.895 871.411 698.274 875.789 704 875.789ZM704 929.684C709.726 929.684 714.105 925.305 714.105 919.579C714.105 913.853 709.726 909.474 704 909.474C698.274 909.474 693.895 913.853 693.895 919.579C693.895 925.305 698.274 929.684 704 929.684ZM757.895 983.579C763.621 983.579 768 979.2 768 973.474C768 967.747 763.621 963.368 757.895 963.368C752.168 963.368 747.789 967.747 747.789 973.474C747.789 979.2 752.168 983.579 757.895 983.579ZM811.789 498.526C817.516 498.526 821.895 494.147 821.895 488.421C821.895 482.695 817.516 478.316 811.789 478.316C806.063 478.316 801.684 482.695 801.684 488.421C801.684 494.147 806.063 498.526 811.789 498.526ZM811.789 606.316C817.516 606.316 821.895 601.937 821.895 596.211C821.895 590.484 817.516 586.105 811.789 586.105C806.063 586.105 801.684 590.484 801.684 596.211C801.684 601.937 806.063 606.316 811.789 606.316ZM865.684 498.526C871.411 498.526 875.789 494.147 875.789 488.421C875.789 482.695 871.411 478.316 865.684 478.316C859.958 478.316 855.579 482.695 855.579 488.421C855.579 494.147 859.958 498.526 865.684 498.526ZM919.579 444.632C925.305 444.632 929.684 440.253 929.684 434.526C929.684 428.8 925.305 424.421 919.579 424.421C913.853 424.421 909.474 428.8 909.474 434.526C909.474 440.253 913.853 444.632 919.579 444.632ZM596.211 444.632C601.937 444.632 606.316 440.253 606.316 434.526C606.316 428.8 601.937 424.421 596.211 424.421C590.484 424.421 586.105 428.8 586.105 434.526C586.105 440.253 590.484 444.632 596.211 444.632ZM596.211 498.526C601.937 498.526 606.316 494.147 606.316 488.421C606.316 482.695 601.937 478.316 596.211 478.316C590.484 478.316 586.105 482.695 586.105 488.421C586.105 494.147 590.484 498.526 596.211 498.526ZM650.105 390.737C655.832 390.737 660.211 386.358 660.211 380.632C660.211 374.905 655.832 370.526 650.105 370.526C644.379 370.526 640 374.905 640 380.632C640 386.358 644.379 390.737 650.105 390.737ZM973.474 390.737C979.2 390.737 983.579 386.358 983.579 380.632C983.579 374.905 979.2 370.526 973.474 370.526C967.747 370.526 963.368 374.905 963.368 380.632C963.368 386.358 967.747 390.737 973.474 390.737ZM919.579 175.158C925.305 175.158 929.684 170.779 929.684 165.053C929.684 159.326 925.305 154.947 919.579 154.947C913.853 154.947 909.474 159.326 909.474 165.053C909.474 170.779 913.853 175.158 919.579 175.158ZM973.474 121.263C979.2 121.263 983.579 116.884 983.579 111.158C983.579 105.432 979.2 101.053 973.474 101.053C967.747 101.053 963.368 105.432 963.368 111.158C963.368 116.884 967.747 121.263 973.474 121.263ZM865.684 121.263C871.411 121.263 875.789 116.884 875.789 111.158C875.789 105.432 871.411 101.053 865.684 101.053C859.958 101.053 855.579 105.432 855.579 111.158C855.579 116.884 859.958 121.263 865.684 121.263ZM865.684 67.3684C871.411 67.3684 875.789 62.9895 875.789 57.2632C875.789 51.5368 871.411 47.1579 865.684 47.1579C859.958 47.1579 855.579 51.5368 855.579 57.2632C855.579 62.9895 859.958 67.3684 865.684 67.3684ZM811.789 67.3684C817.516 67.3684 821.895 62.9895 821.895 57.2632C821.895 51.5368 817.516 47.1579 811.789 47.1579C806.063 47.1579 801.684 51.5368 801.684 57.2632C801.684 62.9895 806.063 67.3684 811.789 67.3684ZM757.895 67.3684C763.621 67.3684 768 62.9895 768 57.2632C768 51.5368 763.621 47.1579 757.895 47.1579C752.168 47.1579 747.789 51.5368 747.789 57.2632C747.789 62.9895 752.168 67.3684 757.895 67.3684ZM704 67.3684C709.726 67.3684 714.105 62.9895 714.105 57.2632C714.105 51.5368 709.726 47.1579 704 47.1579C698.274 47.1579 693.895 51.5368 693.895 57.2632C693.895 62.9895 698.274 67.3684 704 67.3684ZM165.053 121.263C170.779 121.263 175.158 116.884 175.158 111.158C175.158 105.432 170.779 101.053 165.053 101.053C159.326 101.053 154.947 105.432 154.947 111.158C154.947 116.884 159.326 121.263 165.053 121.263ZM57.2632 121.263C62.9895 121.263 67.3684 116.884 67.3684 111.158C67.3684 105.432 62.9895 101.053 57.2632 101.053C51.5368 101.053 47.1579 105.432 47.1579 111.158C47.1579 116.884 51.5368 121.263 57.2632 121.263ZM165.053 175.158C170.779 175.158 175.158 170.779 175.158 165.053C175.158 159.326 170.779 154.947 165.053 154.947C159.326 154.947 154.947 159.326 154.947 165.053C154.947 170.779 159.326 175.158 165.053 175.158ZM111.158 229.053C116.884 229.053 121.263 224.674 121.263 218.947C121.263 213.221 116.884 208.842 111.158 208.842C105.432 208.842 101.053 213.221 101.053 218.947C101.053 224.674 105.432 229.053 111.158 229.053ZM165.053 67.3684C170.779 67.3684 175.158 62.9895 175.158 57.2632C175.158 51.5368 170.779 47.1579 165.053 47.1579C159.326 47.1579 154.947 51.5368 154.947 57.2632C154.947 62.9895 159.326 67.3684 165.053 67.3684ZM165.053 875.789C170.779 875.789 175.158 871.411 175.158 865.684C175.158 859.958 170.779 855.579 165.053 855.579C159.326 855.579 154.947 859.958 154.947 865.684C154.947 871.411 159.326 875.789 165.053 875.789ZM218.947 983.579C224.674 983.579 229.053 979.2 229.053 973.474C229.053 967.747 224.674 963.368 218.947 963.368C213.221 963.368 208.842 967.747 208.842 973.474C208.842 979.2 213.221 983.579 218.947 983.579ZM165.053 768C170.779 768 175.158 763.621 175.158 757.895C175.158 752.168 170.779 747.789 165.053 747.789C159.326 747.789 154.947 752.168 154.947 757.895C154.947 763.621 159.326 768 165.053 768ZM165.053 821.895C170.779 821.895 175.158 817.516 175.158 811.789C175.158 806.063 170.779 801.684 165.053 801.684C159.326 801.684 154.947 806.063 154.947 811.789C154.947 817.516 159.326 821.895 165.053 821.895ZM111.158 714.105C116.884 714.105 121.263 709.726 121.263 704C121.263 698.274 116.884 693.895 111.158 693.895C105.432 693.895 101.053 698.274 101.053 704C101.053 709.726 105.432 714.105 111.158 714.105ZM380.632 121.263C386.358 121.263 390.737 116.884 390.737 111.158C390.737 105.432 386.358 101.053 380.632 101.053C374.905 101.053 370.526 105.432 370.526 111.158C370.526 116.884 374.905 121.263 380.632 121.263ZM434.526 121.263C440.253 121.263 444.632 116.884 444.632 111.158C444.632 105.432 440.253 101.053 434.526 101.053C428.8 101.053 424.421 105.432 424.421 111.158C424.421 116.884 428.8 121.263 434.526 121.263ZM380.632 67.3684C386.358 67.3684 390.737 62.9895 390.737 57.2632C390.737 51.5368 386.358 47.1579 380.632 47.1579C374.905 47.1579 370.526 51.5368 370.526 57.2632C370.526 62.9895 374.905 67.3684 380.632 67.3684ZM488.421 229.053C494.147 229.053 498.526 224.674 498.526 218.947C498.526 213.221 494.147 208.842 488.421 208.842C482.695 208.842 478.316 213.221 478.316 218.947C478.316 224.674 482.695 229.053 488.421 229.053ZM542.316 175.158C548.042 175.158 552.421 170.779 552.421 165.053C552.421 159.326 548.042 154.947 542.316 154.947C536.589 154.947 532.211 159.326 532.211 165.053C532.211 170.779 536.589 175.158 542.316 175.158ZM542.316 67.3684C548.042 67.3684 552.421 62.9895 552.421 57.2632C552.421 51.5368 548.042 47.1579 542.316 47.1579C536.589 47.1579 532.211 51.5368 532.211 57.2632C532.211 62.9895 536.589 67.3684 542.316 67.3684ZM919.579 660.211C925.305 660.211 929.684 655.832 929.684 650.105C929.684 644.379 925.305 640 919.579 640C913.853 640 909.474 644.379 909.474 650.105C909.474 655.832 913.853 660.211 919.579 660.211ZM865.684 714.105C871.411 714.105 875.789 709.726 875.789 704C875.789 698.274 871.411 693.895 865.684 693.895C859.958 693.895 855.579 698.274 855.579 704C855.579 709.726 859.958 714.105 865.684 714.105ZM865.684 768C871.411 768 875.789 763.621 875.789 757.895C875.789 752.168 871.411 747.789 865.684 747.789C859.958 747.789 855.579 752.168 855.579 757.895C855.579 763.621 859.958 768 865.684 768ZM865.684 821.895C871.411 821.895 875.789 817.516 875.789 811.789C875.789 806.063 871.411 801.684 865.684 801.684C859.958 801.684 855.579 806.063 855.579 811.789C855.579 817.516 859.958 821.895 865.684 821.895ZM57.2632 606.316C62.9895 606.316 67.3684 601.937 67.3684 596.211C67.3684 590.484 62.9895 586.105 57.2632 586.105C51.5368 586.105 47.1579 590.484 47.1579 596.211C47.1579 601.937 51.5368 606.316 57.2632 606.316ZM57.2632 660.211C62.9895 660.211 67.3684 655.832 67.3684 650.105C67.3684 644.379 62.9895 640 57.2632 640C51.5368 640 47.1579 644.379 47.1579 650.105C47.1579 655.832 51.5368 660.211 57.2632 660.211ZM57.2632 552.421C62.9895 552.421 67.3684 548.042 67.3684 542.316C67.3684 536.589 62.9895 532.211 57.2632 532.211C51.5368 532.211 47.1579 536.589 47.1579 542.316C47.1579 548.042 51.5368 552.421 57.2632 552.421ZM111.158 552.421C116.884 552.421 121.263 548.042 121.263 542.316C121.263 536.589 116.884 532.211 111.158 532.211C105.432 532.211 101.053 536.589 101.053 542.316C101.053 548.042 105.432 552.421 111.158 552.421ZM57.2632 282.947C62.9895 282.947 67.3684 278.568 67.3684 272.842C67.3684 267.116 62.9895 262.737 57.2632 262.737C51.5368 262.737 47.1579 267.116 47.1579 272.842C47.1579 278.568 51.5368 282.947 57.2632 282.947ZM165.053 498.526C170.779 498.526 175.158 494.147 175.158 488.421C175.158 482.695 170.779 478.316 165.053 478.316C159.326 478.316 154.947 482.695 154.947 488.421C154.947 494.147 159.326 498.526 165.053 498.526ZM218.947 444.632C224.674 444.632 229.053 440.253 229.053 434.526C229.053 428.8 224.674 424.421 218.947 424.421C213.221 424.421 208.842 428.8 208.842 434.526C208.842 440.253 213.221 444.632 218.947 444.632Z" fill="#093C70"/>
</g>
</g>
<defs>
<clipPath id="clip0_295_63055">
<rect width="1024" height="1024" fill="white"/>
</clipPath>
<clipPath id="clip1_295_63055">
<rect width="1024" height="1024" fill="white"/>
</clipPath>
</defs>
</svg>
