<svg width="1024" height="1024" viewBox="0 0 1024 1024" fill="none" xmlns="http://www.w3.org/2000/svg">
<g clip-path="url(#clip0_295_69663)">
<rect width="1024" height="1024" fill="#04274B"/>
<g clip-path="url(#clip1_295_69663)">
<path fill-rule="evenodd" clip-rule="evenodd" d="M92.5013 95.1244H77.824L99.7831 117.084L92.5013 95.1244ZM94.8907 95.1244H109.909L102.4 117.652L94.8907 95.1244ZM112.299 95.1244H126.976L105.017 117.084L112.299 95.1244ZM74.8658 92.6213L83.7404 83.7467H85.5609H120.377H121.06L121.628 84.3156L129.934 92.6213L131.3 93.9867L103.196 122.09L102.4 122.886L73.5004 93.9867L74.8658 92.6213ZM77.824 92.8489L84.1956 86.4773L90.5671 92.8489H77.824ZM96.0284 92.8489L102.4 86.4773L108.772 92.8489H96.0284ZM114.233 92.8489L120.604 86.4773L126.976 92.8489H114.233ZM105.131 86.0222H117.874L111.502 92.3938L105.131 86.0222ZM93.2978 92.3938L99.6693 86.0222H86.9262L93.2978 92.3938ZM19.7973 -5L0.796444 14.0009L0 14.7973V-5H19.7973ZM4.89244 -5L0 9.56356V-5H4.89244ZM16.6116 -5L2.61689 8.99467L7.28178 -5H16.6116ZM204.8 14.7973L185.003 -5H204.8V14.7973ZM188.188 -5L202.183 8.99467L197.518 -5H188.188ZM204.8 9.56356L199.908 -5H204.8V9.56356ZM0 180.458H17.9769H18.6596L19.2284 181.027L27.5342 189.332L28.8996 190.698L19.7973 199.8H0V180.458ZM0 191.836H7.50933L4.89244 199.8H0V191.836ZM16.6116 199.8L24.576 191.836H9.89867L7.28178 199.8H16.6116ZM0 183.188L6.37156 189.56H0V183.188ZM11.8329 189.56L18.2044 183.188L24.576 189.56H11.8329ZM2.73067 182.733H15.4738L9.10222 189.105L2.73067 182.733ZM204.8 180.458H187.961H186.14L177.266 189.332L175.9 190.698L185.003 199.8H204.8V180.458ZM188.188 199.8L180.224 191.836H194.901L197.518 199.8H188.188ZM204.8 191.836H197.291L199.908 199.8H204.8V191.836ZM180.224 189.56L186.596 183.188L192.967 189.56H180.224ZM204.8 183.188L198.428 189.56H204.8V183.188ZM195.698 189.105L202.069 182.733H189.326L195.698 189.105ZM173.966 24.2409L175.559 25.8338L136.988 64.4044L135.396 62.8116L173.966 24.2409ZM175.559 168.966L173.966 170.559L135.396 131.988L136.988 130.396L175.559 168.966ZM30.8338 170.559L29.2409 168.966L67.8116 130.396L69.4044 131.988L30.8338 170.559ZM29.2409 25.8338L30.8338 24.2409L69.4044 62.8116L67.8116 64.4044L29.2409 25.8338ZM0 91.7111C2.50311 91.7111 4.55111 93.7591 4.55111 96.2622C4.55111 98.7653 2.50311 100.813 0 100.813V91.7111ZM204.8 91.7111C202.297 91.7111 200.249 93.7591 200.249 96.2622C200.249 98.7653 202.297 100.813 204.8 100.813V91.7111ZM106.951 -5C106.951 -2.49689 104.903 -0.448889 102.4 -0.448889C99.8969 -0.448889 97.8489 -2.49689 97.8489 -5H106.951ZM106.951 199.8C106.951 197.297 104.903 195.249 102.4 195.249C99.8969 195.249 97.8489 197.297 97.8489 199.8H106.951Z" fill="#093C70"/>
<path fill-rule="evenodd" clip-rule="evenodd" d="M297.301 95.1244H282.624L304.583 117.084L297.301 95.1244ZM299.69 95.1244H314.709L307.2 117.652L299.69 95.1244ZM317.098 95.1244H331.776L309.817 117.084L317.098 95.1244ZM279.666 92.6213L288.54 83.7467H290.361H325.177H325.859L326.428 84.3156L334.734 92.6213L336.099 93.9867L307.996 122.09L307.2 122.886L278.3 93.9867L279.666 92.6213ZM282.624 92.8489L288.995 86.4773L295.367 92.8489H282.624ZM300.828 92.8489L307.2 86.4773L313.571 92.8489H300.828ZM319.033 92.8489L325.404 86.4773L331.776 92.8489H319.033ZM309.93 86.0222H322.674L316.302 92.3938L309.93 86.0222ZM298.098 92.3938L304.469 86.0222H291.726L298.098 92.3938ZM224.597 -5L205.596 14.0009L204.8 14.7973V-5H224.597ZM209.692 -5L204.8 9.56356V-5H209.692ZM221.411 -5L207.417 8.99467L212.082 -5H221.411ZM409.6 14.7973L389.802 -5H409.6V14.7973ZM392.988 -5L406.983 8.99467L402.318 -5H392.988ZM409.6 9.56356L404.707 -5H409.6V9.56356ZM204.8 180.458H222.777H223.459L224.028 181.027L232.334 189.332L233.699 190.698L224.597 199.8H204.8V180.458ZM204.8 191.836H212.309L209.692 199.8H204.8V191.836ZM221.411 199.8L229.376 191.836H214.698L212.082 199.8H221.411ZM204.8 183.188L211.171 189.56H204.8V183.188ZM216.633 189.56L223.004 183.188L229.376 189.56H216.633ZM207.53 182.733H220.274L213.902 189.105L207.53 182.733ZM409.6 180.458H392.761H390.94L382.066 189.332L380.7 190.698L389.802 199.8H409.6V180.458ZM392.988 199.8L385.024 191.836H399.701L402.318 199.8H392.988ZM409.6 191.836H402.09L404.707 199.8H409.6V191.836ZM385.024 189.56L391.395 183.188L397.767 189.56H385.024ZM409.6 183.188L403.228 189.56H409.6V183.188ZM400.498 189.105L406.869 182.733H394.126L400.498 189.105ZM378.766 24.2409L380.359 25.8338L341.788 64.4044L340.195 62.8116L378.766 24.2409ZM380.359 168.966L378.766 170.559L340.195 131.988L341.788 130.396L380.359 168.966ZM235.634 170.559L234.041 168.966L272.611 130.396L274.204 131.988L235.634 170.559ZM234.041 25.8338L235.634 24.2409L274.204 62.8116L272.611 64.4044L234.041 25.8338ZM204.8 91.7111C207.303 91.7111 209.351 93.7591 209.351 96.2622C209.351 98.7653 207.303 100.813 204.8 100.813V91.7111ZM409.6 91.7111C407.097 91.7111 405.049 93.7591 405.049 96.2622C405.049 98.7653 407.097 100.813 409.6 100.813V91.7111ZM311.751 -5C311.751 -2.49689 309.703 -0.448889 307.2 -0.448889C304.697 -0.448889 302.649 -2.49689 302.649 -5H311.751ZM311.751 199.8C311.751 197.297 309.703 195.249 307.2 195.249C304.697 195.249 302.649 197.297 302.649 199.8H311.751Z" fill="#093C70"/>
<path fill-rule="evenodd" clip-rule="evenodd" d="M502.101 95.1244H487.424L509.383 117.084L502.101 95.1244ZM504.49 95.1244H519.509L512 117.652L504.49 95.1244ZM521.898 95.1244H536.576L514.616 117.084L521.898 95.1244ZM484.465 92.6213L493.34 83.7467H495.161H529.976H530.659L531.228 84.3156L539.534 92.6213L540.899 93.9867L512.796 122.09L512 122.886L483.1 93.9867L484.465 92.6213ZM487.424 92.8489L493.795 86.4773L500.167 92.8489H487.424ZM505.628 92.8489L512 86.4773L518.371 92.8489H505.628ZM523.832 92.8489L530.204 86.4773L536.576 92.8489H523.832ZM514.73 86.0222H527.473L521.102 92.3938L514.73 86.0222ZM502.897 92.3938L509.269 86.0222H496.526L502.897 92.3938ZM429.397 -5L410.396 14.0009L409.6 14.7973V-5H429.397ZM414.492 -5L409.6 9.56356V-5H414.492ZM426.211 -5L412.216 8.99467L416.881 -5H426.211ZM614.4 14.7973L594.602 -5H614.4V14.7973ZM597.788 -5L611.783 8.99467L607.118 -5H597.788ZM614.4 9.56356L609.507 -5H614.4V9.56356ZM409.6 180.458H427.576H428.259L428.828 181.027L437.134 189.332L438.499 190.698L429.397 199.8H409.6V180.458ZM409.6 191.836H417.109L414.492 199.8H409.6V191.836ZM426.211 199.8L434.176 191.836H419.498L416.881 199.8H426.211ZM409.6 183.188L415.971 189.56H409.6V183.188ZM421.432 189.56L427.804 183.188L434.176 189.56H421.432ZM412.33 182.733H425.073L418.702 189.105L412.33 182.733ZM614.4 180.458H597.561H595.74L586.865 189.332L585.5 190.698L594.602 199.8H614.4V180.458ZM597.788 199.8L589.824 191.836H604.501L607.118 199.8H597.788ZM614.4 191.836H606.89L609.507 199.8H614.4V191.836ZM589.824 189.56L596.195 183.188L602.567 189.56H589.824ZM614.4 183.188L608.028 189.56H614.4V183.188ZM605.297 189.105L611.669 182.733H598.926L605.297 189.105ZM583.566 24.2409L585.159 25.8338L546.588 64.4044L544.995 62.8116L583.566 24.2409ZM585.159 168.966L583.566 170.559L544.995 131.988L546.588 130.396L585.159 168.966ZM440.433 170.559L438.841 168.966L477.411 130.396L479.004 131.988L440.433 170.559ZM438.841 25.8338L440.433 24.2409L479.004 62.8116L477.411 64.4044L438.841 25.8338ZM409.6 91.7111C412.103 91.7111 414.151 93.7591 414.151 96.2622C414.151 98.7653 412.103 100.813 409.6 100.813V91.7111ZM614.4 91.7111C611.897 91.7111 609.849 93.7591 609.849 96.2622C609.849 98.7653 611.897 100.813 614.4 100.813V91.7111ZM516.551 -5C516.551 -2.49689 514.503 -0.448889 512 -0.448889C509.497 -0.448889 507.449 -2.49689 507.449 -5H516.551ZM516.551 199.8C516.551 197.297 514.503 195.249 512 195.249C509.497 195.249 507.449 197.297 507.449 199.8H516.551Z" fill="#093C70"/>
<path fill-rule="evenodd" clip-rule="evenodd" d="M706.902 95.1244H692.224L714.184 117.084L706.902 95.1244ZM709.291 95.1244H724.31L716.8 117.652L709.291 95.1244ZM726.699 95.1244H741.376L719.417 117.084L726.699 95.1244ZM689.266 92.6213L698.141 83.7467H699.961H734.777H735.46L736.029 84.3156L744.335 92.6213L745.7 93.9867L717.597 122.09L716.8 122.886L687.901 93.9867L689.266 92.6213ZM692.224 92.8489L698.596 86.4773L704.967 92.8489H692.224ZM710.429 92.8489L716.8 86.4773L723.172 92.8489H710.429ZM728.633 92.8489L735.005 86.4773L741.376 92.8489H728.633ZM719.531 86.0222H732.274L725.903 92.3938L719.531 86.0222ZM707.698 92.3938L714.07 86.0222H701.327L707.698 92.3938ZM634.198 -5L615.197 14.0009L614.4 14.7973V-5H634.198ZM619.293 -5L614.4 9.56356V-5H619.293ZM631.012 -5L617.017 8.99467L621.682 -5H631.012ZM819.2 14.7973L799.403 -5H819.2V14.7973ZM802.589 -5L816.584 8.99467L811.919 -5H802.589ZM819.2 9.56356L814.308 -5H819.2V9.56356ZM614.4 180.458H632.377H633.06L633.629 181.027L641.935 189.332L643.3 190.698L634.198 199.8H614.4V180.458ZM614.4 191.836H621.91L619.293 199.8H614.4V191.836ZM631.012 199.8L638.976 191.836H624.299L621.682 199.8H631.012ZM614.4 183.188L620.772 189.56H614.4V183.188ZM626.233 189.56L632.605 183.188L638.976 189.56H626.233ZM617.131 182.733H629.874L623.503 189.105L617.131 182.733ZM819.2 180.458H802.361H800.541L791.666 189.332L790.301 190.698L799.403 199.8H819.2V180.458ZM802.589 199.8L794.624 191.836H809.302L811.919 199.8H802.589ZM819.2 191.836H811.691L814.308 199.8H819.2V191.836ZM794.624 189.56L800.996 183.188L807.367 189.56H794.624ZM819.2 183.188L812.829 189.56H819.2V183.188ZM810.098 189.105L816.47 182.733H803.727L810.098 189.105ZM788.367 24.2409L789.959 25.8338L751.389 64.4044L749.796 62.8116L788.367 24.2409ZM789.959 168.966L788.367 170.559L749.796 131.988L751.389 130.396L789.959 168.966ZM645.234 170.559L643.641 168.966L682.212 130.396L683.805 131.988L645.234 170.559ZM643.641 25.8338L645.234 24.2409L683.805 62.8116L682.212 64.4044L643.641 25.8338ZM614.4 91.7111C616.904 91.7111 618.952 93.7591 618.952 96.2622C618.952 98.7653 616.904 100.813 614.4 100.813V91.7111ZM819.2 91.7111C816.697 91.7111 814.649 93.7591 814.649 96.2622C814.649 98.7653 816.697 100.813 819.2 100.813V91.7111ZM721.352 -5C721.352 -2.49689 719.304 -0.448889 716.8 -0.448889C714.297 -0.448889 712.249 -2.49689 712.249 -5H721.352ZM721.352 199.8C721.352 197.297 719.304 195.249 716.8 195.249C714.297 195.249 712.249 197.297 712.249 199.8H721.352Z" fill="#093C70"/>
<path fill-rule="evenodd" clip-rule="evenodd" d="M911.702 95.1244H897.024L918.983 117.084L911.702 95.1244ZM914.091 95.1244H929.11L921.6 117.652L914.091 95.1244ZM931.499 95.1244H946.176L924.217 117.084L931.499 95.1244ZM894.066 92.6213L902.941 83.7467H904.761H939.577H940.26L940.829 84.3156L949.134 92.6213L950.5 93.9867L922.397 122.09L921.6 122.886L892.701 93.9867L894.066 92.6213ZM897.024 92.8489L903.396 86.4773L909.767 92.8489H897.024ZM915.229 92.8489L921.6 86.4773L927.972 92.8489H915.229ZM933.433 92.8489L939.805 86.4773L946.176 92.8489H933.433ZM924.331 86.0222H937.074L930.702 92.3938L924.331 86.0222ZM912.498 92.3938L918.87 86.0222H906.126L912.498 92.3938ZM838.998 -5L819.997 14.0009L819.2 14.7973V-5H838.998ZM824.093 -5L819.2 9.56356V-5H824.093ZM835.812 -5L821.817 8.99467L826.482 -5H835.812ZM1024 14.7973L1004.2 -5H1024V14.7973ZM1007.39 -5L1021.38 8.99467L1016.72 -5H1007.39ZM1024 9.56356L1019.11 -5H1024V9.56356ZM819.2 180.458H837.177H837.86L838.429 181.027L846.734 189.332L848.1 190.698L838.998 199.8H819.2V180.458ZM819.2 191.836H826.71L824.093 199.8H819.2V191.836ZM835.812 199.8L843.776 191.836H829.099L826.482 199.8H835.812ZM819.2 183.188L825.572 189.56H819.2V183.188ZM831.033 189.56L837.405 183.188L843.776 189.56H831.033ZM821.931 182.733H834.674L828.302 189.105L821.931 182.733ZM1024 180.458H1007.16H1005.34L996.466 189.332L995.101 190.698L1004.2 199.8H1024V180.458ZM1007.39 199.8L999.424 191.836H1014.1L1016.72 199.8H1007.39ZM1024 191.836H1016.49L1019.11 199.8H1024V191.836ZM999.424 189.56L1005.8 183.188L1012.17 189.56H999.424ZM1024 183.188L1017.63 189.56H1024V183.188ZM1014.9 189.105L1021.27 182.733H1008.53L1014.9 189.105ZM993.166 24.2409L994.759 25.8338L956.189 64.4044L954.596 62.8116L993.166 24.2409ZM994.759 168.966L993.166 170.559L954.596 131.988L956.189 130.396L994.759 168.966ZM850.034 170.559L848.441 168.966L887.012 130.396L888.605 131.988L850.034 170.559ZM848.441 25.8338L850.034 24.2409L888.605 62.8116L887.012 64.4044L848.441 25.8338ZM819.2 91.7111C821.703 91.7111 823.751 93.7591 823.751 96.2622C823.751 98.7653 821.703 100.813 819.2 100.813V91.7111ZM1024 91.7111C1021.5 91.7111 1019.45 93.7591 1019.45 96.2622C1019.45 98.7653 1021.5 100.813 1024 100.813V91.7111ZM926.151 -5C926.151 -2.49689 924.103 -0.448889 921.6 -0.448889C919.097 -0.448889 917.049 -2.49689 917.049 -5H926.151ZM926.151 199.8C926.151 197.297 924.103 195.249 921.6 195.249C919.097 195.249 917.049 197.297 917.049 199.8H926.151Z" fill="#093C70"/>
<path fill-rule="evenodd" clip-rule="evenodd" d="M92.5013 299.924H77.824L99.7831 321.883L92.5013 299.924ZM94.8907 299.924H109.909L102.4 322.452L94.8907 299.924ZM112.299 299.924H126.976L105.017 321.883L112.299 299.924ZM74.8658 297.421L83.7404 288.546H85.5609H120.377H121.06L121.628 289.115L129.934 297.421L131.3 298.786L103.196 326.89L102.4 327.686L73.5004 298.786L74.8658 297.421ZM77.824 297.649L84.1956 291.277L90.5671 297.649H77.824ZM96.0284 297.649L102.4 291.277L108.772 297.649H96.0284ZM114.233 297.649L120.604 291.277L126.976 297.649H114.233ZM105.131 290.822H117.874L111.502 297.194L105.131 290.822ZM93.2978 297.194L99.6693 290.822H86.9262L93.2978 297.194ZM19.7973 199.8L0.796444 218.801L0 219.597V199.8H19.7973ZM4.89244 199.8L0 214.363V199.8H4.89244ZM16.6116 199.8L2.61689 213.794L7.28178 199.8H16.6116ZM204.8 219.597L185.003 199.8H204.8V219.597ZM188.188 199.8L202.183 213.794L197.518 199.8H188.188ZM204.8 214.363L199.908 199.8H204.8V214.363ZM0 385.258H17.9769H18.6596L19.2284 385.826L27.5342 394.132L28.8996 395.498L19.7973 404.6H0V385.258ZM0 396.635H7.50933L4.89244 404.6H0V396.635ZM16.6116 404.6L24.576 396.635H9.89867L7.28178 404.6H16.6116ZM0 387.988L6.37156 394.36H0V387.988ZM11.8329 394.36L18.2044 387.988L24.576 394.36H11.8329ZM2.73067 387.533H15.4738L9.10222 393.905L2.73067 387.533ZM204.8 385.258H187.961H186.14L177.266 394.132L175.9 395.498L185.003 404.6H204.8V385.258ZM188.188 404.6L180.224 396.635H194.901L197.518 404.6H188.188ZM204.8 396.635H197.291L199.908 404.6H204.8V396.635ZM180.224 394.36L186.596 387.988L192.967 394.36H180.224ZM204.8 387.988L198.428 394.36H204.8V387.988ZM195.698 393.905L202.069 387.533H189.326L195.698 393.905ZM173.966 229.041L175.559 230.634L136.988 269.204L135.396 267.611L173.966 229.041ZM175.559 373.766L173.966 375.359L135.396 336.788L136.988 335.195L175.559 373.766ZM30.8338 375.359L29.2409 373.766L67.8116 335.195L69.4044 336.788L30.8338 375.359ZM29.2409 230.634L30.8338 229.041L69.4044 267.611L67.8116 269.204L29.2409 230.634ZM0 296.511C2.50311 296.511 4.55111 298.559 4.55111 301.062C4.55111 303.565 2.50311 305.613 0 305.613V296.511ZM204.8 296.511C202.297 296.511 200.249 298.559 200.249 301.062C200.249 303.565 202.297 305.613 204.8 305.613V296.511ZM106.951 199.8C106.951 202.303 104.903 204.351 102.4 204.351C99.8969 204.351 97.8489 202.303 97.8489 199.8H106.951ZM106.951 404.6C106.951 402.097 104.903 400.049 102.4 400.049C99.8969 400.049 97.8489 402.097 97.8489 404.6H106.951Z" fill="#093C70"/>
<path fill-rule="evenodd" clip-rule="evenodd" d="M297.301 299.924H282.624L304.583 321.883L297.301 299.924ZM299.69 299.924H314.709L307.2 322.452L299.69 299.924ZM317.098 299.924H331.776L309.817 321.883L317.098 299.924ZM279.666 297.421L288.54 288.546H290.361H325.177H325.859L326.428 289.115L334.734 297.421L336.099 298.786L307.996 326.89L307.2 327.686L278.3 298.786L279.666 297.421ZM282.624 297.649L288.995 291.277L295.367 297.649H282.624ZM300.828 297.649L307.2 291.277L313.571 297.649H300.828ZM319.033 297.649L325.404 291.277L331.776 297.649H319.033ZM309.93 290.822H322.674L316.302 297.194L309.93 290.822ZM298.098 297.194L304.469 290.822H291.726L298.098 297.194ZM224.597 199.8L205.596 218.801L204.8 219.597V199.8H224.597ZM209.692 199.8L204.8 214.363V199.8H209.692ZM221.411 199.8L207.417 213.794L212.082 199.8H221.411ZM409.6 219.597L389.802 199.8H409.6V219.597ZM392.988 199.8L406.983 213.794L402.318 199.8H392.988ZM409.6 214.363L404.707 199.8H409.6V214.363ZM204.8 385.258H222.777H223.459L224.028 385.826L232.334 394.132L233.699 395.498L224.597 404.6H204.8V385.258ZM204.8 396.635H212.309L209.692 404.6H204.8V396.635ZM221.411 404.6L229.376 396.635H214.698L212.082 404.6H221.411ZM204.8 387.988L211.171 394.36H204.8V387.988ZM216.633 394.36L223.004 387.988L229.376 394.36H216.633ZM207.53 387.533H220.274L213.902 393.905L207.53 387.533ZM409.6 385.258H392.761H390.94L382.066 394.132L380.7 395.498L389.802 404.6H409.6V385.258ZM392.988 404.6L385.024 396.635H399.701L402.318 404.6H392.988ZM409.6 396.635H402.09L404.707 404.6H409.6V396.635ZM385.024 394.36L391.395 387.988L397.767 394.36H385.024ZM409.6 387.988L403.228 394.36H409.6V387.988ZM400.498 393.905L406.869 387.533H394.126L400.498 393.905ZM378.766 229.041L380.359 230.634L341.788 269.204L340.195 267.611L378.766 229.041ZM380.359 373.766L378.766 375.359L340.195 336.788L341.788 335.195L380.359 373.766ZM235.634 375.359L234.041 373.766L272.611 335.195L274.204 336.788L235.634 375.359ZM234.041 230.634L235.634 229.041L274.204 267.611L272.611 269.204L234.041 230.634ZM204.8 296.511C207.303 296.511 209.351 298.559 209.351 301.062C209.351 303.565 207.303 305.613 204.8 305.613V296.511ZM409.6 296.511C407.097 296.511 405.049 298.559 405.049 301.062C405.049 303.565 407.097 305.613 409.6 305.613V296.511ZM311.751 199.8C311.751 202.303 309.703 204.351 307.2 204.351C304.697 204.351 302.649 202.303 302.649 199.8H311.751ZM311.751 404.6C311.751 402.097 309.703 400.049 307.2 400.049C304.697 400.049 302.649 402.097 302.649 404.6H311.751Z" fill="#093C70"/>
<path fill-rule="evenodd" clip-rule="evenodd" d="M502.101 299.924H487.424L509.383 321.883L502.101 299.924ZM504.49 299.924H519.509L512 322.452L504.49 299.924ZM521.898 299.924H536.576L514.616 321.883L521.898 299.924ZM484.465 297.421L493.34 288.546H495.161H529.976H530.659L531.228 289.115L539.534 297.421L540.899 298.786L512.796 326.89L512 327.686L483.1 298.786L484.465 297.421ZM487.424 297.649L493.795 291.277L500.167 297.649H487.424ZM505.628 297.649L512 291.277L518.371 297.649H505.628ZM523.832 297.649L530.204 291.277L536.576 297.649H523.832ZM514.73 290.822H527.473L521.102 297.194L514.73 290.822ZM502.897 297.194L509.269 290.822H496.526L502.897 297.194ZM429.397 199.8L410.396 218.801L409.6 219.597V199.8H429.397ZM414.492 199.8L409.6 214.363V199.8H414.492ZM426.211 199.8L412.216 213.794L416.881 199.8H426.211ZM614.4 219.597L594.602 199.8H614.4V219.597ZM597.788 199.8L611.783 213.794L607.118 199.8H597.788ZM614.4 214.363L609.507 199.8H614.4V214.363ZM409.6 385.258H427.576H428.259L428.828 385.826L437.134 394.132L438.499 395.498L429.397 404.6H409.6V385.258ZM409.6 396.635H417.109L414.492 404.6H409.6V396.635ZM426.211 404.6L434.176 396.635H419.498L416.881 404.6H426.211ZM409.6 387.988L415.971 394.36H409.6V387.988ZM421.432 394.36L427.804 387.988L434.176 394.36H421.432ZM412.33 387.533H425.073L418.702 393.905L412.33 387.533ZM614.4 385.258H597.561H595.74L586.865 394.132L585.5 395.498L594.602 404.6H614.4V385.258ZM597.788 404.6L589.824 396.635H604.501L607.118 404.6H597.788ZM614.4 396.635H606.89L609.507 404.6H614.4V396.635ZM589.824 394.36L596.195 387.988L602.567 394.36H589.824ZM614.4 387.988L608.028 394.36H614.4V387.988ZM605.297 393.905L611.669 387.533H598.926L605.297 393.905ZM583.566 229.041L585.159 230.634L546.588 269.204L544.995 267.611L583.566 229.041ZM585.159 373.766L583.566 375.359L544.995 336.788L546.588 335.195L585.159 373.766ZM440.433 375.359L438.841 373.766L477.411 335.195L479.004 336.788L440.433 375.359ZM438.841 230.634L440.433 229.041L479.004 267.611L477.411 269.204L438.841 230.634ZM409.6 296.511C412.103 296.511 414.151 298.559 414.151 301.062C414.151 303.565 412.103 305.613 409.6 305.613V296.511ZM614.4 296.511C611.897 296.511 609.849 298.559 609.849 301.062C609.849 303.565 611.897 305.613 614.4 305.613V296.511ZM516.551 199.8C516.551 202.303 514.503 204.351 512 204.351C509.497 204.351 507.449 202.303 507.449 199.8H516.551ZM516.551 404.6C516.551 402.097 514.503 400.049 512 400.049C509.497 400.049 507.449 402.097 507.449 404.6H516.551Z" fill="#093C70"/>
<path fill-rule="evenodd" clip-rule="evenodd" d="M706.902 299.924H692.224L714.184 321.883L706.902 299.924ZM709.291 299.924H724.31L716.8 322.452L709.291 299.924ZM726.699 299.924H741.376L719.417 321.883L726.699 299.924ZM689.266 297.421L698.141 288.546H699.961H734.777H735.46L736.029 289.115L744.335 297.421L745.7 298.786L717.597 326.89L716.8 327.686L687.901 298.786L689.266 297.421ZM692.224 297.649L698.596 291.277L704.967 297.649H692.224ZM710.429 297.649L716.8 291.277L723.172 297.649H710.429ZM728.633 297.649L735.005 291.277L741.376 297.649H728.633ZM719.531 290.822H732.274L725.903 297.194L719.531 290.822ZM707.698 297.194L714.07 290.822H701.327L707.698 297.194ZM634.198 199.8L615.197 218.801L614.4 219.597V199.8H634.198ZM619.293 199.8L614.4 214.363V199.8H619.293ZM631.012 199.8L617.017 213.794L621.682 199.8H631.012ZM819.2 219.597L799.403 199.8H819.2V219.597ZM802.589 199.8L816.584 213.794L811.919 199.8H802.589ZM819.2 214.363L814.308 199.8H819.2V214.363ZM614.4 385.258H632.377H633.06L633.629 385.826L641.935 394.132L643.3 395.498L634.198 404.6H614.4V385.258ZM614.4 396.635H621.91L619.293 404.6H614.4V396.635ZM631.012 404.6L638.976 396.635H624.299L621.682 404.6H631.012ZM614.4 387.988L620.772 394.36H614.4V387.988ZM626.233 394.36L632.605 387.988L638.976 394.36H626.233ZM617.131 387.533H629.874L623.503 393.905L617.131 387.533ZM819.2 385.258H802.361H800.541L791.666 394.132L790.301 395.498L799.403 404.6H819.2V385.258ZM802.589 404.6L794.624 396.635H809.302L811.919 404.6H802.589ZM819.2 396.635H811.691L814.308 404.6H819.2V396.635ZM794.624 394.36L800.996 387.988L807.367 394.36H794.624ZM819.2 387.988L812.829 394.36H819.2V387.988ZM810.098 393.905L816.47 387.533H803.727L810.098 393.905ZM788.367 229.041L789.959 230.634L751.389 269.204L749.796 267.611L788.367 229.041ZM789.959 373.766L788.367 375.359L749.796 336.788L751.389 335.195L789.959 373.766ZM645.234 375.359L643.641 373.766L682.212 335.195L683.805 336.788L645.234 375.359ZM643.641 230.634L645.234 229.041L683.805 267.611L682.212 269.204L643.641 230.634ZM614.4 296.511C616.904 296.511 618.952 298.559 618.952 301.062C618.952 303.565 616.904 305.613 614.4 305.613V296.511ZM819.2 296.511C816.697 296.511 814.649 298.559 814.649 301.062C814.649 303.565 816.697 305.613 819.2 305.613V296.511ZM721.352 199.8C721.352 202.303 719.304 204.351 716.8 204.351C714.297 204.351 712.249 202.303 712.249 199.8H721.352ZM721.352 404.6C721.352 402.097 719.304 400.049 716.8 400.049C714.297 400.049 712.249 402.097 712.249 404.6H721.352Z" fill="#093C70"/>
<path fill-rule="evenodd" clip-rule="evenodd" d="M911.702 299.924H897.024L918.983 321.883L911.702 299.924ZM914.091 299.924H929.11L921.6 322.452L914.091 299.924ZM931.499 299.924H946.176L924.217 321.883L931.499 299.924ZM894.066 297.421L902.941 288.546H904.761H939.577H940.26L940.829 289.115L949.134 297.421L950.5 298.786L922.397 326.89L921.6 327.686L892.701 298.786L894.066 297.421ZM897.024 297.649L903.396 291.277L909.767 297.649H897.024ZM915.229 297.649L921.6 291.277L927.972 297.649H915.229ZM933.433 297.649L939.805 291.277L946.176 297.649H933.433ZM924.331 290.822H937.074L930.702 297.194L924.331 290.822ZM912.498 297.194L918.87 290.822H906.126L912.498 297.194ZM838.998 199.8L819.997 218.801L819.2 219.597V199.8H838.998ZM824.093 199.8L819.2 214.363V199.8H824.093ZM835.812 199.8L821.817 213.794L826.482 199.8H835.812ZM1024 219.597L1004.2 199.8H1024V219.597ZM1007.39 199.8L1021.38 213.794L1016.72 199.8H1007.39ZM1024 214.363L1019.11 199.8H1024V214.363ZM819.2 385.258H837.177H837.86L838.429 385.826L846.734 394.132L848.1 395.498L838.998 404.6H819.2V385.258ZM819.2 396.635H826.71L824.093 404.6H819.2V396.635ZM835.812 404.6L843.776 396.635H829.099L826.482 404.6H835.812ZM819.2 387.988L825.572 394.36H819.2V387.988ZM831.033 394.36L837.405 387.988L843.776 394.36H831.033ZM821.931 387.533H834.674L828.302 393.905L821.931 387.533ZM1024 385.258H1007.16H1005.34L996.466 394.132L995.101 395.498L1004.2 404.6H1024V385.258ZM1007.39 404.6L999.424 396.635H1014.1L1016.72 404.6H1007.39ZM1024 396.635H1016.49L1019.11 404.6H1024V396.635ZM999.424 394.36L1005.8 387.988L1012.17 394.36H999.424ZM1024 387.988L1017.63 394.36H1024V387.988ZM1014.9 393.905L1021.27 387.533H1008.53L1014.9 393.905ZM993.166 229.041L994.759 230.634L956.189 269.204L954.596 267.611L993.166 229.041ZM994.759 373.766L993.166 375.359L954.596 336.788L956.189 335.195L994.759 373.766ZM850.034 375.359L848.441 373.766L887.012 335.195L888.605 336.788L850.034 375.359ZM848.441 230.634L850.034 229.041L888.605 267.611L887.012 269.204L848.441 230.634ZM819.2 296.511C821.703 296.511 823.751 298.559 823.751 301.062C823.751 303.565 821.703 305.613 819.2 305.613V296.511ZM1024 296.511C1021.5 296.511 1019.45 298.559 1019.45 301.062C1019.45 303.565 1021.5 305.613 1024 305.613V296.511ZM926.151 199.8C926.151 202.303 924.103 204.351 921.6 204.351C919.097 204.351 917.049 202.303 917.049 199.8H926.151ZM926.151 404.6C926.151 402.097 924.103 400.049 921.6 400.049C919.097 400.049 917.049 402.097 917.049 404.6H926.151Z" fill="#093C70"/>
<path fill-rule="evenodd" clip-rule="evenodd" d="M92.5013 504.724H77.824L99.7831 526.683L92.5013 504.724ZM94.8907 504.724H109.909L102.4 527.252L94.8907 504.724ZM112.299 504.724H126.976L105.017 526.683L112.299 504.724ZM74.8658 502.221L83.7404 493.346H85.5609H120.377H121.06L121.628 493.915L129.934 502.221L131.3 503.586L103.196 531.689L102.4 532.486L73.5004 503.586L74.8658 502.221ZM77.824 502.449L84.1956 496.077L90.5671 502.449H77.824ZM96.0284 502.449L102.4 496.077L108.772 502.449H96.0284ZM114.233 502.449L120.604 496.077L126.976 502.449H114.233ZM105.131 495.622H117.874L111.502 501.993L105.131 495.622ZM93.2978 501.993L99.6693 495.622H86.9262L93.2978 501.993ZM19.7973 404.6L0.796444 423.601L0 424.397V404.6H19.7973ZM4.89244 404.6L0 419.163V404.6H4.89244ZM16.6116 404.6L2.61689 418.594L7.28178 404.6H16.6116ZM204.8 424.397L185.003 404.6H204.8V424.397ZM188.188 404.6L202.183 418.594L197.518 404.6H188.188ZM204.8 419.163L199.908 404.6H204.8V419.163ZM0 590.057H17.9769H18.6596L19.2284 590.626L27.5342 598.932L28.8996 600.297L19.7973 609.4H0V590.057ZM0 601.435H7.50933L4.89244 609.4H0V601.435ZM16.6116 609.4L24.576 601.435H9.89867L7.28178 609.4H16.6116ZM0 592.788L6.37156 599.16H0V592.788ZM11.8329 599.16L18.2044 592.788L24.576 599.16H11.8329ZM2.73067 592.333H15.4738L9.10222 598.704L2.73067 592.333ZM204.8 590.057H187.961H186.14L177.266 598.932L175.9 600.297L185.003 609.4H204.8V590.057ZM188.188 609.4L180.224 601.435H194.901L197.518 609.4H188.188ZM204.8 601.435H197.291L199.908 609.4H204.8V601.435ZM180.224 599.16L186.596 592.788L192.967 599.16H180.224ZM204.8 592.788L198.428 599.16H204.8V592.788ZM195.698 598.704L202.069 592.333H189.326L195.698 598.704ZM173.966 433.841L175.559 435.433L136.988 474.004L135.396 472.411L173.966 433.841ZM175.559 578.566L173.966 580.159L135.396 541.588L136.988 539.995L175.559 578.566ZM30.8338 580.159L29.2409 578.566L67.8116 539.995L69.4044 541.588L30.8338 580.159ZM29.2409 435.433L30.8338 433.841L69.4044 472.411L67.8116 474.004L29.2409 435.433ZM0 501.311C2.50311 501.311 4.55111 503.359 4.55111 505.862C4.55111 508.365 2.50311 510.413 0 510.413V501.311ZM204.8 501.311C202.297 501.311 200.249 503.359 200.249 505.862C200.249 508.365 202.297 510.413 204.8 510.413V501.311ZM106.951 404.6C106.951 407.103 104.903 409.151 102.4 409.151C99.8969 409.151 97.8489 407.103 97.8489 404.6H106.951ZM106.951 609.4C106.951 606.897 104.903 604.849 102.4 604.849C99.8969 604.849 97.8489 606.897 97.8489 609.4H106.951Z" fill="#093C70"/>
<path fill-rule="evenodd" clip-rule="evenodd" d="M297.301 504.724H282.624L304.583 526.683L297.301 504.724ZM299.69 504.724H314.709L307.2 527.252L299.69 504.724ZM317.098 504.724H331.776L309.817 526.683L317.098 504.724ZM279.666 502.221L288.54 493.346H290.361H325.177H325.859L326.428 493.915L334.734 502.221L336.099 503.586L307.996 531.689L307.2 532.486L278.3 503.586L279.666 502.221ZM282.624 502.449L288.995 496.077L295.367 502.449H282.624ZM300.828 502.449L307.2 496.077L313.571 502.449H300.828ZM319.033 502.449L325.404 496.077L331.776 502.449H319.033ZM309.93 495.622H322.674L316.302 501.993L309.93 495.622ZM298.098 501.993L304.469 495.622H291.726L298.098 501.993ZM224.597 404.6L205.596 423.601L204.8 424.397V404.6H224.597ZM209.692 404.6L204.8 419.163V404.6H209.692ZM221.411 404.6L207.417 418.594L212.082 404.6H221.411ZM409.6 424.397L389.802 404.6H409.6V424.397ZM392.988 404.6L406.983 418.594L402.318 404.6H392.988ZM409.6 419.163L404.707 404.6H409.6V419.163ZM204.8 590.057H222.777H223.459L224.028 590.626L232.334 598.932L233.699 600.297L224.597 609.4H204.8V590.057ZM204.8 601.435H212.309L209.692 609.4H204.8V601.435ZM221.411 609.4L229.376 601.435H214.698L212.082 609.4H221.411ZM204.8 592.788L211.171 599.16H204.8V592.788ZM216.633 599.16L223.004 592.788L229.376 599.16H216.633ZM207.53 592.333H220.274L213.902 598.704L207.53 592.333ZM409.6 590.057H392.761H390.94L382.066 598.932L380.7 600.297L389.802 609.4H409.6V590.057ZM392.988 609.4L385.024 601.435H399.701L402.318 609.4H392.988ZM409.6 601.435H402.09L404.707 609.4H409.6V601.435ZM385.024 599.16L391.395 592.788L397.767 599.16H385.024ZM409.6 592.788L403.228 599.16H409.6V592.788ZM400.498 598.704L406.869 592.333H394.126L400.498 598.704ZM378.766 433.841L380.359 435.433L341.788 474.004L340.195 472.411L378.766 433.841ZM380.359 578.566L378.766 580.159L340.195 541.588L341.788 539.995L380.359 578.566ZM235.634 580.159L234.041 578.566L272.611 539.995L274.204 541.588L235.634 580.159ZM234.041 435.433L235.634 433.841L274.204 472.411L272.611 474.004L234.041 435.433ZM204.8 501.311C207.303 501.311 209.351 503.359 209.351 505.862C209.351 508.365 207.303 510.413 204.8 510.413V501.311ZM409.6 501.311C407.097 501.311 405.049 503.359 405.049 505.862C405.049 508.365 407.097 510.413 409.6 510.413V501.311ZM311.751 404.6C311.751 407.103 309.703 409.151 307.2 409.151C304.697 409.151 302.649 407.103 302.649 404.6H311.751ZM311.751 609.4C311.751 606.897 309.703 604.849 307.2 604.849C304.697 604.849 302.649 606.897 302.649 609.4H311.751Z" fill="#093C70"/>
<path fill-rule="evenodd" clip-rule="evenodd" d="M502.101 504.724H487.424L509.383 526.683L502.101 504.724ZM504.49 504.724H519.509L512 527.252L504.49 504.724ZM521.898 504.724H536.576L514.616 526.683L521.898 504.724ZM484.465 502.221L493.34 493.346H495.161H529.976H530.659L531.228 493.915L539.534 502.221L540.899 503.586L512.796 531.689L512 532.486L483.1 503.586L484.465 502.221ZM487.424 502.449L493.795 496.077L500.167 502.449H487.424ZM505.628 502.449L512 496.077L518.371 502.449H505.628ZM523.832 502.449L530.204 496.077L536.576 502.449H523.832ZM514.73 495.622H527.473L521.102 501.993L514.73 495.622ZM502.897 501.993L509.269 495.622H496.526L502.897 501.993ZM429.397 404.6L410.396 423.601L409.6 424.397V404.6H429.397ZM414.492 404.6L409.6 419.163V404.6H414.492ZM426.211 404.6L412.216 418.594L416.881 404.6H426.211ZM614.4 424.397L594.602 404.6H614.4V424.397ZM597.788 404.6L611.783 418.594L607.118 404.6H597.788ZM614.4 419.163L609.507 404.6H614.4V419.163ZM409.6 590.057H427.576H428.259L428.828 590.626L437.134 598.932L438.499 600.297L429.397 609.4H409.6V590.057ZM409.6 601.435H417.109L414.492 609.4H409.6V601.435ZM426.211 609.4L434.176 601.435H419.498L416.881 609.4H426.211ZM409.6 592.788L415.971 599.16H409.6V592.788ZM421.432 599.16L427.804 592.788L434.176 599.16H421.432ZM412.33 592.333H425.073L418.702 598.704L412.33 592.333ZM614.4 590.057H597.561H595.74L586.865 598.932L585.5 600.297L594.602 609.4H614.4V590.057ZM597.788 609.4L589.824 601.435H604.501L607.118 609.4H597.788ZM614.4 601.435H606.89L609.507 609.4H614.4V601.435ZM589.824 599.16L596.195 592.788L602.567 599.16H589.824ZM614.4 592.788L608.028 599.16H614.4V592.788ZM605.297 598.704L611.669 592.333H598.926L605.297 598.704ZM583.566 433.841L585.159 435.433L546.588 474.004L544.995 472.411L583.566 433.841ZM585.159 578.566L583.566 580.159L544.995 541.588L546.588 539.995L585.159 578.566ZM440.433 580.159L438.841 578.566L477.411 539.995L479.004 541.588L440.433 580.159ZM438.841 435.433L440.433 433.841L479.004 472.411L477.411 474.004L438.841 435.433ZM409.6 501.311C412.103 501.311 414.151 503.359 414.151 505.862C414.151 508.365 412.103 510.413 409.6 510.413V501.311ZM614.4 501.311C611.897 501.311 609.849 503.359 609.849 505.862C609.849 508.365 611.897 510.413 614.4 510.413V501.311ZM516.551 404.6C516.551 407.103 514.503 409.151 512 409.151C509.497 409.151 507.449 407.103 507.449 404.6H516.551ZM516.551 609.4C516.551 606.897 514.503 604.849 512 604.849C509.497 604.849 507.449 606.897 507.449 609.4H516.551Z" fill="#093C70"/>
<path fill-rule="evenodd" clip-rule="evenodd" d="M706.902 504.724H692.224L714.184 526.683L706.902 504.724ZM709.291 504.724H724.31L716.8 527.252L709.291 504.724ZM726.699 504.724H741.376L719.417 526.683L726.699 504.724ZM689.266 502.221L698.141 493.346H699.961H734.777H735.46L736.029 493.915L744.335 502.221L745.7 503.586L717.597 531.689L716.8 532.486L687.901 503.586L689.266 502.221ZM692.224 502.449L698.596 496.077L704.967 502.449H692.224ZM710.429 502.449L716.8 496.077L723.172 502.449H710.429ZM728.633 502.449L735.005 496.077L741.376 502.449H728.633ZM719.531 495.622H732.274L725.903 501.993L719.531 495.622ZM707.698 501.993L714.07 495.622H701.327L707.698 501.993ZM634.198 404.6L615.197 423.601L614.4 424.397V404.6H634.198ZM619.293 404.6L614.4 419.163V404.6H619.293ZM631.012 404.6L617.017 418.594L621.682 404.6H631.012ZM819.2 424.397L799.403 404.6H819.2V424.397ZM802.589 404.6L816.584 418.594L811.919 404.6H802.589ZM819.2 419.163L814.308 404.6H819.2V419.163ZM614.4 590.057H632.377H633.06L633.629 590.626L641.935 598.932L643.3 600.297L634.198 609.4H614.4V590.057ZM614.4 601.435H621.91L619.293 609.4H614.4V601.435ZM631.012 609.4L638.976 601.435H624.299L621.682 609.4H631.012ZM614.4 592.788L620.772 599.16H614.4V592.788ZM626.233 599.16L632.605 592.788L638.976 599.16H626.233ZM617.131 592.333H629.874L623.503 598.704L617.131 592.333ZM819.2 590.057H802.361H800.541L791.666 598.932L790.301 600.297L799.403 609.4H819.2V590.057ZM802.589 609.4L794.624 601.435H809.302L811.919 609.4H802.589ZM819.2 601.435H811.691L814.308 609.4H819.2V601.435ZM794.624 599.16L800.996 592.788L807.367 599.16H794.624ZM819.2 592.788L812.829 599.16H819.2V592.788ZM810.098 598.704L816.47 592.333H803.727L810.098 598.704ZM788.367 433.841L789.959 435.433L751.389 474.004L749.796 472.411L788.367 433.841ZM789.959 578.566L788.367 580.159L749.796 541.588L751.389 539.995L789.959 578.566ZM645.234 580.159L643.641 578.566L682.212 539.995L683.805 541.588L645.234 580.159ZM643.641 435.433L645.234 433.841L683.805 472.411L682.212 474.004L643.641 435.433ZM614.4 501.311C616.904 501.311 618.952 503.359 618.952 505.862C618.952 508.365 616.904 510.413 614.4 510.413V501.311ZM819.2 501.311C816.697 501.311 814.649 503.359 814.649 505.862C814.649 508.365 816.697 510.413 819.2 510.413V501.311ZM721.352 404.6C721.352 407.103 719.304 409.151 716.8 409.151C714.297 409.151 712.249 407.103 712.249 404.6H721.352ZM721.352 609.4C721.352 606.897 719.304 604.849 716.8 604.849C714.297 604.849 712.249 606.897 712.249 609.4H721.352Z" fill="#093C70"/>
<path fill-rule="evenodd" clip-rule="evenodd" d="M911.702 504.724H897.024L918.983 526.683L911.702 504.724ZM914.091 504.724H929.11L921.6 527.252L914.091 504.724ZM931.499 504.724H946.176L924.217 526.683L931.499 504.724ZM894.066 502.221L902.941 493.346H904.761H939.577H940.26L940.829 493.915L949.134 502.221L950.5 503.586L922.397 531.689L921.6 532.486L892.701 503.586L894.066 502.221ZM897.024 502.449L903.396 496.077L909.767 502.449H897.024ZM915.229 502.449L921.6 496.077L927.972 502.449H915.229ZM933.433 502.449L939.805 496.077L946.176 502.449H933.433ZM924.331 495.622H937.074L930.702 501.993L924.331 495.622ZM912.498 501.993L918.87 495.622H906.126L912.498 501.993ZM838.998 404.6L819.997 423.601L819.2 424.397V404.6H838.998ZM824.093 404.6L819.2 419.163V404.6H824.093ZM835.812 404.6L821.817 418.594L826.482 404.6H835.812ZM1024 424.397L1004.2 404.6H1024V424.397ZM1007.39 404.6L1021.38 418.594L1016.72 404.6H1007.39ZM1024 419.163L1019.11 404.6H1024V419.163ZM819.2 590.057H837.177H837.86L838.429 590.626L846.734 598.932L848.1 600.297L838.998 609.4H819.2V590.057ZM819.2 601.435H826.71L824.093 609.4H819.2V601.435ZM835.812 609.4L843.776 601.435H829.099L826.482 609.4H835.812ZM819.2 592.788L825.572 599.16H819.2V592.788ZM831.033 599.16L837.405 592.788L843.776 599.16H831.033ZM821.931 592.333H834.674L828.302 598.704L821.931 592.333ZM1024 590.057H1007.16H1005.34L996.466 598.932L995.101 600.297L1004.2 609.4H1024V590.057ZM1007.39 609.4L999.424 601.435H1014.1L1016.72 609.4H1007.39ZM1024 601.435H1016.49L1019.11 609.4H1024V601.435ZM999.424 599.16L1005.8 592.788L1012.17 599.16H999.424ZM1024 592.788L1017.63 599.16H1024V592.788ZM1014.9 598.704L1021.27 592.333H1008.53L1014.9 598.704ZM993.166 433.841L994.759 435.433L956.189 474.004L954.596 472.411L993.166 433.841ZM994.759 578.566L993.166 580.159L954.596 541.588L956.189 539.995L994.759 578.566ZM850.034 580.159L848.441 578.566L887.012 539.995L888.605 541.588L850.034 580.159ZM848.441 435.433L850.034 433.841L888.605 472.411L887.012 474.004L848.441 435.433ZM819.2 501.311C821.703 501.311 823.751 503.359 823.751 505.862C823.751 508.365 821.703 510.413 819.2 510.413V501.311ZM1024 501.311C1021.5 501.311 1019.45 503.359 1019.45 505.862C1019.45 508.365 1021.5 510.413 1024 510.413V501.311ZM926.151 404.6C926.151 407.103 924.103 409.151 921.6 409.151C919.097 409.151 917.049 407.103 917.049 404.6H926.151ZM926.151 609.4C926.151 606.897 924.103 604.849 921.6 604.849C919.097 604.849 917.049 606.897 917.049 609.4H926.151Z" fill="#093C70"/>
<path fill-rule="evenodd" clip-rule="evenodd" d="M92.5013 709.525H77.824L99.7831 731.484L92.5013 709.525ZM94.8907 709.525H109.909L102.4 732.053L94.8907 709.525ZM112.299 709.525H126.976L105.017 731.484L112.299 709.525ZM74.8658 707.022L83.7404 698.147H85.5609H120.377H121.06L121.628 698.716L129.934 707.022L131.3 708.387L103.196 736.49L102.4 737.287L73.5004 708.387L74.8658 707.022ZM77.824 707.249L84.1956 700.878L90.5671 707.249H77.824ZM96.0284 707.249L102.4 700.878L108.772 707.249H96.0284ZM114.233 707.249L120.604 700.878L126.976 707.249H114.233ZM105.131 700.423H117.874L111.502 706.794L105.131 700.423ZM93.2978 706.794L99.6693 700.423H86.9262L93.2978 706.794ZM19.7973 609.4L0.796444 628.401L0 629.198V609.4H19.7973ZM4.89244 609.4L0 623.964V609.4H4.89244ZM16.6116 609.4L2.61689 623.395L7.28178 609.4H16.6116ZM204.8 629.198L185.003 609.4H204.8V629.198ZM188.188 609.4L202.183 623.395L197.518 609.4H188.188ZM204.8 623.964L199.908 609.4H204.8V623.964ZM0 794.858H17.9769H18.6596L19.2284 795.427L27.5342 803.733L28.8996 805.098L19.7973 814.2H0V794.858ZM0 806.236H7.50933L4.89244 814.2H0V806.236ZM16.6116 814.2L24.576 806.236H9.89867L7.28178 814.2H16.6116ZM0 797.589L6.37156 803.96H0V797.589ZM11.8329 803.96L18.2044 797.589L24.576 803.96H11.8329ZM2.73067 797.134H15.4738L9.10222 803.505L2.73067 797.134ZM204.8 794.858H187.961H186.14L177.266 803.733L175.9 805.098L185.003 814.2H204.8V794.858ZM188.188 814.2L180.224 806.236H194.901L197.518 814.2H188.188ZM204.8 806.236H197.291L199.908 814.2H204.8V806.236ZM180.224 803.96L186.596 797.589L192.967 803.96H180.224ZM204.8 797.589L198.428 803.96H204.8V797.589ZM195.698 803.505L202.069 797.134H189.326L195.698 803.505ZM173.966 638.641L175.559 640.234L136.988 678.805L135.396 677.212L173.966 638.641ZM175.559 783.367L173.966 784.959L135.396 746.389L136.988 744.796L175.559 783.367ZM30.8338 784.959L29.2409 783.367L67.8116 744.796L69.4044 746.389L30.8338 784.959ZM29.2409 640.234L30.8338 638.641L69.4044 677.212L67.8116 678.805L29.2409 640.234ZM0 706.112C2.50311 706.112 4.55111 708.16 4.55111 710.663C4.55111 713.166 2.50311 715.214 0 715.214V706.112ZM204.8 706.112C202.297 706.112 200.249 708.16 200.249 710.663C200.249 713.166 202.297 715.214 204.8 715.214V706.112ZM106.951 609.4C106.951 611.904 104.903 613.952 102.4 613.952C99.8969 613.952 97.8489 611.904 97.8489 609.4H106.951ZM106.951 814.2C106.951 811.697 104.903 809.649 102.4 809.649C99.8969 809.649 97.8489 811.697 97.8489 814.2H106.951Z" fill="#093C70"/>
<path fill-rule="evenodd" clip-rule="evenodd" d="M297.301 709.525H282.624L304.583 731.484L297.301 709.525ZM299.69 709.525H314.709L307.2 732.053L299.69 709.525ZM317.098 709.525H331.776L309.817 731.484L317.098 709.525ZM279.666 707.022L288.54 698.147H290.361H325.177H325.859L326.428 698.716L334.734 707.022L336.099 708.387L307.996 736.49L307.2 737.287L278.3 708.387L279.666 707.022ZM282.624 707.249L288.995 700.878L295.367 707.249H282.624ZM300.828 707.249L307.2 700.878L313.571 707.249H300.828ZM319.033 707.249L325.404 700.878L331.776 707.249H319.033ZM309.93 700.423H322.674L316.302 706.794L309.93 700.423ZM298.098 706.794L304.469 700.423H291.726L298.098 706.794ZM224.597 609.4L205.596 628.401L204.8 629.198V609.4H224.597ZM209.692 609.4L204.8 623.964V609.4H209.692ZM221.411 609.4L207.417 623.395L212.082 609.4H221.411ZM409.6 629.198L389.802 609.4H409.6V629.198ZM392.988 609.4L406.983 623.395L402.318 609.4H392.988ZM409.6 623.964L404.707 609.4H409.6V623.964ZM204.8 794.858H222.777H223.459L224.028 795.427L232.334 803.733L233.699 805.098L224.597 814.2H204.8V794.858ZM204.8 806.236H212.309L209.692 814.2H204.8V806.236ZM221.411 814.2L229.376 806.236H214.698L212.082 814.2H221.411ZM204.8 797.589L211.171 803.96H204.8V797.589ZM216.633 803.96L223.004 797.589L229.376 803.96H216.633ZM207.53 797.134H220.274L213.902 803.505L207.53 797.134ZM409.6 794.858H392.761H390.94L382.066 803.733L380.7 805.098L389.802 814.2H409.6V794.858ZM392.988 814.2L385.024 806.236H399.701L402.318 814.2H392.988ZM409.6 806.236H402.09L404.707 814.2H409.6V806.236ZM385.024 803.96L391.395 797.589L397.767 803.96H385.024ZM409.6 797.589L403.228 803.96H409.6V797.589ZM400.498 803.505L406.869 797.134H394.126L400.498 803.505ZM378.766 638.641L380.359 640.234L341.788 678.805L340.195 677.212L378.766 638.641ZM380.359 783.367L378.766 784.959L340.195 746.389L341.788 744.796L380.359 783.367ZM235.634 784.959L234.041 783.367L272.611 744.796L274.204 746.389L235.634 784.959ZM234.041 640.234L235.634 638.641L274.204 677.212L272.611 678.805L234.041 640.234ZM204.8 706.112C207.303 706.112 209.351 708.16 209.351 710.663C209.351 713.166 207.303 715.214 204.8 715.214V706.112ZM409.6 706.112C407.097 706.112 405.049 708.16 405.049 710.663C405.049 713.166 407.097 715.214 409.6 715.214V706.112ZM311.751 609.4C311.751 611.904 309.703 613.952 307.2 613.952C304.697 613.952 302.649 611.904 302.649 609.4H311.751ZM311.751 814.2C311.751 811.697 309.703 809.649 307.2 809.649C304.697 809.649 302.649 811.697 302.649 814.2H311.751Z" fill="#093C70"/>
<path fill-rule="evenodd" clip-rule="evenodd" d="M502.101 709.525H487.424L509.383 731.484L502.101 709.525ZM504.49 709.525H519.509L512 732.053L504.49 709.525ZM521.898 709.525H536.576L514.616 731.484L521.898 709.525ZM484.465 707.022L493.34 698.147H495.161H529.976H530.659L531.228 698.716L539.534 707.022L540.899 708.387L512.796 736.49L512 737.287L483.1 708.387L484.465 707.022ZM487.424 707.249L493.795 700.878L500.167 707.249H487.424ZM505.628 707.249L512 700.878L518.371 707.249H505.628ZM523.832 707.249L530.204 700.878L536.576 707.249H523.832ZM514.73 700.423H527.473L521.102 706.794L514.73 700.423ZM502.897 706.794L509.269 700.423H496.526L502.897 706.794ZM429.397 609.4L410.396 628.401L409.6 629.198V609.4H429.397ZM414.492 609.4L409.6 623.964V609.4H414.492ZM426.211 609.4L412.216 623.395L416.881 609.4H426.211ZM614.4 629.198L594.602 609.4H614.4V629.198ZM597.788 609.4L611.783 623.395L607.118 609.4H597.788ZM614.4 623.964L609.507 609.4H614.4V623.964ZM409.6 794.858H427.576H428.259L428.828 795.427L437.134 803.733L438.499 805.098L429.397 814.2H409.6V794.858ZM409.6 806.236H417.109L414.492 814.2H409.6V806.236ZM426.211 814.2L434.176 806.236H419.498L416.881 814.2H426.211ZM409.6 797.589L415.971 803.96H409.6V797.589ZM421.432 803.96L427.804 797.589L434.176 803.96H421.432ZM412.33 797.134H425.073L418.702 803.505L412.33 797.134ZM614.4 794.858H597.561H595.74L586.865 803.733L585.5 805.098L594.602 814.2H614.4V794.858ZM597.788 814.2L589.824 806.236H604.501L607.118 814.2H597.788ZM614.4 806.236H606.89L609.507 814.2H614.4V806.236ZM589.824 803.96L596.195 797.589L602.567 803.96H589.824ZM614.4 797.589L608.028 803.96H614.4V797.589ZM605.297 803.505L611.669 797.134H598.926L605.297 803.505ZM583.566 638.641L585.159 640.234L546.588 678.805L544.995 677.212L583.566 638.641ZM585.159 783.367L583.566 784.959L544.995 746.389L546.588 744.796L585.159 783.367ZM440.433 784.959L438.841 783.367L477.411 744.796L479.004 746.389L440.433 784.959ZM438.841 640.234L440.433 638.641L479.004 677.212L477.411 678.805L438.841 640.234ZM409.6 706.112C412.103 706.112 414.151 708.16 414.151 710.663C414.151 713.166 412.103 715.214 409.6 715.214V706.112ZM614.4 706.112C611.897 706.112 609.849 708.16 609.849 710.663C609.849 713.166 611.897 715.214 614.4 715.214V706.112ZM516.551 609.4C516.551 611.904 514.503 613.952 512 613.952C509.497 613.952 507.449 611.904 507.449 609.4H516.551ZM516.551 814.2C516.551 811.697 514.503 809.649 512 809.649C509.497 809.649 507.449 811.697 507.449 814.2H516.551Z" fill="#093C70"/>
<path fill-rule="evenodd" clip-rule="evenodd" d="M706.902 709.525H692.224L714.184 731.484L706.902 709.525ZM709.291 709.525H724.31L716.8 732.053L709.291 709.525ZM726.699 709.525H741.376L719.417 731.484L726.699 709.525ZM689.266 707.022L698.141 698.147H699.961H734.777H735.46L736.029 698.716L744.335 707.022L745.7 708.387L717.597 736.49L716.8 737.287L687.901 708.387L689.266 707.022ZM692.224 707.249L698.596 700.878L704.967 707.249H692.224ZM710.429 707.249L716.8 700.878L723.172 707.249H710.429ZM728.633 707.249L735.005 700.878L741.376 707.249H728.633ZM719.531 700.423H732.274L725.903 706.794L719.531 700.423ZM707.698 706.794L714.07 700.423H701.327L707.698 706.794ZM634.198 609.4L615.197 628.401L614.4 629.198V609.4H634.198ZM619.293 609.4L614.4 623.964V609.4H619.293ZM631.012 609.4L617.017 623.395L621.682 609.4H631.012ZM819.2 629.198L799.403 609.4H819.2V629.198ZM802.589 609.4L816.584 623.395L811.919 609.4H802.589ZM819.2 623.964L814.308 609.4H819.2V623.964ZM614.4 794.858H632.377H633.06L633.629 795.427L641.935 803.733L643.3 805.098L634.198 814.2H614.4V794.858ZM614.4 806.236H621.91L619.293 814.2H614.4V806.236ZM631.012 814.2L638.976 806.236H624.299L621.682 814.2H631.012ZM614.4 797.589L620.772 803.96H614.4V797.589ZM626.233 803.96L632.605 797.589L638.976 803.96H626.233ZM617.131 797.134H629.874L623.503 803.505L617.131 797.134ZM819.2 794.858H802.361H800.541L791.666 803.733L790.301 805.098L799.403 814.2H819.2V794.858ZM802.589 814.2L794.624 806.236H809.302L811.919 814.2H802.589ZM819.2 806.236H811.691L814.308 814.2H819.2V806.236ZM794.624 803.96L800.996 797.589L807.367 803.96H794.624ZM819.2 797.589L812.829 803.96H819.2V797.589ZM810.098 803.505L816.47 797.134H803.727L810.098 803.505ZM788.367 638.641L789.959 640.234L751.389 678.805L749.796 677.212L788.367 638.641ZM789.959 783.367L788.367 784.959L749.796 746.389L751.389 744.796L789.959 783.367ZM645.234 784.959L643.641 783.367L682.212 744.796L683.805 746.389L645.234 784.959ZM643.641 640.234L645.234 638.641L683.805 677.212L682.212 678.805L643.641 640.234ZM614.4 706.112C616.904 706.112 618.952 708.16 618.952 710.663C618.952 713.166 616.904 715.214 614.4 715.214V706.112ZM819.2 706.112C816.697 706.112 814.649 708.16 814.649 710.663C814.649 713.166 816.697 715.214 819.2 715.214V706.112ZM721.352 609.4C721.352 611.904 719.304 613.952 716.8 613.952C714.297 613.952 712.249 611.904 712.249 609.4H721.352ZM721.352 814.2C721.352 811.697 719.304 809.649 716.8 809.649C714.297 809.649 712.249 811.697 712.249 814.2H721.352Z" fill="#093C70"/>
<path fill-rule="evenodd" clip-rule="evenodd" d="M911.702 709.525H897.024L918.983 731.484L911.702 709.525ZM914.091 709.525H929.11L921.6 732.053L914.091 709.525ZM931.499 709.525H946.176L924.217 731.484L931.499 709.525ZM894.066 707.022L902.941 698.147H904.761H939.577H940.26L940.829 698.716L949.134 707.022L950.5 708.387L922.397 736.49L921.6 737.287L892.701 708.387L894.066 707.022ZM897.024 707.249L903.396 700.878L909.767 707.249H897.024ZM915.229 707.249L921.6 700.878L927.972 707.249H915.229ZM933.433 707.249L939.805 700.878L946.176 707.249H933.433ZM924.331 700.423H937.074L930.702 706.794L924.331 700.423ZM912.498 706.794L918.87 700.423H906.126L912.498 706.794ZM838.998 609.4L819.997 628.401L819.2 629.198V609.4H838.998ZM824.093 609.4L819.2 623.964V609.4H824.093ZM835.812 609.4L821.817 623.395L826.482 609.4H835.812ZM1024 629.198L1004.2 609.4H1024V629.198ZM1007.39 609.4L1021.38 623.395L1016.72 609.4H1007.39ZM1024 623.964L1019.11 609.4H1024V623.964ZM819.2 794.858H837.177H837.86L838.429 795.427L846.734 803.733L848.1 805.098L838.998 814.2H819.2V794.858ZM819.2 806.236H826.71L824.093 814.2H819.2V806.236ZM835.812 814.2L843.776 806.236H829.099L826.482 814.2H835.812ZM819.2 797.589L825.572 803.96H819.2V797.589ZM831.033 803.96L837.405 797.589L843.776 803.96H831.033ZM821.931 797.134H834.674L828.302 803.505L821.931 797.134ZM1024 794.858H1007.16H1005.34L996.466 803.733L995.101 805.098L1004.2 814.2H1024V794.858ZM1007.39 814.2L999.424 806.236H1014.1L1016.72 814.2H1007.39ZM1024 806.236H1016.49L1019.11 814.2H1024V806.236ZM999.424 803.96L1005.8 797.589L1012.17 803.96H999.424ZM1024 797.589L1017.63 803.96H1024V797.589ZM1014.9 803.505L1021.27 797.134H1008.53L1014.9 803.505ZM993.166 638.641L994.759 640.234L956.189 678.805L954.596 677.212L993.166 638.641ZM994.759 783.367L993.166 784.959L954.596 746.389L956.189 744.796L994.759 783.367ZM850.034 784.959L848.441 783.367L887.012 744.796L888.605 746.389L850.034 784.959ZM848.441 640.234L850.034 638.641L888.605 677.212L887.012 678.805L848.441 640.234ZM819.2 706.112C821.703 706.112 823.751 708.16 823.751 710.663C823.751 713.166 821.703 715.214 819.2 715.214V706.112ZM1024 706.112C1021.5 706.112 1019.45 708.16 1019.45 710.663C1019.45 713.166 1021.5 715.214 1024 715.214V706.112ZM926.151 609.4C926.151 611.904 924.103 613.952 921.6 613.952C919.097 613.952 917.049 611.904 917.049 609.4H926.151ZM926.151 814.2C926.151 811.697 924.103 809.649 921.6 809.649C919.097 809.649 917.049 811.697 917.049 814.2H926.151Z" fill="#093C70"/>
<path fill-rule="evenodd" clip-rule="evenodd" d="M92.5013 914.325H77.824L99.7831 936.284L92.5013 914.325ZM94.8907 914.325H109.909L102.4 936.853L94.8907 914.325ZM112.299 914.325H126.976L105.017 936.284L112.299 914.325ZM74.8658 911.822L83.7404 902.947H85.5609H120.377H121.06L121.628 903.516L129.934 911.822L131.3 913.187L103.196 941.29L102.4 942.086L73.5004 913.187L74.8658 911.822ZM77.824 912.049L84.1956 905.678L90.5671 912.049H77.824ZM96.0284 912.049L102.4 905.678L108.772 912.049H96.0284ZM114.233 912.049L120.604 905.678L126.976 912.049H114.233ZM105.131 905.222H117.874L111.502 911.594L105.131 905.222ZM93.2978 911.594L99.6693 905.222H86.9262L93.2978 911.594ZM19.7973 814.2L0.796444 833.201L0 833.998V814.2H19.7973ZM4.89244 814.2L0 828.764V814.2H4.89244ZM16.6116 814.2L2.61689 828.195L7.28178 814.2H16.6116ZM204.8 833.998L185.003 814.2H204.8V833.998ZM188.188 814.2L202.183 828.195L197.518 814.2H188.188ZM204.8 828.764L199.908 814.2H204.8V828.764ZM0 999.658H17.9769H18.6596L19.2284 1000.23L27.5342 1008.53L28.8996 1009.9L19.7973 1019H0V999.658ZM0 1011.04H7.50933L4.89244 1019H0V1011.04ZM16.6116 1019L24.576 1011.04H9.89867L7.28178 1019H16.6116ZM0 1002.39L6.37156 1008.76H0V1002.39ZM11.8329 1008.76L18.2044 1002.39L24.576 1008.76H11.8329ZM2.73067 1001.93H15.4738L9.10222 1008.31L2.73067 1001.93ZM204.8 999.658H187.961H186.14L177.266 1008.53L175.9 1009.9L185.003 1019H204.8V999.658ZM188.188 1019L180.224 1011.04H194.901L197.518 1019H188.188ZM204.8 1011.04H197.291L199.908 1019H204.8V1011.04ZM180.224 1008.76L186.596 1002.39L192.967 1008.76H180.224ZM204.8 1002.39L198.428 1008.76H204.8V1002.39ZM195.698 1008.31L202.069 1001.93H189.326L195.698 1008.31ZM173.966 843.441L175.559 845.034L136.988 883.605L135.396 882.012L173.966 843.441ZM175.559 988.166L173.966 989.759L135.396 951.189L136.988 949.596L175.559 988.166ZM30.8338 989.759L29.2409 988.166L67.8116 949.596L69.4044 951.189L30.8338 989.759ZM29.2409 845.034L30.8338 843.441L69.4044 882.012L67.8116 883.605L29.2409 845.034ZM0 910.911C2.50311 910.911 4.55111 912.959 4.55111 915.462C4.55111 917.966 2.50311 920.014 0 920.014V910.911ZM204.8 910.911C202.297 910.911 200.249 912.959 200.249 915.462C200.249 917.966 202.297 920.014 204.8 920.014V910.911ZM106.951 814.2C106.951 816.703 104.903 818.751 102.4 818.751C99.8969 818.751 97.8489 816.703 97.8489 814.2H106.951ZM106.951 1019C106.951 1016.5 104.903 1014.45 102.4 1014.45C99.8969 1014.45 97.8489 1016.5 97.8489 1019H106.951Z" fill="#093C70"/>
<path fill-rule="evenodd" clip-rule="evenodd" d="M297.301 914.325H282.624L304.583 936.284L297.301 914.325ZM299.69 914.325H314.709L307.2 936.853L299.69 914.325ZM317.098 914.325H331.776L309.817 936.284L317.098 914.325ZM279.666 911.822L288.54 902.947H290.361H325.177H325.859L326.428 903.516L334.734 911.822L336.099 913.187L307.996 941.29L307.2 942.086L278.3 913.187L279.666 911.822ZM282.624 912.049L288.995 905.678L295.367 912.049H282.624ZM300.828 912.049L307.2 905.678L313.571 912.049H300.828ZM319.033 912.049L325.404 905.678L331.776 912.049H319.033ZM309.93 905.222H322.674L316.302 911.594L309.93 905.222ZM298.098 911.594L304.469 905.222H291.726L298.098 911.594ZM224.597 814.2L205.596 833.201L204.8 833.998V814.2H224.597ZM209.692 814.2L204.8 828.764V814.2H209.692ZM221.411 814.2L207.417 828.195L212.082 814.2H221.411ZM409.6 833.998L389.802 814.2H409.6V833.998ZM392.988 814.2L406.983 828.195L402.318 814.2H392.988ZM409.6 828.764L404.707 814.2H409.6V828.764ZM204.8 999.658H222.777H223.459L224.028 1000.23L232.334 1008.53L233.699 1009.9L224.597 1019H204.8V999.658ZM204.8 1011.04H212.309L209.692 1019H204.8V1011.04ZM221.411 1019L229.376 1011.04H214.698L212.082 1019H221.411ZM204.8 1002.39L211.171 1008.76H204.8V1002.39ZM216.633 1008.76L223.004 1002.39L229.376 1008.76H216.633ZM207.53 1001.93H220.274L213.902 1008.31L207.53 1001.93ZM409.6 999.658H392.761H390.94L382.066 1008.53L380.7 1009.9L389.802 1019H409.6V999.658ZM392.988 1019L385.024 1011.04H399.701L402.318 1019H392.988ZM409.6 1011.04H402.09L404.707 1019H409.6V1011.04ZM385.024 1008.76L391.395 1002.39L397.767 1008.76H385.024ZM409.6 1002.39L403.228 1008.76H409.6V1002.39ZM400.498 1008.31L406.869 1001.93H394.126L400.498 1008.31ZM378.766 843.441L380.359 845.034L341.788 883.605L340.195 882.012L378.766 843.441ZM380.359 988.166L378.766 989.759L340.195 951.189L341.788 949.596L380.359 988.166ZM235.634 989.759L234.041 988.166L272.611 949.596L274.204 951.189L235.634 989.759ZM234.041 845.034L235.634 843.441L274.204 882.012L272.611 883.605L234.041 845.034ZM204.8 910.911C207.303 910.911 209.351 912.959 209.351 915.462C209.351 917.966 207.303 920.014 204.8 920.014V910.911ZM409.6 910.911C407.097 910.911 405.049 912.959 405.049 915.462C405.049 917.966 407.097 920.014 409.6 920.014V910.911ZM311.751 814.2C311.751 816.703 309.703 818.751 307.2 818.751C304.697 818.751 302.649 816.703 302.649 814.2H311.751ZM311.751 1019C311.751 1016.5 309.703 1014.45 307.2 1014.45C304.697 1014.45 302.649 1016.5 302.649 1019H311.751Z" fill="#093C70"/>
<path fill-rule="evenodd" clip-rule="evenodd" d="M502.101 914.325H487.424L509.383 936.284L502.101 914.325ZM504.49 914.325H519.509L512 936.853L504.49 914.325ZM521.898 914.325H536.576L514.616 936.284L521.898 914.325ZM484.465 911.822L493.34 902.947H495.161H529.976H530.659L531.228 903.516L539.534 911.822L540.899 913.187L512.796 941.29L512 942.086L483.1 913.187L484.465 911.822ZM487.424 912.049L493.795 905.678L500.167 912.049H487.424ZM505.628 912.049L512 905.678L518.371 912.049H505.628ZM523.832 912.049L530.204 905.678L536.576 912.049H523.832ZM514.73 905.222H527.473L521.102 911.594L514.73 905.222ZM502.897 911.594L509.269 905.222H496.526L502.897 911.594ZM429.397 814.2L410.396 833.201L409.6 833.998V814.2H429.397ZM414.492 814.2L409.6 828.764V814.2H414.492ZM426.211 814.2L412.216 828.195L416.881 814.2H426.211ZM614.4 833.998L594.602 814.2H614.4V833.998ZM597.788 814.2L611.783 828.195L607.118 814.2H597.788ZM614.4 828.764L609.507 814.2H614.4V828.764ZM409.6 999.658H427.576H428.259L428.828 1000.23L437.134 1008.53L438.499 1009.9L429.397 1019H409.6V999.658ZM409.6 1011.04H417.109L414.492 1019H409.6V1011.04ZM426.211 1019L434.176 1011.04H419.498L416.881 1019H426.211ZM409.6 1002.39L415.971 1008.76H409.6V1002.39ZM421.432 1008.76L427.804 1002.39L434.176 1008.76H421.432ZM412.33 1001.93H425.073L418.702 1008.31L412.33 1001.93ZM614.4 999.658H597.561H595.74L586.865 1008.53L585.5 1009.9L594.602 1019H614.4V999.658ZM597.788 1019L589.824 1011.04H604.501L607.118 1019H597.788ZM614.4 1011.04H606.89L609.507 1019H614.4V1011.04ZM589.824 1008.76L596.195 1002.39L602.567 1008.76H589.824ZM614.4 1002.39L608.028 1008.76H614.4V1002.39ZM605.297 1008.31L611.669 1001.93H598.926L605.297 1008.31ZM583.566 843.441L585.159 845.034L546.588 883.605L544.995 882.012L583.566 843.441ZM585.159 988.166L583.566 989.759L544.995 951.189L546.588 949.596L585.159 988.166ZM440.433 989.759L438.841 988.166L477.411 949.596L479.004 951.189L440.433 989.759ZM438.841 845.034L440.433 843.441L479.004 882.012L477.411 883.605L438.841 845.034ZM409.6 910.911C412.103 910.911 414.151 912.959 414.151 915.462C414.151 917.966 412.103 920.014 409.6 920.014V910.911ZM614.4 910.911C611.897 910.911 609.849 912.959 609.849 915.462C609.849 917.966 611.897 920.014 614.4 920.014V910.911ZM516.551 814.2C516.551 816.703 514.503 818.751 512 818.751C509.497 818.751 507.449 816.703 507.449 814.2H516.551ZM516.551 1019C516.551 1016.5 514.503 1014.45 512 1014.45C509.497 1014.45 507.449 1016.5 507.449 1019H516.551Z" fill="#093C70"/>
<path fill-rule="evenodd" clip-rule="evenodd" d="M706.902 914.325H692.224L714.184 936.284L706.902 914.325ZM709.291 914.325H724.31L716.8 936.853L709.291 914.325ZM726.699 914.325H741.376L719.417 936.284L726.699 914.325ZM689.266 911.822L698.141 902.947H699.961H734.777H735.46L736.029 903.516L744.335 911.822L745.7 913.187L717.597 941.29L716.8 942.086L687.901 913.187L689.266 911.822ZM692.224 912.049L698.596 905.678L704.967 912.049H692.224ZM710.429 912.049L716.8 905.678L723.172 912.049H710.429ZM728.633 912.049L735.005 905.678L741.376 912.049H728.633ZM719.531 905.222H732.274L725.903 911.594L719.531 905.222ZM707.698 911.594L714.07 905.222H701.327L707.698 911.594ZM634.198 814.2L615.197 833.201L614.4 833.998V814.2H634.198ZM619.293 814.2L614.4 828.764V814.2H619.293ZM631.012 814.2L617.017 828.195L621.682 814.2H631.012ZM819.2 833.998L799.403 814.2H819.2V833.998ZM802.589 814.2L816.584 828.195L811.919 814.2H802.589ZM819.2 828.764L814.308 814.2H819.2V828.764ZM614.4 999.658H632.377H633.06L633.629 1000.23L641.935 1008.53L643.3 1009.9L634.198 1019H614.4V999.658ZM614.4 1011.04H621.91L619.293 1019H614.4V1011.04ZM631.012 1019L638.976 1011.04H624.299L621.682 1019H631.012ZM614.4 1002.39L620.772 1008.76H614.4V1002.39ZM626.233 1008.76L632.605 1002.39L638.976 1008.76H626.233ZM617.131 1001.93H629.874L623.503 1008.31L617.131 1001.93ZM819.2 999.658H802.361H800.541L791.666 1008.53L790.301 1009.9L799.403 1019H819.2V999.658ZM802.589 1019L794.624 1011.04H809.302L811.919 1019H802.589ZM819.2 1011.04H811.691L814.308 1019H819.2V1011.04ZM794.624 1008.76L800.996 1002.39L807.367 1008.76H794.624ZM819.2 1002.39L812.829 1008.76H819.2V1002.39ZM810.098 1008.31L816.47 1001.93H803.727L810.098 1008.31ZM788.367 843.441L789.959 845.034L751.389 883.605L749.796 882.012L788.367 843.441ZM789.959 988.166L788.367 989.759L749.796 951.189L751.389 949.596L789.959 988.166ZM645.234 989.759L643.641 988.166L682.212 949.596L683.805 951.189L645.234 989.759ZM643.641 845.034L645.234 843.441L683.805 882.012L682.212 883.605L643.641 845.034ZM614.4 910.911C616.904 910.911 618.952 912.959 618.952 915.462C618.952 917.966 616.904 920.014 614.4 920.014V910.911ZM819.2 910.911C816.697 910.911 814.649 912.959 814.649 915.462C814.649 917.966 816.697 920.014 819.2 920.014V910.911ZM721.352 814.2C721.352 816.703 719.304 818.751 716.8 818.751C714.297 818.751 712.249 816.703 712.249 814.2H721.352ZM721.352 1019C721.352 1016.5 719.304 1014.45 716.8 1014.45C714.297 1014.45 712.249 1016.5 712.249 1019H721.352Z" fill="#093C70"/>
<path fill-rule="evenodd" clip-rule="evenodd" d="M911.702 914.325H897.024L918.983 936.284L911.702 914.325ZM914.091 914.325H929.11L921.6 936.853L914.091 914.325ZM931.499 914.325H946.176L924.217 936.284L931.499 914.325ZM894.066 911.822L902.941 902.947H904.761H939.577H940.26L940.829 903.516L949.134 911.822L950.5 913.187L922.397 941.29L921.6 942.086L892.701 913.187L894.066 911.822ZM897.024 912.049L903.396 905.678L909.767 912.049H897.024ZM915.229 912.049L921.6 905.678L927.972 912.049H915.229ZM933.433 912.049L939.805 905.678L946.176 912.049H933.433ZM924.331 905.222H937.074L930.702 911.594L924.331 905.222ZM912.498 911.594L918.87 905.222H906.126L912.498 911.594ZM838.998 814.2L819.997 833.201L819.2 833.998V814.2H838.998ZM824.093 814.2L819.2 828.764V814.2H824.093ZM835.812 814.2L821.817 828.195L826.482 814.2H835.812ZM1024 833.998L1004.2 814.2H1024V833.998ZM1007.39 814.2L1021.38 828.195L1016.72 814.2H1007.39ZM1024 828.764L1019.11 814.2H1024V828.764ZM819.2 999.658H837.177H837.86L838.429 1000.23L846.734 1008.53L848.1 1009.9L838.998 1019H819.2V999.658ZM819.2 1011.04H826.71L824.093 1019H819.2V1011.04ZM835.812 1019L843.776 1011.04H829.099L826.482 1019H835.812ZM819.2 1002.39L825.572 1008.76H819.2V1002.39ZM831.033 1008.76L837.405 1002.39L843.776 1008.76H831.033ZM821.931 1001.93H834.674L828.302 1008.31L821.931 1001.93ZM1024 999.658H1007.16H1005.34L996.466 1008.53L995.101 1009.9L1004.2 1019H1024V999.658ZM1007.39 1019L999.424 1011.04H1014.1L1016.72 1019H1007.39ZM1024 1011.04H1016.49L1019.11 1019H1024V1011.04ZM999.424 1008.76L1005.8 1002.39L1012.17 1008.76H999.424ZM1024 1002.39L1017.63 1008.76H1024V1002.39ZM1014.9 1008.31L1021.27 1001.93H1008.53L1014.9 1008.31ZM993.166 843.441L994.759 845.034L956.189 883.605L954.596 882.012L993.166 843.441ZM994.759 988.166L993.166 989.759L954.596 951.189L956.189 949.596L994.759 988.166ZM850.034 989.759L848.441 988.166L887.012 949.596L888.605 951.189L850.034 989.759ZM848.441 845.034L850.034 843.441L888.605 882.012L887.012 883.605L848.441 845.034ZM819.2 910.911C821.703 910.911 823.751 912.959 823.751 915.462C823.751 917.966 821.703 920.014 819.2 920.014V910.911ZM1024 910.911C1021.5 910.911 1019.45 912.959 1019.45 915.462C1019.45 917.966 1021.5 920.014 1024 920.014V910.911ZM926.151 814.2C926.151 816.703 924.103 818.751 921.6 818.751C919.097 818.751 917.049 816.703 917.049 814.2H926.151ZM926.151 1019C926.151 1016.5 924.103 1014.45 921.6 1014.45C919.097 1014.45 917.049 1016.5 917.049 1019H926.151Z" fill="#093C70"/>
</g>
</g>
<defs>
<clipPath id="clip0_295_69663">
<rect width="1024" height="1024" fill="white"/>
</clipPath>
<clipPath id="clip1_295_69663">
<rect width="1024" height="1024" fill="white" transform="translate(0 -5)"/>
</clipPath>
</defs>
</svg>
