<svg width="1024" height="1024" viewBox="0 0 1024 1024" fill="none" xmlns="http://www.w3.org/2000/svg">
<g clip-path="url(#clip0_295_75648)">
<rect width="1024" height="1024" fill="#04274B"/>
<path fill-rule="evenodd" clip-rule="evenodd" d="M78.7096 0H96.2006V179.946H78.7096V0ZM298.222 7.19782L313.089 16.1951L225.634 171.848L210.767 162.851L298.222 7.19782ZM123.312 187.143L138.179 196.141L50.7239 351.794L35.8566 342.796L123.312 187.143ZM508.988 36.8888L517.734 52.1842L366.437 142.157L357.691 126.862L508.988 36.8888ZM159.168 396.78L167.914 412.075L16.6165 502.048L7.87096 486.753L159.168 396.78ZM699.641 80.9755V98.9701H524.73V80.9755H699.641ZM174.91 620.812V638.807H0V620.812H174.91ZM868.429 125.962L859.683 141.257L708.386 51.2845L717.132 35.9891L868.429 125.962ZM168.788 845.744L160.043 861.039L8.74551 771.067L17.491 755.771L168.788 845.744ZM1013.6 163.75L998.737 172.748L911.282 17.0948L926.149 8.09755L1013.6 163.75ZM139.054 1063.48L124.186 1072.48L36.7311 916.823L51.5985 907.825L139.054 1063.48ZM334.078 216.834L342.824 232.13L191.527 322.103L182.781 306.807L334.078 216.834ZM524.73 260.921V278.916H349.82V260.921H524.73ZM693.519 305.907L684.773 321.203L533.476 231.23L542.221 215.935L693.519 305.907ZM838.694 343.696L823.827 352.693L736.372 197.04L751.239 188.043L838.694 343.696ZM970.751 359.891H953.26V179.946H970.751V359.891ZM997.862 367.089L1012.73 376.086L925.275 531.739L910.407 522.742L997.862 367.089ZM349.82 440.867V458.861H174.91V440.867H349.82ZM518.609 485.853L509.863 501.148L358.566 411.176L367.311 395.88L518.609 485.853ZM663.784 523.642L648.917 532.639L561.461 376.986L576.329 367.989L663.784 523.642ZM795.841 539.837H778.35V359.891H795.841V539.837ZM822.952 547.034L837.82 556.032L750.364 711.685L735.497 702.687L822.952 547.034ZM1033.72 576.725L1042.46 592.021L891.167 681.994L882.422 666.698L1033.72 576.725ZM343.698 665.799L334.953 681.094L183.656 591.121L192.401 575.826L343.698 665.799ZM488.874 703.587L474.006 712.584L386.551 556.932L401.419 547.934L488.874 703.587ZM620.931 719.782H603.44V539.837H620.931V719.782ZM648.042 726.98L662.909 735.977L575.454 891.63L560.587 882.633L648.042 726.98ZM858.809 756.671L867.554 771.966L716.257 861.939L707.511 846.644L858.809 756.671ZM1049.46 800.758V818.752H874.551V800.758H1049.46ZM313.964 883.533L299.096 892.53L211.641 736.877L226.509 727.88L313.964 883.533ZM446.021 899.728H428.53V719.782H446.021V899.728ZM473.132 906.926L487.999 915.923L400.544 1071.58L385.677 1062.58L473.132 906.926ZM683.899 936.617L692.644 951.912L541.347 1041.88L532.601 1026.59L683.899 936.617ZM874.551 980.703V998.698H699.641V980.703H874.551ZM1043.34 1025.69L1034.59 1040.99L883.296 951.012L892.042 935.717L1043.34 1025.69ZM271.111 1079.67H253.62V899.728H271.111V1079.67Z" fill="#093C70"/>
</g>
<defs>
<clipPath id="clip0_295_75648">
<rect width="1024" height="1024" fill="white"/>
</clipPath>
</defs>
</svg>
