<svg width="1024" height="1024" viewBox="0 0 1024 1024" fill="none" xmlns="http://www.w3.org/2000/svg">
<g clip-path="url(#clip0_295_76384)">
<rect width="1024" height="1024" fill="#04274B"/>
<g clip-path="url(#clip1_295_76384)">
<path fill-rule="evenodd" clip-rule="evenodd" d="M41.1616 18.061C41.1616 9.00545 33.7525 1.59637 24.697 1.59637C11.1136 1.59637 0 -9.51726 0 -23.1006H8.23232C8.23232 -14.045 15.6414 -6.63595 24.697 -6.63595C38.2803 -6.63595 49.3939 4.47768 49.3939 18.061C49.3939 27.1166 56.803 34.5256 65.8585 34.5256C79.4419 34.5256 90.5555 45.6393 90.5555 59.2226C90.5555 68.2781 97.9646 75.6872 107.02 75.6872V83.9195C93.4368 83.9195 82.3232 72.8059 82.3232 59.2226C82.3232 50.167 74.9141 42.758 65.8585 42.758C52.2752 42.758 41.1616 31.6443 41.1616 18.061ZM146.124 10.2403L181.111 45.2277L175.348 50.9903L139.949 16.0029C139.949 16.0029 146.124 9.82869 146.124 10.2403Z" fill="#093C70"/>
</g>
<g clip-path="url(#clip2_295_76384)">
<path fill-rule="evenodd" clip-rule="evenodd" d="M41.1616 125.082C41.1616 116.026 33.7525 108.617 24.697 108.617C11.1136 108.617 0 97.5032 0 83.9199H8.23232C8.23232 92.9755 15.6414 100.385 24.697 100.385C38.2803 100.385 49.3939 111.498 49.3939 125.082C49.3939 134.137 56.803 141.546 65.8585 141.546C79.4419 141.546 90.5555 152.66 90.5555 166.243C90.5555 175.299 97.9646 182.708 107.02 182.708V190.94C93.4368 190.94 82.3232 179.826 82.3232 166.243C82.3232 157.188 74.9141 149.778 65.8585 149.778C52.2752 149.778 41.1616 138.665 41.1616 125.082ZM146.124 117.261L181.111 152.248L175.348 158.011L139.949 123.023C139.949 123.023 146.124 116.849 146.124 117.261Z" fill="#093C70"/>
</g>
<g clip-path="url(#clip3_295_76384)">
<path fill-rule="evenodd" clip-rule="evenodd" d="M41.1616 232.1C41.1616 223.045 33.7525 215.635 24.697 215.635C11.1136 215.635 0 204.522 0 190.938H8.23232C8.23232 199.994 15.6414 207.403 24.697 207.403C38.2803 207.403 49.3939 218.517 49.3939 232.1C49.3939 241.156 56.803 248.565 65.8585 248.565C79.4419 248.565 90.5555 259.678 90.5555 273.262C90.5555 282.317 97.9646 289.726 107.02 289.726V297.959C93.4368 297.959 82.3232 286.845 82.3232 273.262C82.3232 264.206 74.9141 256.797 65.8585 256.797C52.2752 256.797 41.1616 245.683 41.1616 232.1ZM146.124 224.279L181.111 259.267L175.348 265.029L139.949 230.042C139.949 230.042 146.124 223.868 146.124 224.279Z" fill="#093C70"/>
</g>
<g clip-path="url(#clip4_295_76384)">
<path fill-rule="evenodd" clip-rule="evenodd" d="M41.1616 339.122C41.1616 330.066 33.7525 322.657 24.697 322.657C11.1136 322.657 0 311.543 0 297.96H8.23232C8.23232 307.016 15.6414 314.425 24.697 314.425C38.2803 314.425 49.3939 325.538 49.3939 339.122C49.3939 348.177 56.803 355.586 65.8585 355.586C79.4419 355.586 90.5555 366.7 90.5555 380.283C90.5555 389.339 97.9646 396.748 107.02 396.748V404.98C93.4368 404.98 82.3232 393.866 82.3232 380.283C82.3232 371.228 74.9141 363.819 65.8585 363.819C52.2752 363.819 41.1616 352.705 41.1616 339.122ZM146.124 331.301L181.111 366.288L175.348 372.051L139.949 337.063C139.949 337.063 146.124 330.889 146.124 331.301Z" fill="#093C70"/>
</g>
<g clip-path="url(#clip5_295_76384)">
<path fill-rule="evenodd" clip-rule="evenodd" d="M41.1616 446.142C41.1616 437.087 33.7525 429.677 24.697 429.677C11.1136 429.677 0 418.564 0 404.98H8.23232C8.23232 414.036 15.6414 421.445 24.697 421.445C38.2803 421.445 49.3939 432.559 49.3939 446.142C49.3939 455.198 56.803 462.607 65.8585 462.607C79.4419 462.607 90.5555 473.72 90.5555 487.304C90.5555 496.359 97.9646 503.768 107.02 503.768V512.001C93.4368 512.001 82.3232 500.887 82.3232 487.304C82.3232 478.248 74.9141 470.839 65.8585 470.839C52.2752 470.839 41.1616 459.725 41.1616 446.142ZM146.124 438.321L181.111 473.309L175.348 479.071L139.949 444.084C139.949 444.084 146.124 437.91 146.124 438.321Z" fill="#093C70"/>
</g>
<g clip-path="url(#clip6_295_76384)">
<path fill-rule="evenodd" clip-rule="evenodd" d="M41.1616 553.161C41.1616 544.105 33.7525 536.696 24.697 536.696C11.1136 536.696 0 525.582 0 511.999H8.23232C8.23232 521.055 15.6414 528.464 24.697 528.464C38.2803 528.464 49.3939 539.577 49.3939 553.161C49.3939 562.216 56.803 569.625 65.8585 569.625C79.4419 569.625 90.5555 580.739 90.5555 594.322C90.5555 603.378 97.9646 610.787 107.02 610.787V619.019C93.4368 619.019 82.3232 607.906 82.3232 594.322C82.3232 585.267 74.9141 577.858 65.8585 577.858C52.2752 577.858 41.1616 566.744 41.1616 553.161ZM146.124 545.34L181.111 580.327L175.348 586.09L139.949 551.103C139.949 551.103 146.124 544.928 146.124 545.34Z" fill="#093C70"/>
</g>
<g clip-path="url(#clip7_295_76384)">
<path fill-rule="evenodd" clip-rule="evenodd" d="M41.1616 660.181C41.1616 651.126 33.7525 643.716 24.697 643.716C11.1136 643.716 0 632.603 0 619.02H8.23232C8.23232 628.075 15.6414 635.484 24.697 635.484C38.2803 635.484 49.3939 646.598 49.3939 660.181C49.3939 669.237 56.803 676.646 65.8585 676.646C79.4419 676.646 90.5555 687.759 90.5555 701.343C90.5555 710.398 97.9646 717.807 107.02 717.807V726.04C93.4368 726.04 82.3232 714.926 82.3232 701.343C82.3232 692.287 74.9141 684.878 65.8585 684.878C52.2752 684.878 41.1616 673.764 41.1616 660.181ZM146.124 652.36L181.111 687.348L175.348 693.11L139.949 658.123C139.949 658.123 146.124 651.949 146.124 652.36Z" fill="#093C70"/>
</g>
<g clip-path="url(#clip8_295_76384)">
<path fill-rule="evenodd" clip-rule="evenodd" d="M41.1616 767.202C41.1616 758.146 33.7525 750.737 24.697 750.737C11.1136 750.737 0 739.623 0 726.04H8.23232C8.23232 735.096 15.6414 742.505 24.697 742.505C38.2803 742.505 49.3939 753.618 49.3939 767.202C49.3939 776.257 56.803 783.666 65.8585 783.666C79.4419 783.666 90.5555 794.78 90.5555 808.363C90.5555 817.419 97.9646 824.828 107.02 824.828V833.06C93.4368 833.06 82.3232 821.947 82.3232 808.363C82.3232 799.308 74.9141 791.899 65.8585 791.899C52.2752 791.899 41.1616 780.785 41.1616 767.202ZM146.124 759.381L181.111 794.368L175.348 800.131L139.949 765.144C139.949 765.144 146.124 758.969 146.124 759.381Z" fill="#093C70"/>
</g>
<g clip-path="url(#clip9_295_76384)">
<path fill-rule="evenodd" clip-rule="evenodd" d="M41.1616 874.223C41.1616 865.168 33.7525 857.758 24.697 857.758C11.1136 857.758 0 846.645 0 833.062H8.23232C8.23232 842.117 15.6414 849.526 24.697 849.526C38.2803 849.526 49.3939 860.64 49.3939 874.223C49.3939 883.279 56.803 890.688 65.8585 890.688C79.4419 890.688 90.5555 901.801 90.5555 915.385C90.5555 924.44 97.9646 931.849 107.02 931.849V940.082C93.4368 940.082 82.3232 928.968 82.3232 915.385C82.3232 906.329 74.9141 898.92 65.8585 898.92C52.2752 898.92 41.1616 887.806 41.1616 874.223ZM146.124 866.402L181.111 901.39L175.348 907.152L139.949 872.165C139.949 872.165 146.124 865.991 146.124 866.402Z" fill="#093C70"/>
</g>
<g clip-path="url(#clip10_295_76384)">
<path fill-rule="evenodd" clip-rule="evenodd" d="M41.1616 981.242C41.1616 972.186 33.7525 964.777 24.697 964.777C11.1136 964.777 0 953.663 0 940.08H8.23232C8.23232 949.136 15.6414 956.545 24.697 956.545C38.2803 956.545 49.3939 967.658 49.3939 981.242C49.3939 990.297 56.803 997.706 65.8585 997.706C79.4419 997.706 90.5555 1008.82 90.5555 1022.4C90.5555 1031.46 97.9646 1038.87 107.02 1038.87V1047.1C93.4368 1047.1 82.3232 1035.99 82.3232 1022.4C82.3232 1013.35 74.9141 1005.94 65.8585 1005.94C52.2752 1005.94 41.1616 994.825 41.1616 981.242ZM146.124 973.421L181.111 1008.41L175.348 1014.17L139.949 979.184C139.949 979.184 146.124 973.009 146.124 973.421Z" fill="#093C70"/>
</g>
<g clip-path="url(#clip11_295_76384)">
<path fill-rule="evenodd" clip-rule="evenodd" d="M222.273 18.061C222.273 9.00545 214.864 1.59637 205.808 1.59637C192.225 1.59637 181.111 -9.51726 181.111 -23.1006H189.344C189.344 -14.045 196.753 -6.63595 205.808 -6.63595C219.392 -6.63595 230.505 4.47768 230.505 18.061C230.505 27.1166 237.914 34.5256 246.97 34.5256C260.553 34.5256 271.667 45.6393 271.667 59.2226C271.667 68.2781 279.076 75.6872 288.131 75.6872V83.9195C274.548 83.9195 263.434 72.8059 263.434 59.2226C263.434 50.167 256.025 42.758 246.97 42.758C233.387 42.758 222.273 31.6443 222.273 18.061ZM327.235 10.2403L362.222 45.2277L356.46 50.9903L321.061 16.0029C321.061 16.0029 327.235 9.82869 327.235 10.2403Z" fill="#093C70"/>
</g>
<g clip-path="url(#clip12_295_76384)">
<path fill-rule="evenodd" clip-rule="evenodd" d="M222.273 125.082C222.273 116.026 214.864 108.617 205.808 108.617C192.225 108.617 181.111 97.5032 181.111 83.9199H189.344C189.344 92.9755 196.753 100.385 205.808 100.385C219.392 100.385 230.505 111.498 230.505 125.082C230.505 134.137 237.914 141.546 246.97 141.546C260.553 141.546 271.667 152.66 271.667 166.243C271.667 175.299 279.076 182.708 288.131 182.708V190.94C274.548 190.94 263.434 179.826 263.434 166.243C263.434 157.188 256.025 149.778 246.97 149.778C233.387 149.778 222.273 138.665 222.273 125.082ZM327.235 117.261L362.222 152.248L356.46 158.011L321.061 123.023C321.061 123.023 327.235 116.849 327.235 117.261Z" fill="#093C70"/>
</g>
<g clip-path="url(#clip13_295_76384)">
<path fill-rule="evenodd" clip-rule="evenodd" d="M222.273 232.1C222.273 223.045 214.864 215.635 205.808 215.635C192.225 215.635 181.111 204.522 181.111 190.938H189.344C189.344 199.994 196.753 207.403 205.808 207.403C219.392 207.403 230.505 218.517 230.505 232.1C230.505 241.156 237.914 248.565 246.97 248.565C260.553 248.565 271.667 259.678 271.667 273.262C271.667 282.317 279.076 289.726 288.131 289.726V297.959C274.548 297.959 263.434 286.845 263.434 273.262C263.434 264.206 256.025 256.797 246.97 256.797C233.387 256.797 222.273 245.683 222.273 232.1ZM327.235 224.279L362.222 259.267L356.46 265.029L321.061 230.042C321.061 230.042 327.235 223.868 327.235 224.279Z" fill="#093C70"/>
</g>
<g clip-path="url(#clip14_295_76384)">
<path fill-rule="evenodd" clip-rule="evenodd" d="M222.273 339.122C222.273 330.066 214.864 322.657 205.808 322.657C192.225 322.657 181.111 311.543 181.111 297.96H189.344C189.344 307.016 196.753 314.425 205.808 314.425C219.392 314.425 230.505 325.538 230.505 339.122C230.505 348.177 237.914 355.586 246.97 355.586C260.553 355.586 271.667 366.7 271.667 380.283C271.667 389.339 279.076 396.748 288.131 396.748V404.98C274.548 404.98 263.434 393.866 263.434 380.283C263.434 371.228 256.025 363.819 246.97 363.819C233.387 363.819 222.273 352.705 222.273 339.122ZM327.235 331.301L362.222 366.288L356.46 372.051L321.061 337.063C321.061 337.063 327.235 330.889 327.235 331.301Z" fill="#093C70"/>
</g>
<g clip-path="url(#clip15_295_76384)">
<path fill-rule="evenodd" clip-rule="evenodd" d="M222.273 446.142C222.273 437.087 214.864 429.677 205.808 429.677C192.225 429.677 181.111 418.564 181.111 404.98H189.344C189.344 414.036 196.753 421.445 205.808 421.445C219.392 421.445 230.505 432.559 230.505 446.142C230.505 455.198 237.914 462.607 246.97 462.607C260.553 462.607 271.667 473.72 271.667 487.304C271.667 496.359 279.076 503.768 288.131 503.768V512.001C274.548 512.001 263.434 500.887 263.434 487.304C263.434 478.248 256.025 470.839 246.97 470.839C233.387 470.839 222.273 459.725 222.273 446.142ZM327.235 438.321L362.222 473.309L356.46 479.071L321.061 444.084C321.061 444.084 327.235 437.91 327.235 438.321Z" fill="#093C70"/>
</g>
<g clip-path="url(#clip16_295_76384)">
<path fill-rule="evenodd" clip-rule="evenodd" d="M222.273 553.161C222.273 544.105 214.864 536.696 205.808 536.696C192.225 536.696 181.111 525.582 181.111 511.999H189.344C189.344 521.055 196.753 528.464 205.808 528.464C219.392 528.464 230.505 539.577 230.505 553.161C230.505 562.216 237.914 569.625 246.97 569.625C260.553 569.625 271.667 580.739 271.667 594.322C271.667 603.378 279.076 610.787 288.131 610.787V619.019C274.548 619.019 263.434 607.906 263.434 594.322C263.434 585.267 256.025 577.858 246.97 577.858C233.387 577.858 222.273 566.744 222.273 553.161ZM327.235 545.34L362.222 580.327L356.46 586.09L321.061 551.103C321.061 551.103 327.235 544.928 327.235 545.34Z" fill="#093C70"/>
</g>
<g clip-path="url(#clip17_295_76384)">
<path fill-rule="evenodd" clip-rule="evenodd" d="M222.273 660.181C222.273 651.126 214.864 643.716 205.808 643.716C192.225 643.716 181.111 632.603 181.111 619.02H189.344C189.344 628.075 196.753 635.484 205.808 635.484C219.392 635.484 230.505 646.598 230.505 660.181C230.505 669.237 237.914 676.646 246.97 676.646C260.553 676.646 271.667 687.759 271.667 701.343C271.667 710.398 279.076 717.807 288.131 717.807V726.04C274.548 726.04 263.434 714.926 263.434 701.343C263.434 692.287 256.025 684.878 246.97 684.878C233.387 684.878 222.273 673.764 222.273 660.181ZM327.235 652.36L362.222 687.348L356.46 693.11L321.061 658.123C321.061 658.123 327.235 651.949 327.235 652.36Z" fill="#093C70"/>
</g>
<g clip-path="url(#clip18_295_76384)">
<path fill-rule="evenodd" clip-rule="evenodd" d="M222.273 767.202C222.273 758.146 214.864 750.737 205.808 750.737C192.225 750.737 181.111 739.623 181.111 726.04H189.344C189.344 735.096 196.753 742.505 205.808 742.505C219.392 742.505 230.505 753.618 230.505 767.202C230.505 776.257 237.914 783.666 246.97 783.666C260.553 783.666 271.667 794.78 271.667 808.363C271.667 817.419 279.076 824.828 288.131 824.828V833.06C274.548 833.06 263.434 821.947 263.434 808.363C263.434 799.308 256.025 791.899 246.97 791.899C233.387 791.899 222.273 780.785 222.273 767.202ZM327.235 759.381L362.222 794.368L356.46 800.131L321.061 765.144C321.061 765.144 327.235 758.969 327.235 759.381Z" fill="#093C70"/>
</g>
<g clip-path="url(#clip19_295_76384)">
<path fill-rule="evenodd" clip-rule="evenodd" d="M222.273 874.223C222.273 865.168 214.864 857.758 205.808 857.758C192.225 857.758 181.111 846.645 181.111 833.062H189.344C189.344 842.117 196.753 849.526 205.808 849.526C219.392 849.526 230.505 860.64 230.505 874.223C230.505 883.279 237.914 890.688 246.97 890.688C260.553 890.688 271.667 901.801 271.667 915.385C271.667 924.44 279.076 931.849 288.131 931.849V940.082C274.548 940.082 263.434 928.968 263.434 915.385C263.434 906.329 256.025 898.92 246.97 898.92C233.387 898.92 222.273 887.806 222.273 874.223ZM327.235 866.402L362.222 901.39L356.46 907.152L321.061 872.165C321.061 872.165 327.235 865.991 327.235 866.402Z" fill="#093C70"/>
</g>
<g clip-path="url(#clip20_295_76384)">
<path fill-rule="evenodd" clip-rule="evenodd" d="M222.273 981.242C222.273 972.186 214.864 964.777 205.808 964.777C192.225 964.777 181.111 953.663 181.111 940.08H189.344C189.344 949.136 196.753 956.545 205.808 956.545C219.392 956.545 230.505 967.658 230.505 981.242C230.505 990.297 237.914 997.706 246.97 997.706C260.553 997.706 271.667 1008.82 271.667 1022.4C271.667 1031.46 279.076 1038.87 288.131 1038.87V1047.1C274.548 1047.1 263.434 1035.99 263.434 1022.4C263.434 1013.35 256.025 1005.94 246.97 1005.94C233.387 1005.94 222.273 994.825 222.273 981.242ZM327.235 973.421L362.222 1008.41L356.46 1014.17L321.061 979.184C321.061 979.184 327.235 973.009 327.235 973.421Z" fill="#093C70"/>
</g>
<g clip-path="url(#clip21_295_76384)">
<path fill-rule="evenodd" clip-rule="evenodd" d="M403.384 18.061C403.384 9.00545 395.975 1.59637 386.92 1.59637C373.336 1.59637 362.223 -9.51726 362.223 -23.1006H370.455C370.455 -14.045 377.864 -6.63595 386.92 -6.63595C400.503 -6.63595 411.617 4.47768 411.617 18.061C411.617 27.1166 419.026 34.5256 428.081 34.5256C441.665 34.5256 452.778 45.6393 452.778 59.2226C452.778 68.2781 460.187 75.6872 469.243 75.6872V83.9195C455.659 83.9195 444.546 72.8059 444.546 59.2226C444.546 50.167 437.137 42.758 428.081 42.758C414.498 42.758 403.384 31.6443 403.384 18.061ZM508.346 10.2403L543.334 45.2277L537.571 50.9903L502.172 16.0029C502.172 16.0029 508.346 9.82869 508.346 10.2403Z" fill="#093C70"/>
</g>
<g clip-path="url(#clip22_295_76384)">
<path fill-rule="evenodd" clip-rule="evenodd" d="M403.384 125.082C403.384 116.026 395.975 108.617 386.92 108.617C373.336 108.617 362.223 97.5032 362.223 83.9199H370.455C370.455 92.9755 377.864 100.385 386.92 100.385C400.503 100.385 411.617 111.498 411.617 125.082C411.617 134.137 419.026 141.546 428.081 141.546C441.665 141.546 452.778 152.66 452.778 166.243C452.778 175.299 460.187 182.708 469.243 182.708V190.94C455.659 190.94 444.546 179.826 444.546 166.243C444.546 157.188 437.137 149.778 428.081 149.778C414.498 149.778 403.384 138.665 403.384 125.082ZM508.346 117.261L543.334 152.248L537.571 158.011L502.172 123.023C502.172 123.023 508.346 116.849 508.346 117.261Z" fill="#093C70"/>
</g>
<g clip-path="url(#clip23_295_76384)">
<path fill-rule="evenodd" clip-rule="evenodd" d="M403.384 232.1C403.384 223.045 395.975 215.635 386.92 215.635C373.336 215.635 362.223 204.522 362.223 190.938H370.455C370.455 199.994 377.864 207.403 386.92 207.403C400.503 207.403 411.617 218.517 411.617 232.1C411.617 241.156 419.026 248.565 428.081 248.565C441.665 248.565 452.778 259.678 452.778 273.262C452.778 282.317 460.187 289.726 469.243 289.726V297.959C455.659 297.959 444.546 286.845 444.546 273.262C444.546 264.206 437.137 256.797 428.081 256.797C414.498 256.797 403.384 245.683 403.384 232.1ZM508.346 224.279L543.334 259.267L537.571 265.029L502.172 230.042C502.172 230.042 508.346 223.868 508.346 224.279Z" fill="#093C70"/>
</g>
<g clip-path="url(#clip24_295_76384)">
<path fill-rule="evenodd" clip-rule="evenodd" d="M403.384 339.122C403.384 330.066 395.975 322.657 386.92 322.657C373.336 322.657 362.223 311.543 362.223 297.96H370.455C370.455 307.016 377.864 314.425 386.92 314.425C400.503 314.425 411.617 325.538 411.617 339.122C411.617 348.177 419.026 355.586 428.081 355.586C441.665 355.586 452.778 366.7 452.778 380.283C452.778 389.339 460.187 396.748 469.243 396.748V404.98C455.659 404.98 444.546 393.866 444.546 380.283C444.546 371.228 437.137 363.819 428.081 363.819C414.498 363.819 403.384 352.705 403.384 339.122ZM508.346 331.301L543.334 366.288L537.571 372.051L502.172 337.063C502.172 337.063 508.346 330.889 508.346 331.301Z" fill="#093C70"/>
</g>
<g clip-path="url(#clip25_295_76384)">
<path fill-rule="evenodd" clip-rule="evenodd" d="M403.384 446.142C403.384 437.087 395.975 429.677 386.92 429.677C373.336 429.677 362.223 418.564 362.223 404.98H370.455C370.455 414.036 377.864 421.445 386.92 421.445C400.503 421.445 411.617 432.559 411.617 446.142C411.617 455.198 419.026 462.607 428.081 462.607C441.665 462.607 452.778 473.72 452.778 487.304C452.778 496.359 460.187 503.768 469.243 503.768V512.001C455.659 512.001 444.546 500.887 444.546 487.304C444.546 478.248 437.137 470.839 428.081 470.839C414.498 470.839 403.384 459.725 403.384 446.142ZM508.346 438.321L543.334 473.309L537.571 479.071L502.172 444.084C502.172 444.084 508.346 437.91 508.346 438.321Z" fill="#093C70"/>
</g>
<g clip-path="url(#clip26_295_76384)">
<path fill-rule="evenodd" clip-rule="evenodd" d="M403.384 553.161C403.384 544.105 395.975 536.696 386.92 536.696C373.336 536.696 362.223 525.582 362.223 511.999H370.455C370.455 521.055 377.864 528.464 386.92 528.464C400.503 528.464 411.617 539.577 411.617 553.161C411.617 562.216 419.026 569.625 428.081 569.625C441.665 569.625 452.778 580.739 452.778 594.322C452.778 603.378 460.187 610.787 469.243 610.787V619.019C455.659 619.019 444.546 607.906 444.546 594.322C444.546 585.267 437.137 577.858 428.081 577.858C414.498 577.858 403.384 566.744 403.384 553.161ZM508.346 545.34L543.334 580.327L537.571 586.09L502.172 551.103C502.172 551.103 508.346 544.928 508.346 545.34Z" fill="#093C70"/>
</g>
<g clip-path="url(#clip27_295_76384)">
<path fill-rule="evenodd" clip-rule="evenodd" d="M403.384 660.181C403.384 651.126 395.975 643.716 386.92 643.716C373.336 643.716 362.223 632.603 362.223 619.02H370.455C370.455 628.075 377.864 635.484 386.92 635.484C400.503 635.484 411.617 646.598 411.617 660.181C411.617 669.237 419.026 676.646 428.081 676.646C441.665 676.646 452.778 687.759 452.778 701.343C452.778 710.398 460.187 717.807 469.243 717.807V726.04C455.659 726.04 444.546 714.926 444.546 701.343C444.546 692.287 437.137 684.878 428.081 684.878C414.498 684.878 403.384 673.764 403.384 660.181ZM508.346 652.36L543.334 687.348L537.571 693.11L502.172 658.123C502.172 658.123 508.346 651.949 508.346 652.36Z" fill="#093C70"/>
</g>
<g clip-path="url(#clip28_295_76384)">
<path fill-rule="evenodd" clip-rule="evenodd" d="M403.384 767.202C403.384 758.146 395.975 750.737 386.92 750.737C373.336 750.737 362.223 739.623 362.223 726.04H370.455C370.455 735.096 377.864 742.505 386.92 742.505C400.503 742.505 411.617 753.618 411.617 767.202C411.617 776.257 419.026 783.666 428.081 783.666C441.665 783.666 452.778 794.78 452.778 808.363C452.778 817.419 460.187 824.828 469.243 824.828V833.06C455.659 833.06 444.546 821.947 444.546 808.363C444.546 799.308 437.137 791.899 428.081 791.899C414.498 791.899 403.384 780.785 403.384 767.202ZM508.346 759.381L543.334 794.368L537.571 800.131L502.172 765.144C502.172 765.144 508.346 758.969 508.346 759.381Z" fill="#093C70"/>
</g>
<g clip-path="url(#clip29_295_76384)">
<path fill-rule="evenodd" clip-rule="evenodd" d="M403.384 874.223C403.384 865.168 395.975 857.758 386.92 857.758C373.336 857.758 362.223 846.645 362.223 833.062H370.455C370.455 842.117 377.864 849.526 386.92 849.526C400.503 849.526 411.617 860.64 411.617 874.223C411.617 883.279 419.026 890.688 428.081 890.688C441.665 890.688 452.778 901.801 452.778 915.385C452.778 924.44 460.187 931.849 469.243 931.849V940.082C455.659 940.082 444.546 928.968 444.546 915.385C444.546 906.329 437.137 898.92 428.081 898.92C414.498 898.92 403.384 887.806 403.384 874.223ZM508.346 866.402L543.334 901.39L537.571 907.152L502.172 872.165C502.172 872.165 508.346 865.991 508.346 866.402Z" fill="#093C70"/>
</g>
<g clip-path="url(#clip30_295_76384)">
<path fill-rule="evenodd" clip-rule="evenodd" d="M403.384 981.242C403.384 972.186 395.975 964.777 386.92 964.777C373.336 964.777 362.223 953.663 362.223 940.08H370.455C370.455 949.136 377.864 956.545 386.92 956.545C400.503 956.545 411.617 967.658 411.617 981.242C411.617 990.297 419.026 997.706 428.081 997.706C441.665 997.706 452.778 1008.82 452.778 1022.4C452.778 1031.46 460.187 1038.87 469.243 1038.87V1047.1C455.659 1047.1 444.546 1035.99 444.546 1022.4C444.546 1013.35 437.137 1005.94 428.081 1005.94C414.498 1005.94 403.384 994.825 403.384 981.242ZM508.346 973.421L543.334 1008.41L537.571 1014.17L502.172 979.184C502.172 979.184 508.346 973.009 508.346 973.421Z" fill="#093C70"/>
</g>
<g clip-path="url(#clip31_295_76384)">
<path fill-rule="evenodd" clip-rule="evenodd" d="M584.495 18.061C584.495 9.00545 577.086 1.59637 568.03 1.59637C554.447 1.59637 543.333 -9.51726 543.333 -23.1006H551.565C551.565 -14.045 558.974 -6.63595 568.03 -6.63595C581.613 -6.63595 592.727 4.47768 592.727 18.061C592.727 27.1166 600.136 34.5256 609.192 34.5256C622.775 34.5256 633.888 45.6393 633.888 59.2226C633.888 68.2781 641.298 75.6872 650.353 75.6872V83.9195C636.77 83.9195 625.656 72.8059 625.656 59.2226C625.656 50.167 618.247 42.758 609.192 42.758C595.608 42.758 584.495 31.6443 584.495 18.061ZM689.457 10.2403L724.444 45.2277L718.681 50.9903L683.282 16.0029C683.282 16.0029 689.457 9.82869 689.457 10.2403Z" fill="#093C70"/>
</g>
<g clip-path="url(#clip32_295_76384)">
<path fill-rule="evenodd" clip-rule="evenodd" d="M584.495 125.082C584.495 116.026 577.086 108.617 568.03 108.617C554.447 108.617 543.333 97.5032 543.333 83.9199H551.565C551.565 92.9755 558.974 100.385 568.03 100.385C581.613 100.385 592.727 111.498 592.727 125.082C592.727 134.137 600.136 141.546 609.192 141.546C622.775 141.546 633.888 152.66 633.888 166.243C633.888 175.299 641.298 182.708 650.353 182.708V190.94C636.77 190.94 625.656 179.826 625.656 166.243C625.656 157.188 618.247 149.778 609.192 149.778C595.608 149.778 584.495 138.665 584.495 125.082ZM689.457 117.261L724.444 152.248L718.681 158.011L683.282 123.023C683.282 123.023 689.457 116.849 689.457 117.261Z" fill="#093C70"/>
</g>
<g clip-path="url(#clip33_295_76384)">
<path fill-rule="evenodd" clip-rule="evenodd" d="M584.495 232.1C584.495 223.045 577.086 215.635 568.03 215.635C554.447 215.635 543.333 204.522 543.333 190.938H551.565C551.565 199.994 558.974 207.403 568.03 207.403C581.613 207.403 592.727 218.517 592.727 232.1C592.727 241.156 600.136 248.565 609.192 248.565C622.775 248.565 633.888 259.678 633.888 273.262C633.888 282.317 641.298 289.726 650.353 289.726V297.959C636.77 297.959 625.656 286.845 625.656 273.262C625.656 264.206 618.247 256.797 609.192 256.797C595.608 256.797 584.495 245.683 584.495 232.1ZM689.457 224.279L724.444 259.267L718.681 265.029L683.282 230.042C683.282 230.042 689.457 223.868 689.457 224.279Z" fill="#093C70"/>
</g>
<g clip-path="url(#clip34_295_76384)">
<path fill-rule="evenodd" clip-rule="evenodd" d="M584.495 339.122C584.495 330.066 577.086 322.657 568.03 322.657C554.447 322.657 543.333 311.543 543.333 297.96H551.565C551.565 307.016 558.974 314.425 568.03 314.425C581.613 314.425 592.727 325.538 592.727 339.122C592.727 348.177 600.136 355.586 609.192 355.586C622.775 355.586 633.888 366.7 633.888 380.283C633.888 389.339 641.298 396.748 650.353 396.748V404.98C636.77 404.98 625.656 393.866 625.656 380.283C625.656 371.228 618.247 363.819 609.192 363.819C595.608 363.819 584.495 352.705 584.495 339.122ZM689.457 331.301L724.444 366.288L718.681 372.051L683.282 337.063C683.282 337.063 689.457 330.889 689.457 331.301Z" fill="#093C70"/>
</g>
<g clip-path="url(#clip35_295_76384)">
<path fill-rule="evenodd" clip-rule="evenodd" d="M584.495 446.142C584.495 437.087 577.086 429.677 568.03 429.677C554.447 429.677 543.333 418.564 543.333 404.98H551.565C551.565 414.036 558.974 421.445 568.03 421.445C581.613 421.445 592.727 432.559 592.727 446.142C592.727 455.198 600.136 462.607 609.192 462.607C622.775 462.607 633.888 473.72 633.888 487.304C633.888 496.359 641.298 503.768 650.353 503.768V512.001C636.77 512.001 625.656 500.887 625.656 487.304C625.656 478.248 618.247 470.839 609.192 470.839C595.608 470.839 584.495 459.725 584.495 446.142ZM689.457 438.321L724.444 473.309L718.681 479.071L683.282 444.084C683.282 444.084 689.457 437.91 689.457 438.321Z" fill="#093C70"/>
</g>
<g clip-path="url(#clip36_295_76384)">
<path fill-rule="evenodd" clip-rule="evenodd" d="M584.495 553.161C584.495 544.105 577.086 536.696 568.03 536.696C554.447 536.696 543.333 525.582 543.333 511.999H551.565C551.565 521.055 558.974 528.464 568.03 528.464C581.613 528.464 592.727 539.577 592.727 553.161C592.727 562.216 600.136 569.625 609.192 569.625C622.775 569.625 633.888 580.739 633.888 594.322C633.888 603.378 641.298 610.787 650.353 610.787V619.019C636.77 619.019 625.656 607.906 625.656 594.322C625.656 585.267 618.247 577.858 609.192 577.858C595.608 577.858 584.495 566.744 584.495 553.161ZM689.457 545.34L724.444 580.327L718.681 586.09L683.282 551.103C683.282 551.103 689.457 544.928 689.457 545.34Z" fill="#093C70"/>
</g>
<g clip-path="url(#clip37_295_76384)">
<path fill-rule="evenodd" clip-rule="evenodd" d="M584.495 660.181C584.495 651.126 577.086 643.716 568.03 643.716C554.447 643.716 543.333 632.603 543.333 619.02H551.565C551.565 628.075 558.974 635.484 568.03 635.484C581.613 635.484 592.727 646.598 592.727 660.181C592.727 669.237 600.136 676.646 609.192 676.646C622.775 676.646 633.888 687.759 633.888 701.343C633.888 710.398 641.298 717.807 650.353 717.807V726.04C636.77 726.04 625.656 714.926 625.656 701.343C625.656 692.287 618.247 684.878 609.192 684.878C595.608 684.878 584.495 673.764 584.495 660.181ZM689.457 652.36L724.444 687.348L718.681 693.11L683.282 658.123C683.282 658.123 689.457 651.949 689.457 652.36Z" fill="#093C70"/>
</g>
<g clip-path="url(#clip38_295_76384)">
<path fill-rule="evenodd" clip-rule="evenodd" d="M584.495 767.202C584.495 758.146 577.086 750.737 568.03 750.737C554.447 750.737 543.333 739.623 543.333 726.04H551.565C551.565 735.096 558.974 742.505 568.03 742.505C581.613 742.505 592.727 753.618 592.727 767.202C592.727 776.257 600.136 783.666 609.192 783.666C622.775 783.666 633.888 794.78 633.888 808.363C633.888 817.419 641.298 824.828 650.353 824.828V833.06C636.77 833.06 625.656 821.947 625.656 808.363C625.656 799.308 618.247 791.899 609.192 791.899C595.608 791.899 584.495 780.785 584.495 767.202ZM689.457 759.381L724.444 794.368L718.681 800.131L683.282 765.144C683.282 765.144 689.457 758.969 689.457 759.381Z" fill="#093C70"/>
</g>
<g clip-path="url(#clip39_295_76384)">
<path fill-rule="evenodd" clip-rule="evenodd" d="M584.495 874.223C584.495 865.168 577.086 857.758 568.03 857.758C554.447 857.758 543.333 846.645 543.333 833.062H551.565C551.565 842.117 558.974 849.526 568.03 849.526C581.613 849.526 592.727 860.64 592.727 874.223C592.727 883.279 600.136 890.688 609.192 890.688C622.775 890.688 633.888 901.801 633.888 915.385C633.888 924.44 641.298 931.849 650.353 931.849V940.082C636.77 940.082 625.656 928.968 625.656 915.385C625.656 906.329 618.247 898.92 609.192 898.92C595.608 898.92 584.495 887.806 584.495 874.223ZM689.457 866.402L724.444 901.39L718.681 907.152L683.282 872.165C683.282 872.165 689.457 865.991 689.457 866.402Z" fill="#093C70"/>
</g>
<g clip-path="url(#clip40_295_76384)">
<path fill-rule="evenodd" clip-rule="evenodd" d="M584.495 981.242C584.495 972.186 577.086 964.777 568.03 964.777C554.447 964.777 543.333 953.663 543.333 940.08H551.565C551.565 949.136 558.974 956.545 568.03 956.545C581.613 956.545 592.727 967.658 592.727 981.242C592.727 990.297 600.136 997.706 609.192 997.706C622.775 997.706 633.888 1008.82 633.888 1022.4C633.888 1031.46 641.298 1038.87 650.353 1038.87V1047.1C636.77 1047.1 625.656 1035.99 625.656 1022.4C625.656 1013.35 618.247 1005.94 609.192 1005.94C595.608 1005.94 584.495 994.825 584.495 981.242ZM689.457 973.421L724.444 1008.41L718.681 1014.17L683.282 979.184C683.282 979.184 689.457 973.009 689.457 973.421Z" fill="#093C70"/>
</g>
<g clip-path="url(#clip41_295_76384)">
<path fill-rule="evenodd" clip-rule="evenodd" d="M765.605 18.061C765.605 9.00545 758.196 1.59637 749.14 1.59637C735.557 1.59637 724.443 -9.51726 724.443 -23.1006H732.676C732.676 -14.045 740.085 -6.63595 749.14 -6.63595C762.724 -6.63595 773.837 4.47768 773.837 18.061C773.837 27.1166 781.246 34.5256 790.302 34.5256C803.885 34.5256 814.999 45.6393 814.999 59.2226C814.999 68.2781 822.408 75.6872 831.463 75.6872V83.9195C817.88 83.9195 806.767 72.8059 806.767 59.2226C806.767 50.167 799.357 42.758 790.302 42.758C776.719 42.758 765.605 31.6443 765.605 18.061ZM870.567 10.2403L905.554 45.2277L899.792 50.9903L864.393 16.0029C864.393 16.0029 870.567 9.82869 870.567 10.2403Z" fill="#093C70"/>
</g>
<g clip-path="url(#clip42_295_76384)">
<path fill-rule="evenodd" clip-rule="evenodd" d="M765.605 125.082C765.605 116.026 758.196 108.617 749.14 108.617C735.557 108.617 724.443 97.5032 724.443 83.9199H732.676C732.676 92.9755 740.085 100.385 749.14 100.385C762.724 100.385 773.837 111.498 773.837 125.082C773.837 134.137 781.246 141.546 790.302 141.546C803.885 141.546 814.999 152.66 814.999 166.243C814.999 175.299 822.408 182.708 831.463 182.708V190.94C817.88 190.94 806.767 179.826 806.767 166.243C806.767 157.188 799.357 149.778 790.302 149.778C776.719 149.778 765.605 138.665 765.605 125.082ZM870.567 117.261L905.554 152.248L899.792 158.011L864.393 123.023C864.393 123.023 870.567 116.849 870.567 117.261Z" fill="#093C70"/>
</g>
<g clip-path="url(#clip43_295_76384)">
<path fill-rule="evenodd" clip-rule="evenodd" d="M765.605 232.1C765.605 223.045 758.196 215.635 749.14 215.635C735.557 215.635 724.443 204.522 724.443 190.938H732.676C732.676 199.994 740.085 207.403 749.14 207.403C762.724 207.403 773.837 218.517 773.837 232.1C773.837 241.156 781.246 248.565 790.302 248.565C803.885 248.565 814.999 259.678 814.999 273.262C814.999 282.317 822.408 289.726 831.463 289.726V297.959C817.88 297.959 806.767 286.845 806.767 273.262C806.767 264.206 799.357 256.797 790.302 256.797C776.719 256.797 765.605 245.683 765.605 232.1ZM870.567 224.279L905.554 259.267L899.792 265.029L864.393 230.042C864.393 230.042 870.567 223.868 870.567 224.279Z" fill="#093C70"/>
</g>
<g clip-path="url(#clip44_295_76384)">
<path fill-rule="evenodd" clip-rule="evenodd" d="M765.605 339.122C765.605 330.066 758.196 322.657 749.14 322.657C735.557 322.657 724.443 311.543 724.443 297.96H732.676C732.676 307.016 740.085 314.425 749.14 314.425C762.724 314.425 773.837 325.538 773.837 339.122C773.837 348.177 781.246 355.586 790.302 355.586C803.885 355.586 814.999 366.7 814.999 380.283C814.999 389.339 822.408 396.748 831.463 396.748V404.98C817.88 404.98 806.767 393.866 806.767 380.283C806.767 371.228 799.357 363.819 790.302 363.819C776.719 363.819 765.605 352.705 765.605 339.122ZM870.567 331.301L905.554 366.288L899.792 372.051L864.393 337.063C864.393 337.063 870.567 330.889 870.567 331.301Z" fill="#093C70"/>
</g>
<g clip-path="url(#clip45_295_76384)">
<path fill-rule="evenodd" clip-rule="evenodd" d="M765.605 446.142C765.605 437.087 758.196 429.677 749.14 429.677C735.557 429.677 724.443 418.564 724.443 404.98H732.676C732.676 414.036 740.085 421.445 749.14 421.445C762.724 421.445 773.837 432.559 773.837 446.142C773.837 455.198 781.246 462.607 790.302 462.607C803.885 462.607 814.999 473.72 814.999 487.304C814.999 496.359 822.408 503.768 831.463 503.768V512.001C817.88 512.001 806.767 500.887 806.767 487.304C806.767 478.248 799.357 470.839 790.302 470.839C776.719 470.839 765.605 459.725 765.605 446.142ZM870.567 438.321L905.554 473.309L899.792 479.071L864.393 444.084C864.393 444.084 870.567 437.91 870.567 438.321Z" fill="#093C70"/>
</g>
<g clip-path="url(#clip46_295_76384)">
<path fill-rule="evenodd" clip-rule="evenodd" d="M765.605 553.161C765.605 544.105 758.196 536.696 749.14 536.696C735.557 536.696 724.443 525.582 724.443 511.999H732.676C732.676 521.055 740.085 528.464 749.14 528.464C762.724 528.464 773.837 539.577 773.837 553.161C773.837 562.216 781.246 569.625 790.302 569.625C803.885 569.625 814.999 580.739 814.999 594.322C814.999 603.378 822.408 610.787 831.463 610.787V619.019C817.88 619.019 806.767 607.906 806.767 594.322C806.767 585.267 799.357 577.858 790.302 577.858C776.719 577.858 765.605 566.744 765.605 553.161ZM870.567 545.34L905.554 580.327L899.792 586.09L864.393 551.103C864.393 551.103 870.567 544.928 870.567 545.34Z" fill="#093C70"/>
</g>
<g clip-path="url(#clip47_295_76384)">
<path fill-rule="evenodd" clip-rule="evenodd" d="M765.605 660.181C765.605 651.126 758.196 643.716 749.14 643.716C735.557 643.716 724.443 632.603 724.443 619.02H732.676C732.676 628.075 740.085 635.484 749.14 635.484C762.724 635.484 773.837 646.598 773.837 660.181C773.837 669.237 781.246 676.646 790.302 676.646C803.885 676.646 814.999 687.759 814.999 701.343C814.999 710.398 822.408 717.807 831.463 717.807V726.04C817.88 726.04 806.767 714.926 806.767 701.343C806.767 692.287 799.357 684.878 790.302 684.878C776.719 684.878 765.605 673.764 765.605 660.181ZM870.567 652.36L905.554 687.348L899.792 693.11L864.393 658.123C864.393 658.123 870.567 651.949 870.567 652.36Z" fill="#093C70"/>
</g>
<g clip-path="url(#clip48_295_76384)">
<path fill-rule="evenodd" clip-rule="evenodd" d="M765.605 767.202C765.605 758.146 758.196 750.737 749.14 750.737C735.557 750.737 724.443 739.623 724.443 726.04H732.676C732.676 735.096 740.085 742.505 749.14 742.505C762.724 742.505 773.837 753.618 773.837 767.202C773.837 776.257 781.246 783.666 790.302 783.666C803.885 783.666 814.999 794.78 814.999 808.363C814.999 817.419 822.408 824.828 831.463 824.828V833.06C817.88 833.06 806.767 821.947 806.767 808.363C806.767 799.308 799.357 791.899 790.302 791.899C776.719 791.899 765.605 780.785 765.605 767.202ZM870.567 759.381L905.554 794.368L899.792 800.131L864.393 765.144C864.393 765.144 870.567 758.969 870.567 759.381Z" fill="#093C70"/>
</g>
<g clip-path="url(#clip49_295_76384)">
<path fill-rule="evenodd" clip-rule="evenodd" d="M765.605 874.223C765.605 865.168 758.196 857.758 749.14 857.758C735.557 857.758 724.443 846.645 724.443 833.062H732.676C732.676 842.117 740.085 849.526 749.14 849.526C762.724 849.526 773.837 860.64 773.837 874.223C773.837 883.279 781.246 890.688 790.302 890.688C803.885 890.688 814.999 901.801 814.999 915.385C814.999 924.44 822.408 931.849 831.463 931.849V940.082C817.88 940.082 806.767 928.968 806.767 915.385C806.767 906.329 799.357 898.92 790.302 898.92C776.719 898.92 765.605 887.806 765.605 874.223ZM870.567 866.402L905.554 901.39L899.792 907.152L864.393 872.165C864.393 872.165 870.567 865.991 870.567 866.402Z" fill="#093C70"/>
</g>
<g clip-path="url(#clip50_295_76384)">
<path fill-rule="evenodd" clip-rule="evenodd" d="M765.605 981.242C765.605 972.186 758.196 964.777 749.14 964.777C735.557 964.777 724.443 953.663 724.443 940.08H732.676C732.676 949.136 740.085 956.545 749.14 956.545C762.724 956.545 773.837 967.658 773.837 981.242C773.837 990.297 781.246 997.706 790.302 997.706C803.885 997.706 814.999 1008.82 814.999 1022.4C814.999 1031.46 822.408 1038.87 831.463 1038.87V1047.1C817.88 1047.1 806.767 1035.99 806.767 1022.4C806.767 1013.35 799.357 1005.94 790.302 1005.94C776.719 1005.94 765.605 994.825 765.605 981.242ZM870.567 973.421L905.554 1008.41L899.792 1014.17L864.393 979.184C864.393 979.184 870.567 973.009 870.567 973.421Z" fill="#093C70"/>
</g>
<g clip-path="url(#clip51_295_76384)">
<path fill-rule="evenodd" clip-rule="evenodd" d="M946.717 18.061C946.717 9.00545 939.308 1.59637 930.253 1.59637C916.669 1.59637 905.556 -9.51726 905.556 -23.1006H913.788C913.788 -14.045 921.197 -6.63595 930.253 -6.63595C943.836 -6.63595 954.95 4.47768 954.95 18.061C954.95 27.1166 962.359 34.5256 971.414 34.5256C984.998 34.5256 996.111 45.6393 996.111 59.2226C996.111 68.2781 1003.52 75.6872 1012.58 75.6872V83.9195C998.992 83.9195 987.879 72.8059 987.879 59.2226C987.879 50.167 980.47 42.758 971.414 42.758C957.831 42.758 946.717 31.6443 946.717 18.061ZM1051.68 10.2403L1086.67 45.2277L1080.9 50.9903L1045.51 16.0029C1045.51 16.0029 1051.68 9.82869 1051.68 10.2403Z" fill="#093C70"/>
</g>
<g clip-path="url(#clip52_295_76384)">
<path fill-rule="evenodd" clip-rule="evenodd" d="M946.717 125.082C946.717 116.026 939.308 108.617 930.253 108.617C916.669 108.617 905.556 97.5032 905.556 83.9199H913.788C913.788 92.9755 921.197 100.385 930.253 100.385C943.836 100.385 954.95 111.498 954.95 125.082C954.95 134.137 962.359 141.546 971.414 141.546C984.998 141.546 996.111 152.66 996.111 166.243C996.111 175.299 1003.52 182.708 1012.58 182.708V190.94C998.992 190.94 987.879 179.826 987.879 166.243C987.879 157.188 980.47 149.778 971.414 149.778C957.831 149.778 946.717 138.665 946.717 125.082ZM1051.68 117.261L1086.67 152.248L1080.9 158.011L1045.51 123.023C1045.51 123.023 1051.68 116.849 1051.68 117.261Z" fill="#093C70"/>
</g>
<g clip-path="url(#clip53_295_76384)">
<path fill-rule="evenodd" clip-rule="evenodd" d="M946.717 232.1C946.717 223.045 939.308 215.635 930.253 215.635C916.669 215.635 905.556 204.522 905.556 190.938H913.788C913.788 199.994 921.197 207.403 930.253 207.403C943.836 207.403 954.95 218.517 954.95 232.1C954.95 241.156 962.359 248.565 971.414 248.565C984.998 248.565 996.111 259.678 996.111 273.262C996.111 282.317 1003.52 289.726 1012.58 289.726V297.959C998.992 297.959 987.879 286.845 987.879 273.262C987.879 264.206 980.47 256.797 971.414 256.797C957.831 256.797 946.717 245.683 946.717 232.1ZM1051.68 224.279L1086.67 259.267L1080.9 265.029L1045.51 230.042C1045.51 230.042 1051.68 223.868 1051.68 224.279Z" fill="#093C70"/>
</g>
<g clip-path="url(#clip54_295_76384)">
<path fill-rule="evenodd" clip-rule="evenodd" d="M946.717 339.122C946.717 330.066 939.308 322.657 930.253 322.657C916.669 322.657 905.556 311.543 905.556 297.96H913.788C913.788 307.016 921.197 314.425 930.253 314.425C943.836 314.425 954.95 325.538 954.95 339.122C954.95 348.177 962.359 355.586 971.414 355.586C984.998 355.586 996.111 366.7 996.111 380.283C996.111 389.339 1003.52 396.748 1012.58 396.748V404.98C998.992 404.98 987.879 393.866 987.879 380.283C987.879 371.228 980.47 363.819 971.414 363.819C957.831 363.819 946.717 352.705 946.717 339.122ZM1051.68 331.301L1086.67 366.288L1080.9 372.051L1045.51 337.063C1045.51 337.063 1051.68 330.889 1051.68 331.301Z" fill="#093C70"/>
</g>
<g clip-path="url(#clip55_295_76384)">
<path fill-rule="evenodd" clip-rule="evenodd" d="M946.717 446.142C946.717 437.087 939.308 429.677 930.253 429.677C916.669 429.677 905.556 418.564 905.556 404.98H913.788C913.788 414.036 921.197 421.445 930.253 421.445C943.836 421.445 954.95 432.559 954.95 446.142C954.95 455.198 962.359 462.607 971.414 462.607C984.998 462.607 996.111 473.72 996.111 487.304C996.111 496.359 1003.52 503.768 1012.58 503.768V512.001C998.992 512.001 987.879 500.887 987.879 487.304C987.879 478.248 980.47 470.839 971.414 470.839C957.831 470.839 946.717 459.725 946.717 446.142ZM1051.68 438.321L1086.67 473.309L1080.9 479.071L1045.51 444.084C1045.51 444.084 1051.68 437.91 1051.68 438.321Z" fill="#093C70"/>
</g>
<g clip-path="url(#clip56_295_76384)">
<path fill-rule="evenodd" clip-rule="evenodd" d="M946.717 553.161C946.717 544.105 939.308 536.696 930.253 536.696C916.669 536.696 905.556 525.582 905.556 511.999H913.788C913.788 521.055 921.197 528.464 930.253 528.464C943.836 528.464 954.95 539.577 954.95 553.161C954.95 562.216 962.359 569.625 971.414 569.625C984.998 569.625 996.111 580.739 996.111 594.322C996.111 603.378 1003.52 610.787 1012.58 610.787V619.019C998.992 619.019 987.879 607.906 987.879 594.322C987.879 585.267 980.47 577.858 971.414 577.858C957.831 577.858 946.717 566.744 946.717 553.161ZM1051.68 545.34L1086.67 580.327L1080.9 586.09L1045.51 551.103C1045.51 551.103 1051.68 544.928 1051.68 545.34Z" fill="#093C70"/>
</g>
<g clip-path="url(#clip57_295_76384)">
<path fill-rule="evenodd" clip-rule="evenodd" d="M946.717 660.181C946.717 651.126 939.308 643.716 930.253 643.716C916.669 643.716 905.556 632.603 905.556 619.02H913.788C913.788 628.075 921.197 635.484 930.253 635.484C943.836 635.484 954.95 646.598 954.95 660.181C954.95 669.237 962.359 676.646 971.414 676.646C984.998 676.646 996.111 687.759 996.111 701.343C996.111 710.398 1003.52 717.807 1012.58 717.807V726.04C998.992 726.04 987.879 714.926 987.879 701.343C987.879 692.287 980.47 684.878 971.414 684.878C957.831 684.878 946.717 673.764 946.717 660.181ZM1051.68 652.36L1086.67 687.348L1080.9 693.11L1045.51 658.123C1045.51 658.123 1051.68 651.949 1051.68 652.36Z" fill="#093C70"/>
</g>
<g clip-path="url(#clip58_295_76384)">
<path fill-rule="evenodd" clip-rule="evenodd" d="M946.717 767.202C946.717 758.146 939.308 750.737 930.253 750.737C916.669 750.737 905.556 739.623 905.556 726.04H913.788C913.788 735.096 921.197 742.505 930.253 742.505C943.836 742.505 954.95 753.618 954.95 767.202C954.95 776.257 962.359 783.666 971.414 783.666C984.998 783.666 996.111 794.78 996.111 808.363C996.111 817.419 1003.52 824.828 1012.58 824.828V833.06C998.992 833.06 987.879 821.947 987.879 808.363C987.879 799.308 980.47 791.899 971.414 791.899C957.831 791.899 946.717 780.785 946.717 767.202ZM1051.68 759.381L1086.67 794.368L1080.9 800.131L1045.51 765.144C1045.51 765.144 1051.68 758.969 1051.68 759.381Z" fill="#093C70"/>
</g>
<g clip-path="url(#clip59_295_76384)">
<path fill-rule="evenodd" clip-rule="evenodd" d="M946.717 874.223C946.717 865.168 939.308 857.758 930.253 857.758C916.669 857.758 905.556 846.645 905.556 833.062H913.788C913.788 842.117 921.197 849.526 930.253 849.526C943.836 849.526 954.95 860.64 954.95 874.223C954.95 883.279 962.359 890.688 971.414 890.688C984.998 890.688 996.111 901.801 996.111 915.385C996.111 924.44 1003.52 931.849 1012.58 931.849V940.082C998.992 940.082 987.879 928.968 987.879 915.385C987.879 906.329 980.47 898.92 971.414 898.92C957.831 898.92 946.717 887.806 946.717 874.223ZM1051.68 866.402L1086.67 901.39L1080.9 907.152L1045.51 872.165C1045.51 872.165 1051.68 865.991 1051.68 866.402Z" fill="#093C70"/>
</g>
<g clip-path="url(#clip60_295_76384)">
<path fill-rule="evenodd" clip-rule="evenodd" d="M946.717 981.242C946.717 972.186 939.308 964.777 930.253 964.777C916.669 964.777 905.556 953.663 905.556 940.08H913.788C913.788 949.136 921.197 956.545 930.253 956.545C943.836 956.545 954.95 967.658 954.95 981.242C954.95 990.297 962.359 997.706 971.414 997.706C984.998 997.706 996.111 1008.82 996.111 1022.4C996.111 1031.46 1003.52 1038.87 1012.58 1038.87V1047.1C998.992 1047.1 987.879 1035.99 987.879 1022.4C987.879 1013.35 980.47 1005.94 971.414 1005.94C957.831 1005.94 946.717 994.825 946.717 981.242ZM1051.68 973.421L1086.67 1008.41L1080.9 1014.17L1045.51 979.184C1045.51 979.184 1051.68 973.009 1051.68 973.421Z" fill="#093C70"/>
</g>
</g>
<defs>
<clipPath id="clip0_295_76384">
<rect width="1024" height="1024" fill="white"/>
</clipPath>
<clipPath id="clip1_295_76384">
<rect width="181.111" height="107.02" fill="white" transform="translate(0 -23.1006)"/>
</clipPath>
<clipPath id="clip2_295_76384">
<rect width="181.111" height="107.02" fill="white" transform="translate(0 83.9199)"/>
</clipPath>
<clipPath id="clip3_295_76384">
<rect width="181.111" height="107.02" fill="white" transform="translate(0 190.938)"/>
</clipPath>
<clipPath id="clip4_295_76384">
<rect width="181.111" height="107.02" fill="white" transform="translate(0 297.96)"/>
</clipPath>
<clipPath id="clip5_295_76384">
<rect width="181.111" height="107.02" fill="white" transform="translate(0 404.98)"/>
</clipPath>
<clipPath id="clip6_295_76384">
<rect width="181.111" height="107.02" fill="white" transform="translate(0 511.999)"/>
</clipPath>
<clipPath id="clip7_295_76384">
<rect width="181.111" height="107.02" fill="white" transform="translate(0 619.02)"/>
</clipPath>
<clipPath id="clip8_295_76384">
<rect width="181.111" height="107.02" fill="white" transform="translate(0 726.04)"/>
</clipPath>
<clipPath id="clip9_295_76384">
<rect width="181.111" height="107.02" fill="white" transform="translate(0 833.062)"/>
</clipPath>
<clipPath id="clip10_295_76384">
<rect width="181.111" height="107.02" fill="white" transform="translate(0 940.08)"/>
</clipPath>
<clipPath id="clip11_295_76384">
<rect width="181.111" height="107.02" fill="white" transform="translate(181.111 -23.1006)"/>
</clipPath>
<clipPath id="clip12_295_76384">
<rect width="181.111" height="107.02" fill="white" transform="translate(181.111 83.9199)"/>
</clipPath>
<clipPath id="clip13_295_76384">
<rect width="181.111" height="107.02" fill="white" transform="translate(181.111 190.938)"/>
</clipPath>
<clipPath id="clip14_295_76384">
<rect width="181.111" height="107.02" fill="white" transform="translate(181.111 297.96)"/>
</clipPath>
<clipPath id="clip15_295_76384">
<rect width="181.111" height="107.02" fill="white" transform="translate(181.111 404.98)"/>
</clipPath>
<clipPath id="clip16_295_76384">
<rect width="181.111" height="107.02" fill="white" transform="translate(181.111 511.999)"/>
</clipPath>
<clipPath id="clip17_295_76384">
<rect width="181.111" height="107.02" fill="white" transform="translate(181.111 619.02)"/>
</clipPath>
<clipPath id="clip18_295_76384">
<rect width="181.111" height="107.02" fill="white" transform="translate(181.111 726.04)"/>
</clipPath>
<clipPath id="clip19_295_76384">
<rect width="181.111" height="107.02" fill="white" transform="translate(181.111 833.062)"/>
</clipPath>
<clipPath id="clip20_295_76384">
<rect width="181.111" height="107.02" fill="white" transform="translate(181.111 940.08)"/>
</clipPath>
<clipPath id="clip21_295_76384">
<rect width="181.111" height="107.02" fill="white" transform="translate(362.223 -23.1006)"/>
</clipPath>
<clipPath id="clip22_295_76384">
<rect width="181.111" height="107.02" fill="white" transform="translate(362.223 83.9199)"/>
</clipPath>
<clipPath id="clip23_295_76384">
<rect width="181.111" height="107.02" fill="white" transform="translate(362.223 190.938)"/>
</clipPath>
<clipPath id="clip24_295_76384">
<rect width="181.111" height="107.02" fill="white" transform="translate(362.223 297.96)"/>
</clipPath>
<clipPath id="clip25_295_76384">
<rect width="181.111" height="107.02" fill="white" transform="translate(362.223 404.98)"/>
</clipPath>
<clipPath id="clip26_295_76384">
<rect width="181.111" height="107.02" fill="white" transform="translate(362.223 511.999)"/>
</clipPath>
<clipPath id="clip27_295_76384">
<rect width="181.111" height="107.02" fill="white" transform="translate(362.223 619.02)"/>
</clipPath>
<clipPath id="clip28_295_76384">
<rect width="181.111" height="107.02" fill="white" transform="translate(362.223 726.04)"/>
</clipPath>
<clipPath id="clip29_295_76384">
<rect width="181.111" height="107.02" fill="white" transform="translate(362.223 833.062)"/>
</clipPath>
<clipPath id="clip30_295_76384">
<rect width="181.111" height="107.02" fill="white" transform="translate(362.223 940.08)"/>
</clipPath>
<clipPath id="clip31_295_76384">
<rect width="181.111" height="107.02" fill="white" transform="translate(543.333 -23.1006)"/>
</clipPath>
<clipPath id="clip32_295_76384">
<rect width="181.111" height="107.02" fill="white" transform="translate(543.333 83.9199)"/>
</clipPath>
<clipPath id="clip33_295_76384">
<rect width="181.111" height="107.02" fill="white" transform="translate(543.333 190.938)"/>
</clipPath>
<clipPath id="clip34_295_76384">
<rect width="181.111" height="107.02" fill="white" transform="translate(543.333 297.96)"/>
</clipPath>
<clipPath id="clip35_295_76384">
<rect width="181.111" height="107.02" fill="white" transform="translate(543.333 404.98)"/>
</clipPath>
<clipPath id="clip36_295_76384">
<rect width="181.111" height="107.02" fill="white" transform="translate(543.333 511.999)"/>
</clipPath>
<clipPath id="clip37_295_76384">
<rect width="181.111" height="107.02" fill="white" transform="translate(543.333 619.02)"/>
</clipPath>
<clipPath id="clip38_295_76384">
<rect width="181.111" height="107.02" fill="white" transform="translate(543.333 726.04)"/>
</clipPath>
<clipPath id="clip39_295_76384">
<rect width="181.111" height="107.02" fill="white" transform="translate(543.333 833.062)"/>
</clipPath>
<clipPath id="clip40_295_76384">
<rect width="181.111" height="107.02" fill="white" transform="translate(543.333 940.08)"/>
</clipPath>
<clipPath id="clip41_295_76384">
<rect width="181.111" height="107.02" fill="white" transform="translate(724.443 -23.1006)"/>
</clipPath>
<clipPath id="clip42_295_76384">
<rect width="181.111" height="107.02" fill="white" transform="translate(724.443 83.9199)"/>
</clipPath>
<clipPath id="clip43_295_76384">
<rect width="181.111" height="107.02" fill="white" transform="translate(724.443 190.938)"/>
</clipPath>
<clipPath id="clip44_295_76384">
<rect width="181.111" height="107.02" fill="white" transform="translate(724.443 297.96)"/>
</clipPath>
<clipPath id="clip45_295_76384">
<rect width="181.111" height="107.02" fill="white" transform="translate(724.443 404.98)"/>
</clipPath>
<clipPath id="clip46_295_76384">
<rect width="181.111" height="107.02" fill="white" transform="translate(724.443 511.999)"/>
</clipPath>
<clipPath id="clip47_295_76384">
<rect width="181.111" height="107.02" fill="white" transform="translate(724.443 619.02)"/>
</clipPath>
<clipPath id="clip48_295_76384">
<rect width="181.111" height="107.02" fill="white" transform="translate(724.443 726.04)"/>
</clipPath>
<clipPath id="clip49_295_76384">
<rect width="181.111" height="107.02" fill="white" transform="translate(724.443 833.062)"/>
</clipPath>
<clipPath id="clip50_295_76384">
<rect width="181.111" height="107.02" fill="white" transform="translate(724.443 940.08)"/>
</clipPath>
<clipPath id="clip51_295_76384">
<rect width="181.111" height="107.02" fill="white" transform="translate(905.556 -23.1006)"/>
</clipPath>
<clipPath id="clip52_295_76384">
<rect width="181.111" height="107.02" fill="white" transform="translate(905.556 83.9199)"/>
</clipPath>
<clipPath id="clip53_295_76384">
<rect width="181.111" height="107.02" fill="white" transform="translate(905.556 190.938)"/>
</clipPath>
<clipPath id="clip54_295_76384">
<rect width="181.111" height="107.02" fill="white" transform="translate(905.556 297.96)"/>
</clipPath>
<clipPath id="clip55_295_76384">
<rect width="181.111" height="107.02" fill="white" transform="translate(905.556 404.98)"/>
</clipPath>
<clipPath id="clip56_295_76384">
<rect width="181.111" height="107.02" fill="white" transform="translate(905.556 511.999)"/>
</clipPath>
<clipPath id="clip57_295_76384">
<rect width="181.111" height="107.02" fill="white" transform="translate(905.556 619.02)"/>
</clipPath>
<clipPath id="clip58_295_76384">
<rect width="181.111" height="107.02" fill="white" transform="translate(905.556 726.04)"/>
</clipPath>
<clipPath id="clip59_295_76384">
<rect width="181.111" height="107.02" fill="white" transform="translate(905.556 833.062)"/>
</clipPath>
<clipPath id="clip60_295_76384">
<rect width="181.111" height="107.02" fill="white" transform="translate(905.556 940.08)"/>
</clipPath>
</defs>
</svg>
