<svg width="1024" height="1024" viewBox="0 0 1024 1024" fill="none" xmlns="http://www.w3.org/2000/svg">
<g clip-path="url(#clip0_295_80206)">
<rect width="1024" height="1024" fill="#04274B"/>
<path fill-rule="evenodd" clip-rule="evenodd" d="M-60.6592 40.0812L-53.3635 32.3943L-49.7157 36.2378L-57.0113 43.9246H-60.6592V40.0812ZM-60.6592 -62.0443L-53.3635 -54.3574L-49.7157 -58.2009L-57.0113 -65.8877H-60.6592V-62.0443ZM39.9169 43.9246L32.6212 36.2378L36.2691 32.3943L43.5647 40.0812V43.9246H39.9169ZM43.5647 -62.0443L36.2691 -54.3574L32.6212 -58.2009L39.9169 -65.8877H43.5647V-62.0443ZM-8.54722 -14.8249L-1.25155 -22.5119L2.39629 -18.6684L-4.89938 -10.9815L2.39629 -3.2947L-1.25155 0.548801L-8.54722 -7.13811L-15.8429 0.548801L-19.4907 -3.2947L-12.1951 -10.9815L-19.4907 -18.6684L-15.8429 -22.5119L-8.54722 -14.8249Z" fill="#093C70"/>
<path fill-rule="evenodd" clip-rule="evenodd" d="M43.5645 40.0812L50.8601 32.3943L54.508 36.2378L47.2123 43.9246H43.5645V40.0812ZM43.5645 -62.0443L50.8601 -54.3574L54.508 -58.2009L47.2123 -65.8877H43.5645V-62.0443ZM144.141 43.9246L136.845 36.2378L140.493 32.3943L147.788 40.0812V43.9246H144.141ZM147.788 -62.0443L140.493 -54.3574L136.845 -58.2009L144.141 -65.8877H147.788V-62.0443ZM95.6764 -14.8249L102.972 -22.5119L106.62 -18.6684L99.3243 -10.9815L106.62 -3.2947L102.972 0.548801L95.6764 -7.13811L88.3807 0.548801L84.7329 -3.2947L92.0286 -10.9815L84.7329 -18.6684L88.3807 -22.5119L95.6764 -14.8249Z" fill="#093C70"/>
<path fill-rule="evenodd" clip-rule="evenodd" d="M147.789 40.0812L155.085 32.3943L158.733 36.2378L151.437 43.9246H147.789V40.0812ZM147.789 -62.0443L155.085 -54.3574L158.733 -58.2009L151.437 -65.8877H147.789V-62.0443ZM248.365 43.9246L241.069 36.2378L244.717 32.3943L252.013 40.0812V43.9246H248.365ZM252.013 -62.0443L244.717 -54.3574L241.069 -58.2009L248.365 -65.8877H252.013V-62.0443ZM199.901 -14.8249L207.197 -22.5119L210.845 -18.6684L203.549 -10.9815L210.845 -3.2947L207.197 0.548801L199.901 -7.13811L192.605 0.548801L188.958 -3.2947L196.253 -10.9815L188.958 -18.6684L192.605 -22.5119L199.901 -14.8249Z" fill="#093C70"/>
<path fill-rule="evenodd" clip-rule="evenodd" d="M252.013 40.0812L259.308 32.3943L262.956 36.2378L255.661 43.9246H252.013V40.0812ZM252.013 -62.0443L259.308 -54.3574L262.956 -58.2009L255.661 -65.8877H252.013V-62.0443ZM352.589 43.9246L345.293 36.2378L348.941 32.3943L356.237 40.0812V43.9246H352.589ZM356.237 -62.0443L348.941 -54.3574L345.293 -58.2009L352.589 -65.8877H356.237V-62.0443ZM304.125 -14.8249L311.42 -22.5119L315.068 -18.6684L307.772 -10.9815L315.068 -3.2947L311.42 0.548801L304.125 -7.13811L296.829 0.548801L293.181 -3.2947L300.477 -10.9815L293.181 -18.6684L296.829 -22.5119L304.125 -14.8249Z" fill="#093C70"/>
<path fill-rule="evenodd" clip-rule="evenodd" d="M356.236 40.0812L363.532 32.3943L367.18 36.2378L359.884 43.9246H356.236V40.0812ZM356.236 -62.0443L363.532 -54.3574L367.18 -58.2009L359.884 -65.8877H356.236V-62.0443ZM456.812 43.9246L449.517 36.2378L453.165 32.3943L460.46 40.0812V43.9246H456.812ZM460.46 -62.0443L453.165 -54.3574L449.517 -58.2009L456.812 -65.8877H460.46V-62.0443ZM408.348 -14.8249L415.644 -22.5119L419.292 -18.6684L411.996 -10.9815L419.292 -3.2947L415.644 0.548801L408.348 -7.13811L401.053 0.548801L397.405 -3.2947L404.7 -10.9815L397.405 -18.6684L401.053 -22.5119L408.348 -14.8249Z" fill="#093C70"/>
<path fill-rule="evenodd" clip-rule="evenodd" d="M460.461 40.0812L467.757 32.3943L471.404 36.2378L464.109 43.9246H460.461V40.0812ZM460.461 -62.0443L467.757 -54.3574L471.404 -58.2009L464.109 -65.8877H460.461V-62.0443ZM561.037 43.9246L553.741 36.2378L557.389 32.3943L564.685 40.0812V43.9246H561.037ZM564.685 -62.0443L557.389 -54.3574L553.741 -58.2009L561.037 -65.8877H564.685V-62.0443ZM512.573 -14.8249L519.869 -22.5119L523.516 -18.6684L516.221 -10.9815L523.516 -3.2947L519.869 0.548801L512.573 -7.13811L505.277 0.548801L501.629 -3.2947L508.925 -10.9815L501.629 -18.6684L505.277 -22.5119L512.573 -14.8249Z" fill="#093C70"/>
<path fill-rule="evenodd" clip-rule="evenodd" d="M564.685 40.0812L571.98 32.3943L575.628 36.2378L568.332 43.9246H564.685V40.0812ZM564.685 -62.0443L571.98 -54.3574L575.628 -58.2009L568.332 -65.8877H564.685V-62.0443ZM665.261 43.9246L657.965 36.2378L661.613 32.3943L668.909 40.0812V43.9246H665.261ZM668.909 -62.0443L661.613 -54.3574L657.965 -58.2009L665.261 -65.8877H668.909V-62.0443ZM616.797 -14.8249L624.092 -22.5119L627.74 -18.6684L620.444 -10.9815L627.74 -3.2947L624.092 0.548801L616.797 -7.13811L609.501 0.548801L605.853 -3.2947L613.149 -10.9815L605.853 -18.6684L609.501 -22.5119L616.797 -14.8249Z" fill="#093C70"/>
<path fill-rule="evenodd" clip-rule="evenodd" d="M668.908 40.0812L676.204 32.3943L679.852 36.2378L672.556 43.9246H668.908V40.0812ZM668.908 -62.0443L676.204 -54.3574L679.852 -58.2009L672.556 -65.8877H668.908V-62.0443ZM769.484 43.9246L762.189 36.2378L765.836 32.3943L773.132 40.0812V43.9246H769.484ZM773.132 -62.0443L765.836 -54.3574L762.189 -58.2009L769.484 -65.8877H773.132V-62.0443ZM721.02 -14.8249L728.316 -22.5119L731.964 -18.6684L724.668 -10.9815L731.964 -3.2947L728.316 0.548801L721.02 -7.13811L713.725 0.548801L710.077 -3.2947L717.372 -10.9815L710.077 -18.6684L713.725 -22.5119L721.02 -14.8249Z" fill="#093C70"/>
<path fill-rule="evenodd" clip-rule="evenodd" d="M773.132 40.0812L780.427 32.3943L784.075 36.2378L776.78 43.9246H773.132V40.0812ZM773.132 -62.0443L780.427 -54.3574L784.075 -58.2009L776.78 -65.8877H773.132V-62.0443ZM873.708 43.9246L866.412 36.2378L870.06 32.3943L877.356 40.0812V43.9246H873.708ZM877.356 -62.0443L870.06 -54.3574L866.412 -58.2009L873.708 -65.8877H877.356V-62.0443ZM825.244 -14.8249L832.539 -22.5119L836.187 -18.6684L828.892 -10.9815L836.187 -3.2947L832.539 0.548801L825.244 -7.13811L817.948 0.548801L814.3 -3.2947L821.596 -10.9815L814.3 -18.6684L817.948 -22.5119L825.244 -14.8249Z" fill="#093C70"/>
<path fill-rule="evenodd" clip-rule="evenodd" d="M877.356 40.0812L884.652 32.3943L888.3 36.2378L881.004 43.9246H877.356V40.0812ZM877.356 -62.0443L884.652 -54.3574L888.3 -58.2009L881.004 -65.8877H877.356V-62.0443ZM977.933 43.9246L970.637 36.2378L974.285 32.3943L981.58 40.0812V43.9246H977.933ZM981.58 -62.0443L974.285 -54.3574L970.637 -58.2009L977.933 -65.8877H981.58V-62.0443ZM929.468 -14.8249L936.764 -22.5119L940.412 -18.6684L933.116 -10.9815L940.412 -3.2947L936.764 0.548801L929.468 -7.13811L922.173 0.548801L918.525 -3.2947L925.821 -10.9815L918.525 -18.6684L922.173 -22.5119L929.468 -14.8249Z" fill="#093C70"/>
<path fill-rule="evenodd" clip-rule="evenodd" d="M981.58 40.0812L988.876 32.3943L992.524 36.2378L985.228 43.9246H981.58V40.0812ZM981.58 -62.0443L988.876 -54.3574L992.524 -58.2009L985.228 -65.8877H981.58V-62.0443ZM1082.16 43.9246L1074.86 36.2378L1078.51 32.3943L1085.8 40.0812V43.9246H1082.16ZM1085.8 -62.0443L1078.51 -54.3574L1074.86 -58.2009L1082.16 -65.8877H1085.8V-62.0443ZM1033.69 -14.8249L1040.99 -22.5119L1044.64 -18.6684L1037.34 -10.9815L1044.64 -3.2947L1040.99 0.548801L1033.69 -7.13811L1026.4 0.548801L1022.75 -3.2947L1030.04 -10.9815L1022.75 -18.6684L1026.4 -22.5119L1033.69 -14.8249Z" fill="#093C70"/>
<path fill-rule="evenodd" clip-rule="evenodd" d="M-60.6592 149.894L-53.3635 142.207L-49.7157 146.05L-57.0113 153.737H-60.6592V149.894ZM-60.6592 47.7682L-53.3635 55.4551L-49.7157 51.6116L-57.0113 43.9248H-60.6592V47.7682ZM39.9169 153.737L32.6212 146.05L36.2691 142.207L43.5647 149.894V153.737H39.9169ZM43.5647 47.7682L36.2691 55.4551L32.6212 51.6116L39.9169 43.9248H43.5647V47.7682ZM-8.54722 94.9876L-1.25155 87.3006L2.39629 91.1441L-4.89938 98.831L2.39629 106.518L-1.25155 110.361L-8.54722 102.674L-15.8429 110.361L-19.4907 106.518L-12.1951 98.831L-19.4907 91.1441L-15.8429 87.3006L-8.54722 94.9876Z" fill="#093C70"/>
<path fill-rule="evenodd" clip-rule="evenodd" d="M43.5645 149.894L50.8601 142.207L54.508 146.05L47.2123 153.737H43.5645V149.894ZM43.5645 47.7682L50.8601 55.4551L54.508 51.6116L47.2123 43.9248H43.5645V47.7682ZM144.141 153.737L136.845 146.05L140.493 142.207L147.788 149.894V153.737H144.141ZM147.788 47.7682L140.493 55.4551L136.845 51.6116L144.141 43.9248H147.788V47.7682ZM95.6764 94.9876L102.972 87.3006L106.62 91.1441L99.3243 98.831L106.62 106.518L102.972 110.361L95.6764 102.674L88.3807 110.361L84.7329 106.518L92.0286 98.831L84.7329 91.1441L88.3807 87.3006L95.6764 94.9876Z" fill="#093C70"/>
<path fill-rule="evenodd" clip-rule="evenodd" d="M147.789 149.894L155.085 142.207L158.733 146.05L151.437 153.737H147.789V149.894ZM147.789 47.7682L155.085 55.4551L158.733 51.6116L151.437 43.9248H147.789V47.7682ZM248.365 153.737L241.069 146.05L244.717 142.207L252.013 149.894V153.737H248.365ZM252.013 47.7682L244.717 55.4551L241.069 51.6116L248.365 43.9248H252.013V47.7682ZM199.901 94.9876L207.197 87.3006L210.845 91.1441L203.549 98.831L210.845 106.518L207.197 110.361L199.901 102.674L192.605 110.361L188.958 106.518L196.253 98.831L188.958 91.1441L192.605 87.3006L199.901 94.9876Z" fill="#093C70"/>
<path fill-rule="evenodd" clip-rule="evenodd" d="M252.013 149.894L259.308 142.207L262.956 146.05L255.661 153.737H252.013V149.894ZM252.013 47.7682L259.308 55.4551L262.956 51.6116L255.661 43.9248H252.013V47.7682ZM352.589 153.737L345.293 146.05L348.941 142.207L356.237 149.894V153.737H352.589ZM356.237 47.7682L348.941 55.4551L345.293 51.6116L352.589 43.9248H356.237V47.7682ZM304.125 94.9876L311.42 87.3006L315.068 91.1441L307.772 98.831L315.068 106.518L311.42 110.361L304.125 102.674L296.829 110.361L293.181 106.518L300.477 98.831L293.181 91.1441L296.829 87.3006L304.125 94.9876Z" fill="#093C70"/>
<path fill-rule="evenodd" clip-rule="evenodd" d="M356.236 149.894L363.532 142.207L367.18 146.05L359.884 153.737H356.236V149.894ZM356.236 47.7682L363.532 55.4551L367.18 51.6116L359.884 43.9248H356.236V47.7682ZM456.812 153.737L449.517 146.05L453.165 142.207L460.46 149.894V153.737H456.812ZM460.46 47.7682L453.165 55.4551L449.517 51.6116L456.812 43.9248H460.46V47.7682ZM408.348 94.9876L415.644 87.3006L419.292 91.1441L411.996 98.831L419.292 106.518L415.644 110.361L408.348 102.674L401.053 110.361L397.405 106.518L404.7 98.831L397.405 91.1441L401.053 87.3006L408.348 94.9876Z" fill="#093C70"/>
<path fill-rule="evenodd" clip-rule="evenodd" d="M460.461 149.894L467.757 142.207L471.404 146.05L464.109 153.737H460.461V149.894ZM460.461 47.7682L467.757 55.4551L471.404 51.6116L464.109 43.9248H460.461V47.7682ZM561.037 153.737L553.741 146.05L557.389 142.207L564.685 149.894V153.737H561.037ZM564.685 47.7682L557.389 55.4551L553.741 51.6116L561.037 43.9248H564.685V47.7682ZM512.573 94.9876L519.869 87.3006L523.516 91.1441L516.221 98.831L523.516 106.518L519.869 110.361L512.573 102.674L505.277 110.361L501.629 106.518L508.925 98.831L501.629 91.1441L505.277 87.3006L512.573 94.9876Z" fill="#093C70"/>
<path fill-rule="evenodd" clip-rule="evenodd" d="M564.685 149.894L571.98 142.207L575.628 146.05L568.332 153.737H564.685V149.894ZM564.685 47.7682L571.98 55.4551L575.628 51.6116L568.332 43.9248H564.685V47.7682ZM665.261 153.737L657.965 146.05L661.613 142.207L668.909 149.894V153.737H665.261ZM668.909 47.7682L661.613 55.4551L657.965 51.6116L665.261 43.9248H668.909V47.7682ZM616.797 94.9876L624.092 87.3006L627.74 91.1441L620.444 98.831L627.74 106.518L624.092 110.361L616.797 102.674L609.501 110.361L605.853 106.518L613.149 98.831L605.853 91.1441L609.501 87.3006L616.797 94.9876Z" fill="#093C70"/>
<path fill-rule="evenodd" clip-rule="evenodd" d="M668.908 149.894L676.204 142.207L679.852 146.05L672.556 153.737H668.908V149.894ZM668.908 47.7682L676.204 55.4551L679.852 51.6116L672.556 43.9248H668.908V47.7682ZM769.484 153.737L762.189 146.05L765.836 142.207L773.132 149.894V153.737H769.484ZM773.132 47.7682L765.836 55.4551L762.189 51.6116L769.484 43.9248H773.132V47.7682ZM721.02 94.9876L728.316 87.3006L731.964 91.1441L724.668 98.831L731.964 106.518L728.316 110.361L721.02 102.674L713.725 110.361L710.077 106.518L717.372 98.831L710.077 91.1441L713.725 87.3006L721.02 94.9876Z" fill="#093C70"/>
<path fill-rule="evenodd" clip-rule="evenodd" d="M773.132 149.894L780.427 142.207L784.075 146.05L776.78 153.737H773.132V149.894ZM773.132 47.7682L780.427 55.4551L784.075 51.6116L776.78 43.9248H773.132V47.7682ZM873.708 153.737L866.412 146.05L870.06 142.207L877.356 149.894V153.737H873.708ZM877.356 47.7682L870.06 55.4551L866.412 51.6116L873.708 43.9248H877.356V47.7682ZM825.244 94.9876L832.539 87.3006L836.187 91.1441L828.892 98.831L836.187 106.518L832.539 110.361L825.244 102.674L817.948 110.361L814.3 106.518L821.596 98.831L814.3 91.1441L817.948 87.3006L825.244 94.9876Z" fill="#093C70"/>
<path fill-rule="evenodd" clip-rule="evenodd" d="M877.356 149.894L884.652 142.207L888.3 146.05L881.004 153.737H877.356V149.894ZM877.356 47.7682L884.652 55.4551L888.3 51.6116L881.004 43.9248H877.356V47.7682ZM977.933 153.737L970.637 146.05L974.285 142.207L981.58 149.894V153.737H977.933ZM981.58 47.7682L974.285 55.4551L970.637 51.6116L977.933 43.9248H981.58V47.7682ZM929.468 94.9876L936.764 87.3006L940.412 91.1441L933.116 98.831L940.412 106.518L936.764 110.361L929.468 102.674L922.173 110.361L918.525 106.518L925.821 98.831L918.525 91.1441L922.173 87.3006L929.468 94.9876Z" fill="#093C70"/>
<path fill-rule="evenodd" clip-rule="evenodd" d="M981.58 149.894L988.876 142.207L992.524 146.05L985.228 153.737H981.58V149.894ZM981.58 47.7682L988.876 55.4551L992.524 51.6116L985.228 43.9248H981.58V47.7682ZM1082.16 153.737L1074.86 146.05L1078.51 142.207L1085.8 149.894V153.737H1082.16ZM1085.8 47.7682L1078.51 55.4551L1074.86 51.6116L1082.16 43.9248H1085.8V47.7682ZM1033.69 94.9876L1040.99 87.3006L1044.64 91.1441L1037.34 98.831L1044.64 106.518L1040.99 110.361L1033.69 102.674L1026.4 110.361L1022.75 106.518L1030.04 98.831L1022.75 91.1441L1026.4 87.3006L1033.69 94.9876Z" fill="#093C70"/>
<path fill-rule="evenodd" clip-rule="evenodd" d="M-60.6592 259.706L-53.3635 252.019L-49.7157 255.863L-57.0113 263.55H-60.6592V259.706ZM-60.6592 157.581L-53.3635 165.268L-49.7157 161.424L-57.0113 153.737H-60.6592V157.581ZM39.9169 263.55L32.6212 255.863L36.2691 252.019L43.5647 259.706V263.55H39.9169ZM43.5647 157.581L36.2691 165.268L32.6212 161.424L39.9169 153.737H43.5647V157.581ZM-8.54722 204.8L-1.25155 197.113L2.39629 200.957L-4.89938 208.643L2.39629 216.33L-1.25155 220.174L-8.54722 212.487L-15.8429 220.174L-19.4907 216.33L-12.1951 208.643L-19.4907 200.957L-15.8429 197.113L-8.54722 204.8Z" fill="#093C70"/>
<path fill-rule="evenodd" clip-rule="evenodd" d="M43.5645 259.706L50.8601 252.019L54.508 255.863L47.2123 263.55H43.5645V259.706ZM43.5645 157.581L50.8601 165.268L54.508 161.424L47.2123 153.737H43.5645V157.581ZM144.141 263.55L136.845 255.863L140.493 252.019L147.788 259.706V263.55H144.141ZM147.788 157.581L140.493 165.268L136.845 161.424L144.141 153.737H147.788V157.581ZM95.6764 204.8L102.972 197.113L106.62 200.957L99.3243 208.643L106.62 216.33L102.972 220.174L95.6764 212.487L88.3807 220.174L84.7329 216.33L92.0286 208.643L84.7329 200.957L88.3807 197.113L95.6764 204.8Z" fill="#093C70"/>
<path fill-rule="evenodd" clip-rule="evenodd" d="M147.789 259.706L155.085 252.019L158.733 255.863L151.437 263.55H147.789V259.706ZM147.789 157.581L155.085 165.268L158.733 161.424L151.437 153.737H147.789V157.581ZM248.365 263.55L241.069 255.863L244.717 252.019L252.013 259.706V263.55H248.365ZM252.013 157.581L244.717 165.268L241.069 161.424L248.365 153.737H252.013V157.581ZM199.901 204.8L207.197 197.113L210.845 200.957L203.549 208.643L210.845 216.33L207.197 220.174L199.901 212.487L192.605 220.174L188.958 216.33L196.253 208.643L188.958 200.957L192.605 197.113L199.901 204.8Z" fill="#093C70"/>
<path fill-rule="evenodd" clip-rule="evenodd" d="M252.013 259.706L259.308 252.019L262.956 255.863L255.661 263.55H252.013V259.706ZM252.013 157.581L259.308 165.268L262.956 161.424L255.661 153.737H252.013V157.581ZM352.589 263.55L345.293 255.863L348.941 252.019L356.237 259.706V263.55H352.589ZM356.237 157.581L348.941 165.268L345.293 161.424L352.589 153.737H356.237V157.581ZM304.125 204.8L311.42 197.113L315.068 200.957L307.772 208.643L315.068 216.33L311.42 220.174L304.125 212.487L296.829 220.174L293.181 216.33L300.477 208.643L293.181 200.957L296.829 197.113L304.125 204.8Z" fill="#093C70"/>
<path fill-rule="evenodd" clip-rule="evenodd" d="M356.236 259.706L363.532 252.019L367.18 255.863L359.884 263.55H356.236V259.706ZM356.236 157.581L363.532 165.268L367.18 161.424L359.884 153.737H356.236V157.581ZM456.812 263.55L449.517 255.863L453.165 252.019L460.46 259.706V263.55H456.812ZM460.46 157.581L453.165 165.268L449.517 161.424L456.812 153.737H460.46V157.581ZM408.348 204.8L415.644 197.113L419.292 200.957L411.996 208.643L419.292 216.33L415.644 220.174L408.348 212.487L401.053 220.174L397.405 216.33L404.7 208.643L397.405 200.957L401.053 197.113L408.348 204.8Z" fill="#093C70"/>
<path fill-rule="evenodd" clip-rule="evenodd" d="M460.461 259.706L467.757 252.019L471.404 255.863L464.109 263.55H460.461V259.706ZM460.461 157.581L467.757 165.268L471.404 161.424L464.109 153.737H460.461V157.581ZM561.037 263.55L553.741 255.863L557.389 252.019L564.685 259.706V263.55H561.037ZM564.685 157.581L557.389 165.268L553.741 161.424L561.037 153.737H564.685V157.581ZM512.573 204.8L519.869 197.113L523.516 200.957L516.221 208.643L523.516 216.33L519.869 220.174L512.573 212.487L505.277 220.174L501.629 216.33L508.925 208.643L501.629 200.957L505.277 197.113L512.573 204.8Z" fill="#093C70"/>
<path fill-rule="evenodd" clip-rule="evenodd" d="M564.685 259.706L571.98 252.019L575.628 255.863L568.332 263.55H564.685V259.706ZM564.685 157.581L571.98 165.268L575.628 161.424L568.332 153.737H564.685V157.581ZM665.261 263.55L657.965 255.863L661.613 252.019L668.909 259.706V263.55H665.261ZM668.909 157.581L661.613 165.268L657.965 161.424L665.261 153.737H668.909V157.581ZM616.797 204.8L624.092 197.113L627.74 200.957L620.444 208.643L627.74 216.33L624.092 220.174L616.797 212.487L609.501 220.174L605.853 216.33L613.149 208.643L605.853 200.957L609.501 197.113L616.797 204.8Z" fill="#093C70"/>
<path fill-rule="evenodd" clip-rule="evenodd" d="M668.908 259.706L676.204 252.019L679.852 255.863L672.556 263.55H668.908V259.706ZM668.908 157.581L676.204 165.268L679.852 161.424L672.556 153.737H668.908V157.581ZM769.484 263.55L762.189 255.863L765.836 252.019L773.132 259.706V263.55H769.484ZM773.132 157.581L765.836 165.268L762.189 161.424L769.484 153.737H773.132V157.581ZM721.02 204.8L728.316 197.113L731.964 200.957L724.668 208.643L731.964 216.33L728.316 220.174L721.02 212.487L713.725 220.174L710.077 216.33L717.372 208.643L710.077 200.957L713.725 197.113L721.02 204.8Z" fill="#093C70"/>
<path fill-rule="evenodd" clip-rule="evenodd" d="M773.132 259.706L780.427 252.019L784.075 255.863L776.78 263.55H773.132V259.706ZM773.132 157.581L780.427 165.268L784.075 161.424L776.78 153.737H773.132V157.581ZM873.708 263.55L866.412 255.863L870.06 252.019L877.356 259.706V263.55H873.708ZM877.356 157.581L870.06 165.268L866.412 161.424L873.708 153.737H877.356V157.581ZM825.244 204.8L832.539 197.113L836.187 200.957L828.892 208.643L836.187 216.33L832.539 220.174L825.244 212.487L817.948 220.174L814.3 216.33L821.596 208.643L814.3 200.957L817.948 197.113L825.244 204.8Z" fill="#093C70"/>
<path fill-rule="evenodd" clip-rule="evenodd" d="M877.356 259.706L884.652 252.019L888.3 255.863L881.004 263.55H877.356V259.706ZM877.356 157.581L884.652 165.268L888.3 161.424L881.004 153.737H877.356V157.581ZM977.933 263.55L970.637 255.863L974.285 252.019L981.58 259.706V263.55H977.933ZM981.58 157.581L974.285 165.268L970.637 161.424L977.933 153.737H981.58V157.581ZM929.468 204.8L936.764 197.113L940.412 200.957L933.116 208.643L940.412 216.33L936.764 220.174L929.468 212.487L922.173 220.174L918.525 216.33L925.821 208.643L918.525 200.957L922.173 197.113L929.468 204.8Z" fill="#093C70"/>
<path fill-rule="evenodd" clip-rule="evenodd" d="M981.58 259.706L988.876 252.019L992.524 255.863L985.228 263.55H981.58V259.706ZM981.58 157.581L988.876 165.268L992.524 161.424L985.228 153.737H981.58V157.581ZM1082.16 263.55L1074.86 255.863L1078.51 252.019L1085.8 259.706V263.55H1082.16ZM1085.8 157.581L1078.51 165.268L1074.86 161.424L1082.16 153.737H1085.8V157.581ZM1033.69 204.8L1040.99 197.113L1044.64 200.957L1037.34 208.643L1044.64 216.33L1040.99 220.174L1033.69 212.487L1026.4 220.174L1022.75 216.33L1030.04 208.643L1022.75 200.957L1026.4 197.113L1033.69 204.8Z" fill="#093C70"/>
<path fill-rule="evenodd" clip-rule="evenodd" d="M-60.6592 369.519L-53.3635 361.832L-49.7157 365.675L-57.0113 373.362H-60.6592V369.519ZM-60.6592 267.393L-53.3635 275.08L-49.7157 271.237L-57.0113 263.55H-60.6592V267.393ZM39.9169 373.362L32.6212 365.675L36.2691 361.832L43.5647 369.519V373.362H39.9169ZM43.5647 267.393L36.2691 275.08L32.6212 271.237L39.9169 263.55H43.5647V267.393ZM-8.54722 314.612L-1.25155 306.926L2.39629 310.769L-4.89938 318.456L2.39629 326.143L-1.25155 329.986L-8.54722 322.299L-15.8429 329.986L-19.4907 326.143L-12.1951 318.456L-19.4907 310.769L-15.8429 306.926L-8.54722 314.612Z" fill="#093C70"/>
<path fill-rule="evenodd" clip-rule="evenodd" d="M43.5645 369.519L50.8601 361.832L54.508 365.675L47.2123 373.362H43.5645V369.519ZM43.5645 267.393L50.8601 275.08L54.508 271.237L47.2123 263.55H43.5645V267.393ZM144.141 373.362L136.845 365.675L140.493 361.832L147.788 369.519V373.362H144.141ZM147.788 267.393L140.493 275.08L136.845 271.237L144.141 263.55H147.788V267.393ZM95.6764 314.612L102.972 306.926L106.62 310.769L99.3243 318.456L106.62 326.143L102.972 329.986L95.6764 322.299L88.3807 329.986L84.7329 326.143L92.0286 318.456L84.7329 310.769L88.3807 306.926L95.6764 314.612Z" fill="#093C70"/>
<path fill-rule="evenodd" clip-rule="evenodd" d="M147.789 369.519L155.085 361.832L158.733 365.675L151.437 373.362H147.789V369.519ZM147.789 267.393L155.085 275.08L158.733 271.237L151.437 263.55H147.789V267.393ZM248.365 373.362L241.069 365.675L244.717 361.832L252.013 369.519V373.362H248.365ZM252.013 267.393L244.717 275.08L241.069 271.237L248.365 263.55H252.013V267.393ZM199.901 314.612L207.197 306.926L210.845 310.769L203.549 318.456L210.845 326.143L207.197 329.986L199.901 322.299L192.605 329.986L188.958 326.143L196.253 318.456L188.958 310.769L192.605 306.926L199.901 314.612Z" fill="#093C70"/>
<path fill-rule="evenodd" clip-rule="evenodd" d="M252.013 369.519L259.308 361.832L262.956 365.675L255.661 373.362H252.013V369.519ZM252.013 267.393L259.308 275.08L262.956 271.237L255.661 263.55H252.013V267.393ZM352.589 373.362L345.293 365.675L348.941 361.832L356.237 369.519V373.362H352.589ZM356.237 267.393L348.941 275.08L345.293 271.237L352.589 263.55H356.237V267.393ZM304.125 314.612L311.42 306.926L315.068 310.769L307.772 318.456L315.068 326.143L311.42 329.986L304.125 322.299L296.829 329.986L293.181 326.143L300.477 318.456L293.181 310.769L296.829 306.926L304.125 314.612Z" fill="#093C70"/>
<path fill-rule="evenodd" clip-rule="evenodd" d="M356.236 369.519L363.532 361.832L367.18 365.675L359.884 373.362H356.236V369.519ZM356.236 267.393L363.532 275.08L367.18 271.237L359.884 263.55H356.236V267.393ZM456.812 373.362L449.517 365.675L453.165 361.832L460.46 369.519V373.362H456.812ZM460.46 267.393L453.165 275.08L449.517 271.237L456.812 263.55H460.46V267.393ZM408.348 314.612L415.644 306.926L419.292 310.769L411.996 318.456L419.292 326.143L415.644 329.986L408.348 322.299L401.053 329.986L397.405 326.143L404.7 318.456L397.405 310.769L401.053 306.926L408.348 314.612Z" fill="#093C70"/>
<path fill-rule="evenodd" clip-rule="evenodd" d="M460.461 369.519L467.757 361.832L471.404 365.675L464.109 373.362H460.461V369.519ZM460.461 267.393L467.757 275.08L471.404 271.237L464.109 263.55H460.461V267.393ZM561.037 373.362L553.741 365.675L557.389 361.832L564.685 369.519V373.362H561.037ZM564.685 267.393L557.389 275.08L553.741 271.237L561.037 263.55H564.685V267.393ZM512.573 314.612L519.869 306.926L523.516 310.769L516.221 318.456L523.516 326.143L519.869 329.986L512.573 322.299L505.277 329.986L501.629 326.143L508.925 318.456L501.629 310.769L505.277 306.926L512.573 314.612Z" fill="#093C70"/>
<path fill-rule="evenodd" clip-rule="evenodd" d="M564.685 369.519L571.98 361.832L575.628 365.675L568.332 373.362H564.685V369.519ZM564.685 267.393L571.98 275.08L575.628 271.237L568.332 263.55H564.685V267.393ZM665.261 373.362L657.965 365.675L661.613 361.832L668.909 369.519V373.362H665.261ZM668.909 267.393L661.613 275.08L657.965 271.237L665.261 263.55H668.909V267.393ZM616.797 314.612L624.092 306.926L627.74 310.769L620.444 318.456L627.74 326.143L624.092 329.986L616.797 322.299L609.501 329.986L605.853 326.143L613.149 318.456L605.853 310.769L609.501 306.926L616.797 314.612Z" fill="#093C70"/>
<path fill-rule="evenodd" clip-rule="evenodd" d="M668.908 369.519L676.204 361.832L679.852 365.675L672.556 373.362H668.908V369.519ZM668.908 267.393L676.204 275.08L679.852 271.237L672.556 263.55H668.908V267.393ZM769.484 373.362L762.189 365.675L765.836 361.832L773.132 369.519V373.362H769.484ZM773.132 267.393L765.836 275.08L762.189 271.237L769.484 263.55H773.132V267.393ZM721.02 314.612L728.316 306.926L731.964 310.769L724.668 318.456L731.964 326.143L728.316 329.986L721.02 322.299L713.725 329.986L710.077 326.143L717.372 318.456L710.077 310.769L713.725 306.926L721.02 314.612Z" fill="#093C70"/>
<path fill-rule="evenodd" clip-rule="evenodd" d="M773.132 369.519L780.427 361.832L784.075 365.675L776.78 373.362H773.132V369.519ZM773.132 267.393L780.427 275.08L784.075 271.237L776.78 263.55H773.132V267.393ZM873.708 373.362L866.412 365.675L870.06 361.832L877.356 369.519V373.362H873.708ZM877.356 267.393L870.06 275.08L866.412 271.237L873.708 263.55H877.356V267.393ZM825.244 314.612L832.539 306.926L836.187 310.769L828.892 318.456L836.187 326.143L832.539 329.986L825.244 322.299L817.948 329.986L814.3 326.143L821.596 318.456L814.3 310.769L817.948 306.926L825.244 314.612Z" fill="#093C70"/>
<path fill-rule="evenodd" clip-rule="evenodd" d="M877.356 369.519L884.652 361.832L888.3 365.675L881.004 373.362H877.356V369.519ZM877.356 267.393L884.652 275.08L888.3 271.237L881.004 263.55H877.356V267.393ZM977.933 373.362L970.637 365.675L974.285 361.832L981.58 369.519V373.362H977.933ZM981.58 267.393L974.285 275.08L970.637 271.237L977.933 263.55H981.58V267.393ZM929.468 314.612L936.764 306.926L940.412 310.769L933.116 318.456L940.412 326.143L936.764 329.986L929.468 322.299L922.173 329.986L918.525 326.143L925.821 318.456L918.525 310.769L922.173 306.926L929.468 314.612Z" fill="#093C70"/>
<path fill-rule="evenodd" clip-rule="evenodd" d="M981.58 369.519L988.876 361.832L992.524 365.675L985.228 373.362H981.58V369.519ZM981.58 267.393L988.876 275.08L992.524 271.237L985.228 263.55H981.58V267.393ZM1082.16 373.362L1074.86 365.675L1078.51 361.832L1085.8 369.519V373.362H1082.16ZM1085.8 267.393L1078.51 275.08L1074.86 271.237L1082.16 263.55H1085.8V267.393ZM1033.69 314.612L1040.99 306.926L1044.64 310.769L1037.34 318.456L1044.64 326.143L1040.99 329.986L1033.69 322.299L1026.4 329.986L1022.75 326.143L1030.04 318.456L1022.75 310.769L1026.4 306.926L1033.69 314.612Z" fill="#093C70"/>
<path fill-rule="evenodd" clip-rule="evenodd" d="M-60.6592 479.331L-53.3635 471.644L-49.7157 475.488L-57.0113 483.175H-60.6592V479.331ZM-60.6592 377.206L-53.3635 384.893L-49.7157 381.049L-57.0113 373.362H-60.6592V377.206ZM39.9169 483.175L32.6212 475.488L36.2691 471.644L43.5647 479.331V483.175H39.9169ZM43.5647 377.206L36.2691 384.893L32.6212 381.049L39.9169 373.362H43.5647V377.206ZM-8.54722 424.425L-1.25155 416.738L2.39629 420.582L-4.89938 428.268L2.39629 435.955L-1.25155 439.799L-8.54722 432.112L-15.8429 439.799L-19.4907 435.955L-12.1951 428.268L-19.4907 420.582L-15.8429 416.738L-8.54722 424.425Z" fill="#093C70"/>
<path fill-rule="evenodd" clip-rule="evenodd" d="M43.5645 479.331L50.8601 471.644L54.508 475.488L47.2123 483.175H43.5645V479.331ZM43.5645 377.206L50.8601 384.893L54.508 381.049L47.2123 373.362H43.5645V377.206ZM144.141 483.175L136.845 475.488L140.493 471.644L147.788 479.331V483.175H144.141ZM147.788 377.206L140.493 384.893L136.845 381.049L144.141 373.362H147.788V377.206ZM95.6764 424.425L102.972 416.738L106.62 420.582L99.3243 428.268L106.62 435.955L102.972 439.799L95.6764 432.112L88.3807 439.799L84.7329 435.955L92.0286 428.268L84.7329 420.582L88.3807 416.738L95.6764 424.425Z" fill="#093C70"/>
<path fill-rule="evenodd" clip-rule="evenodd" d="M147.789 479.331L155.085 471.644L158.733 475.488L151.437 483.175H147.789V479.331ZM147.789 377.206L155.085 384.893L158.733 381.049L151.437 373.362H147.789V377.206ZM248.365 483.175L241.069 475.488L244.717 471.644L252.013 479.331V483.175H248.365ZM252.013 377.206L244.717 384.893L241.069 381.049L248.365 373.362H252.013V377.206ZM199.901 424.425L207.197 416.738L210.845 420.582L203.549 428.268L210.845 435.955L207.197 439.799L199.901 432.112L192.605 439.799L188.958 435.955L196.253 428.268L188.958 420.582L192.605 416.738L199.901 424.425Z" fill="#093C70"/>
<path fill-rule="evenodd" clip-rule="evenodd" d="M252.013 479.331L259.308 471.644L262.956 475.488L255.661 483.175H252.013V479.331ZM252.013 377.206L259.308 384.893L262.956 381.049L255.661 373.362H252.013V377.206ZM352.589 483.175L345.293 475.488L348.941 471.644L356.237 479.331V483.175H352.589ZM356.237 377.206L348.941 384.893L345.293 381.049L352.589 373.362H356.237V377.206ZM304.125 424.425L311.42 416.738L315.068 420.582L307.772 428.268L315.068 435.955L311.42 439.799L304.125 432.112L296.829 439.799L293.181 435.955L300.477 428.268L293.181 420.582L296.829 416.738L304.125 424.425Z" fill="#093C70"/>
<path fill-rule="evenodd" clip-rule="evenodd" d="M356.236 479.331L363.532 471.644L367.18 475.488L359.884 483.175H356.236V479.331ZM356.236 377.206L363.532 384.893L367.18 381.049L359.884 373.362H356.236V377.206ZM456.812 483.175L449.517 475.488L453.165 471.644L460.46 479.331V483.175H456.812ZM460.46 377.206L453.165 384.893L449.517 381.049L456.812 373.362H460.46V377.206ZM408.348 424.425L415.644 416.738L419.292 420.582L411.996 428.268L419.292 435.955L415.644 439.799L408.348 432.112L401.053 439.799L397.405 435.955L404.7 428.268L397.405 420.582L401.053 416.738L408.348 424.425Z" fill="#093C70"/>
<path fill-rule="evenodd" clip-rule="evenodd" d="M460.461 479.331L467.757 471.644L471.404 475.488L464.109 483.175H460.461V479.331ZM460.461 377.206L467.757 384.893L471.404 381.049L464.109 373.362H460.461V377.206ZM561.037 483.175L553.741 475.488L557.389 471.644L564.685 479.331V483.175H561.037ZM564.685 377.206L557.389 384.893L553.741 381.049L561.037 373.362H564.685V377.206ZM512.573 424.425L519.869 416.738L523.516 420.582L516.221 428.268L523.516 435.955L519.869 439.799L512.573 432.112L505.277 439.799L501.629 435.955L508.925 428.268L501.629 420.582L505.277 416.738L512.573 424.425Z" fill="#093C70"/>
<path fill-rule="evenodd" clip-rule="evenodd" d="M564.685 479.331L571.98 471.644L575.628 475.488L568.332 483.175H564.685V479.331ZM564.685 377.206L571.98 384.893L575.628 381.049L568.332 373.362H564.685V377.206ZM665.261 483.175L657.965 475.488L661.613 471.644L668.909 479.331V483.175H665.261ZM668.909 377.206L661.613 384.893L657.965 381.049L665.261 373.362H668.909V377.206ZM616.797 424.425L624.092 416.738L627.74 420.582L620.444 428.268L627.74 435.955L624.092 439.799L616.797 432.112L609.501 439.799L605.853 435.955L613.149 428.268L605.853 420.582L609.501 416.738L616.797 424.425Z" fill="#093C70"/>
<path fill-rule="evenodd" clip-rule="evenodd" d="M668.908 479.331L676.204 471.644L679.852 475.488L672.556 483.175H668.908V479.331ZM668.908 377.206L676.204 384.893L679.852 381.049L672.556 373.362H668.908V377.206ZM769.484 483.175L762.189 475.488L765.836 471.644L773.132 479.331V483.175H769.484ZM773.132 377.206L765.836 384.893L762.189 381.049L769.484 373.362H773.132V377.206ZM721.02 424.425L728.316 416.738L731.964 420.582L724.668 428.268L731.964 435.955L728.316 439.799L721.02 432.112L713.725 439.799L710.077 435.955L717.372 428.268L710.077 420.582L713.725 416.738L721.02 424.425Z" fill="#093C70"/>
<path fill-rule="evenodd" clip-rule="evenodd" d="M773.132 479.331L780.427 471.644L784.075 475.488L776.78 483.175H773.132V479.331ZM773.132 377.206L780.427 384.893L784.075 381.049L776.78 373.362H773.132V377.206ZM873.708 483.175L866.412 475.488L870.06 471.644L877.356 479.331V483.175H873.708ZM877.356 377.206L870.06 384.893L866.412 381.049L873.708 373.362H877.356V377.206ZM825.244 424.425L832.539 416.738L836.187 420.582L828.892 428.268L836.187 435.955L832.539 439.799L825.244 432.112L817.948 439.799L814.3 435.955L821.596 428.268L814.3 420.582L817.948 416.738L825.244 424.425Z" fill="#093C70"/>
<path fill-rule="evenodd" clip-rule="evenodd" d="M877.356 479.331L884.652 471.644L888.3 475.488L881.004 483.175H877.356V479.331ZM877.356 377.206L884.652 384.893L888.3 381.049L881.004 373.362H877.356V377.206ZM977.933 483.175L970.637 475.488L974.285 471.644L981.58 479.331V483.175H977.933ZM981.58 377.206L974.285 384.893L970.637 381.049L977.933 373.362H981.58V377.206ZM929.468 424.425L936.764 416.738L940.412 420.582L933.116 428.268L940.412 435.955L936.764 439.799L929.468 432.112L922.173 439.799L918.525 435.955L925.821 428.268L918.525 420.582L922.173 416.738L929.468 424.425Z" fill="#093C70"/>
<path fill-rule="evenodd" clip-rule="evenodd" d="M981.58 479.331L988.876 471.644L992.524 475.488L985.228 483.175H981.58V479.331ZM981.58 377.206L988.876 384.893L992.524 381.049L985.228 373.362H981.58V377.206ZM1082.16 483.175L1074.86 475.488L1078.51 471.644L1085.8 479.331V483.175H1082.16ZM1085.8 377.206L1078.51 384.893L1074.86 381.049L1082.16 373.362H1085.8V377.206ZM1033.69 424.425L1040.99 416.738L1044.64 420.582L1037.34 428.268L1044.64 435.955L1040.99 439.799L1033.69 432.112L1026.4 439.799L1022.75 435.955L1030.04 428.268L1022.75 420.582L1026.4 416.738L1033.69 424.425Z" fill="#093C70"/>
<path fill-rule="evenodd" clip-rule="evenodd" d="M-60.6592 589.143L-53.3635 581.456L-49.7157 585.299L-57.0113 592.986H-60.6592V589.143ZM-60.6592 487.017L-53.3635 494.704L-49.7157 490.861L-57.0113 483.174H-60.6592V487.017ZM39.9169 592.986L32.6212 585.299L36.2691 581.456L43.5647 589.143V592.986H39.9169ZM43.5647 487.017L36.2691 494.704L32.6212 490.861L39.9169 483.174H43.5647V487.017ZM-8.54722 534.236L-1.25155 526.55L2.39629 530.393L-4.89938 538.08L2.39629 545.767L-1.25155 549.61L-8.54722 541.923L-15.8429 549.61L-19.4907 545.767L-12.1951 538.08L-19.4907 530.393L-15.8429 526.55L-8.54722 534.236Z" fill="#093C70"/>
<path fill-rule="evenodd" clip-rule="evenodd" d="M43.5645 589.143L50.8601 581.456L54.508 585.299L47.2123 592.986H43.5645V589.143ZM43.5645 487.017L50.8601 494.704L54.508 490.861L47.2123 483.174H43.5645V487.017ZM144.141 592.986L136.845 585.299L140.493 581.456L147.788 589.143V592.986H144.141ZM147.788 487.017L140.493 494.704L136.845 490.861L144.141 483.174H147.788V487.017ZM95.6764 534.236L102.972 526.55L106.62 530.393L99.3243 538.08L106.62 545.767L102.972 549.61L95.6764 541.923L88.3807 549.61L84.7329 545.767L92.0286 538.08L84.7329 530.393L88.3807 526.55L95.6764 534.236Z" fill="#093C70"/>
<path fill-rule="evenodd" clip-rule="evenodd" d="M147.789 589.143L155.085 581.456L158.733 585.299L151.437 592.986H147.789V589.143ZM147.789 487.017L155.085 494.704L158.733 490.861L151.437 483.174H147.789V487.017ZM248.365 592.986L241.069 585.299L244.717 581.456L252.013 589.143V592.986H248.365ZM252.013 487.017L244.717 494.704L241.069 490.861L248.365 483.174H252.013V487.017ZM199.901 534.236L207.197 526.55L210.845 530.393L203.549 538.08L210.845 545.767L207.197 549.61L199.901 541.923L192.605 549.61L188.958 545.767L196.253 538.08L188.958 530.393L192.605 526.55L199.901 534.236Z" fill="#093C70"/>
<path fill-rule="evenodd" clip-rule="evenodd" d="M252.013 589.143L259.308 581.456L262.956 585.299L255.661 592.986H252.013V589.143ZM252.013 487.017L259.308 494.704L262.956 490.861L255.661 483.174H252.013V487.017ZM352.589 592.986L345.293 585.299L348.941 581.456L356.237 589.143V592.986H352.589ZM356.237 487.017L348.941 494.704L345.293 490.861L352.589 483.174H356.237V487.017ZM304.125 534.236L311.42 526.55L315.068 530.393L307.772 538.08L315.068 545.767L311.42 549.61L304.125 541.923L296.829 549.61L293.181 545.767L300.477 538.08L293.181 530.393L296.829 526.55L304.125 534.236Z" fill="#093C70"/>
<path fill-rule="evenodd" clip-rule="evenodd" d="M356.236 589.143L363.532 581.456L367.18 585.299L359.884 592.986H356.236V589.143ZM356.236 487.017L363.532 494.704L367.18 490.861L359.884 483.174H356.236V487.017ZM456.812 592.986L449.517 585.299L453.165 581.456L460.46 589.143V592.986H456.812ZM460.46 487.017L453.165 494.704L449.517 490.861L456.812 483.174H460.46V487.017ZM408.348 534.236L415.644 526.55L419.292 530.393L411.996 538.08L419.292 545.767L415.644 549.61L408.348 541.923L401.053 549.61L397.405 545.767L404.7 538.08L397.405 530.393L401.053 526.55L408.348 534.236Z" fill="#093C70"/>
<path fill-rule="evenodd" clip-rule="evenodd" d="M460.461 589.143L467.757 581.456L471.404 585.299L464.109 592.986H460.461V589.143ZM460.461 487.017L467.757 494.704L471.404 490.861L464.109 483.174H460.461V487.017ZM561.037 592.986L553.741 585.299L557.389 581.456L564.685 589.143V592.986H561.037ZM564.685 487.017L557.389 494.704L553.741 490.861L561.037 483.174H564.685V487.017ZM512.573 534.236L519.869 526.55L523.516 530.393L516.221 538.08L523.516 545.767L519.869 549.61L512.573 541.923L505.277 549.61L501.629 545.767L508.925 538.08L501.629 530.393L505.277 526.55L512.573 534.236Z" fill="#093C70"/>
<path fill-rule="evenodd" clip-rule="evenodd" d="M564.685 589.143L571.98 581.456L575.628 585.299L568.332 592.986H564.685V589.143ZM564.685 487.017L571.98 494.704L575.628 490.861L568.332 483.174H564.685V487.017ZM665.261 592.986L657.965 585.299L661.613 581.456L668.909 589.143V592.986H665.261ZM668.909 487.017L661.613 494.704L657.965 490.861L665.261 483.174H668.909V487.017ZM616.797 534.236L624.092 526.55L627.74 530.393L620.444 538.08L627.74 545.767L624.092 549.61L616.797 541.923L609.501 549.61L605.853 545.767L613.149 538.08L605.853 530.393L609.501 526.55L616.797 534.236Z" fill="#093C70"/>
<path fill-rule="evenodd" clip-rule="evenodd" d="M668.908 589.143L676.204 581.456L679.852 585.299L672.556 592.986H668.908V589.143ZM668.908 487.017L676.204 494.704L679.852 490.861L672.556 483.174H668.908V487.017ZM769.484 592.986L762.189 585.299L765.836 581.456L773.132 589.143V592.986H769.484ZM773.132 487.017L765.836 494.704L762.189 490.861L769.484 483.174H773.132V487.017ZM721.02 534.236L728.316 526.55L731.964 530.393L724.668 538.08L731.964 545.767L728.316 549.61L721.02 541.923L713.725 549.61L710.077 545.767L717.372 538.08L710.077 530.393L713.725 526.55L721.02 534.236Z" fill="#093C70"/>
<path fill-rule="evenodd" clip-rule="evenodd" d="M773.132 589.143L780.427 581.456L784.075 585.299L776.78 592.986H773.132V589.143ZM773.132 487.017L780.427 494.704L784.075 490.861L776.78 483.174H773.132V487.017ZM873.708 592.986L866.412 585.299L870.06 581.456L877.356 589.143V592.986H873.708ZM877.356 487.017L870.06 494.704L866.412 490.861L873.708 483.174H877.356V487.017ZM825.244 534.236L832.539 526.55L836.187 530.393L828.892 538.08L836.187 545.767L832.539 549.61L825.244 541.923L817.948 549.61L814.3 545.767L821.596 538.08L814.3 530.393L817.948 526.55L825.244 534.236Z" fill="#093C70"/>
<path fill-rule="evenodd" clip-rule="evenodd" d="M877.356 589.143L884.652 581.456L888.3 585.299L881.004 592.986H877.356V589.143ZM877.356 487.017L884.652 494.704L888.3 490.861L881.004 483.174H877.356V487.017ZM977.933 592.986L970.637 585.299L974.285 581.456L981.58 589.143V592.986H977.933ZM981.58 487.017L974.285 494.704L970.637 490.861L977.933 483.174H981.58V487.017ZM929.468 534.236L936.764 526.55L940.412 530.393L933.116 538.08L940.412 545.767L936.764 549.61L929.468 541.923L922.173 549.61L918.525 545.767L925.821 538.08L918.525 530.393L922.173 526.55L929.468 534.236Z" fill="#093C70"/>
<path fill-rule="evenodd" clip-rule="evenodd" d="M981.58 589.143L988.876 581.456L992.524 585.299L985.228 592.986H981.58V589.143ZM981.58 487.017L988.876 494.704L992.524 490.861L985.228 483.174H981.58V487.017ZM1082.16 592.986L1074.86 585.299L1078.51 581.456L1085.8 589.143V592.986H1082.16ZM1085.8 487.017L1078.51 494.704L1074.86 490.861L1082.16 483.174H1085.8V487.017ZM1033.69 534.236L1040.99 526.55L1044.64 530.393L1037.34 538.08L1044.64 545.767L1040.99 549.61L1033.69 541.923L1026.4 549.61L1022.75 545.767L1030.04 538.08L1022.75 530.393L1026.4 526.55L1033.69 534.236Z" fill="#093C70"/>
<path fill-rule="evenodd" clip-rule="evenodd" d="M-60.6592 698.955L-53.3635 691.268L-49.7157 695.112L-57.0113 702.799H-60.6592V698.955ZM-60.6592 596.83L-53.3635 604.517L-49.7157 600.673L-57.0113 592.986H-60.6592V596.83ZM39.9169 702.799L32.6212 695.112L36.2691 691.268L43.5647 698.955V702.799H39.9169ZM43.5647 596.83L36.2691 604.517L32.6212 600.673L39.9169 592.986H43.5647V596.83ZM-8.54722 644.049L-1.25155 636.362L2.39629 640.206L-4.89938 647.893L2.39629 655.579L-1.25155 659.423L-8.54722 651.736L-15.8429 659.423L-19.4907 655.579L-12.1951 647.893L-19.4907 640.206L-15.8429 636.362L-8.54722 644.049Z" fill="#093C70"/>
<path fill-rule="evenodd" clip-rule="evenodd" d="M43.5645 698.955L50.8601 691.268L54.508 695.112L47.2123 702.799H43.5645V698.955ZM43.5645 596.83L50.8601 604.517L54.508 600.673L47.2123 592.986H43.5645V596.83ZM144.141 702.799L136.845 695.112L140.493 691.268L147.788 698.955V702.799H144.141ZM147.788 596.83L140.493 604.517L136.845 600.673L144.141 592.986H147.788V596.83ZM95.6764 644.049L102.972 636.362L106.62 640.206L99.3243 647.893L106.62 655.579L102.972 659.423L95.6764 651.736L88.3807 659.423L84.7329 655.579L92.0286 647.893L84.7329 640.206L88.3807 636.362L95.6764 644.049Z" fill="#093C70"/>
<path fill-rule="evenodd" clip-rule="evenodd" d="M147.789 698.955L155.085 691.268L158.733 695.112L151.437 702.799H147.789V698.955ZM147.789 596.83L155.085 604.517L158.733 600.673L151.437 592.986H147.789V596.83ZM248.365 702.799L241.069 695.112L244.717 691.268L252.013 698.955V702.799H248.365ZM252.013 596.83L244.717 604.517L241.069 600.673L248.365 592.986H252.013V596.83ZM199.901 644.049L207.197 636.362L210.845 640.206L203.549 647.893L210.845 655.579L207.197 659.423L199.901 651.736L192.605 659.423L188.958 655.579L196.253 647.893L188.958 640.206L192.605 636.362L199.901 644.049Z" fill="#093C70"/>
<path fill-rule="evenodd" clip-rule="evenodd" d="M252.013 698.955L259.308 691.268L262.956 695.112L255.661 702.799H252.013V698.955ZM252.013 596.83L259.308 604.517L262.956 600.673L255.661 592.986H252.013V596.83ZM352.589 702.799L345.293 695.112L348.941 691.268L356.237 698.955V702.799H352.589ZM356.237 596.83L348.941 604.517L345.293 600.673L352.589 592.986H356.237V596.83ZM304.125 644.049L311.42 636.362L315.068 640.206L307.772 647.893L315.068 655.579L311.42 659.423L304.125 651.736L296.829 659.423L293.181 655.579L300.477 647.893L293.181 640.206L296.829 636.362L304.125 644.049Z" fill="#093C70"/>
<path fill-rule="evenodd" clip-rule="evenodd" d="M356.236 698.955L363.532 691.268L367.18 695.112L359.884 702.799H356.236V698.955ZM356.236 596.83L363.532 604.517L367.18 600.673L359.884 592.986H356.236V596.83ZM456.812 702.799L449.517 695.112L453.165 691.268L460.46 698.955V702.799H456.812ZM460.46 596.83L453.165 604.517L449.517 600.673L456.812 592.986H460.46V596.83ZM408.348 644.049L415.644 636.362L419.292 640.206L411.996 647.893L419.292 655.579L415.644 659.423L408.348 651.736L401.053 659.423L397.405 655.579L404.7 647.893L397.405 640.206L401.053 636.362L408.348 644.049Z" fill="#093C70"/>
<path fill-rule="evenodd" clip-rule="evenodd" d="M460.461 698.955L467.757 691.268L471.404 695.112L464.109 702.799H460.461V698.955ZM460.461 596.83L467.757 604.517L471.404 600.673L464.109 592.986H460.461V596.83ZM561.037 702.799L553.741 695.112L557.389 691.268L564.685 698.955V702.799H561.037ZM564.685 596.83L557.389 604.517L553.741 600.673L561.037 592.986H564.685V596.83ZM512.573 644.049L519.869 636.362L523.516 640.206L516.221 647.893L523.516 655.579L519.869 659.423L512.573 651.736L505.277 659.423L501.629 655.579L508.925 647.893L501.629 640.206L505.277 636.362L512.573 644.049Z" fill="#093C70"/>
<path fill-rule="evenodd" clip-rule="evenodd" d="M564.685 698.955L571.98 691.268L575.628 695.112L568.332 702.799H564.685V698.955ZM564.685 596.83L571.98 604.517L575.628 600.673L568.332 592.986H564.685V596.83ZM665.261 702.799L657.965 695.112L661.613 691.268L668.909 698.955V702.799H665.261ZM668.909 596.83L661.613 604.517L657.965 600.673L665.261 592.986H668.909V596.83ZM616.797 644.049L624.092 636.362L627.74 640.206L620.444 647.893L627.74 655.579L624.092 659.423L616.797 651.736L609.501 659.423L605.853 655.579L613.149 647.893L605.853 640.206L609.501 636.362L616.797 644.049Z" fill="#093C70"/>
<path fill-rule="evenodd" clip-rule="evenodd" d="M668.908 698.955L676.204 691.268L679.852 695.112L672.556 702.799H668.908V698.955ZM668.908 596.83L676.204 604.517L679.852 600.673L672.556 592.986H668.908V596.83ZM769.484 702.799L762.189 695.112L765.836 691.268L773.132 698.955V702.799H769.484ZM773.132 596.83L765.836 604.517L762.189 600.673L769.484 592.986H773.132V596.83ZM721.02 644.049L728.316 636.362L731.964 640.206L724.668 647.893L731.964 655.579L728.316 659.423L721.02 651.736L713.725 659.423L710.077 655.579L717.372 647.893L710.077 640.206L713.725 636.362L721.02 644.049Z" fill="#093C70"/>
<path fill-rule="evenodd" clip-rule="evenodd" d="M773.132 698.955L780.427 691.268L784.075 695.112L776.78 702.799H773.132V698.955ZM773.132 596.83L780.427 604.517L784.075 600.673L776.78 592.986H773.132V596.83ZM873.708 702.799L866.412 695.112L870.06 691.268L877.356 698.955V702.799H873.708ZM877.356 596.83L870.06 604.517L866.412 600.673L873.708 592.986H877.356V596.83ZM825.244 644.049L832.539 636.362L836.187 640.206L828.892 647.893L836.187 655.579L832.539 659.423L825.244 651.736L817.948 659.423L814.3 655.579L821.596 647.893L814.3 640.206L817.948 636.362L825.244 644.049Z" fill="#093C70"/>
<path fill-rule="evenodd" clip-rule="evenodd" d="M877.356 698.955L884.652 691.268L888.3 695.112L881.004 702.799H877.356V698.955ZM877.356 596.83L884.652 604.517L888.3 600.673L881.004 592.986H877.356V596.83ZM977.933 702.799L970.637 695.112L974.285 691.268L981.58 698.955V702.799H977.933ZM981.58 596.83L974.285 604.517L970.637 600.673L977.933 592.986H981.58V596.83ZM929.468 644.049L936.764 636.362L940.412 640.206L933.116 647.893L940.412 655.579L936.764 659.423L929.468 651.736L922.173 659.423L918.525 655.579L925.821 647.893L918.525 640.206L922.173 636.362L929.468 644.049Z" fill="#093C70"/>
<path fill-rule="evenodd" clip-rule="evenodd" d="M981.58 698.955L988.876 691.268L992.524 695.112L985.228 702.799H981.58V698.955ZM981.58 596.83L988.876 604.517L992.524 600.673L985.228 592.986H981.58V596.83ZM1082.16 702.799L1074.86 695.112L1078.51 691.268L1085.8 698.955V702.799H1082.16ZM1085.8 596.83L1078.51 604.517L1074.86 600.673L1082.16 592.986H1085.8V596.83ZM1033.69 644.049L1040.99 636.362L1044.64 640.206L1037.34 647.893L1044.64 655.579L1040.99 659.423L1033.69 651.736L1026.4 659.423L1022.75 655.579L1030.04 647.893L1022.75 640.206L1026.4 636.362L1033.69 644.049Z" fill="#093C70"/>
<path fill-rule="evenodd" clip-rule="evenodd" d="M-60.6592 808.768L-53.3635 801.081L-49.7157 804.924L-57.0113 812.611H-60.6592V808.768ZM-60.6592 706.642L-53.3635 714.329L-49.7157 710.486L-57.0113 702.799H-60.6592V706.642ZM39.9169 812.611L32.6212 804.924L36.2691 801.081L43.5647 808.768V812.611H39.9169ZM43.5647 706.642L36.2691 714.329L32.6212 710.486L39.9169 702.799H43.5647V706.642ZM-8.54722 753.861L-1.25155 746.175L2.39629 750.018L-4.89938 757.705L2.39629 765.392L-1.25155 769.235L-8.54722 761.548L-15.8429 769.235L-19.4907 765.392L-12.1951 757.705L-19.4907 750.018L-15.8429 746.175L-8.54722 753.861Z" fill="#093C70"/>
<path fill-rule="evenodd" clip-rule="evenodd" d="M43.5645 808.768L50.8601 801.081L54.508 804.924L47.2123 812.611H43.5645V808.768ZM43.5645 706.642L50.8601 714.329L54.508 710.486L47.2123 702.799H43.5645V706.642ZM144.141 812.611L136.845 804.924L140.493 801.081L147.788 808.768V812.611H144.141ZM147.788 706.642L140.493 714.329L136.845 710.486L144.141 702.799H147.788V706.642ZM95.6764 753.861L102.972 746.175L106.62 750.018L99.3243 757.705L106.62 765.392L102.972 769.235L95.6764 761.548L88.3807 769.235L84.7329 765.392L92.0286 757.705L84.7329 750.018L88.3807 746.175L95.6764 753.861Z" fill="#093C70"/>
<path fill-rule="evenodd" clip-rule="evenodd" d="M147.789 808.768L155.085 801.081L158.733 804.924L151.437 812.611H147.789V808.768ZM147.789 706.642L155.085 714.329L158.733 710.486L151.437 702.799H147.789V706.642ZM248.365 812.611L241.069 804.924L244.717 801.081L252.013 808.768V812.611H248.365ZM252.013 706.642L244.717 714.329L241.069 710.486L248.365 702.799H252.013V706.642ZM199.901 753.861L207.197 746.175L210.845 750.018L203.549 757.705L210.845 765.392L207.197 769.235L199.901 761.548L192.605 769.235L188.958 765.392L196.253 757.705L188.958 750.018L192.605 746.175L199.901 753.861Z" fill="#093C70"/>
<path fill-rule="evenodd" clip-rule="evenodd" d="M252.013 808.768L259.308 801.081L262.956 804.924L255.661 812.611H252.013V808.768ZM252.013 706.642L259.308 714.329L262.956 710.486L255.661 702.799H252.013V706.642ZM352.589 812.611L345.293 804.924L348.941 801.081L356.237 808.768V812.611H352.589ZM356.237 706.642L348.941 714.329L345.293 710.486L352.589 702.799H356.237V706.642ZM304.125 753.861L311.42 746.175L315.068 750.018L307.772 757.705L315.068 765.392L311.42 769.235L304.125 761.548L296.829 769.235L293.181 765.392L300.477 757.705L293.181 750.018L296.829 746.175L304.125 753.861Z" fill="#093C70"/>
<path fill-rule="evenodd" clip-rule="evenodd" d="M356.236 808.768L363.532 801.081L367.18 804.924L359.884 812.611H356.236V808.768ZM356.236 706.642L363.532 714.329L367.18 710.486L359.884 702.799H356.236V706.642ZM456.812 812.611L449.517 804.924L453.165 801.081L460.46 808.768V812.611H456.812ZM460.46 706.642L453.165 714.329L449.517 710.486L456.812 702.799H460.46V706.642ZM408.348 753.861L415.644 746.175L419.292 750.018L411.996 757.705L419.292 765.392L415.644 769.235L408.348 761.548L401.053 769.235L397.405 765.392L404.7 757.705L397.405 750.018L401.053 746.175L408.348 753.861Z" fill="#093C70"/>
<path fill-rule="evenodd" clip-rule="evenodd" d="M460.461 808.768L467.757 801.081L471.404 804.924L464.109 812.611H460.461V808.768ZM460.461 706.642L467.757 714.329L471.404 710.486L464.109 702.799H460.461V706.642ZM561.037 812.611L553.741 804.924L557.389 801.081L564.685 808.768V812.611H561.037ZM564.685 706.642L557.389 714.329L553.741 710.486L561.037 702.799H564.685V706.642ZM512.573 753.861L519.869 746.175L523.516 750.018L516.221 757.705L523.516 765.392L519.869 769.235L512.573 761.548L505.277 769.235L501.629 765.392L508.925 757.705L501.629 750.018L505.277 746.175L512.573 753.861Z" fill="#093C70"/>
<path fill-rule="evenodd" clip-rule="evenodd" d="M564.685 808.768L571.98 801.081L575.628 804.924L568.332 812.611H564.685V808.768ZM564.685 706.642L571.98 714.329L575.628 710.486L568.332 702.799H564.685V706.642ZM665.261 812.611L657.965 804.924L661.613 801.081L668.909 808.768V812.611H665.261ZM668.909 706.642L661.613 714.329L657.965 710.486L665.261 702.799H668.909V706.642ZM616.797 753.861L624.092 746.175L627.74 750.018L620.444 757.705L627.74 765.392L624.092 769.235L616.797 761.548L609.501 769.235L605.853 765.392L613.149 757.705L605.853 750.018L609.501 746.175L616.797 753.861Z" fill="#093C70"/>
<path fill-rule="evenodd" clip-rule="evenodd" d="M668.908 808.768L676.204 801.081L679.852 804.924L672.556 812.611H668.908V808.768ZM668.908 706.642L676.204 714.329L679.852 710.486L672.556 702.799H668.908V706.642ZM769.484 812.611L762.189 804.924L765.836 801.081L773.132 808.768V812.611H769.484ZM773.132 706.642L765.836 714.329L762.189 710.486L769.484 702.799H773.132V706.642ZM721.02 753.861L728.316 746.175L731.964 750.018L724.668 757.705L731.964 765.392L728.316 769.235L721.02 761.548L713.725 769.235L710.077 765.392L717.372 757.705L710.077 750.018L713.725 746.175L721.02 753.861Z" fill="#093C70"/>
<path fill-rule="evenodd" clip-rule="evenodd" d="M773.132 808.768L780.427 801.081L784.075 804.924L776.78 812.611H773.132V808.768ZM773.132 706.642L780.427 714.329L784.075 710.486L776.78 702.799H773.132V706.642ZM873.708 812.611L866.412 804.924L870.06 801.081L877.356 808.768V812.611H873.708ZM877.356 706.642L870.06 714.329L866.412 710.486L873.708 702.799H877.356V706.642ZM825.244 753.861L832.539 746.175L836.187 750.018L828.892 757.705L836.187 765.392L832.539 769.235L825.244 761.548L817.948 769.235L814.3 765.392L821.596 757.705L814.3 750.018L817.948 746.175L825.244 753.861Z" fill="#093C70"/>
<path fill-rule="evenodd" clip-rule="evenodd" d="M877.356 808.768L884.652 801.081L888.3 804.924L881.004 812.611H877.356V808.768ZM877.356 706.642L884.652 714.329L888.3 710.486L881.004 702.799H877.356V706.642ZM977.933 812.611L970.637 804.924L974.285 801.081L981.58 808.768V812.611H977.933ZM981.58 706.642L974.285 714.329L970.637 710.486L977.933 702.799H981.58V706.642ZM929.468 753.861L936.764 746.175L940.412 750.018L933.116 757.705L940.412 765.392L936.764 769.235L929.468 761.548L922.173 769.235L918.525 765.392L925.821 757.705L918.525 750.018L922.173 746.175L929.468 753.861Z" fill="#093C70"/>
<path fill-rule="evenodd" clip-rule="evenodd" d="M981.58 808.768L988.876 801.081L992.524 804.924L985.228 812.611H981.58V808.768ZM981.58 706.642L988.876 714.329L992.524 710.486L985.228 702.799H981.58V706.642ZM1082.16 812.611L1074.86 804.924L1078.51 801.081L1085.8 808.768V812.611H1082.16ZM1085.8 706.642L1078.51 714.329L1074.86 710.486L1082.16 702.799H1085.8V706.642ZM1033.69 753.861L1040.99 746.175L1044.64 750.018L1037.34 757.705L1044.64 765.392L1040.99 769.235L1033.69 761.548L1026.4 769.235L1022.75 765.392L1030.04 757.705L1022.75 750.018L1026.4 746.175L1033.69 753.861Z" fill="#093C70"/>
<path fill-rule="evenodd" clip-rule="evenodd" d="M-60.6592 918.58L-53.3635 910.893L-49.7157 914.737L-57.0113 922.424H-60.6592V918.58ZM-60.6592 816.455L-53.3635 824.142L-49.7157 820.298L-57.0113 812.611H-60.6592V816.455ZM39.9169 922.424L32.6212 914.737L36.2691 910.893L43.5647 918.58V922.424H39.9169ZM43.5647 816.455L36.2691 824.142L32.6212 820.298L39.9169 812.611H43.5647V816.455ZM-8.54722 863.674L-1.25155 855.987L2.39629 859.831L-4.89938 867.517L2.39629 875.204L-1.25155 879.048L-8.54722 871.361L-15.8429 879.048L-19.4907 875.204L-12.1951 867.517L-19.4907 859.831L-15.8429 855.987L-8.54722 863.674Z" fill="#093C70"/>
<path fill-rule="evenodd" clip-rule="evenodd" d="M43.5645 918.58L50.8601 910.893L54.508 914.737L47.2123 922.424H43.5645V918.58ZM43.5645 816.455L50.8601 824.142L54.508 820.298L47.2123 812.611H43.5645V816.455ZM144.141 922.424L136.845 914.737L140.493 910.893L147.788 918.58V922.424H144.141ZM147.788 816.455L140.493 824.142L136.845 820.298L144.141 812.611H147.788V816.455ZM95.6764 863.674L102.972 855.987L106.62 859.831L99.3243 867.517L106.62 875.204L102.972 879.048L95.6764 871.361L88.3807 879.048L84.7329 875.204L92.0286 867.517L84.7329 859.831L88.3807 855.987L95.6764 863.674Z" fill="#093C70"/>
<path fill-rule="evenodd" clip-rule="evenodd" d="M147.789 918.58L155.085 910.893L158.733 914.737L151.437 922.424H147.789V918.58ZM147.789 816.455L155.085 824.142L158.733 820.298L151.437 812.611H147.789V816.455ZM248.365 922.424L241.069 914.737L244.717 910.893L252.013 918.58V922.424H248.365ZM252.013 816.455L244.717 824.142L241.069 820.298L248.365 812.611H252.013V816.455ZM199.901 863.674L207.197 855.987L210.845 859.831L203.549 867.517L210.845 875.204L207.197 879.048L199.901 871.361L192.605 879.048L188.958 875.204L196.253 867.517L188.958 859.831L192.605 855.987L199.901 863.674Z" fill="#093C70"/>
<path fill-rule="evenodd" clip-rule="evenodd" d="M252.013 918.58L259.308 910.893L262.956 914.737L255.661 922.424H252.013V918.58ZM252.013 816.455L259.308 824.142L262.956 820.298L255.661 812.611H252.013V816.455ZM352.589 922.424L345.293 914.737L348.941 910.893L356.237 918.58V922.424H352.589ZM356.237 816.455L348.941 824.142L345.293 820.298L352.589 812.611H356.237V816.455ZM304.125 863.674L311.42 855.987L315.068 859.831L307.772 867.517L315.068 875.204L311.42 879.048L304.125 871.361L296.829 879.048L293.181 875.204L300.477 867.517L293.181 859.831L296.829 855.987L304.125 863.674Z" fill="#093C70"/>
<path fill-rule="evenodd" clip-rule="evenodd" d="M356.236 918.58L363.532 910.893L367.18 914.737L359.884 922.424H356.236V918.58ZM356.236 816.455L363.532 824.142L367.18 820.298L359.884 812.611H356.236V816.455ZM456.812 922.424L449.517 914.737L453.165 910.893L460.46 918.58V922.424H456.812ZM460.46 816.455L453.165 824.142L449.517 820.298L456.812 812.611H460.46V816.455ZM408.348 863.674L415.644 855.987L419.292 859.831L411.996 867.517L419.292 875.204L415.644 879.048L408.348 871.361L401.053 879.048L397.405 875.204L404.7 867.517L397.405 859.831L401.053 855.987L408.348 863.674Z" fill="#093C70"/>
<path fill-rule="evenodd" clip-rule="evenodd" d="M460.461 918.58L467.757 910.893L471.404 914.737L464.109 922.424H460.461V918.58ZM460.461 816.455L467.757 824.142L471.404 820.298L464.109 812.611H460.461V816.455ZM561.037 922.424L553.741 914.737L557.389 910.893L564.685 918.58V922.424H561.037ZM564.685 816.455L557.389 824.142L553.741 820.298L561.037 812.611H564.685V816.455ZM512.573 863.674L519.869 855.987L523.516 859.831L516.221 867.517L523.516 875.204L519.869 879.048L512.573 871.361L505.277 879.048L501.629 875.204L508.925 867.517L501.629 859.831L505.277 855.987L512.573 863.674Z" fill="#093C70"/>
<path fill-rule="evenodd" clip-rule="evenodd" d="M564.685 918.58L571.98 910.893L575.628 914.737L568.332 922.424H564.685V918.58ZM564.685 816.455L571.98 824.142L575.628 820.298L568.332 812.611H564.685V816.455ZM665.261 922.424L657.965 914.737L661.613 910.893L668.909 918.58V922.424H665.261ZM668.909 816.455L661.613 824.142L657.965 820.298L665.261 812.611H668.909V816.455ZM616.797 863.674L624.092 855.987L627.74 859.831L620.444 867.517L627.74 875.204L624.092 879.048L616.797 871.361L609.501 879.048L605.853 875.204L613.149 867.517L605.853 859.831L609.501 855.987L616.797 863.674Z" fill="#093C70"/>
<path fill-rule="evenodd" clip-rule="evenodd" d="M668.908 918.58L676.204 910.893L679.852 914.737L672.556 922.424H668.908V918.58ZM668.908 816.455L676.204 824.142L679.852 820.298L672.556 812.611H668.908V816.455ZM769.484 922.424L762.189 914.737L765.836 910.893L773.132 918.58V922.424H769.484ZM773.132 816.455L765.836 824.142L762.189 820.298L769.484 812.611H773.132V816.455ZM721.02 863.674L728.316 855.987L731.964 859.831L724.668 867.517L731.964 875.204L728.316 879.048L721.02 871.361L713.725 879.048L710.077 875.204L717.372 867.517L710.077 859.831L713.725 855.987L721.02 863.674Z" fill="#093C70"/>
<path fill-rule="evenodd" clip-rule="evenodd" d="M773.132 918.58L780.427 910.893L784.075 914.737L776.78 922.424H773.132V918.58ZM773.132 816.455L780.427 824.142L784.075 820.298L776.78 812.611H773.132V816.455ZM873.708 922.424L866.412 914.737L870.06 910.893L877.356 918.58V922.424H873.708ZM877.356 816.455L870.06 824.142L866.412 820.298L873.708 812.611H877.356V816.455ZM825.244 863.674L832.539 855.987L836.187 859.831L828.892 867.517L836.187 875.204L832.539 879.048L825.244 871.361L817.948 879.048L814.3 875.204L821.596 867.517L814.3 859.831L817.948 855.987L825.244 863.674Z" fill="#093C70"/>
<path fill-rule="evenodd" clip-rule="evenodd" d="M877.356 918.58L884.652 910.893L888.3 914.737L881.004 922.424H877.356V918.58ZM877.356 816.455L884.652 824.142L888.3 820.298L881.004 812.611H877.356V816.455ZM977.933 922.424L970.637 914.737L974.285 910.893L981.58 918.58V922.424H977.933ZM981.58 816.455L974.285 824.142L970.637 820.298L977.933 812.611H981.58V816.455ZM929.468 863.674L936.764 855.987L940.412 859.831L933.116 867.517L940.412 875.204L936.764 879.048L929.468 871.361L922.173 879.048L918.525 875.204L925.821 867.517L918.525 859.831L922.173 855.987L929.468 863.674Z" fill="#093C70"/>
<path fill-rule="evenodd" clip-rule="evenodd" d="M981.58 918.58L988.876 910.893L992.524 914.737L985.228 922.424H981.58V918.58ZM981.58 816.455L988.876 824.142L992.524 820.298L985.228 812.611H981.58V816.455ZM1082.16 922.424L1074.86 914.737L1078.51 910.893L1085.8 918.58V922.424H1082.16ZM1085.8 816.455L1078.51 824.142L1074.86 820.298L1082.16 812.611H1085.8V816.455ZM1033.69 863.674L1040.99 855.987L1044.64 859.831L1037.34 867.517L1044.64 875.204L1040.99 879.048L1033.69 871.361L1026.4 879.048L1022.75 875.204L1030.04 867.517L1022.75 859.831L1026.4 855.987L1033.69 863.674Z" fill="#093C70"/>
<path fill-rule="evenodd" clip-rule="evenodd" d="M-60.6592 1028.39L-53.3635 1020.71L-49.7157 1024.55L-57.0113 1032.24H-60.6592V1028.39ZM-60.6592 926.267L-53.3635 933.954L-49.7157 930.111L-57.0113 922.424H-60.6592V926.267ZM39.9169 1032.24L32.6212 1024.55L36.2691 1020.71L43.5647 1028.39V1032.24H39.9169ZM43.5647 926.267L36.2691 933.954L32.6212 930.111L39.9169 922.424H43.5647V926.267ZM-8.54722 973.487L-1.25155 965.8L2.39629 969.643L-4.89938 977.33L2.39629 985.017L-1.25155 988.86L-8.54722 981.174L-15.8429 988.86L-19.4907 985.017L-12.1951 977.33L-19.4907 969.643L-15.8429 965.8L-8.54722 973.487Z" fill="#093C70"/>
<path fill-rule="evenodd" clip-rule="evenodd" d="M43.5645 1028.39L50.8601 1020.71L54.508 1024.55L47.2123 1032.24H43.5645V1028.39ZM43.5645 926.267L50.8601 933.954L54.508 930.111L47.2123 922.424H43.5645V926.267ZM144.141 1032.24L136.845 1024.55L140.493 1020.71L147.788 1028.39V1032.24H144.141ZM147.788 926.267L140.493 933.954L136.845 930.111L144.141 922.424H147.788V926.267ZM95.6764 973.487L102.972 965.8L106.62 969.643L99.3243 977.33L106.62 985.017L102.972 988.86L95.6764 981.174L88.3807 988.86L84.7329 985.017L92.0286 977.33L84.7329 969.643L88.3807 965.8L95.6764 973.487Z" fill="#093C70"/>
<path fill-rule="evenodd" clip-rule="evenodd" d="M147.789 1028.39L155.085 1020.71L158.733 1024.55L151.437 1032.24H147.789V1028.39ZM147.789 926.267L155.085 933.954L158.733 930.111L151.437 922.424H147.789V926.267ZM248.365 1032.24L241.069 1024.55L244.717 1020.71L252.013 1028.39V1032.24H248.365ZM252.013 926.267L244.717 933.954L241.069 930.111L248.365 922.424H252.013V926.267ZM199.901 973.487L207.197 965.8L210.845 969.643L203.549 977.33L210.845 985.017L207.197 988.86L199.901 981.174L192.605 988.86L188.958 985.017L196.253 977.33L188.958 969.643L192.605 965.8L199.901 973.487Z" fill="#093C70"/>
<path fill-rule="evenodd" clip-rule="evenodd" d="M252.013 1028.39L259.308 1020.71L262.956 1024.55L255.661 1032.24H252.013V1028.39ZM252.013 926.267L259.308 933.954L262.956 930.111L255.661 922.424H252.013V926.267ZM352.589 1032.24L345.293 1024.55L348.941 1020.71L356.237 1028.39V1032.24H352.589ZM356.237 926.267L348.941 933.954L345.293 930.111L352.589 922.424H356.237V926.267ZM304.125 973.487L311.42 965.8L315.068 969.643L307.772 977.33L315.068 985.017L311.42 988.86L304.125 981.174L296.829 988.86L293.181 985.017L300.477 977.33L293.181 969.643L296.829 965.8L304.125 973.487Z" fill="#093C70"/>
<path fill-rule="evenodd" clip-rule="evenodd" d="M356.236 1028.39L363.532 1020.71L367.18 1024.55L359.884 1032.24H356.236V1028.39ZM356.236 926.267L363.532 933.954L367.18 930.111L359.884 922.424H356.236V926.267ZM456.812 1032.24L449.517 1024.55L453.165 1020.71L460.46 1028.39V1032.24H456.812ZM460.46 926.267L453.165 933.954L449.517 930.111L456.812 922.424H460.46V926.267ZM408.348 973.487L415.644 965.8L419.292 969.643L411.996 977.33L419.292 985.017L415.644 988.86L408.348 981.174L401.053 988.86L397.405 985.017L404.7 977.33L397.405 969.643L401.053 965.8L408.348 973.487Z" fill="#093C70"/>
<path fill-rule="evenodd" clip-rule="evenodd" d="M460.461 1028.39L467.757 1020.71L471.404 1024.55L464.109 1032.24H460.461V1028.39ZM460.461 926.267L467.757 933.954L471.404 930.111L464.109 922.424H460.461V926.267ZM561.037 1032.24L553.741 1024.55L557.389 1020.71L564.685 1028.39V1032.24H561.037ZM564.685 926.267L557.389 933.954L553.741 930.111L561.037 922.424H564.685V926.267ZM512.573 973.487L519.869 965.8L523.516 969.643L516.221 977.33L523.516 985.017L519.869 988.86L512.573 981.174L505.277 988.86L501.629 985.017L508.925 977.33L501.629 969.643L505.277 965.8L512.573 973.487Z" fill="#093C70"/>
<path fill-rule="evenodd" clip-rule="evenodd" d="M564.685 1028.39L571.98 1020.71L575.628 1024.55L568.332 1032.24H564.685V1028.39ZM564.685 926.267L571.98 933.954L575.628 930.111L568.332 922.424H564.685V926.267ZM665.261 1032.24L657.965 1024.55L661.613 1020.71L668.909 1028.39V1032.24H665.261ZM668.909 926.267L661.613 933.954L657.965 930.111L665.261 922.424H668.909V926.267ZM616.797 973.487L624.092 965.8L627.74 969.643L620.444 977.33L627.74 985.017L624.092 988.86L616.797 981.174L609.501 988.86L605.853 985.017L613.149 977.33L605.853 969.643L609.501 965.8L616.797 973.487Z" fill="#093C70"/>
<path fill-rule="evenodd" clip-rule="evenodd" d="M668.908 1028.39L676.204 1020.71L679.852 1024.55L672.556 1032.24H668.908V1028.39ZM668.908 926.267L676.204 933.954L679.852 930.111L672.556 922.424H668.908V926.267ZM769.484 1032.24L762.189 1024.55L765.836 1020.71L773.132 1028.39V1032.24H769.484ZM773.132 926.267L765.836 933.954L762.189 930.111L769.484 922.424H773.132V926.267ZM721.02 973.487L728.316 965.8L731.964 969.643L724.668 977.33L731.964 985.017L728.316 988.86L721.02 981.174L713.725 988.86L710.077 985.017L717.372 977.33L710.077 969.643L713.725 965.8L721.02 973.487Z" fill="#093C70"/>
<path fill-rule="evenodd" clip-rule="evenodd" d="M773.132 1028.39L780.427 1020.71L784.075 1024.55L776.78 1032.24H773.132V1028.39ZM773.132 926.267L780.427 933.954L784.075 930.111L776.78 922.424H773.132V926.267ZM873.708 1032.24L866.412 1024.55L870.06 1020.71L877.356 1028.39V1032.24H873.708ZM877.356 926.267L870.06 933.954L866.412 930.111L873.708 922.424H877.356V926.267ZM825.244 973.487L832.539 965.8L836.187 969.643L828.892 977.33L836.187 985.017L832.539 988.86L825.244 981.174L817.948 988.86L814.3 985.017L821.596 977.33L814.3 969.643L817.948 965.8L825.244 973.487Z" fill="#093C70"/>
<path fill-rule="evenodd" clip-rule="evenodd" d="M877.356 1028.39L884.652 1020.71L888.3 1024.55L881.004 1032.24H877.356V1028.39ZM877.356 926.267L884.652 933.954L888.3 930.111L881.004 922.424H877.356V926.267ZM977.933 1032.24L970.637 1024.55L974.285 1020.71L981.58 1028.39V1032.24H977.933ZM981.58 926.267L974.285 933.954L970.637 930.111L977.933 922.424H981.58V926.267ZM929.468 973.487L936.764 965.8L940.412 969.643L933.116 977.33L940.412 985.017L936.764 988.86L929.468 981.174L922.173 988.86L918.525 985.017L925.821 977.33L918.525 969.643L922.173 965.8L929.468 973.487Z" fill="#093C70"/>
<path fill-rule="evenodd" clip-rule="evenodd" d="M981.58 1028.39L988.876 1020.71L992.524 1024.55L985.228 1032.24H981.58V1028.39ZM981.58 926.267L988.876 933.954L992.524 930.111L985.228 922.424H981.58V926.267ZM1082.16 1032.24L1074.86 1024.55L1078.51 1020.71L1085.8 1028.39V1032.24H1082.16ZM1085.8 926.267L1078.51 933.954L1074.86 930.111L1082.16 922.424H1085.8V926.267ZM1033.69 973.487L1040.99 965.8L1044.64 969.643L1037.34 977.33L1044.64 985.017L1040.99 988.86L1033.69 981.174L1026.4 988.86L1022.75 985.017L1030.04 977.33L1022.75 969.643L1026.4 965.8L1033.69 973.487Z" fill="#093C70"/>
</g>
<defs>
<clipPath id="clip0_295_80206">
<rect width="1024" height="1024" fill="white"/>
</clipPath>
</defs>
</svg>
