<svg width="1024" height="1024" viewBox="0 0 1024 1024" fill="none" xmlns="http://www.w3.org/2000/svg">
<g clip-path="url(#clip0_295_82095)">
<rect width="1024" height="1024" fill="#04274B"/>
<g clip-path="url(#clip1_295_82095)">
<path fill-rule="evenodd" clip-rule="evenodd" d="M-4 31.1659L37.1377 -10H74.7743L-4 68.8282V31.1659ZM262.301 68.8282L183.527 -10H221.163L262.301 31.1659V68.8282ZM37.1377 69.9231L117.006 -10H141.404L221.273 69.9231H183.636L129.26 15.5097L74.7743 69.9231H37.1377ZM117.006 69.9231L129.15 57.7704L141.404 69.9231H117.006Z" fill="#093C70"/>
<path fill-rule="evenodd" clip-rule="evenodd" d="M261.863 31.1659L303.001 -10H340.638L261.863 68.8282V31.1659ZM528.274 68.8282L449.499 -10H487.136L528.274 31.1659V68.8282ZM303.001 69.9231L382.869 -10H407.267L487.136 69.9231H449.499L395.123 15.5097L340.638 69.9231H303.001ZM382.869 69.9231L395.014 57.7704L407.267 69.9231H382.869Z" fill="#093C70"/>
<path fill-rule="evenodd" clip-rule="evenodd" d="M527.727 31.1659L568.864 -10H606.501L527.727 68.8282V31.1659ZM794.137 68.8282L715.363 -10H752.999L794.137 31.1659V68.8282ZM568.864 69.9231L648.733 -10H673.131L752.999 69.9231H715.363L660.986 15.5097L606.501 69.9231H568.864ZM648.733 69.9231L660.877 57.7704L673.131 69.9231H648.733Z" fill="#093C70"/>
<path fill-rule="evenodd" clip-rule="evenodd" d="M793.59 31.1659L834.728 -10H872.364L793.59 68.8282V31.1659ZM1060 68.8282L981.226 -10H1018.86L1060 31.1659V68.8282ZM834.728 69.9231L914.596 -10H938.994L1018.86 69.9231H981.226L926.85 15.5097L872.364 69.9231H834.728ZM914.596 69.9231L926.74 57.7704L938.994 69.9231H914.596Z" fill="#093C70"/>
<path fill-rule="evenodd" clip-rule="evenodd" d="M-4 111.089L37.1377 69.9229H74.7743L-4 148.751V111.089ZM262.301 148.751L183.527 69.9229H221.163L262.301 111.089V148.751ZM37.1377 149.846L117.006 69.9229H141.404L221.273 149.846H183.636L129.26 95.4326L74.7743 149.846H37.1377ZM117.006 149.846L129.15 137.693L141.295 149.846H117.006Z" fill="#093C70"/>
<path fill-rule="evenodd" clip-rule="evenodd" d="M261.863 111.089L303.001 69.9229H340.638L261.863 148.751V111.089ZM528.274 148.751L449.499 69.9229H487.136L528.274 111.089V148.751ZM303.001 149.846L382.869 69.9229H407.267L487.136 149.846H449.499L395.123 95.4326L340.638 149.846H303.001ZM382.869 149.846L395.014 137.693L407.158 149.846H382.869Z" fill="#093C70"/>
<path fill-rule="evenodd" clip-rule="evenodd" d="M527.727 111.089L568.864 69.9229H606.501L527.727 148.751V111.089ZM794.137 148.751L715.363 69.9229H752.999L794.137 111.089V148.751ZM568.864 149.846L648.733 69.9229H673.131L752.999 149.846H715.363L660.986 95.4326L606.501 149.846H568.864ZM648.733 149.846L660.877 137.693L673.021 149.846H648.733Z" fill="#093C70"/>
<path fill-rule="evenodd" clip-rule="evenodd" d="M793.59 111.089L834.728 69.9229H872.364L793.59 148.751V111.089ZM1060 148.751L981.226 69.9229H1018.86L1060 111.089V148.751ZM834.728 149.846L914.596 69.9229H938.994L1018.86 149.846H981.226L926.85 95.4326L872.364 149.846H834.728ZM914.596 149.846L926.74 137.693L938.885 149.846H914.596Z" fill="#093C70"/>
<path fill-rule="evenodd" clip-rule="evenodd" d="M-4 191.013L37.1377 149.847H74.7743L-4 228.675V191.013ZM262.301 228.675L183.527 149.847H221.163L262.301 191.013V228.675ZM37.1377 229.77L117.006 149.847H141.404L221.273 229.77H183.636L129.26 175.356L74.7743 229.77H37.1377ZM117.006 229.77L129.15 217.617L141.295 229.77H117.006Z" fill="#093C70"/>
<path fill-rule="evenodd" clip-rule="evenodd" d="M261.863 191.013L303.001 149.847H340.638L261.863 228.675V191.013ZM528.274 228.675L449.499 149.847H487.136L528.274 191.013V228.675ZM303.001 229.77L382.869 149.847H407.267L487.136 229.77H449.499L395.123 175.356L340.638 229.77H303.001ZM382.869 229.77L395.014 217.617L407.158 229.77H382.869Z" fill="#093C70"/>
<path fill-rule="evenodd" clip-rule="evenodd" d="M527.727 191.013L568.864 149.847H606.501L527.727 228.675V191.013ZM794.137 228.675L715.363 149.847H752.999L794.137 191.013V228.675ZM568.864 229.77L648.733 149.847H673.131L752.999 229.77H715.363L660.986 175.356L606.501 229.77H568.864ZM648.733 229.77L660.877 217.617L673.021 229.77H648.733Z" fill="#093C70"/>
<path fill-rule="evenodd" clip-rule="evenodd" d="M793.59 191.013L834.728 149.847H872.364L793.59 228.675V191.013ZM1060 228.675L981.226 149.847H1018.86L1060 191.013V228.675ZM834.728 229.77L914.596 149.847H938.994L1018.86 229.77H981.226L926.85 175.356L872.364 229.77H834.728ZM914.596 229.77L926.74 217.617L938.885 229.77H914.596Z" fill="#093C70"/>
<path fill-rule="evenodd" clip-rule="evenodd" d="M-4 270.935L37.1377 229.77H74.7743L-4 308.598V270.935ZM262.301 308.598L183.527 229.77H221.163L262.301 270.935V308.598ZM37.1377 309.693L117.006 229.77H141.404L221.273 309.693H183.636L129.26 255.279L74.7743 309.693H37.1377ZM117.006 309.693L129.15 297.54L141.295 309.693H117.006Z" fill="#093C70"/>
<path fill-rule="evenodd" clip-rule="evenodd" d="M261.863 270.935L303.001 229.77H340.638L261.863 308.598V270.935ZM528.274 308.598L449.499 229.77H487.136L528.274 270.935V308.598ZM303.001 309.693L382.869 229.77H407.267L487.136 309.693H449.499L395.123 255.279L340.638 309.693H303.001ZM382.869 309.693L395.014 297.54L407.158 309.693H382.869Z" fill="#093C70"/>
<path fill-rule="evenodd" clip-rule="evenodd" d="M527.727 270.935L568.864 229.77H606.501L527.727 308.598V270.935ZM794.137 308.598L715.363 229.77H752.999L794.137 270.935V308.598ZM568.864 309.693L648.733 229.77H673.131L752.999 309.693H715.363L660.986 255.279L606.501 309.693H568.864ZM648.733 309.693L660.877 297.54L673.021 309.693H648.733Z" fill="#093C70"/>
<path fill-rule="evenodd" clip-rule="evenodd" d="M793.59 270.935L834.728 229.77H872.364L793.59 308.598V270.935ZM1060 308.598L981.226 229.77H1018.86L1060 270.935V308.598ZM834.728 309.693L914.596 229.77H938.994L1018.86 309.693H981.226L926.85 255.279L872.364 309.693H834.728ZM914.596 309.693L926.74 297.54L938.885 309.693H914.596Z" fill="#093C70"/>
<path fill-rule="evenodd" clip-rule="evenodd" d="M-4 350.858L37.1377 309.692H74.7743L-4 388.521V350.858ZM262.301 388.521L183.527 309.692H221.163L262.301 350.858V388.521ZM37.1377 389.615L117.006 309.692H141.404L221.273 389.615H183.636L129.26 335.202L74.7743 389.615H37.1377ZM117.006 389.615L129.15 377.463L141.295 389.615H117.006Z" fill="#093C70"/>
<path fill-rule="evenodd" clip-rule="evenodd" d="M261.863 350.858L303.001 309.692H340.638L261.863 388.521V350.858ZM528.274 388.521L449.499 309.692H487.136L528.274 350.858V388.521ZM303.001 389.615L382.869 309.692H407.267L487.136 389.615H449.499L395.123 335.202L340.638 389.615H303.001ZM382.869 389.615L395.014 377.463L407.158 389.615H382.869Z" fill="#093C70"/>
<path fill-rule="evenodd" clip-rule="evenodd" d="M527.727 350.858L568.864 309.692H606.501L527.727 388.521V350.858ZM794.137 388.521L715.363 309.692H752.999L794.137 350.858V388.521ZM568.864 389.615L648.733 309.692H673.131L752.999 389.615H715.363L660.986 335.202L606.501 389.615H568.864ZM648.733 389.615L660.877 377.463L673.021 389.615H648.733Z" fill="#093C70"/>
<path fill-rule="evenodd" clip-rule="evenodd" d="M793.59 350.858L834.728 309.692H872.364L793.59 388.521V350.858ZM1060 388.521L981.226 309.692H1018.86L1060 350.858V388.521ZM834.728 389.615L914.596 309.692H938.994L1018.86 389.615H981.226L926.85 335.202L872.364 389.615H834.728ZM914.596 389.615L926.74 377.463L938.885 389.615H914.596Z" fill="#093C70"/>
<path fill-rule="evenodd" clip-rule="evenodd" d="M-4 430.781L37.1377 389.615H74.7743L-4 468.443V430.781ZM262.301 468.443L183.527 389.615H221.163L262.301 430.781V468.443ZM37.1377 469.538L117.006 389.615H141.404L221.273 469.538H183.636L129.26 415.125L74.7743 469.538H37.1377ZM117.006 469.538L129.15 457.386L141.295 469.538H117.006Z" fill="#093C70"/>
<path fill-rule="evenodd" clip-rule="evenodd" d="M261.863 430.781L303.001 389.615H340.638L261.863 468.443V430.781ZM528.274 468.443L449.499 389.615H487.136L528.274 430.781V468.443ZM303.001 469.538L382.869 389.615H407.267L487.136 469.538H449.499L395.123 415.125L340.638 469.538H303.001ZM382.869 469.538L395.014 457.386L407.158 469.538H382.869Z" fill="#093C70"/>
<path fill-rule="evenodd" clip-rule="evenodd" d="M527.727 430.781L568.864 389.615H606.501L527.727 468.443V430.781ZM794.137 468.443L715.363 389.615H752.999L794.137 430.781V468.443ZM568.864 469.538L648.733 389.615H673.131L752.999 469.538H715.363L660.986 415.125L606.501 469.538H568.864ZM648.733 469.538L660.877 457.386L673.021 469.538H648.733Z" fill="#093C70"/>
<path fill-rule="evenodd" clip-rule="evenodd" d="M793.59 430.781L834.728 389.615H872.364L793.59 468.443V430.781ZM1060 468.443L981.226 389.615H1018.86L1060 430.781V468.443ZM834.728 469.538L914.596 389.615H938.994L1018.86 469.538H981.226L926.85 415.125L872.364 469.538H834.728ZM914.596 469.538L926.74 457.386L938.885 469.538H914.596Z" fill="#093C70"/>
<path fill-rule="evenodd" clip-rule="evenodd" d="M-4 510.704L37.1377 469.538H74.7743L-4 548.366V510.704ZM262.301 548.366L183.527 469.538H221.163L262.301 510.704V548.366ZM37.1377 549.461L117.006 469.538H141.404L221.273 549.461H183.636L129.26 495.048L74.7743 549.461H37.1377ZM117.006 549.461L129.15 537.308L141.295 549.461H117.006Z" fill="#093C70"/>
<path fill-rule="evenodd" clip-rule="evenodd" d="M261.863 510.704L303.001 469.538H340.638L261.863 548.366V510.704ZM528.274 548.366L449.499 469.538H487.136L528.274 510.704V548.366ZM303.001 549.461L382.869 469.538H407.267L487.136 549.461H449.499L395.123 495.048L340.638 549.461H303.001ZM382.869 549.461L395.014 537.308L407.158 549.461H382.869Z" fill="#093C70"/>
<path fill-rule="evenodd" clip-rule="evenodd" d="M527.727 510.704L568.864 469.538H606.501L527.727 548.366V510.704ZM794.137 548.366L715.363 469.538H752.999L794.137 510.704V548.366ZM568.864 549.461L648.733 469.538H673.131L752.999 549.461H715.363L660.986 495.048L606.501 549.461H568.864ZM648.733 549.461L660.877 537.308L673.021 549.461H648.733Z" fill="#093C70"/>
<path fill-rule="evenodd" clip-rule="evenodd" d="M793.59 510.704L834.728 469.538H872.364L793.59 548.366V510.704ZM1060 548.366L981.226 469.538H1018.86L1060 510.704V548.366ZM834.728 549.461L914.596 469.538H938.994L1018.86 549.461H981.226L926.85 495.048L872.364 549.461H834.728ZM914.596 549.461L926.74 537.308L938.885 549.461H914.596Z" fill="#093C70"/>
<path fill-rule="evenodd" clip-rule="evenodd" d="M-4 590.628L37.1377 549.462H74.7743L-4 628.29V590.628ZM262.301 628.29L183.527 549.462H221.163L262.301 590.628V628.29ZM37.1377 629.385L117.006 549.462H141.404L221.273 629.385H183.636L129.26 574.972L74.7743 629.385H37.1377ZM117.006 629.385L129.15 617.232L141.295 629.385H117.006Z" fill="#093C70"/>
<path fill-rule="evenodd" clip-rule="evenodd" d="M261.863 590.628L303.001 549.462H340.638L261.863 628.29V590.628ZM528.274 628.29L449.499 549.462H487.136L528.274 590.628V628.29ZM303.001 629.385L382.869 549.462H407.267L487.136 629.385H449.499L395.123 574.972L340.638 629.385H303.001ZM382.869 629.385L395.014 617.232L407.158 629.385H382.869Z" fill="#093C70"/>
<path fill-rule="evenodd" clip-rule="evenodd" d="M527.727 590.628L568.864 549.462H606.501L527.727 628.29V590.628ZM794.137 628.29L715.363 549.462H752.999L794.137 590.628V628.29ZM568.864 629.385L648.733 549.462H673.131L752.999 629.385H715.363L660.986 574.972L606.501 629.385H568.864ZM648.733 629.385L660.877 617.232L673.021 629.385H648.733Z" fill="#093C70"/>
<path fill-rule="evenodd" clip-rule="evenodd" d="M793.59 590.628L834.728 549.462H872.364L793.59 628.29V590.628ZM1060 628.29L981.226 549.462H1018.86L1060 590.628V628.29ZM834.728 629.385L914.596 549.462H938.994L1018.86 629.385H981.226L926.85 574.972L872.364 629.385H834.728ZM914.596 629.385L926.74 617.232L938.885 629.385H914.596Z" fill="#093C70"/>
<path fill-rule="evenodd" clip-rule="evenodd" d="M-4 670.551L37.1377 629.385H74.7743L-4 708.213V670.551ZM262.301 708.213L183.527 629.385H221.163L262.301 670.551V708.213ZM37.1377 709.308L117.006 629.385H141.404L221.273 709.308H183.636L129.26 654.894L74.7743 709.308H37.1377ZM117.006 709.308L129.15 697.155L141.295 709.308H117.006Z" fill="#093C70"/>
<path fill-rule="evenodd" clip-rule="evenodd" d="M261.863 670.551L303.001 629.385H340.638L261.863 708.213V670.551ZM528.274 708.213L449.499 629.385H487.136L528.274 670.551V708.213ZM303.001 709.308L382.869 629.385H407.267L487.136 709.308H449.499L395.123 654.894L340.638 709.308H303.001ZM382.869 709.308L395.014 697.155L407.158 709.308H382.869Z" fill="#093C70"/>
<path fill-rule="evenodd" clip-rule="evenodd" d="M527.727 670.551L568.864 629.385H606.501L527.727 708.213V670.551ZM794.137 708.213L715.363 629.385H752.999L794.137 670.551V708.213ZM568.864 709.308L648.733 629.385H673.131L752.999 709.308H715.363L660.986 654.894L606.501 709.308H568.864ZM648.733 709.308L660.877 697.155L673.021 709.308H648.733Z" fill="#093C70"/>
<path fill-rule="evenodd" clip-rule="evenodd" d="M793.59 670.551L834.728 629.385H872.364L793.59 708.213V670.551ZM1060 708.213L981.226 629.385H1018.86L1060 670.551V708.213ZM834.728 709.308L914.596 629.385H938.994L1018.86 709.308H981.226L926.85 654.894L872.364 709.308H834.728ZM914.596 709.308L926.74 697.155L938.885 709.308H914.596Z" fill="#093C70"/>
<path fill-rule="evenodd" clip-rule="evenodd" d="M-4 750.473L37.1377 709.308H74.7743L-4 788.136V750.473ZM262.301 788.136L183.527 709.308H221.163L262.301 750.473V788.136ZM37.1377 789.231L117.006 709.308H141.404L221.273 789.231H183.636L129.26 734.817L74.7743 789.231H37.1377ZM117.006 789.231L129.15 777.078L141.295 789.231H117.006Z" fill="#093C70"/>
<path fill-rule="evenodd" clip-rule="evenodd" d="M261.863 750.473L303.001 709.308H340.638L261.863 788.136V750.473ZM528.274 788.136L449.499 709.308H487.136L528.274 750.473V788.136ZM303.001 789.231L382.869 709.308H407.267L487.136 789.231H449.499L395.123 734.817L340.638 789.231H303.001ZM382.869 789.231L395.014 777.078L407.158 789.231H382.869Z" fill="#093C70"/>
<path fill-rule="evenodd" clip-rule="evenodd" d="M527.727 750.473L568.864 709.308H606.501L527.727 788.136V750.473ZM794.137 788.136L715.363 709.308H752.999L794.137 750.473V788.136ZM568.864 789.231L648.733 709.308H673.131L752.999 789.231H715.363L660.986 734.817L606.501 789.231H568.864ZM648.733 789.231L660.877 777.078L673.021 789.231H648.733Z" fill="#093C70"/>
<path fill-rule="evenodd" clip-rule="evenodd" d="M793.59 750.473L834.728 709.308H872.364L793.59 788.136V750.473ZM1060 788.136L981.226 709.308H1018.86L1060 750.473V788.136ZM834.728 789.231L914.596 709.308H938.994L1018.86 789.231H981.226L926.85 734.817L872.364 789.231H834.728ZM914.596 789.231L926.74 777.078L938.885 789.231H914.596Z" fill="#093C70"/>
<path fill-rule="evenodd" clip-rule="evenodd" d="M-4 830.396L37.1377 789.23H74.7743L-4 868.059V830.396ZM262.301 868.059L183.527 789.23H221.163L262.301 830.396V868.059ZM37.1377 869.154L117.006 789.23H141.404L221.273 869.154H183.636L129.26 814.74L74.7743 869.154H37.1377ZM117.006 869.154L129.15 857.001L141.295 869.154H117.006Z" fill="#093C70"/>
<path fill-rule="evenodd" clip-rule="evenodd" d="M261.863 830.396L303.001 789.23H340.638L261.863 868.059V830.396ZM528.274 868.059L449.499 789.23H487.136L528.274 830.396V868.059ZM303.001 869.154L382.869 789.23H407.267L487.136 869.154H449.499L395.123 814.74L340.638 869.154H303.001ZM382.869 869.154L395.014 857.001L407.158 869.154H382.869Z" fill="#093C70"/>
<path fill-rule="evenodd" clip-rule="evenodd" d="M527.727 830.396L568.864 789.23H606.501L527.727 868.059V830.396ZM794.137 868.059L715.363 789.23H752.999L794.137 830.396V868.059ZM568.864 869.154L648.733 789.23H673.131L752.999 869.154H715.363L660.986 814.74L606.501 869.154H568.864ZM648.733 869.154L660.877 857.001L673.021 869.154H648.733Z" fill="#093C70"/>
<path fill-rule="evenodd" clip-rule="evenodd" d="M793.59 830.396L834.728 789.23H872.364L793.59 868.059V830.396ZM1060 868.059L981.226 789.23H1018.86L1060 830.396V868.059ZM834.728 869.154L914.596 789.23H938.994L1018.86 869.154H981.226L926.85 814.74L872.364 869.154H834.728ZM914.596 869.154L926.74 857.001L938.885 869.154H914.596Z" fill="#093C70"/>
<path fill-rule="evenodd" clip-rule="evenodd" d="M-4 910.32L37.1377 869.154H74.7743L-4 947.983V910.32ZM262.301 947.983L183.527 869.154H221.163L262.301 910.32V947.983ZM37.1377 949.077L117.006 869.154H141.404L221.273 949.077H183.636L129.26 894.664L74.7743 949.077H37.1377ZM117.006 949.077L129.15 936.925L141.295 949.077H117.006Z" fill="#093C70"/>
<path fill-rule="evenodd" clip-rule="evenodd" d="M261.863 910.32L303.001 869.154H340.638L261.863 947.983V910.32ZM528.274 947.983L449.499 869.154H487.136L528.274 910.32V947.983ZM303.001 949.077L382.869 869.154H407.267L487.136 949.077H449.499L395.123 894.664L340.638 949.077H303.001ZM382.869 949.077L395.014 936.925L407.158 949.077H382.869Z" fill="#093C70"/>
<path fill-rule="evenodd" clip-rule="evenodd" d="M527.727 910.32L568.864 869.154H606.501L527.727 947.983V910.32ZM794.137 947.983L715.363 869.154H752.999L794.137 910.32V947.983ZM568.864 949.077L648.733 869.154H673.131L752.999 949.077H715.363L660.986 894.664L606.501 949.077H568.864ZM648.733 949.077L660.877 936.925L673.021 949.077H648.733Z" fill="#093C70"/>
<path fill-rule="evenodd" clip-rule="evenodd" d="M793.59 910.32L834.728 869.154H872.364L793.59 947.983V910.32ZM1060 947.983L981.226 869.154H1018.86L1060 910.32V947.983ZM834.728 949.077L914.596 869.154H938.994L1018.86 949.077H981.226L926.85 894.664L872.364 949.077H834.728ZM914.596 949.077L926.74 936.925L938.885 949.077H914.596Z" fill="#093C70"/>
<path fill-rule="evenodd" clip-rule="evenodd" d="M-4 990.243L37.1377 949.077H74.7743L-4 1027.91V990.243ZM262.301 1027.91L183.527 949.077H221.163L262.301 990.243V1027.91ZM37.1377 1029L117.006 949.077H141.404L221.273 1029H183.636L129.26 974.587L74.7743 1029H37.1377ZM117.006 1029L129.15 1016.85L141.295 1029H117.006Z" fill="#093C70"/>
<path fill-rule="evenodd" clip-rule="evenodd" d="M261.863 990.243L303.001 949.077H340.638L261.863 1027.91V990.243ZM528.274 1027.91L449.499 949.077H487.136L528.274 990.243V1027.91ZM303.001 1029L382.869 949.077H407.267L487.136 1029H449.499L395.123 974.587L340.638 1029H303.001ZM382.869 1029L395.014 1016.85L407.158 1029H382.869Z" fill="#093C70"/>
<path fill-rule="evenodd" clip-rule="evenodd" d="M527.727 990.243L568.864 949.077H606.501L527.727 1027.91V990.243ZM794.137 1027.91L715.363 949.077H752.999L794.137 990.243V1027.91ZM568.864 1029L648.733 949.077H673.131L752.999 1029H715.363L660.986 974.587L606.501 1029H568.864ZM648.733 1029L660.877 1016.85L673.021 1029H648.733Z" fill="#093C70"/>
<path fill-rule="evenodd" clip-rule="evenodd" d="M793.59 990.243L834.728 949.077H872.364L793.59 1027.91V990.243ZM1060 1027.91L981.226 949.077H1018.86L1060 990.243V1027.91ZM834.728 1029L914.596 949.077H938.994L1018.86 1029H981.226L926.85 974.587L872.364 1029H834.728ZM914.596 1029L926.74 1016.85L938.885 1029H914.596Z" fill="#093C70"/>
</g>
</g>
<defs>
<clipPath id="clip0_295_82095">
<rect width="1024" height="1024" fill="white"/>
</clipPath>
<clipPath id="clip1_295_82095">
<rect width="1064" height="1039" fill="white" transform="translate(-4 -10)"/>
</clipPath>
</defs>
</svg>
