<svg width="20" height="20" viewBox="0 0 20 20" fill="none" xmlns="http://www.w3.org/2000/svg">
<g clip-path="url(#clip0_2795_436880)">
<path fill-rule="evenodd" clip-rule="evenodd" d="M9.28183 16.4147C9.46255 16.3628 9.60643 16.3662 9.71348 16.4247C9.82053 16.4832 9.89905 16.5995 9.94903 16.7734L10.2164 17.706L9.94536 17.7837L9.68926 16.8906C9.63288 16.694 9.5023 16.625 9.29753 16.6837C9.20886 16.7083 9.12957 16.7595 9.06892 16.8314C9.09878 16.8865 9.12219 16.9451 9.13861 17.0058L9.40601 17.9384L9.13493 18.0161L8.87884 17.123C8.82245 16.9264 8.69187 16.8574 8.4871 16.9161C8.3937 16.943 8.30622 16.9877 8.2288 17.048L8.55416 18.1826L8.28322 18.2603L7.91196 16.9656C7.98789 16.8919 8.07261 16.8289 8.16414 16.7783C8.26112 16.7221 8.3641 16.6779 8.47118 16.6463C8.64026 16.5978 8.77604 16.5972 8.87853 16.6444C8.99393 16.536 9.13175 16.4575 9.28183 16.4147V16.4147ZM11.1575 17.4825C10.9508 17.5417 10.7773 17.5226 10.6368 17.425C10.4963 17.3275 10.3911 17.1571 10.3212 16.9137C10.18 16.4212 10.316 16.1157 10.7293 15.9973C10.9376 15.9376 11.1123 15.9559 11.2534 16.0521C11.3946 16.1484 11.4996 16.3164 11.5684 16.5561C11.6371 16.7956 11.6358 16.9956 11.5644 17.1559C11.4931 17.3163 11.3575 17.4251 11.1575 17.4825ZM11.0831 17.2332C11.3207 17.1651 11.3919 16.9653 11.2968 16.634C11.2495 16.4692 11.186 16.3542 11.1063 16.2889C11.0266 16.2236 10.9246 16.2088 10.8002 16.2443C10.6746 16.2803 10.5966 16.3478 10.5663 16.4467C10.536 16.5456 10.544 16.6755 10.5902 16.8366C10.6363 16.9975 10.6996 17.1126 10.7799 17.1819C10.8602 17.2511 10.9613 17.268 11.0829 17.2326L11.0831 17.2332ZM12.2624 15.5607C12.4551 15.5054 12.6193 15.5262 12.755 15.623C12.8908 15.7198 12.9917 15.8832 13.0579 16.113C13.1374 16.3902 13.1339 16.6035 13.0473 16.7529C12.9608 16.9023 12.8254 17.0037 12.6411 17.057C12.2711 17.1631 12.0555 17.1095 11.9943 16.896L11.5077 15.1989L11.7762 15.1219L11.9544 15.7432C12.0004 15.7 12.051 15.6625 12.1053 15.6315C12.1547 15.6013 12.2073 15.5773 12.2622 15.5601L12.2624 15.5607ZM12.5471 16.8073C12.688 16.7669 12.774 16.6946 12.8051 16.5905C12.8362 16.4863 12.8298 16.3574 12.7858 16.2039C12.7407 16.0467 12.6766 15.9354 12.5936 15.87C12.5106 15.8045 12.4107 15.7886 12.2938 15.8223C12.2429 15.8373 12.1942 15.8588 12.1487 15.8865C12.103 15.9136 12.0614 15.9476 12.0252 15.9876L12.2428 16.7463C12.2684 16.8375 12.3698 16.8576 12.5469 16.8067L12.5471 16.8073ZM13.0254 14.8433L13.3145 14.7604L13.391 15.0273L13.1019 15.1102L13.0254 14.8433ZM13.1765 15.3411L13.4476 15.2633L13.852 16.6642L13.5784 16.7426L13.1765 15.3411ZM14.2335 16.5548L13.6761 14.6106L13.9446 14.5336L14.5019 16.4772L14.2335 16.5548ZM14.9959 14.7726C15.1972 14.7148 15.3651 14.7433 15.4995 14.8581C15.6338 14.9728 15.7366 15.1576 15.8079 15.4125L14.8988 15.6732C14.9473 15.8093 15.0151 15.9038 15.1022 15.9569C15.1892 16.01 15.2938 16.019 15.4158 15.9839C15.562 15.9422 15.6945 15.8613 15.8009 15.7488L15.8799 16.0241C15.764 16.1268 15.6195 16.203 15.4462 16.2527C15.2518 16.3085 15.0806 16.2881 14.9328 16.1917C14.785 16.0953 14.6773 15.9291 14.6098 15.6932C14.5405 15.4516 14.54 15.2517 14.6082 15.0934C14.6763 14.9352 14.8056 14.8282 14.9959 14.7726ZM15.0577 15.0176C14.9665 15.0437 14.9027 15.0905 14.8661 15.1577C14.8296 15.225 14.8215 15.3236 14.8419 15.4534L15.4691 15.2735C15.4227 15.1571 15.3666 15.0785 15.3009 15.0377C15.2352 14.9968 15.1541 14.9901 15.0577 15.0176ZM9.15541 4.20487C8.8336 4.21099 8.59204 4.23712 8.43074 4.28327C7.22763 4.62825 6.55243 5.9549 6.92264 7.246C7.29286 8.5371 8.56895 9.30439 9.77163 8.95953C10.9743 8.61466 11.6501 7.28785 11.2798 5.9966C11.2258 5.80795 11.1508 5.62605 11.0565 5.45488L12.6444 4.45584C12.9495 4.99003 13.148 5.5822 13.2271 6.19389C13.3062 6.80558 13.2642 7.42311 13.1037 8.00637L11.8776 14.555L9.22062 15.3169L10.034 11.0277C10.0383 11.0041 9.99497 10.9673 9.96892 10.9722C7.89488 11.3534 5.7925 9.98574 5.15688 7.76907C4.48341 5.4204 5.71137 3.00796 7.89975 2.38045C8.30021 2.2651 8.71716 2.21569 9.13642 2.23389L9.15541 4.20487Z" fill="#006E53"/>
<path d="M9.4589 7.91014C10.1184 7.72104 10.4879 6.99201 10.2843 6.28181C10.0806 5.5716 9.3809 5.14916 8.72143 5.33827C8.06195 5.52737 7.69243 6.2564 7.89608 6.9666C8.09973 7.67681 8.79943 8.09924 9.4589 7.91014Z" fill="#D6E806"/>
<path d="M10.8998 5.15528C10.533 4.65692 10.0052 4.32104 9.42632 4.21765M11.5592 4.58655C11.0452 3.89687 10.3132 3.42903 9.50945 3.27654M12.2166 4.11348C11.552 3.20051 10.5852 2.59077 9.52737 2.41751" stroke="#D6E806" stroke-width="1.4911" stroke-linecap="round"/>
</g>
<defs>
<clipPath id="clip0_2795_436880">
<rect width="14.6573" height="15.7848" fill="white" transform="translate(0.789062 4.16699) rotate(-16)"/>
</clipPath>
</defs>
</svg>
