<svg width="13" height="14" viewBox="0 0 13 14" fill="none" xmlns="http://www.w3.org/2000/svg">
<path d="M7.96272 0.650106C8.43363 0.645315 8.88472 0.718569 9.30878 0.908697C9.68268 1.07746 9.98995 1.31842 10.2037 1.6554C10.3427 1.87791 10.4361 2.12285 10.4793 2.37768C10.5672 2.86676 10.5008 3.34342 10.3388 3.81176C10.2436 4.08646 10.109 4.34513 9.96261 4.59955C9.66441 5.11745 9.2763 5.56931 8.82203 5.97245C8.23923 6.49015 7.59756 6.94633 6.9086 7.33274C6.64169 7.48197 6.36429 7.60852 6.06461 7.68893C5.88107 7.73992 5.69097 7.76694 5.49969 7.76922C5.24784 7.77026 5.04836 7.66744 4.89099 7.49006C4.74577 7.33095 4.66813 7.12724 4.67279 6.91762C4.67311 6.85933 4.68074 6.80125 4.69553 6.74459C4.77966 6.43909 4.8968 6.14562 5.07583 5.87632C5.21265 5.67064 5.37716 5.48699 5.59477 5.3533C5.83679 5.20451 6.10204 5.13717 6.39184 5.1895C6.48248 5.20721 6.5682 5.2422 6.64369 5.29231C6.83651 5.41501 6.83118 5.6147 6.74297 5.74419C6.66743 5.8567 6.58255 5.96346 6.48911 6.06349C6.33076 6.23087 6.16212 6.38956 5.99768 6.55174C5.85216 6.69523 5.71576 6.84543 5.60629 7.01554C5.54957 7.10378 5.49743 7.19364 5.48364 7.29834C5.4662 7.42966 5.5408 7.51711 5.68203 7.5261C5.75508 7.52998 5.82832 7.52137 5.89817 7.50069C6.11347 7.43957 6.31248 7.34443 6.50777 7.24232C6.80892 7.08429 7.08582 6.89324 7.35537 6.69222C7.68214 6.44854 7.99942 6.19496 8.29075 5.91438C8.62259 5.59514 8.91697 5.2497 9.13917 4.85381C9.30152 4.56476 9.41898 4.26076 9.46682 3.93651C9.50914 3.65091 9.47541 3.3744 9.32869 3.11652C9.25796 2.98901 9.1495 2.88338 9.01625 2.81222C8.95472 2.77938 8.8872 2.75753 8.8171 2.74779C8.56196 2.71145 8.31685 2.75179 8.07697 2.83294C7.82691 2.91766 7.59591 3.0382 7.37169 3.16925C6.88509 3.45462 6.39792 3.73988 5.9353 4.05922C5.70336 4.21924 5.4789 4.38895 5.2518 4.55499C5.04667 4.70506 4.84299 4.85683 4.6179 4.98083C4.43529 5.08375 4.23682 5.15955 4.02957 5.20551C3.77271 5.26052 3.53385 5.22047 3.31235 5.09417C3.08248 4.96312 2.91941 4.77974 2.84398 4.5338C2.79598 4.37854 2.80988 4.22318 2.84456 4.068C2.8952 3.8402 2.99654 3.63255 3.1243 3.43495C3.44027 2.94691 3.84213 2.52979 4.31235 2.17027C5.00923 1.63753 5.77997 1.22185 6.61698 0.914618C7.0467 0.756138 7.50167 0.66671 7.96272 0.650106V0.650106Z" fill="#E20010"/>
<path d="M2.38872 11.7708C2.3828 11.62 2.3613 11.4848 2.26556 11.3693C2.21895 11.3135 2.15525 11.2724 2.08296 11.2514C1.89662 11.1936 1.70848 11.2053 1.5261 11.2627C1.37989 11.3088 1.2393 11.3702 1.09642 11.4253C1.06821 11.4359 1.04262 11.4491 1.00853 11.4643C0.937033 11.3083 0.866781 11.1569 0.793239 10.9986C0.89332 10.9513 0.987548 10.9033 1.08491 10.8617C1.30923 10.7657 1.5426 10.6981 1.78918 10.6783C2.03576 10.6586 2.27968 10.6652 2.507 10.7722C2.76408 10.8923 2.95177 11.0701 3.03472 11.3332C3.04661 11.3676 3.05407 11.4032 3.05696 11.4393C3.07475 11.783 3.09596 12.1266 3.1055 12.4704C3.11195 12.7054 3.10091 12.941 3.09896 13.1763C3.09839 13.2086 3.08477 13.2395 3.06084 13.2628C2.8894 13.4481 2.6774 13.5783 2.43586 13.668C2.17683 13.7633 1.89964 13.8072 1.62189 13.7969C1.36557 13.7895 1.14228 13.6964 0.951613 13.5378C0.760948 13.3792 0.62582 13.1854 0.583816 12.9451C0.526374 12.616 0.621417 12.327 0.869393 12.0853C1.02887 11.9299 1.22787 11.8469 1.45351 11.8139C1.70312 11.7776 1.95448 11.7799 2.20566 11.7747L2.38872 11.7708ZM2.36832 12.3085C2.3535 12.3061 2.33854 12.3045 2.32353 12.3038C2.23815 12.3042 2.15176 12.3034 2.06602 12.3066C1.96323 12.3104 1.85998 12.3132 1.75793 12.3246C1.65248 12.3366 1.5506 12.3678 1.47021 12.4358C1.33679 12.5488 1.29973 12.6931 1.33661 12.8539C1.3825 13.0528 1.50492 13.1897 1.71878 13.2442C1.82906 13.2723 1.94517 13.2742 2.05659 13.2497C2.16022 13.2294 2.25625 13.1836 2.3347 13.1169C2.34801 13.1067 2.35885 13.094 2.3665 13.0796C2.37414 13.0652 2.37841 13.0495 2.37902 13.0334C2.38066 12.9631 2.3887 12.8928 2.38764 12.8226C2.38505 12.6618 2.37876 12.501 2.37361 12.3402C2.37251 12.3296 2.37074 12.319 2.36832 12.3085V12.3085Z" fill="#E20010"/>
<path d="M10.9546 12.0957C10.3445 12.1099 9.74543 12.1115 9.13862 12.1405C9.14267 12.1804 9.1454 12.2182 9.1501 12.255C9.16924 12.4056 9.20735 12.5515 9.27869 12.6884C9.33428 12.8001 9.4188 12.8969 9.52458 12.9701C9.69228 13.0836 9.88103 13.0985 10.078 13.07C10.2408 13.0465 10.3916 12.987 10.5419 12.9272C10.6108 12.8998 10.6792 12.8707 10.7533 12.8403C10.8277 12.978 10.9005 13.1133 10.9764 13.2526C10.9632 13.262 10.9509 13.2724 10.9371 13.2802C10.6451 13.4515 10.3299 13.5648 9.98732 13.6007C9.67501 13.6334 9.37522 13.5922 9.10123 13.4364C8.91463 13.3302 8.78215 13.1771 8.67029 13.0051C8.53248 12.791 8.44648 12.5511 8.41834 12.3023C8.36266 11.8486 8.4559 11.4229 8.69807 11.0251C8.86697 10.7485 9.12509 10.5944 9.45131 10.5358C9.75111 10.4793 10.0622 10.5204 10.333 10.6524C10.4847 10.725 10.5919 10.8424 10.681 10.9747C10.7989 11.1491 10.8633 11.3429 10.8967 11.5445C10.9238 11.707 10.9351 11.872 10.9528 12.0364C10.9549 12.0533 10.9541 12.0709 10.9546 12.0957ZM10.2031 11.5953C10.1641 11.444 10.1363 11.2893 10.0271 11.1629C9.97233 11.1001 9.89645 11.0565 9.81178 11.0394C9.58648 10.989 9.36358 11.091 9.27191 11.2918C9.23913 11.3634 9.22072 11.4407 9.19741 11.5158C9.18696 11.5498 9.18052 11.585 9.17234 11.6192C9.23285 11.6327 10.1418 11.6123 10.2033 11.5956L10.2031 11.5953Z" fill="#E20010"/>
<path d="M6.89841 9.86819L7.62401 9.74577L7.64345 10.5834C7.80523 10.5888 7.95888 10.5753 8.11399 10.5873L8.12596 11.1034C7.96957 11.1094 7.81629 11.1085 7.65678 11.1213C7.65745 11.1504 7.65796 11.1721 7.65846 11.1938C7.66865 11.6905 7.67904 12.1873 7.68962 12.6841C7.69143 12.7624 7.69993 12.8405 7.70928 12.9183C7.72401 13.0379 7.79674 13.1124 7.92144 13.1387C7.99023 13.1534 8.0607 13.1609 8.1304 13.1717L8.20039 13.1834L8.21055 13.6214C8.20281 13.6252 8.19454 13.628 8.18599 13.6297C7.97953 13.6431 7.77362 13.6428 7.57247 13.5906C7.37606 13.5399 7.21103 13.4438 7.09684 13.2817C7.03196 13.1898 6.99767 13.0857 6.98136 12.9777C6.97144 12.9101 6.96578 12.8419 6.96439 12.7736C6.9425 11.8303 6.92119 10.887 6.90045 9.94386L6.89841 9.86819Z" fill="#E20010"/>
<path d="M11.3018 9.76563L12.0031 9.63498L12.0052 9.72599C12.0251 10.5827 12.0454 11.4394 12.066 12.2961C12.0696 12.453 12.0747 12.6097 12.0796 12.7667C12.0844 12.9215 12.1465 12.9989 12.3054 13.0414C12.3594 13.054 12.4141 13.0637 12.4693 13.0704C12.503 13.0755 12.5371 13.0775 12.578 13.0812L12.5884 13.5286C12.5847 13.5316 12.5802 13.5338 12.5754 13.5349C12.3756 13.5471 12.1765 13.5487 11.9808 13.4999C11.8623 13.4709 11.7513 13.4196 11.6547 13.3491C11.4748 13.2177 11.3986 13.0378 11.3754 12.8334C11.3686 12.7736 11.3679 12.7129 11.3666 12.6527C11.3449 11.7155 11.3238 10.7784 11.3035 9.84131L11.3018 9.76563Z" fill="#E20010"/>
<path d="M5.57099 13.6512L4.85986 13.6677C4.85836 13.6399 4.85635 13.6145 4.85562 13.5893C4.84558 13.1891 4.83568 12.7888 4.82592 12.3886C4.81765 12.0688 4.8081 11.7491 4.80082 11.4293C4.7997 11.3714 4.80311 11.3133 4.81103 11.2558C4.82003 11.1901 4.85532 11.1348 4.90503 11.0876C5.17845 10.8264 5.50957 10.666 5.88963 10.5913C6.12782 10.5447 6.37291 10.5387 6.61311 10.5736C6.62582 10.5754 6.63854 10.5778 6.65098 10.5804C6.65713 10.5817 6.66303 10.5844 6.67493 10.5884C6.59861 10.7827 6.50445 10.9688 6.41594 11.1527C6.30515 11.1553 6.20011 11.1547 6.09552 11.1608C5.91488 11.1706 5.73839 11.2162 5.57765 11.2944C5.53206 11.3167 5.51546 11.3434 5.51676 11.3931C5.53565 12.1215 5.55302 12.8498 5.56887 13.5782L5.57099 13.6512Z" fill="#E20010"/>
<path d="M4.26132 10.689C4.29202 11.687 4.30679 12.6796 4.33678 13.6779L3.64087 13.694C3.6386 13.67 3.6346 13.6449 3.63402 13.6197C3.61946 12.9921 3.6049 12.3645 3.59034 11.7367C3.58367 11.4491 3.57955 11.1614 3.57416 10.8737C3.57365 10.8518 3.57315 10.83 3.57251 10.8025L4.26132 10.689Z" fill="#E20010"/>
</svg>
