<svg width="98" height="98" viewBox="0 0 98 98" fill="none" xmlns="http://www.w3.org/2000/svg">
<path fill-rule="evenodd" clip-rule="evenodd" d="M85.4512 49.4424C85.4512 69.5733 69.1319 85.8926 49.001 85.8926C28.8701 85.8926 12.5508 69.5733 12.5508 49.4424C12.5508 29.3115 28.8701 12.9922 49.001 12.9922C69.1319 12.9922 85.4512 29.3115 85.4512 49.4424ZM49.001 97.8926C75.7593 97.8926 97.4512 76.2007 97.4512 49.4424C97.4512 22.6841 75.7593 0.992188 49.001 0.992188C22.2427 0.992188 0.550781 22.6841 0.550781 49.4424C0.550781 76.2007 22.2427 97.8926 49.001 97.8926Z" fill="white"/>
<path fill-rule="evenodd" clip-rule="evenodd" d="M71.0273 11.3533C71.0273 10.3185 70.4694 9.35863 69.5467 8.89021C63.3762 5.75773 56.3948 3.99219 49.001 3.99219C23.8995 3.99219 3.55078 24.3409 3.55078 49.4424C3.55078 74.5438 23.8995 94.8926 49.001 94.8926C56.3948 94.8926 63.3762 93.127 69.5467 89.9946C70.4694 89.5261 71.0273 88.5663 71.0273 87.5315C71.0273 85.2498 68.4446 83.8521 66.3974 84.8596C61.1498 87.4421 55.2448 88.8926 49.001 88.8926C27.2132 88.8926 9.55078 71.2301 9.55078 49.4424C9.55078 27.6546 27.2132 9.99219 49.001 9.99219C55.2448 9.99219 61.1498 11.4427 66.3974 14.0252C68.4446 15.0326 71.0273 13.635 71.0273 11.3533Z" fill="#7DBDF0"/>
<path d="M88.4512 49.442C88.4512 61.0853 83.4071 71.5505 75.385 78.7717C74.6801 79.4062 74.2539 80.3001 74.2539 81.2485C74.2539 83.805 77.0775 85.2765 78.9975 83.5885C88.4719 75.259 94.4512 63.0488 94.4512 49.442C94.4512 35.8353 88.4719 23.625 78.9975 15.2955C77.0775 13.6075 74.2539 15.079 74.2539 17.6355C74.2539 18.5839 74.6801 19.4779 75.385 20.1124C83.4071 27.3335 88.4512 37.7987 88.4512 49.442Z" fill="#F2AB6A"/>
</svg>
