<svg width="120" height="123" viewBox="0 0 120 123" fill="none" xmlns="http://www.w3.org/2000/svg">
<rect width="120" height="120" rx="60" fill="#D5E7CB"/>
<rect x="8.5" y="8.98242" width="102" height="102" rx="51" fill="#C7DFB9"/>
<rect x="27.5" y="27.9824" width="64" height="64" rx="32" fill="#ABD097"/>
<path d="M58.4219 55.9746C57.8251 55.9746 57.2528 56.2117 56.8309 56.6336C56.4089 57.0556 56.1719 57.6279 56.1719 58.2246C56.1719 58.8213 56.4089 59.3936 56.8309 59.8156C57.2528 60.2376 57.8251 60.4746 58.4219 60.4746C59.0186 60.4746 59.5909 60.2376 60.0129 59.8156C60.4348 59.3936 60.6719 58.8213 60.6719 58.2246C60.6719 57.6279 60.4348 57.0556 60.0129 56.6336C59.5909 56.2117 59.0186 55.9746 58.4219 55.9746V55.9746Z" fill="white"/>
<path fill-rule="evenodd" clip-rule="evenodd" d="M47.9219 53.3496C47.9219 52.3136 48.7619 51.4746 49.7969 51.4746H67.0469C68.0819 51.4746 68.9219 52.3146 68.9219 53.3496V63.0996C68.9219 64.1356 68.0819 64.9746 67.0469 64.9746H49.7969C49.5506 64.9746 49.3068 64.9261 49.0793 64.8319C48.8519 64.7377 48.6452 64.5995 48.471 64.4254C48.2969 64.2513 48.1588 64.0446 48.0646 63.8171C47.9704 63.5897 47.9219 63.3458 47.9219 63.0996V53.3496ZM54.6719 58.2246C54.6719 57.23 55.067 56.2762 55.7702 55.573C56.4735 54.8697 57.4273 54.4746 58.4219 54.4746C59.4164 54.4746 60.3703 54.8697 61.0735 55.573C61.7768 56.2762 62.1719 57.23 62.1719 58.2246C62.1719 59.2192 61.7768 60.173 61.0735 60.8763C60.3703 61.5795 59.4164 61.9746 58.4219 61.9746C57.4273 61.9746 56.4735 61.5795 55.7702 60.8763C55.067 60.173 54.6719 59.2192 54.6719 58.2246ZM65.1719 57.4746C64.973 57.4746 64.7822 57.5536 64.6415 57.6943C64.5009 57.8349 64.4219 58.0257 64.4219 58.2246V58.2326C64.4219 58.6466 64.7579 58.9826 65.1719 58.9826H65.1799C65.3788 58.9826 65.5696 58.9036 65.7102 58.7629C65.8509 58.6223 65.9299 58.4315 65.9299 58.2326V58.2246C65.9299 58.0257 65.8509 57.8349 65.7102 57.6943C65.5696 57.5536 65.3788 57.4746 65.1799 57.4746H65.1719ZM50.9219 58.2246C50.9219 58.0257 51.0009 57.8349 51.1415 57.6943C51.2822 57.5536 51.473 57.4746 51.6719 57.4746H51.6799C51.8788 57.4746 52.0696 57.5536 52.2102 57.6943C52.3509 57.8349 52.4299 58.0257 52.4299 58.2246V58.2326C52.4299 58.4315 52.3509 58.6223 52.2102 58.7629C52.0696 58.9036 51.8788 58.9826 51.6799 58.9826H51.6719C51.473 58.9826 51.2822 58.9036 51.1415 58.7629C51.0009 58.6223 50.9219 58.4315 50.9219 58.2326V58.2246Z" fill="white"/>
<path d="M48.6719 66.4746C48.473 66.4746 48.2822 66.5536 48.1415 66.6943C48.0009 66.8349 47.9219 67.0257 47.9219 67.2246C47.9219 67.4235 48.0009 67.6143 48.1415 67.7549C48.2822 67.8956 48.473 67.9746 48.6719 67.9746C54.0719 67.9746 59.3019 68.6966 64.2719 70.0496C65.4619 70.3736 66.6719 69.4916 66.6719 68.2296V67.2246C66.6719 67.0257 66.5929 66.8349 66.4522 66.6943C66.3116 66.5536 66.1208 66.4746 65.9219 66.4746H48.6719Z" fill="white"/>
<rect x="8.5" y="96.5" width="103" height="26" rx="13" fill="#73B051"/>
<path d="M27.7798 108.681H26.473C26.473 108.463 26.4375 108.27 26.3665 108.102C26.2955 107.932 26.196 107.787 26.0682 107.669C25.9403 107.551 25.7888 107.462 25.6136 107.403C25.4384 107.341 25.2443 107.31 25.0312 107.31C24.6241 107.31 24.2453 107.413 23.8949 107.619C23.5445 107.825 23.2474 108.125 23.0036 108.518C22.7597 108.908 22.5904 109.383 22.4957 109.942C22.4081 110.486 22.4164 110.942 22.5206 111.309C22.6271 111.676 22.8118 111.953 23.0746 112.14C23.3374 112.325 23.657 112.417 24.0334 112.417C24.263 112.417 24.4832 112.388 24.6939 112.332C24.9046 112.272 25.0987 112.186 25.2763 112.072C25.4562 111.956 25.6136 111.816 25.7486 111.65C25.8859 111.484 25.9924 111.296 26.0682 111.085H27.3928C27.2839 111.431 27.1241 111.756 26.9134 112.062C26.7027 112.365 26.4493 112.632 26.1534 112.864C25.8575 113.094 25.526 113.274 25.1591 113.404C24.7921 113.534 24.3968 113.599 23.973 113.599C23.322 113.599 22.7644 113.448 22.3004 113.145C21.8388 112.839 21.5073 112.403 21.3061 111.835C21.1049 111.264 21.0694 110.581 21.1996 109.786C21.3298 109.011 21.5807 108.352 21.9524 107.808C22.3265 107.263 22.7822 106.848 23.3196 106.561C23.8594 106.272 24.4406 106.128 25.0632 106.128C25.4751 106.128 25.8492 106.185 26.1854 106.298C26.5239 106.412 26.8139 106.579 27.0554 106.799C27.2969 107.017 27.4804 107.284 27.6058 107.602C27.7337 107.916 27.7917 108.276 27.7798 108.681ZM30.5311 113.607C29.9937 113.607 29.5462 113.488 29.1887 113.251C28.8336 113.015 28.5839 112.682 28.4395 112.254C28.295 111.825 28.269 111.328 28.3613 110.762C28.4537 110.203 28.6383 109.714 28.9153 109.295C29.1947 108.876 29.5462 108.552 29.97 108.322C30.3961 108.09 30.8732 107.974 31.4011 107.974C31.9385 107.974 32.3848 108.094 32.7399 108.333C33.095 108.57 33.3448 108.902 33.4892 109.331C33.6359 109.759 33.6632 110.259 33.5708 110.83C33.4809 111.386 33.295 111.872 33.0133 112.289C32.734 112.706 32.3824 113.03 31.9586 113.262C31.5349 113.492 31.059 113.607 30.5311 113.607ZM30.6376 112.577C30.9359 112.577 31.1975 112.496 31.4224 112.335C31.6497 112.172 31.8355 111.953 31.9799 111.678C32.1267 111.401 32.2285 111.094 32.2853 110.755C32.3374 110.428 32.3386 110.132 32.2889 109.867C32.2392 109.6 32.1326 109.388 31.9693 109.232C31.8083 109.073 31.5846 108.994 31.2981 108.994C30.9998 108.994 30.7359 109.076 30.5062 109.242C30.2789 109.406 30.0931 109.626 29.9487 109.903C29.8043 110.177 29.7048 110.484 29.6504 110.822C29.5959 111.149 29.5936 111.445 29.6433 111.71C29.693 111.975 29.7995 112.186 29.9629 112.342C30.1262 112.499 30.3511 112.577 30.6376 112.577ZM34.2251 113.5L35.1342 108.045H36.3665L36.2102 108.972H36.2777C36.4434 108.66 36.6719 108.416 36.9631 108.241C37.2543 108.063 37.5821 107.974 37.9467 107.974C38.3137 107.974 38.6096 108.064 38.8345 108.244C39.0618 108.422 39.2015 108.665 39.2536 108.972H39.3104C39.4808 108.667 39.7247 108.424 40.0419 108.244C40.3615 108.064 40.7202 107.974 41.1179 107.974C41.6151 107.974 41.9962 108.133 42.2614 108.45C42.5265 108.768 42.6082 109.23 42.5064 109.839L41.8956 113.5H40.6101L41.1925 110.038C41.2446 109.699 41.1925 109.452 41.0362 109.295C40.8823 109.137 40.6752 109.058 40.4148 109.058C40.1046 109.058 39.8466 109.153 39.6406 109.345C39.437 109.537 39.3116 109.788 39.2642 110.098L38.6925 113.5H37.4318L38.0213 109.984C38.0639 109.703 38.0142 109.478 37.8722 109.31C37.7325 109.142 37.5265 109.058 37.2543 109.058C37.0696 109.058 36.8932 109.105 36.7251 109.2C36.5571 109.294 36.4138 109.427 36.2955 109.597C36.1795 109.765 36.1037 109.961 36.0682 110.183L35.5142 113.5H34.2251ZM43.1998 113.5L44.1088 108.045H45.3411L45.1848 108.972H45.2523C45.418 108.66 45.6465 108.416 45.9377 108.241C46.2289 108.063 46.5568 107.974 46.9213 107.974C47.2883 107.974 47.5842 108.064 47.8091 108.244C48.0364 108.422 48.1761 108.665 48.2282 108.972H48.285C48.4554 108.667 48.6993 108.424 49.0165 108.244C49.3361 108.064 49.6948 107.974 50.0925 107.974C50.5897 107.974 50.9708 108.133 51.236 108.45C51.5011 108.768 51.5828 109.23 51.481 109.839L50.8702 113.5H49.5847L50.1671 110.038C50.2192 109.699 50.1671 109.452 50.0108 109.295C49.8569 109.137 49.6498 109.058 49.3894 109.058C49.0792 109.058 48.8212 109.153 48.6152 109.345C48.4116 109.537 48.2862 109.788 48.2388 110.098L47.6671 113.5H46.4064L46.9959 109.984C47.0385 109.703 46.9888 109.478 46.8468 109.31C46.7071 109.142 46.5011 109.058 46.2289 109.058C46.0442 109.058 45.8678 109.105 45.6998 109.2C45.5317 109.294 45.3884 109.427 45.2701 109.597C45.1541 109.765 45.0783 109.961 45.0428 110.183L44.4888 113.5H43.1998ZM52.1708 113.5L53.0799 108.045H54.3654L53.4563 113.5H52.1708ZM53.9109 107.264C53.7049 107.264 53.5344 107.196 53.3995 107.058C53.2646 106.921 53.2054 106.756 53.2219 106.565C53.2385 106.373 53.3249 106.208 53.4812 106.071C53.6398 105.934 53.8209 105.865 54.0245 105.865C54.2305 105.865 54.3997 105.934 54.5323 106.071C54.6673 106.208 54.7264 106.373 54.7099 106.565C54.6957 106.756 54.6093 106.921 54.4506 107.058C54.2944 107.196 54.1145 107.264 53.9109 107.264ZM56.8095 115.659C56.3455 115.659 55.9584 115.596 55.6483 115.471C55.3381 115.348 55.099 115.182 54.9309 114.974C54.7628 114.765 54.6587 114.535 54.6184 114.281L55.8258 114.001C55.8613 114.107 55.9181 114.213 55.9963 114.317C56.0768 114.423 56.1951 114.511 56.3514 114.58C56.5076 114.651 56.716 114.686 56.9764 114.686C57.341 114.686 57.6594 114.597 57.9316 114.42C58.2039 114.242 58.372 113.953 58.4359 113.553L58.5993 112.52H58.5353C58.4501 112.652 58.3329 112.789 58.1838 112.928C58.037 113.068 57.8511 113.185 57.6262 113.28C57.4037 113.375 57.1362 113.422 56.8237 113.422C56.4047 113.422 56.0413 113.324 55.7335 113.127C55.4257 112.928 55.2044 112.632 55.0694 112.239C54.9368 111.844 54.9203 111.349 55.0197 110.755C55.1168 110.156 55.2991 109.651 55.5666 109.239C55.8365 108.824 56.1596 108.511 56.536 108.298C56.9125 108.082 57.3102 107.974 57.7292 107.974C58.0488 107.974 58.3033 108.029 58.4927 108.138C58.6821 108.244 58.8253 108.373 58.9224 108.525C59.0195 108.674 59.0905 108.815 59.1355 108.947H59.2029L59.3521 108.045H60.6199L59.7037 113.589C59.6279 114.055 59.4539 114.441 59.1816 114.746C58.9094 115.054 58.5673 115.283 58.1554 115.432C57.7458 115.583 57.2972 115.659 56.8095 115.659ZM57.335 112.413C57.6073 112.413 57.8511 112.347 58.0666 112.214C58.282 112.082 58.4619 111.891 58.6064 111.643C58.7508 111.394 58.8514 111.096 58.9082 110.748C58.965 110.405 58.9627 110.104 58.9011 109.846C58.8419 109.588 58.7271 109.388 58.5566 109.246C58.3862 109.101 58.1636 109.029 57.889 109.029C57.6026 109.029 57.3516 109.104 57.1362 109.253C56.9231 109.402 56.7479 109.607 56.6106 109.867C56.4757 110.125 56.381 110.419 56.3265 110.748C56.2744 111.082 56.2744 111.374 56.3265 111.625C56.381 111.874 56.4911 112.068 56.6568 112.207C56.8249 112.345 57.051 112.413 57.335 112.413ZM68.4838 109.487L67.3013 109.615C67.2895 109.494 67.2528 109.382 67.1912 109.278C67.1297 109.174 67.0373 109.091 66.9142 109.029C66.7935 108.965 66.6373 108.933 66.4455 108.933C66.1661 108.933 65.9211 108.996 65.7104 109.121C65.4997 109.247 65.3801 109.408 65.3517 109.604C65.3257 109.751 65.3612 109.871 65.4583 109.963C65.5553 110.055 65.7353 110.134 65.998 110.197L66.9 110.396C67.3972 110.508 67.7547 110.687 67.9725 110.936C68.1926 111.185 68.2696 111.51 68.2033 111.913C68.1465 112.249 67.9997 112.545 67.763 112.8C67.5262 113.054 67.2232 113.251 66.8539 113.393C66.4869 113.536 66.0797 113.607 65.6323 113.607C64.9528 113.607 64.4296 113.466 64.0627 113.184C63.6981 112.9 63.517 112.509 63.5194 112.012L64.7836 111.891C64.7978 112.138 64.8842 112.323 65.0428 112.449C65.2014 112.572 65.4216 112.635 65.7033 112.637C66.0205 112.639 66.2881 112.573 66.5059 112.438C66.726 112.301 66.8503 112.134 66.8787 111.938C66.9024 111.791 66.8657 111.671 66.7686 111.579C66.6739 111.487 66.5047 111.413 66.2608 111.359L65.3659 111.163C64.8593 111.052 64.4983 110.864 64.2828 110.599C64.0698 110.331 63.9976 109.994 64.0662 109.587C64.123 109.255 64.2615 108.97 64.4817 108.731C64.7042 108.489 64.9895 108.304 65.3375 108.173C65.6855 108.041 66.075 107.974 66.5059 107.974C67.1545 107.974 67.6434 108.111 67.9725 108.383C68.3016 108.655 68.472 109.023 68.4838 109.487ZM71.3904 113.607C70.853 113.607 70.4056 113.488 70.0481 113.251C69.693 113.015 69.4432 112.682 69.2988 112.254C69.1544 111.825 69.1284 111.328 69.2207 110.762C69.313 110.203 69.4977 109.714 69.7747 109.295C70.054 108.876 70.4056 108.552 70.8294 108.322C71.2555 108.09 71.7325 107.974 72.2605 107.974C72.7979 107.974 73.2441 108.094 73.5993 108.333C73.9544 108.57 74.2041 108.902 74.3485 109.331C74.4953 109.759 74.5225 110.259 74.4302 110.83C74.3403 111.386 74.1544 111.872 73.8727 112.289C73.5933 112.706 73.2418 113.03 72.818 113.262C72.3942 113.492 71.9184 113.607 71.3904 113.607ZM71.497 112.577C71.7953 112.577 72.0569 112.496 72.2818 112.335C72.5091 112.172 72.6949 111.953 72.8393 111.678C72.9861 111.401 73.0879 111.094 73.1447 110.755C73.1968 110.428 73.198 110.132 73.1483 109.867C73.0985 109.6 72.992 109.388 72.8287 109.232C72.6677 109.073 72.444 108.994 72.1575 108.994C71.8592 108.994 71.5952 109.076 71.3656 109.242C71.1383 109.406 70.9525 109.626 70.8081 109.903C70.6636 110.177 70.5642 110.484 70.5098 110.822C70.4553 111.149 70.4529 111.445 70.5027 111.71C70.5524 111.975 70.6589 112.186 70.8223 112.342C70.9856 112.499 71.2105 112.577 71.497 112.577ZM77.4744 113.607C76.937 113.607 76.4896 113.488 76.1321 113.251C75.777 113.015 75.5272 112.682 75.3828 112.254C75.2384 111.825 75.2124 111.328 75.3047 110.762C75.397 110.203 75.5817 109.714 75.8587 109.295C76.138 108.876 76.4896 108.552 76.9134 108.322C77.3395 108.09 77.8165 107.974 78.3445 107.974C78.8819 107.974 79.3281 108.094 79.6832 108.333C80.0384 108.57 80.2881 108.902 80.4325 109.331C80.5793 109.759 80.6065 110.259 80.5142 110.83C80.4242 111.386 80.2384 111.872 79.9567 112.289C79.6773 112.706 79.3258 113.03 78.902 113.262C78.4782 113.492 78.0024 113.607 77.4744 113.607ZM77.581 112.577C77.8793 112.577 78.1409 112.496 78.3658 112.335C78.593 112.172 78.7789 111.953 78.9233 111.678C79.0701 111.401 79.1719 111.094 79.2287 110.755C79.2808 110.428 79.282 110.132 79.2322 109.867C79.1825 109.6 79.076 109.388 78.9126 109.232C78.7517 109.073 78.5279 108.994 78.2415 108.994C77.9432 108.994 77.6792 109.076 77.4496 109.242C77.2223 109.406 77.0365 109.626 76.892 109.903C76.7476 110.177 76.6482 110.484 76.5938 110.822C76.5393 111.149 76.5369 111.445 76.5866 111.71C76.6364 111.975 76.7429 112.186 76.9062 112.342C77.0696 112.499 77.2945 112.577 77.581 112.577ZM82.9831 110.304L82.4576 113.5H81.1685L82.0776 108.045H83.3098L83.1536 108.972H83.2211C83.3915 108.667 83.6306 108.424 83.9384 108.244C84.2462 108.064 84.6048 107.974 85.0144 107.974C85.3861 107.974 85.6986 108.055 85.9519 108.216C86.2052 108.375 86.3851 108.608 86.4917 108.915C86.5982 109.221 86.6148 109.591 86.5414 110.027L85.959 113.5H84.6735L85.2168 110.226C85.2783 109.864 85.2322 109.58 85.0783 109.374C84.9268 109.165 84.6829 109.061 84.3468 109.061C84.1219 109.061 83.9147 109.111 83.7253 109.21C83.5359 109.307 83.3761 109.448 83.2459 109.633C83.1181 109.817 83.0305 110.041 82.9831 110.304Z" fill="white"/>
<path fill-rule="evenodd" clip-rule="evenodd" d="M96.5009 106.437C96.5007 105.959 96.6127 105.487 96.8277 105.06C97.0427 104.633 97.3548 104.262 97.739 103.977C98.1232 103.692 98.5688 103.501 99.0401 103.419C99.5113 103.337 99.9952 103.367 100.453 103.506C100.525 103.528 100.591 103.568 100.643 103.623C100.695 103.678 100.732 103.745 100.75 103.818C100.769 103.892 100.768 103.969 100.748 104.041C100.728 104.114 100.689 104.181 100.636 104.234L98.6989 106.17C98.7356 106.447 98.8599 106.715 99.0728 106.928C99.2857 107.141 99.5534 107.265 99.8311 107.301L101.767 105.365C101.82 105.312 101.886 105.273 101.959 105.253C102.032 105.233 102.109 105.232 102.182 105.25C102.256 105.269 102.323 105.306 102.378 105.358C102.432 105.41 102.473 105.475 102.495 105.548C102.64 106.027 102.666 106.534 102.57 107.025C102.474 107.516 102.259 107.976 101.944 108.365C101.629 108.754 101.224 109.06 100.763 109.255C100.303 109.451 99.8012 109.531 99.3026 109.489C98.7088 109.439 98.2118 109.547 97.9557 109.859L93.7849 114.925C93.6141 115.131 93.4021 115.3 93.1625 115.419C92.9228 115.539 92.6609 115.607 92.3933 115.62C92.1257 115.633 91.8585 115.589 91.6087 115.493C91.3588 115.396 91.132 115.248 90.9425 115.059C90.7531 114.869 90.6053 114.643 90.5086 114.393C90.4119 114.143 90.3685 113.876 90.381 113.608C90.3936 113.341 90.4619 113.079 90.5815 112.839C90.7012 112.599 90.8695 112.387 91.0759 112.216L96.1415 108.045C96.4524 107.788 96.5615 107.292 96.5114 106.698C96.5042 106.611 96.5007 106.524 96.5009 106.437ZM91.9024 113.656C91.9024 113.54 91.9485 113.429 92.0306 113.347C92.1126 113.265 92.2239 113.219 92.3399 113.219H92.3446C92.4606 113.219 92.5719 113.265 92.654 113.347C92.736 113.429 92.7821 113.54 92.7821 113.656V113.661C92.7821 113.777 92.736 113.888 92.654 113.97C92.5719 114.052 92.4606 114.098 92.3446 114.098H92.3399C92.2239 114.098 92.1126 114.052 92.0306 113.97C91.9485 113.888 91.9024 113.777 91.9024 113.661V113.656Z" fill="#F1F7EE"/>
<path d="M95.3775 107.54L94.0936 106.257V105.344C94.0936 105.268 94.074 105.194 94.0368 105.128C93.9996 105.062 93.946 105.007 93.8813 104.969L91.6938 103.656C91.6101 103.606 91.5121 103.585 91.4153 103.597C91.3184 103.609 91.2284 103.653 91.1594 103.722L90.7219 104.159C90.6529 104.228 90.609 104.318 90.597 104.415C90.5851 104.512 90.6059 104.61 90.656 104.694L91.9685 106.881C92.0074 106.946 92.0624 107 92.1281 107.037C92.1938 107.074 92.2681 107.094 92.3436 107.094H93.2559L94.4588 108.296L95.3775 107.54V107.54Z" fill="#F1F7EE"/>
<path fill-rule="evenodd" clip-rule="evenodd" d="M96.8242 112.609L99.2643 115.048C99.4471 115.231 99.6642 115.376 99.903 115.475C100.142 115.574 100.398 115.625 100.656 115.625C100.915 115.625 101.171 115.574 101.41 115.475C101.649 115.376 101.866 115.231 102.049 115.048C102.231 114.865 102.376 114.648 102.475 114.409C102.574 114.171 102.625 113.915 102.625 113.656C102.625 113.397 102.574 113.141 102.475 112.903C102.376 112.664 102.231 112.447 102.049 112.264L100.12 110.336C99.8244 110.378 99.525 110.386 99.2276 110.361C98.9977 110.341 98.8297 110.358 98.7218 110.386C98.6877 110.393 98.6548 110.405 98.6244 110.422L96.8242 112.609ZM98.8157 111.815C98.8978 111.733 99.0089 111.687 99.1249 111.687C99.2408 111.687 99.352 111.733 99.4341 111.815L100.528 112.91C100.571 112.95 100.605 112.998 100.629 113.052C100.653 113.105 100.666 113.163 100.667 113.222C100.668 113.281 100.657 113.339 100.635 113.394C100.613 113.448 100.58 113.497 100.539 113.539C100.497 113.581 100.448 113.613 100.393 113.635C100.339 113.657 100.281 113.668 100.222 113.667C100.163 113.666 100.105 113.653 100.051 113.629C99.9978 113.605 99.9495 113.571 99.9095 113.528L98.8157 112.434C98.7338 112.352 98.6878 112.241 98.6878 112.125C98.6878 112.009 98.7338 111.898 98.8157 111.816V111.815Z" fill="#F1F7EE"/>
</svg>
