<svg width="286" height="213" viewBox="0 0 286 213" fill="none" xmlns="http://www.w3.org/2000/svg">
<g opacity="0.5">
<circle cx="140.771" cy="87.7703" r="11.4936" stroke="url(#paint0_linear_2803_437431)" stroke-width="0.688147"/>
<circle cx="140.771" cy="87.7713" r="38.571" stroke="url(#paint1_linear_2803_437431)" stroke-width="0.580395"/>
<circle cx="140.773" cy="87.7711" r="62.8704" stroke="url(#paint2_linear_2803_437431)" stroke-width="0.688147"/>
<circle cx="140.771" cy="87.771" r="81.4269" stroke="url(#paint3_linear_2803_437431)" stroke-width="0.688147"/>
</g>
<g filter="url(#filter0_d_2803_437431)">
<rect x="158.406" y="101.819" width="50.2347" height="15.8513" rx="7.92565" transform="rotate(-8.55315 158.406 101.819)" fill="#EF9645" shape-rendering="crispEdges"/>
<g clip-path="url(#clip0_2803_437431)">
<path fill-rule="evenodd" clip-rule="evenodd" d="M168.847 104.041C168.91 104.064 168.963 104.108 168.998 104.166C169.033 104.223 169.048 104.29 169.04 104.357L168.685 107.375L171.57 106.941C171.628 106.933 171.688 106.941 171.741 106.965C171.794 106.99 171.839 107.03 171.87 107.079C171.902 107.129 171.917 107.187 171.916 107.245C171.915 107.304 171.897 107.361 171.863 107.409L168.367 112.502C168.329 112.558 168.273 112.599 168.209 112.619C168.145 112.639 168.076 112.637 168.013 112.614C167.95 112.59 167.896 112.546 167.861 112.488C167.826 112.431 167.812 112.363 167.82 112.296L168.174 109.279L165.289 109.713C165.231 109.721 165.172 109.713 165.119 109.688C165.065 109.664 165.02 109.624 164.989 109.575C164.958 109.525 164.942 109.467 164.944 109.408C164.945 109.35 164.963 109.293 164.996 109.244L168.493 104.152C168.531 104.096 168.586 104.055 168.651 104.035C168.715 104.015 168.784 104.017 168.847 104.041V104.041Z" fill="#F9D5B5"/>
</g>
<path d="M177.407 103.936L178.449 110.865L177.194 111.054L176.152 104.125L177.407 103.936ZM179.808 110.66L178.766 103.732L181.419 103.333C181.919 103.258 182.347 103.274 182.703 103.382C183.06 103.487 183.341 103.663 183.547 103.909C183.754 104.154 183.884 104.449 183.935 104.791C183.978 105.073 183.96 105.323 183.882 105.54C183.803 105.755 183.682 105.938 183.518 106.089C183.354 106.241 183.163 106.361 182.946 106.449L182.956 106.516C183.204 106.493 183.451 106.533 183.697 106.637C183.945 106.738 184.16 106.901 184.342 107.128C184.524 107.354 184.641 107.643 184.694 107.995C184.748 108.354 184.71 108.689 184.579 109.002C184.448 109.312 184.22 109.576 183.895 109.793C183.57 110.01 183.143 110.159 182.613 110.239L179.808 110.66ZM180.906 109.423L182.256 109.22C182.711 109.151 183.026 109.015 183.201 108.811C183.378 108.605 183.445 108.364 183.404 108.089C183.373 107.884 183.294 107.706 183.168 107.557C183.041 107.405 182.877 107.296 182.676 107.23C182.474 107.161 182.244 107.146 181.984 107.185L180.601 107.393L180.906 109.423ZM180.465 106.49L181.706 106.303C181.923 106.27 182.112 106.202 182.274 106.096C182.435 105.989 182.555 105.855 182.632 105.693C182.711 105.529 182.735 105.346 182.705 105.143C182.664 104.874 182.536 104.667 182.321 104.522C182.107 104.377 181.816 104.332 181.446 104.387L180.177 104.578L180.465 106.49ZM186.07 109.719L185.028 102.79L189.534 102.112L189.692 103.164L186.441 103.653L186.724 105.534L189.742 105.081L189.9 106.133L186.882 106.587L187.167 108.478L190.445 107.985L190.603 109.037L186.07 109.719ZM194.204 108.495L191.857 108.848L190.815 101.92L193.21 101.559C193.898 101.456 194.509 101.506 195.045 101.709C195.583 101.909 196.023 102.248 196.367 102.724C196.711 103.201 196.937 103.799 197.045 104.518C197.154 105.24 197.113 105.881 196.923 106.44C196.734 106.998 196.41 107.454 195.949 107.807C195.49 108.16 194.908 108.389 194.204 108.495ZM192.948 107.574L193.98 107.418C194.463 107.346 194.852 107.197 195.148 106.973C195.444 106.746 195.647 106.445 195.756 106.068C195.865 105.69 195.88 105.236 195.8 104.706C195.721 104.176 195.573 103.748 195.358 103.423C195.143 103.095 194.863 102.869 194.519 102.743C194.177 102.614 193.771 102.586 193.302 102.656L192.233 102.817L192.948 107.574ZM204 102.327L202.735 102.518C202.667 102.315 202.573 102.142 202.452 101.996C202.331 101.848 202.189 101.729 202.028 101.638C201.867 101.547 201.689 101.487 201.496 101.458C201.305 101.427 201.103 101.428 200.891 101.459C200.514 101.516 200.195 101.661 199.932 101.894C199.669 102.125 199.483 102.435 199.373 102.822C199.262 103.208 199.246 103.661 199.325 104.182C199.405 104.712 199.554 105.147 199.773 105.485C199.994 105.821 200.263 106.059 200.58 106.201C200.898 106.34 201.245 106.381 201.619 106.325C201.827 106.294 202.016 106.237 202.189 106.156C202.363 106.072 202.514 105.965 202.642 105.835C202.772 105.705 202.875 105.554 202.951 105.381C203.029 105.208 203.071 105.017 203.079 104.808L204.346 104.624C204.348 104.961 204.292 105.285 204.177 105.598C204.065 105.91 203.899 106.195 203.68 106.454C203.46 106.711 203.19 106.927 202.871 107.102C202.551 107.275 202.184 107.392 201.772 107.454C201.163 107.546 200.598 107.486 200.077 107.276C199.557 107.066 199.119 106.716 198.764 106.225C198.408 105.734 198.175 105.117 198.063 104.372C197.951 103.626 197.993 102.967 198.191 102.395C198.388 101.821 198.705 101.357 199.141 101.003C199.576 100.649 200.097 100.427 200.701 100.336C201.087 100.278 201.453 100.278 201.801 100.336C202.149 100.395 202.468 100.509 202.759 100.68C203.05 100.849 203.301 101.071 203.514 101.349C203.728 101.623 203.89 101.949 204 102.327Z" fill="#FDF5EC"/>
</g>
<g filter="url(#filter1_d_2803_437431)">
<rect x="63.9844" y="82.1504" width="46.794" height="15.8513" rx="7.92565" transform="rotate(8.8674 63.9844 82.1504)" fill="#45B6A8" shape-rendering="crispEdges"/>
<g clip-path="url(#clip1_2803_437431)">
<path fill-rule="evenodd" clip-rule="evenodd" d="M73.2845 87.396C73.3375 87.4374 73.3751 87.4953 73.3914 87.5606C73.4076 87.6259 73.4016 87.6947 73.3741 87.7561L72.1322 90.5294L75.0148 90.9791C75.0728 90.9882 75.1268 91.0139 75.1703 91.0533C75.2139 91.0927 75.2449 91.1439 75.2597 91.2007C75.2745 91.2574 75.2724 91.3173 75.2536 91.3729C75.2348 91.4285 75.2002 91.4774 75.1541 91.5136L70.2934 95.3258C70.2405 95.3674 70.1751 95.3901 70.1077 95.3902C70.0403 95.3903 69.9749 95.3678 69.9219 95.3262C69.8688 95.2847 69.8312 95.2266 69.8151 95.1612C69.7989 95.0959 69.8052 95.0269 69.8328 94.9655L71.0747 92.1926L68.1921 91.7429C68.1341 91.7339 68.0801 91.7081 68.0366 91.6687C67.9931 91.6294 67.962 91.5781 67.9472 91.5214C67.9324 91.4646 67.9345 91.4047 67.9533 91.3491C67.9721 91.2935 68.0067 91.2447 68.0528 91.2085L72.9135 87.3962C72.9664 87.3548 73.0317 87.3322 73.0989 87.3322C73.1662 87.3321 73.2315 87.3546 73.2845 87.396V87.396Z" fill="#E3EFDC"/>
</g>
<path d="M79.1452 96.5856L80.2253 89.6628L84.7278 90.3653L84.5638 91.4165L81.3154 90.9097L81.0222 92.7892L84.0374 93.2596L83.8734 94.3109L80.8581 93.8404L80.5633 95.73L83.8388 96.241L83.6748 97.2923L79.1452 96.5856ZM84.9272 97.4877L86.0073 90.5649L90.5098 91.2673L90.3458 92.3186L87.0974 91.8118L86.8041 93.6912L89.8194 94.1616L89.6554 95.2129L86.6401 94.7425L86.3453 96.6321L89.6208 97.1431L89.4568 98.1944L84.9272 97.4877ZM93.0551 98.7558L90.7092 98.3898L91.7893 91.4669L94.1825 91.8403C94.8698 91.9475 95.4386 92.1782 95.8889 92.5324C96.3418 92.8847 96.661 93.3396 96.8464 93.8972C97.0318 94.4547 97.0684 95.0929 96.9562 95.8118C96.8437 96.5329 96.613 97.1317 96.2639 97.6082C95.9171 98.085 95.4709 98.4228 94.9251 98.6216C94.3816 98.8207 93.7582 98.8655 93.0551 98.7558ZM92.1326 97.5003L93.1636 97.6612C93.6458 97.7364 94.0618 97.7113 94.4115 97.5858C94.7615 97.4581 95.0451 97.2311 95.2622 96.9048C95.4796 96.5763 95.6297 96.1473 95.7123 95.6177C95.7949 95.0881 95.7823 94.636 95.6746 94.2614C95.5672 93.8846 95.3681 93.5846 95.0775 93.3615C94.7894 93.1365 94.411 92.9874 93.9422 92.9143L92.8741 92.7477L92.1326 97.5003ZM104.248 95.8033L102.984 95.6061C102.98 95.3931 102.942 95.1991 102.87 95.024C102.799 94.8466 102.7 94.6903 102.573 94.5551C102.446 94.4199 102.295 94.3098 102.119 94.2246C101.946 94.1375 101.753 94.0775 101.541 94.0444C101.165 93.9857 100.817 94.0283 100.496 94.1723C100.176 94.314 99.9059 94.5534 99.6848 94.8905C99.464 95.2254 99.313 95.6532 99.2318 96.1737C99.1492 96.7033 99.1618 97.1623 99.2697 97.5508C99.3802 97.9374 99.5653 98.2456 99.8249 98.4754C100.087 98.7033 100.405 98.8464 100.779 98.9048C100.987 98.9371 101.185 98.9403 101.373 98.9143C101.565 98.8865 101.741 98.8297 101.902 98.7441C102.065 98.6587 102.209 98.5449 102.333 98.4027C102.459 98.2607 102.557 98.0914 102.627 97.8945L103.89 98.0985C103.791 98.4201 103.641 98.7129 103.438 98.9767C103.237 99.2409 102.994 99.4637 102.707 99.6452C102.42 99.8244 102.098 99.9496 101.741 100.021C101.384 100.09 100.999 100.092 100.587 100.028C99.9784 99.9328 99.4573 99.7073 99.0235 99.351C98.5897 98.9948 98.2768 98.5293 98.0849 97.9546C97.8929 97.3799 97.8549 96.7207 97.971 95.977C98.0873 95.2311 98.3254 94.615 98.6852 94.1286C99.0454 93.6401 99.4863 93.2922 100.008 93.085C100.53 92.8779 101.093 92.8214 101.696 92.9156C102.082 92.9757 102.432 93.0857 102.746 93.2456C103.06 93.4054 103.331 93.6104 103.557 93.8604C103.784 94.1081 103.957 94.396 104.077 94.724C104.199 95.0501 104.256 95.4098 104.248 95.8033Z" fill="#ECF8F6"/>
</g>
<g filter="url(#filter2_d_2803_437431)">
<rect x="117" y="46.1465" width="46.1058" height="15.8513" rx="7.92565" transform="rotate(-6.14875 117 46.1465)" fill="#5DADEC" shape-rendering="crispEdges"/>
<g clip-path="url(#clip2_2803_437431)">
<path fill-rule="evenodd" clip-rule="evenodd" d="M127.339 48.8021C127.401 48.8284 127.452 48.8746 127.485 48.9334C127.517 48.9923 127.529 49.0603 127.519 49.1267L127.038 52.1271L129.939 51.8146C129.997 51.8083 130.056 51.8192 130.108 51.846C130.16 51.8727 130.203 51.9141 130.232 51.9651C130.261 52.0161 130.275 52.0745 130.271 52.133C130.268 52.1916 130.247 52.2478 130.212 52.2947L126.505 57.2361C126.464 57.2901 126.407 57.3289 126.342 57.3464C126.277 57.364 126.208 57.3592 126.146 57.3328C126.084 57.3065 126.032 57.2601 126 57.2011C125.967 57.1421 125.956 57.074 125.966 57.0075L126.447 54.0075L123.547 54.32C123.488 54.3263 123.429 54.3154 123.377 54.2887C123.325 54.2619 123.282 54.2205 123.253 54.1695C123.224 54.1185 123.21 54.0601 123.214 54.0016C123.218 53.943 123.239 53.8868 123.274 53.8399L126.981 48.8985C127.021 48.8447 127.078 48.806 127.143 48.7886C127.208 48.7711 127.277 48.7759 127.339 48.8021V48.8021Z" fill="#BEDEF7"/>
</g>
<path d="M137.381 48.8981L138.633 48.7632L139.161 53.6614C139.207 54.1106 139.153 54.5075 139 54.8521C138.846 55.1944 138.61 55.471 138.291 55.682C137.974 55.8905 137.592 56.0188 137.145 56.067C136.737 56.1109 136.362 56.078 136.02 55.968C135.68 55.8555 135.399 55.6656 135.177 55.3981C134.956 55.1306 134.822 54.7826 134.776 54.354L136.031 54.2188C136.053 54.4068 136.112 54.5645 136.206 54.692C136.302 54.8193 136.425 54.9115 136.576 54.9687C136.727 55.0258 136.895 55.0444 137.081 55.0244C137.283 55.0026 137.45 54.9422 137.581 54.8432C137.712 54.7419 137.805 54.6034 137.86 54.4278C137.917 54.2519 137.933 54.0414 137.909 53.7962L137.381 48.8981ZM140.752 55.582L140.002 48.6157L144.533 48.1276L144.647 49.1855L141.378 49.5377L141.582 51.4289L144.616 51.102L144.73 52.1599L141.696 52.4868L141.9 54.3882L145.197 54.0331L145.31 55.091L140.752 55.582ZM148.931 54.7009L146.571 54.9552L145.82 47.9889L148.229 47.7295C148.92 47.655 149.529 47.7304 150.056 47.9559C150.585 48.1788 151.011 48.5355 151.334 49.0259C151.658 49.5164 151.859 50.1233 151.937 50.8467C152.015 51.5724 151.947 52.2105 151.733 52.7611C151.522 53.3115 151.178 53.7534 150.703 54.0868C150.229 54.42 149.639 54.6247 148.931 54.7009ZM147.715 53.7274L148.753 53.6156C149.238 53.5633 149.633 53.4313 149.938 53.2195C150.243 53.0054 150.458 52.7127 150.583 52.3413C150.708 51.9677 150.742 51.5145 150.685 50.9816C150.627 50.4487 150.498 50.0153 150.297 49.6814C150.096 49.3452 149.826 49.107 149.487 48.9669C149.151 48.8242 148.746 48.7783 148.275 48.8291L147.2 48.9449L147.715 53.7274ZM158.977 48.9493L157.705 49.0863C157.646 48.8816 157.559 48.704 157.444 48.5535C157.329 48.4007 157.193 48.2755 157.036 48.1777C156.878 48.08 156.704 48.0128 156.512 47.9761C156.322 47.9369 156.12 47.9288 155.907 47.9518C155.528 47.9926 155.203 48.124 154.931 48.346C154.659 48.5657 154.459 48.8671 154.333 49.25C154.207 49.6306 154.172 50.0829 154.228 50.6067C154.286 51.1396 154.417 51.5797 154.622 51.927C154.828 52.2717 155.087 52.5214 155.397 52.6761C155.71 52.8283 156.054 52.8841 156.43 52.8435C156.639 52.8211 156.831 52.7728 157.007 52.6989C157.184 52.6224 157.34 52.5219 157.473 52.3974C157.609 52.2727 157.718 52.1256 157.801 51.9561C157.886 51.7864 157.936 51.5974 157.953 51.3891L159.226 51.2589C159.214 51.5951 159.144 51.9169 159.017 52.2242C158.892 52.5314 158.714 52.8097 158.484 53.0593C158.254 53.3066 157.975 53.511 157.648 53.6724C157.321 53.8314 156.95 53.9334 156.535 53.9781C155.923 54.044 155.361 53.9612 154.85 53.7295C154.339 53.4978 153.916 53.1293 153.582 52.6239C153.247 52.1186 153.04 51.4917 152.959 50.7434C152.879 49.9928 152.949 49.336 153.17 48.7731C153.392 48.2079 153.727 47.7576 154.178 47.4224C154.628 47.0871 155.157 46.8868 155.765 46.8213C156.152 46.7795 156.519 46.7951 156.864 46.868C157.209 46.941 157.523 47.0688 157.807 47.2516C158.09 47.4322 158.332 47.6653 158.532 47.9511C158.735 48.2344 158.883 48.5671 158.977 48.9493Z" fill="#EFF7FD"/>
</g>
<rect x="119.645" y="66.0693" width="42.5594" height="42.5594" rx="21.2797" fill="#FDF5EC"/>
<g clip-path="url(#clip3_2803_437431)">
<rect x="127.781" y="74.2061" width="26.2867" height="26.2867" rx="13.1433" fill="#FDF5EC"/>
<path fill-rule="evenodd" clip-rule="evenodd" d="M142.559 80.8377C142.65 80.8887 142.722 80.9689 142.763 81.0656C142.804 81.1622 142.811 81.2697 142.783 81.3709L141.537 85.9417H146.085C146.177 85.9417 146.266 85.9684 146.343 86.0186C146.419 86.0688 146.479 86.1402 146.516 86.2241C146.552 86.308 146.563 86.4008 146.548 86.4909C146.532 86.5811 146.491 86.6647 146.428 86.7315L139.857 93.7726C139.785 93.8495 139.69 93.9001 139.586 93.9164C139.482 93.9327 139.376 93.9138 139.284 93.8626C139.193 93.8114 139.121 93.7309 139.08 93.6341C139.04 93.5372 139.033 93.4295 139.061 93.3282L140.307 88.7581H135.758C135.667 88.7581 135.577 88.7314 135.501 88.6812C135.424 88.631 135.364 88.5596 135.328 88.4757C135.291 88.3918 135.28 88.299 135.296 88.2089C135.311 88.1187 135.353 88.0351 135.415 87.9683L141.987 80.9272C142.059 80.8506 142.154 80.8002 142.257 80.784C142.361 80.7678 142.467 80.7867 142.559 80.8377V80.8377Z" fill="#F2AB6A"/>
<rect x="127.781" y="74.2061" width="26.2867" height="26.2867" rx="13.1433" fill="#FAE0C7"/>
<path fill-rule="evenodd" clip-rule="evenodd" d="M142.559 80.8377C142.65 80.8887 142.722 80.9689 142.763 81.0656C142.804 81.1622 142.811 81.2697 142.783 81.3709L141.537 85.9417H146.085C146.177 85.9417 146.266 85.9684 146.343 86.0186C146.419 86.0688 146.479 86.1402 146.516 86.2241C146.552 86.308 146.563 86.4008 146.548 86.4909C146.532 86.5811 146.491 86.6647 146.428 86.7315L139.857 93.7726C139.785 93.8495 139.69 93.9001 139.586 93.9164C139.482 93.9327 139.376 93.9138 139.284 93.8626C139.193 93.8114 139.121 93.7309 139.08 93.6341C139.04 93.5372 139.033 93.4295 139.061 93.3282L140.307 88.7581H135.758C135.667 88.7581 135.577 88.7314 135.501 88.6812C135.424 88.631 135.364 88.5596 135.328 88.4757C135.291 88.3918 135.28 88.299 135.296 88.2089C135.311 88.1187 135.353 88.0351 135.415 87.9683L141.987 80.9272C142.059 80.8506 142.154 80.8002 142.257 80.784C142.361 80.7678 142.467 80.7867 142.559 80.8377V80.8377Z" fill="#F2AB6A"/>
</g>
<defs>
<filter id="filter0_d_2803_437431" x="96.4731" y="53.0589" width="189.664" height="160.776" filterUnits="userSpaceOnUse" color-interpolation-filters="sRGB">
<feFlood flood-opacity="0" result="BackgroundImageFix"/>
<feColorMatrix in="SourceAlpha" type="matrix" values="0 0 0 0 0 0 0 0 0 0 0 0 0 0 0 0 0 0 127 0" result="hardAlpha"/>
<feOffset dx="6.88147" dy="27.5259"/>
<feGaussianBlur stdDeviation="34.4073"/>
<feComposite in2="hardAlpha" operator="out"/>
<feColorMatrix type="matrix" values="0 0 0 0 0 0 0 0 0 0 0 0 0 0 0 0 0 0 0.08 0"/>
<feBlend mode="normal" in2="BackgroundImageFix" result="effect1_dropShadow_2803_437431"/>
<feBlend mode="normal" in="SourceGraphic" in2="effect1_dropShadow_2803_437431" result="shape"/>
</filter>
<filter id="filter1_d_2803_437431" x="-0.394124" y="40.8616" width="186.309" height="160.504" filterUnits="userSpaceOnUse" color-interpolation-filters="sRGB">
<feFlood flood-opacity="0" result="BackgroundImageFix"/>
<feColorMatrix in="SourceAlpha" type="matrix" values="0 0 0 0 0 0 0 0 0 0 0 0 0 0 0 0 0 0 127 0" result="hardAlpha"/>
<feOffset dx="6.88147" dy="27.5259"/>
<feGaussianBlur stdDeviation="34.4073"/>
<feComposite in2="hardAlpha" operator="out"/>
<feColorMatrix type="matrix" values="0 0 0 0 0 0 0 0 0 0 0 0 0 0 0 0 0 0 0.08 0"/>
<feBlend mode="normal" in2="BackgroundImageFix" result="effect1_dropShadow_2803_437431"/>
<feBlend mode="normal" in="SourceGraphic" in2="effect1_dropShadow_2803_437431" result="shape"/>
</filter>
<filter id="filter2_d_2803_437431" x="55.0668" y="-0.0807819" width="185.168" height="158.328" filterUnits="userSpaceOnUse" color-interpolation-filters="sRGB">
<feFlood flood-opacity="0" result="BackgroundImageFix"/>
<feColorMatrix in="SourceAlpha" type="matrix" values="0 0 0 0 0 0 0 0 0 0 0 0 0 0 0 0 0 0 127 0" result="hardAlpha"/>
<feOffset dx="6.88147" dy="27.5259"/>
<feGaussianBlur stdDeviation="34.4073"/>
<feComposite in2="hardAlpha" operator="out"/>
<feColorMatrix type="matrix" values="0 0 0 0 0 0 0 0 0 0 0 0 0 0 0 0 0 0 0.08 0"/>
<feBlend mode="normal" in2="BackgroundImageFix" result="effect1_dropShadow_2803_437431"/>
<feBlend mode="normal" in="SourceGraphic" in2="effect1_dropShadow_2803_437431" result="shape"/>
</filter>
<linearGradient id="paint0_linear_2803_437431" x1="140.771" y1="75.9326" x2="140.771" y2="99.608" gradientUnits="userSpaceOnUse">
<stop stop-color="#EF9645"/>
<stop offset="1" stop-color="#F9D5B5"/>
</linearGradient>
<linearGradient id="paint1_linear_2803_437431" x1="140.771" y1="48.9102" x2="140.771" y2="126.633" gradientUnits="userSpaceOnUse">
<stop stop-color="#209DFF"/>
<stop offset="0.671878" stop-color="white"/>
</linearGradient>
<linearGradient id="paint2_linear_2803_437431" x1="140.773" y1="24.5566" x2="140.773" y2="150.986" gradientUnits="userSpaceOnUse">
<stop stop-color="#209DFF"/>
<stop offset="0.671878" stop-color="white"/>
</linearGradient>
<linearGradient id="paint3_linear_2803_437431" x1="140.771" y1="6" x2="140.771" y2="169.542" gradientUnits="userSpaceOnUse">
<stop stop-color="#209DFF"/>
<stop offset="0.671878" stop-color="white"/>
</linearGradient>
<clipPath id="clip0_2803_437431">
<rect width="9.63405" height="9.63405" fill="white" transform="translate(162.953 104.279) rotate(-8.55315)"/>
</clipPath>
<clipPath id="clip1_2803_437431">
<rect width="9.63405" height="9.63405" fill="white" transform="translate(67.5859 85.8584) rotate(8.8674)"/>
</clipPath>
<clipPath id="clip2_2803_437431">
<rect width="9.63405" height="9.63405" fill="white" transform="translate(121.438 48.7949) rotate(-6.14875)"/>
</clipPath>
<clipPath id="clip3_2803_437431">
<rect x="127.781" y="74.2061" width="26.2867" height="26.2867" rx="13.1433" fill="white"/>
</clipPath>
</defs>
</svg>
