<svg width="17" height="17" viewBox="0 0 17 17" fill="none" xmlns="http://www.w3.org/2000/svg">
<g clip-path="url(#clip0_2803_437390)">
<path d="M9.52192 14.2773C12.5804 13.7326 14.6184 10.8117 14.0737 7.75319C13.5291 4.69466 10.6082 2.65675 7.54966 3.20137C4.49114 3.74599 2.45322 6.66692 2.99785 9.72545C3.54247 12.784 6.4634 14.8219 9.52192 14.2773Z" fill="#50B651"/>
<path opacity="0.663" fill-rule="evenodd" clip-rule="evenodd" d="M14.054 7.7393C14.6004 10.8074 12.5561 13.7375 9.48864 14.2837C6.42119 14.8299 3.49044 12.7858 2.9441 9.71762C2.70242 8.36039 2.70453 8.15183 3.10118 7.28402C3.10118 7.28402 3.22902 8.16168 3.96146 8.56707C4.41683 8.81888 4.79064 8.51199 5.48844 8.02654C6.24325 7.50108 6.8682 7.13753 7.40124 7.10916C8.20421 7.06658 10.8847 8.08964 12.0969 7.57501C13.0655 7.16436 12.535 4.80298 12.535 4.80298C13.8294 5.68337 13.8219 6.43555 14.054 7.7393Z" fill="url(#paint0_linear_2803_437390)"/>
<path opacity="0.586" fill-rule="evenodd" clip-rule="evenodd" d="M11.6103 12.3854C13.2829 10.1378 13.2314 7.91326 11.4556 5.71181C11.4633 5.71556 11.4953 5.41447 11.5516 4.80852C12.4193 5.54581 12.9888 6.54513 13.2602 7.8065C13.5526 9.4508 13.0026 10.9771 11.6103 12.3854Z" fill="url(#paint1_linear_2803_437390)"/>
<path opacity="0.744" fill-rule="evenodd" clip-rule="evenodd" d="M9.35005 5.21298C8.28469 4.84895 6.97986 3.96743 7.08738 3.71436C7.1949 3.46129 9.12143 3.15848 10.1869 3.52248C11.2524 3.88649 12.3646 5.34951 12.2572 5.60256C12.1498 5.8556 10.4154 5.57701 9.35005 5.21298Z" fill="url(#paint2_radial_2803_437390)"/>
<path fill-rule="evenodd" clip-rule="evenodd" d="M11.0215 9.70372C10.217 9.84698 9.44535 9.2923 9.29801 8.46489C9.15068 7.63749 9.68347 6.85066 10.488 6.7074C11.2925 6.56414 12.0643 7.11866 12.2116 7.94607C12.359 8.77347 11.8262 9.56044 11.0215 9.70372ZM10.9473 9.22664C11.4494 9.13723 11.7754 8.60664 11.6748 8.04166C11.5742 7.47669 11.0851 7.09166 10.583 7.18108C10.0809 7.27049 9.75487 7.80108 9.85545 8.36591C9.95603 8.93075 10.4451 9.31605 10.9473 9.22664Z" fill="white"/>
<path fill-rule="evenodd" clip-rule="evenodd" d="M7.26562 6.03516L8.31535 5.84823L9.06074 10.0342L8.48446 10.1368L7.82083 6.40997L7.34738 6.49427L7.26562 6.03516Z" fill="white"/>
<path fill-rule="evenodd" clip-rule="evenodd" d="M6.70968 7.42387L7.25453 7.32685L7.877 10.8225C7.93372 11.1411 7.65773 11.5325 7.35663 11.7334C7.21427 11.8284 6.93655 11.9192 6.52348 12.0058L6.46156 11.658C6.85972 11.5404 7.11783 11.4012 7.23586 11.2405C7.29759 11.1119 7.32514 10.9695 7.31585 10.8272L7.13297 9.80021C7.04236 10.1352 6.89543 10.3727 6.69219 10.5128C6.48438 10.6778 6.0128 10.7407 5.80331 10.6711C5.59382 10.6014 5.26501 10.3784 5.06417 9.99482C5.00864 9.88896 4.86578 9.59942 4.81742 9.27428C4.77083 8.96476 4.81478 8.62062 4.87569 8.47155C4.9805 8.21684 5.15896 7.88942 5.48525 7.70774C5.64463 7.61897 5.9556 7.54189 6.41815 7.47649L6.47973 7.82231C6.13408 7.86007 5.92305 7.90955 5.84663 7.97074C5.73196 8.06226 5.46055 8.19833 5.4772 8.83968C5.49386 9.48104 5.68217 9.97479 6.01045 10.0814C6.12295 10.1183 6.31623 10.1511 6.47387 10.0638C6.77676 9.89606 7.01025 9.44878 6.98596 9.17823C6.96116 8.90374 6.86907 8.31895 6.70968 7.42387Z" fill="white"/>
<path fill-rule="evenodd" clip-rule="evenodd" d="M14.0795 8.88266C14.0061 11.4518 12.1422 13.7043 9.51226 14.1726C6.50022 14.7089 3.62358 12.7019 3.08724 9.68989C2.75403 7.81869 3.40238 5.9998 4.66344 4.76205C3.66899 5.93739 3.18636 7.53139 3.47742 9.16593C3.99659 12.0815 6.78098 14.024 9.6964 13.5049C12.0707 13.0821 13.7995 11.1573 14.0795 8.88266Z" fill="url(#paint3_radial_2803_437390)"/>
<path fill-rule="evenodd" clip-rule="evenodd" d="M7.39253 2.26003C3.82544 2.89521 1.44851 6.30187 2.0837 9.86896C2.71888 13.436 6.12568 15.8129 9.69276 15.1778C13.2599 14.5426 15.6368 11.1358 15.0016 7.5687C14.3664 4.00161 10.9596 1.62484 7.39253 2.26003ZM9.51382 14.1728C6.50178 14.7092 3.62514 12.7022 3.08879 9.69012C2.75559 7.81892 3.40394 6.00003 4.665 4.76228C5.46015 3.98079 6.47355 3.45872 7.57148 3.26496C10.5835 2.72861 13.4601 4.73549 13.9965 7.74767C14.0634 8.12215 14.0917 8.5025 14.081 8.88275C14.0077 11.4519 12.1438 13.7044 9.51379 14.1727L9.51382 14.1728Z" fill="white"/>
</g>
<defs>
<linearGradient id="paint0_linear_2803_437390" x1="7.86642" y1="6.41699" x2="9.72348" y2="12.7205" gradientUnits="userSpaceOnUse">
<stop stop-color="#123214"/>
<stop offset="0.46" stop-color="#3E7C37"/>
<stop offset="0.91" stop-color="#5FBB46"/>
</linearGradient>
<linearGradient id="paint1_linear_2803_437390" x1="11.906" y1="5.26748" x2="12.8319" y2="10.4672" gradientUnits="userSpaceOnUse">
<stop stop-color="white" stop-opacity="0"/>
<stop offset="0.64" stop-color="white" stop-opacity="0.43"/>
<stop offset="1" stop-color="white" stop-opacity="0.42"/>
</linearGradient>
<radialGradient id="paint2_radial_2803_437390" cx="0" cy="0" r="1" gradientUnits="userSpaceOnUse" gradientTransform="translate(9.79681 4.67387) rotate(16.6639) scale(2.77961 1.15766)">
<stop offset="0.13" stop-color="white"/>
<stop offset="0.29" stop-color="white" stop-opacity="0.69"/>
<stop offset="0.45" stop-color="white" stop-opacity="0.4"/>
<stop offset="0.59" stop-color="white" stop-opacity="0.18"/>
<stop offset="0.69" stop-color="white" stop-opacity="0.05"/>
<stop offset="0.74" stop-color="white" stop-opacity="0"/>
</radialGradient>
<radialGradient id="paint3_radial_2803_437390" cx="0" cy="0" r="1" gradientUnits="userSpaceOnUse" gradientTransform="translate(9.25256 7.29561) rotate(29.7433) scale(6.22902 6.78963)">
<stop offset="0.86" stop-opacity="0"/>
<stop offset="0.98" stop-opacity="0.47"/>
<stop offset="1"/>
</radialGradient>
<clipPath id="clip0_2803_437390">
<rect width="14" height="14" fill="white" transform="translate(0.40625 3.20508) rotate(-10.0967)"/>
</clipPath>
</defs>
</svg>
