<svg width="141" height="141" viewBox="0 0 141 141" fill="none" xmlns="http://www.w3.org/2000/svg">
<g clip-path="url(#clip0_3942_416662)">
<rect width="140.647" height="140.647" rx="70.3237" fill="#FDF5EC"/>
<rect x="0.320312" width="140" height="140" rx="70" fill="#FAE0C7"/>
<rect x="18" y="17.8237" width="105" height="105" rx="52.5" fill="#F9D5B5"/>
<rect x="32" y="31.8237" width="76" height="76" rx="38" fill="#F5C08F"/>
<rect x="46.3203" y="46" width="48" height="48" rx="24" fill="#F2AB6A"/>
<path fill-rule="evenodd" clip-rule="evenodd" d="M62.8203 61.25C62.0247 61.25 61.2616 61.5661 60.699 62.1287C60.1364 62.6913 59.8203 63.4544 59.8203 64.25V74.75C59.8203 75.5456 60.1364 76.3087 60.699 76.8713C61.2616 77.4339 62.0247 77.75 62.8203 77.75H77.8203C78.616 77.75 79.379 77.4339 79.9416 76.8713C80.5042 76.3087 80.8203 75.5456 80.8203 74.75V64.25C80.8203 63.4544 80.5042 62.6913 79.9416 62.1287C79.379 61.5661 78.616 61.25 77.8203 61.25H62.8203ZM66.9453 64.25C66.3486 64.25 65.7763 64.4871 65.3543 64.909C64.9324 65.331 64.6953 65.9033 64.6953 66.5C64.6953 67.0967 64.9324 67.669 65.3543 68.091C65.7763 68.5129 66.3486 68.75 66.9453 68.75C67.542 68.75 68.1143 68.5129 68.5363 68.091C68.9583 67.669 69.1953 67.0967 69.1953 66.5C69.1953 65.9033 68.9583 65.331 68.5363 64.909C68.1143 64.4871 67.542 64.25 66.9453 64.25V64.25ZM63.0723 72.953C63.3635 72.1601 63.8911 71.4757 64.5837 70.9923C65.2763 70.5088 66.1006 70.2496 66.9453 70.2496C67.79 70.2496 68.6143 70.5088 69.3069 70.9923C69.9995 71.4757 70.5271 72.1601 70.8183 72.953C70.8806 73.1229 70.8794 73.3096 70.8149 73.4787C70.7504 73.6477 70.627 73.7878 70.4673 73.873C69.3833 74.4504 68.1736 74.7517 66.9453 74.75C65.7171 74.7517 64.5074 74.4504 63.4233 73.873C63.2637 73.7878 63.1402 73.6477 63.0757 73.4787C63.0112 73.3096 63.01 73.1229 63.0723 72.953V72.953ZM73.3203 65.75C73.1214 65.75 72.9306 65.829 72.79 65.9697C72.6493 66.1103 72.5703 66.3011 72.5703 66.5C72.5703 66.6989 72.6493 66.8897 72.79 67.0303C72.9306 67.171 73.1214 67.25 73.3203 67.25H77.0703C77.2692 67.25 77.46 67.171 77.6006 67.0303C77.7413 66.8897 77.8203 66.6989 77.8203 66.5C77.8203 66.3011 77.7413 66.1103 77.6006 65.9697C77.46 65.829 77.2692 65.75 77.0703 65.75H73.3203ZM72.5703 69.5C72.5703 69.3011 72.6493 69.1103 72.79 68.9697C72.9306 68.829 73.1214 68.75 73.3203 68.75H77.0703C77.2692 68.75 77.46 68.829 77.6006 68.9697C77.7413 69.1103 77.8203 69.3011 77.8203 69.5C77.8203 69.6989 77.7413 69.8897 77.6006 70.0303C77.46 70.171 77.2692 70.25 77.0703 70.25H73.3203C73.1214 70.25 72.9306 70.171 72.79 70.0303C72.6493 69.8897 72.5703 69.6989 72.5703 69.5ZM73.3203 71.75C73.1214 71.75 72.9306 71.829 72.79 71.9697C72.6493 72.1103 72.5703 72.3011 72.5703 72.5C72.5703 72.6989 72.6493 72.8897 72.79 73.0303C72.9306 73.171 73.1214 73.25 73.3203 73.25H77.0703C77.2692 73.25 77.46 73.171 77.6006 73.0303C77.7413 72.8897 77.8203 72.6989 77.8203 72.5C77.8203 72.3011 77.7413 72.1103 77.6006 71.9697C77.46 71.829 77.2692 71.75 77.0703 71.75H73.3203Z" fill="white"/>
</g>
<defs>
<clipPath id="clip0_3942_416662">
<rect width="140.647" height="140.647" rx="70.3237" fill="white"/>
</clipPath>
</defs>
</svg>
