<svg width="19" height="11" viewBox="0 0 19 11" fill="none" xmlns="http://www.w3.org/2000/svg">
<g clip-path="url(#clip0_2795_436864)">
<path d="M9.37856 1.69129C4.73398 2.17945 1.15343 4.33232 1.38124 6.49976C1.60905 8.66723 5.55896 10.0286 10.2035 9.54041C14.8481 9.05225 18.4287 6.89938 18.2009 4.73194C17.973 2.56447 14.0231 1.20312 9.37856 1.69129ZM10.1384 8.92084C5.86044 9.37047 2.23695 8.25529 2.0451 6.42998C1.85326 4.60468 5.16574 2.76049 9.44368 2.31086C13.7216 1.86123 17.3451 2.97642 17.537 4.80172C17.7288 6.62702 14.4164 8.47121 10.1384 8.92084ZM8.65811 5.0388L8.59297 4.4191L10.9655 4.16974L11.0306 4.78944L10.1765 4.87922L10.3863 6.87595L9.72224 6.94575L9.51238 4.94902L8.65811 5.0388V5.0388ZM13.8292 3.86875L14.1043 6.48522L13.4404 6.55499L12.0727 5.12398L12.2364 6.68154L11.5725 6.75132L11.2975 4.13485L11.9613 4.06507L13.3291 5.49609L13.1654 3.93852L13.8292 3.86875V3.86875ZM5.73307 7.36506L5.45807 4.74859L6.12194 4.67882L6.97079 5.6602L7.59706 4.52378L8.26065 4.45403L8.53565 7.0705L7.87206 7.14025L7.71651 5.66031L7.28891 6.43562L6.82085 6.48481L6.24139 5.81535L6.39694 7.29529L5.73307 7.36506V7.36506Z" fill="black"/>
</g>
<defs>
<clipPath id="clip0_2795_436864">
<rect width="16.9123" height="7.89239" fill="white" transform="translate(0.96875 2.5752) rotate(-6)"/>
</clipPath>
</defs>
</svg>
