<svg width="20" height="20" viewBox="0 0 20 20" fill="none" xmlns="http://www.w3.org/2000/svg">
<mask id="mask0_2420_429478" style="mask-type:alpha" maskUnits="userSpaceOnUse" x="0" y="0" width="20" height="20">
<rect width="20" height="20" fill="#D9D9D9"/>
</mask>
<g mask="url(#mask0_2420_429478)">
<path d="M8.83333 13.3752L14.7083 7.50016L13.5417 6.3335L8.83333 11.0418L6.45833 8.66683L5.29167 9.8335L8.83333 13.3752ZM4.16667 17.5002C3.70833 17.5002 3.31583 17.3371 2.98917 17.011C2.66306 16.6843 2.5 16.2918 2.5 15.8335V4.16683C2.5 3.7085 2.66306 3.316 2.98917 2.98933C3.31583 2.66322 3.70833 2.50016 4.16667 2.50016H7.66667C7.84722 2.00016 8.14944 1.59738 8.57333 1.29183C8.99667 0.986274 9.47222 0.833496 10 0.833496C10.5278 0.833496 11.0036 0.986274 11.4275 1.29183C11.8508 1.59738 12.1528 2.00016 12.3333 2.50016H15.8333C16.2917 2.50016 16.6842 2.66322 17.0108 2.98933C17.3369 3.316 17.5 3.7085 17.5 4.16683V15.8335C17.5 16.2918 17.3369 16.6843 17.0108 17.011C16.6842 17.3371 16.2917 17.5002 15.8333 17.5002H4.16667ZM10 3.54183C10.1806 3.54183 10.33 3.48266 10.4483 3.36433C10.5661 3.24655 10.625 3.09738 10.625 2.91683C10.625 2.73627 10.5661 2.58683 10.4483 2.4685C10.33 2.35072 10.1806 2.29183 10 2.29183C9.81944 2.29183 9.67028 2.35072 9.5525 2.4685C9.43417 2.58683 9.375 2.73627 9.375 2.91683C9.375 3.09738 9.43417 3.24655 9.5525 3.36433C9.67028 3.48266 9.81944 3.54183 10 3.54183Z" fill="#00AA61"/>
</g>
</svg>
