<svg width="25" height="25" viewBox="0 0 25 25" fill="none" xmlns="http://www.w3.org/2000/svg">
<path fill-rule="evenodd" clip-rule="evenodd" d="M4.51562 3.76807C3.71998 3.76807 2.95691 4.08414 2.3943 4.64675C1.8317 5.20936 1.51563 5.97242 1.51562 6.76807V17.2681C1.51563 18.0637 1.8317 18.8268 2.3943 19.3894C2.95691 19.952 3.71998 20.2681 4.51562 20.2681H19.5156C20.3113 20.2681 21.0743 19.952 21.6369 19.3894C22.1996 18.8268 22.5156 18.0637 22.5156 17.2681V6.76807C22.5156 5.97242 22.1996 5.20936 21.6369 4.64675C21.0743 4.08414 20.3113 3.76807 19.5156 3.76807H4.51562ZM8.64062 6.76807C8.04389 6.76807 7.47159 7.00512 7.04963 7.42708C6.62768 7.84903 6.39062 8.42133 6.39062 9.01807C6.39062 9.6148 6.62768 10.1871 7.04963 10.6091C7.47159 11.031 8.04389 11.2681 8.64062 11.2681C9.23736 11.2681 9.80966 11.031 10.2316 10.6091C10.6536 10.1871 10.8906 9.6148 10.8906 9.01807C10.8906 8.42133 10.6536 7.84903 10.2316 7.42708C9.80966 7.00512 9.23736 6.76807 8.64062 6.76807ZM4.76762 15.4711C5.05885 14.6782 5.58641 13.9938 6.27903 13.5103C6.97165 13.0269 7.79596 12.7677 8.64062 12.7677C9.48529 12.7677 10.3096 13.0269 11.0022 13.5103C11.6948 13.9938 12.2224 14.6782 12.5136 15.4711C12.576 15.641 12.5748 15.8277 12.5103 15.9967C12.4457 16.1658 12.3223 16.3059 12.1626 16.3911C11.0786 16.9685 9.86887 17.2697 8.64062 17.2681C7.41238 17.2697 6.20267 16.9685 5.11863 16.3911C4.95897 16.3059 4.83551 16.1658 4.771 15.9967C4.70649 15.8277 4.70529 15.641 4.76762 15.4711ZM15.0156 8.26807C14.8167 8.26807 14.6259 8.34708 14.4853 8.48774C14.3446 8.62839 14.2656 8.81915 14.2656 9.01807C14.2656 9.21698 14.3446 9.40774 14.4853 9.5484C14.6259 9.68905 14.8167 9.76807 15.0156 9.76807H18.7656C18.9645 9.76807 19.1553 9.68905 19.296 9.5484C19.4366 9.40774 19.5156 9.21698 19.5156 9.01807C19.5156 8.81915 19.4366 8.62839 19.296 8.48774C19.1553 8.34708 18.9645 8.26807 18.7656 8.26807H15.0156ZM14.2656 12.0181C14.2656 11.8192 14.3446 11.6284 14.4853 11.4877C14.6259 11.3471 14.8167 11.2681 15.0156 11.2681H18.7656C18.9645 11.2681 19.1553 11.3471 19.296 11.4877C19.4366 11.6284 19.5156 11.8192 19.5156 12.0181C19.5156 12.217 19.4366 12.4077 19.296 12.5484C19.1553 12.689 18.9645 12.7681 18.7656 12.7681H15.0156C14.8167 12.7681 14.6259 12.689 14.4853 12.5484C14.3446 12.4077 14.2656 12.217 14.2656 12.0181ZM15.0156 14.2681C14.8167 14.2681 14.6259 14.3471 14.4853 14.4877C14.3446 14.6284 14.2656 14.8192 14.2656 15.0181C14.2656 15.217 14.3446 15.4077 14.4853 15.5484C14.6259 15.689 14.8167 15.7681 15.0156 15.7681H18.7656C18.9645 15.7681 19.1553 15.689 19.296 15.5484C19.4366 15.4077 19.5156 15.217 19.5156 15.0181C19.5156 14.8192 19.4366 14.6284 19.296 14.4877C19.1553 14.3471 18.9645 14.2681 18.7656 14.2681H15.0156Z" fill="#00AA61"/>
</svg>
