<svg width="191" height="64" viewBox="0 0 191 64" fill="none" xmlns="http://www.w3.org/2000/svg">
<path d="M51.3849 40.7009C51.0052 39.4669 50.5069 38.2091 49.9136 36.9514C49.8187 37.0938 42.8892 46.7287 27.3689 55.9127C27.4401 55.9602 27.535 56.0076 27.6062 56.0551C27.8198 56.1738 28.0096 56.2924 28.2232 56.3874C28.4368 56.506 28.6741 56.6247 28.8877 56.7196C29.9081 57.2417 30.9286 57.6926 31.9016 58.0723C32.1151 58.1672 32.3287 58.2384 32.5423 58.3096C32.566 58.3096 32.5898 58.3333 32.6135 58.3333C32.8508 58.4283 33.0881 58.4995 33.3254 58.5706C34.5832 58.9741 35.841 59.2588 37.0038 59.425C37.2411 59.4487 37.4784 59.4962 37.7157 59.5199C38.0717 59.5436 38.3802 59.5674 38.665 59.5911C38.8786 59.5911 39.0921 59.6148 39.282 59.6148C42.1772 59.6148 44.5503 58.7368 46.2353 57.0756L49.795 53.5159C52.5478 50.763 53.0936 46.2066 51.3849 40.7009ZM32.6135 56.8383C32.5423 56.8145 32.4711 56.7908 32.3762 56.7433C31.4981 56.4111 30.8336 56.1738 29.9081 55.7229L33.3017 53.5396C33.3966 53.5871 34.1798 53.9668 34.251 54.0142C34.3933 54.0854 34.5595 54.1329 34.7019 54.2041C34.8205 54.2515 34.9392 54.299 35.0578 54.3465L32.6135 56.8383ZM37.5259 58.096C37.4072 58.0723 37.3123 58.0723 37.1936 58.0485C36.1969 57.9062 35.1528 57.6688 34.0849 57.3366L36.5529 54.8685C36.6953 54.916 36.8377 54.9635 36.9801 55.0109C37.1224 55.0584 37.2648 55.1059 37.4072 55.1296C37.5496 55.1771 37.6683 55.2008 37.8107 55.2483H37.8344C37.9768 55.2957 38.1192 55.3194 38.2616 55.3669C38.5463 55.4381 38.8074 55.5093 39.0921 55.5568C39.2108 55.5805 39.3295 55.6042 39.4481 55.6279C39.5668 55.6517 39.6617 55.6754 39.7804 55.6991C39.8278 55.6991 39.8516 55.7229 39.899 55.7229L37.5259 58.096ZM45.2623 56.0788C43.8859 57.4553 41.8687 58.1909 39.4006 58.2147L41.6314 55.9839C41.6788 55.9839 41.7263 55.9839 41.7975 56.0077C41.8924 56.0077 42.0111 56.0314 42.106 56.0314C42.2484 56.0314 42.3671 56.0551 42.5095 56.0551C42.6281 56.0551 42.7705 56.0551 42.8892 56.0551C42.9366 56.0551 42.9841 56.0551 43.0553 56.0551C43.1027 56.0551 43.1739 56.0551 43.2214 56.0551H43.2689C43.3875 56.0551 43.4824 56.0551 43.6011 56.0314C43.6248 56.0314 43.6248 56.0314 43.6485 56.0314C43.7672 56.0314 43.8621 56.0077 43.9808 56.0077C44.0994 56.0077 44.1944 55.9839 44.313 55.9839C44.313 55.9839 44.313 55.9839 44.3368 55.9839C44.5741 55.9602 44.7877 55.9365 45.0012 55.889C45.0962 55.8653 45.2148 55.8415 45.3097 55.8415C45.4284 55.8178 45.5233 55.7941 45.642 55.7703L45.2623 56.0788ZM58.1721 16.2814C56.1787 13.4573 51.9782 13.4336 48.822 13.9082C44.8114 14.5015 39.8515 16.2339 34.512 18.9393C34.4883 18.963 34.2984 19.0342 34.2747 19.0579C34.2272 19.0105 34.156 18.9867 34.1086 18.9393C31.1184 16.9221 28.0571 15.3796 25.0907 14.454C19.585 12.7216 15.0523 13.2675 12.3232 16.0203L8.76354 19.58C6.9837 21.3599 6.10565 23.994 6.22431 27.1503C6.22431 27.4588 6.24803 27.7673 6.2955 28.1233C6.2955 28.147 6.2955 28.1708 6.2955 28.1708C6.31923 28.3843 6.34296 28.5979 6.36669 28.8353L6.46162 29.4997C6.58027 30.1405 6.88877 31.3508 7.10235 32.0864L7.22101 32.4661V32.4899C7.2922 32.7035 7.3634 32.9408 7.45832 33.2256C7.45832 33.2493 7.48206 33.273 7.48206 33.2967C7.57699 33.5341 7.64818 33.7476 7.71937 33.9375C8.09907 34.9342 8.54997 35.9547 9.07206 36.9751C9.11952 37.0463 9.14325 37.1412 9.19072 37.2124C9.23818 37.3073 9.28564 37.4023 9.3331 37.4972C5.79714 41.1993 3.13923 44.8065 1.64415 47.939C-0.61032 52.6141 0.172822 55.3432 1.19327 56.7908C2.61715 58.808 5.18012 59.4012 7.67191 59.4012C8.66862 59.4012 9.6416 59.3063 10.5434 59.1639C14.5065 58.5706 19.3714 56.8857 24.6161 54.2515C24.6873 54.2041 24.7822 54.1803 24.8534 54.1329C24.8534 54.1329 24.8771 54.1329 24.8771 54.1091C24.9008 54.1091 24.9008 54.0854 24.9008 54.0854C25.1144 53.9668 25.328 53.8718 25.5416 53.7532C25.6602 53.682 25.8026 53.6108 25.945 53.5396C25.9687 53.5159 25.9925 53.5159 26.0399 53.4921C26.1111 53.4447 26.1823 53.4209 26.2773 53.3735C26.7519 53.1124 27.2502 52.8514 27.7486 52.5903C28.3419 52.2581 28.9589 51.9021 29.5759 51.5462C29.6471 51.4987 29.7183 51.475 29.7895 51.4275C29.8132 51.4038 29.8607 51.38 29.8844 51.38C30.0742 51.2614 30.2641 51.1427 30.454 51.0478C30.6675 50.9054 30.9049 50.7868 31.1184 50.6444C32.0677 50.0748 32.9932 49.4815 33.9424 48.8645L34.2747 48.6509C35.1765 48.0577 36.0783 47.4406 36.9563 46.7999C40.516 44.2606 43.8147 41.579 46.8048 38.8024C47.7303 37.9244 48.6321 37.0463 49.4864 36.1682C49.5102 36.1445 49.5102 36.1208 49.5339 36.1208C49.6051 36.0496 49.6763 35.9784 49.7475 35.9072C53.4021 32.1102 56.155 28.4081 57.6975 25.1806C59.9757 20.4581 59.1926 17.7527 58.1721 16.2814ZM21.5784 45.2811C21.7208 45.3997 21.8395 45.5421 21.9819 45.6608C22.3378 45.993 22.6938 46.3253 23.0498 46.6338C23.2159 46.7762 23.382 46.9423 23.5482 47.0847C23.6193 47.1321 23.6668 47.2033 23.738 47.2508L21.1513 49.8375L21.1038 49.8138C20.3681 49.173 19.6325 48.5085 18.9443 47.8441L21.531 45.2573C21.5547 45.2573 21.5784 45.2811 21.5784 45.2811ZM18.5883 42.1011C18.6358 42.1485 18.6595 42.196 18.707 42.2435L18.7307 42.2909C18.7544 42.3384 18.8019 42.3621 18.8256 42.3859C18.8493 42.4096 18.8968 42.4571 18.9205 42.4808C19.0155 42.5994 19.1341 42.7181 19.2528 42.8368C19.3714 42.9554 19.4664 43.0741 19.585 43.1927C19.6325 43.2402 19.6562 43.2877 19.7037 43.3114C19.8461 43.4538 19.9885 43.5961 20.1071 43.7623C20.2732 43.9284 20.4156 44.0945 20.5817 44.2606L17.995 46.8473C17.3305 46.1591 16.6661 45.4472 16.0253 44.6878C16.0253 44.6641 16.0016 44.6641 16.0016 44.6641L18.5883 42.1011C18.5646 42.0773 18.5646 42.0773 18.5883 42.1011ZM16.0728 38.9448C16.1203 38.9923 16.1677 39.0635 16.1915 39.1109C16.3101 39.277 16.4288 39.4194 16.5474 39.5856C16.6423 39.7279 16.761 39.8703 16.8559 40.0127C16.9271 40.1076 17.022 40.2026 17.0932 40.3212C17.2119 40.4636 17.3305 40.6297 17.4492 40.7721C17.5204 40.8671 17.5916 40.9382 17.6628 41.0332L15.0998 43.5961C14.4828 42.8367 13.8895 42.0536 13.3437 41.2942C13.32 41.2705 13.2962 41.2467 13.2962 41.1993L15.8592 38.6363C15.9304 38.7312 16.0016 38.8499 16.0728 38.9448ZM13.7234 35.3376C13.842 35.5512 13.9607 35.7648 14.1031 35.9784C14.2217 36.192 14.3641 36.4056 14.4828 36.6191C14.5065 36.6429 14.5065 36.6666 14.5303 36.6903C14.554 36.7141 14.554 36.7378 14.5777 36.7615C14.6014 36.7852 14.6252 36.8327 14.6489 36.8564C14.6726 36.8802 14.6964 36.9276 14.7201 36.9514C14.8388 37.1412 14.9574 37.3073 15.0761 37.4735L12.5131 40.0364C12.2521 39.633 11.991 39.2296 11.7537 38.8499C11.7537 38.8499 11.7537 38.8499 11.7774 38.8261L11.73 38.7787C11.4926 38.3752 11.2553 37.9718 11.0418 37.5684C11.018 37.5209 10.9943 37.4735 10.9706 37.426L13.5098 34.8867C13.5335 35.0291 13.6285 35.1952 13.7234 35.3376ZM9.76026 20.553L10.0925 20.2208V20.2445C10.0688 20.3394 10.045 20.4106 10.045 20.5055C10.0213 20.5767 10.0213 20.6717 9.99757 20.7428C9.99757 20.7666 9.99757 20.7666 9.99757 20.7903C9.97384 20.8378 9.97385 20.909 9.97385 20.9564C9.95012 21.0276 9.95011 21.0988 9.95011 21.17C9.95011 21.2412 9.92638 21.3124 9.92638 21.4073C9.92638 21.4548 9.90266 21.5023 9.90266 21.5734C9.87892 21.7633 9.85519 21.9532 9.85519 22.143C9.85519 22.2142 9.85518 22.3091 9.83145 22.3803C9.80772 22.7363 9.80772 23.0923 9.83145 23.4482C9.83145 23.5194 9.83145 23.5906 9.83145 23.6618C9.83145 23.7567 9.83146 23.8279 9.85519 23.9229C9.85519 24.0178 9.87892 24.1364 9.87892 24.2551L7.64818 26.4858C7.62445 23.9703 8.36011 21.9294 9.76026 20.553ZM8.07534 30.1879C8.02788 29.8557 7.79056 28.503 7.7431 28.2657L10.0688 25.94C10.2586 27.0079 10.5434 28.1233 10.9231 29.2624L8.47878 31.7067C8.36012 31.2558 8.194 30.6863 8.07534 30.1879ZM9.04832 33.4154C9.02459 33.3442 9.00087 33.273 8.9534 33.2018L11.4452 30.71C11.4927 30.8287 11.5401 30.9236 11.5876 31.0423C11.8486 31.7067 12.1571 32.3712 12.4894 33.0357C12.5606 33.1781 12.6318 33.3205 12.7029 33.4629C12.7267 33.5103 12.7504 33.5341 12.7741 33.5815L10.2349 36.097C9.78399 35.219 9.38056 34.2935 9.04832 33.4154ZM2.87818 53.1599V53.0887C2.87818 53.1124 2.87818 53.1362 2.87818 53.1599ZM3.18669 51.3563C3.18669 51.3088 3.21043 51.2851 3.21043 51.2376C3.21043 51.2851 3.21042 51.3088 3.18669 51.3563ZM13.9844 54.7024C13.2488 54.7974 12.4656 54.8923 11.6588 54.8923C9.6416 54.8923 7.57699 54.4177 6.41415 52.8039C5.58356 51.6411 4.96654 49.4578 6.77012 45.6845C7.55325 44.0945 8.69235 42.3384 10.1637 40.5111C9.64161 41.1044 9.14325 41.6739 8.66863 42.2197C9.28564 41.4603 9.97385 40.6772 10.7333 39.8703C10.9468 40.2263 11.1604 40.5585 11.3977 40.9145C11.5164 41.1044 11.6588 41.2942 11.8012 41.5078C11.8012 41.5078 11.8012 41.5078 11.8012 41.5315C11.9435 41.7214 12.0622 41.9112 12.2046 42.1011C12.7741 42.9079 13.3912 43.7148 14.0556 44.5217C14.198 44.7115 14.3641 44.8776 14.5065 45.0675C14.6489 45.2573 14.815 45.4235 14.9574 45.6133C15.6219 46.3727 16.3101 47.1321 16.9983 47.8441C17.1644 48.0102 17.3306 48.1763 17.4967 48.3424C17.6628 48.5085 17.8289 48.6747 17.995 48.8408C18.707 49.529 19.4426 50.2172 20.2258 50.8817C20.4156 51.0478 20.5817 51.1902 20.7716 51.3326C20.9614 51.475 21.1276 51.6411 21.3174 51.7835C21.531 51.9733 21.7683 52.1394 22.0056 52.3293C19.0392 53.5396 16.3101 54.3465 13.9844 54.7024ZM26.7282 50.0748C26.657 50.0986 26.6095 50.146 26.5383 50.1697C26.5146 50.1935 26.4908 50.1935 26.4671 50.2172C26.3722 50.2647 26.2535 50.3359 26.1586 50.3833C25.9925 50.4782 25.8026 50.5494 25.6365 50.6444C25.6365 50.6444 25.6128 50.6444 25.6128 50.6681C25.6128 50.6681 25.589 50.6681 25.589 50.6918C25.5178 50.7156 25.4704 50.763 25.3992 50.7868C24.7347 51.119 24.094 51.4275 23.4532 51.7123C23.0498 51.4038 22.6464 51.0953 22.2429 50.7868L24.8296 48.2C24.9246 48.2712 24.9958 48.3424 25.0907 48.4136C25.2093 48.5085 25.328 48.6035 25.4704 48.6984C25.589 48.7933 25.7077 48.8882 25.8501 48.9832C25.9213 49.0306 25.9925 49.1018 26.0637 49.1493C26.1349 49.1968 26.2061 49.2442 26.2773 49.3154C26.301 49.3391 26.3247 49.3629 26.3484 49.3629C26.3959 49.3866 26.4434 49.4341 26.4671 49.4578C26.5383 49.5053 26.6095 49.5527 26.6807 49.6239C26.7756 49.6951 26.8705 49.7663 26.9655 49.8375C27.0129 49.8612 27.0604 49.9087 27.1078 49.9324C26.9417 49.9562 26.8468 50.0036 26.7282 50.0748ZM52.1681 27.4114C51.2663 29.2861 49.8424 31.3508 48.0151 33.5103C48.0151 33.4866 47.9914 33.4866 47.9914 33.4629C46.1641 30.449 43.8147 27.4826 41.0856 24.7535C39.6854 23.3533 38.2378 22.0718 36.7427 20.8852C39.7803 19.6038 42.5806 18.7494 44.9538 18.3935C47.5167 18.0138 50.8866 18.0375 52.5241 20.292C53.3784 21.4548 53.9954 23.6381 52.1681 27.4114ZM31.0472 5.74463V4.81911C33.4204 4.81911 35.3663 2.87314 35.3663 0.5H36.2918C36.2918 2.87314 38.2378 4.81911 40.611 4.81911V5.74463C38.2378 5.74463 36.2918 7.6906 36.2918 10.0637H35.3663C35.3663 7.6906 33.4204 5.74463 31.0472 5.74463Z" fill="#00FF91"/>
<path d="M89.5919 45.0673C86.2458 45.0673 83.3981 44.3554 81.0487 42.9552C78.6756 41.5551 76.872 39.5616 75.5668 36.9986C74.2853 34.4357 73.6445 31.4218 73.6445 27.957C73.6445 24.4922 74.2853 21.4783 75.5668 18.9153C76.8483 16.3524 78.6756 14.3827 81.0487 12.9588C83.3981 11.5586 86.2696 10.8467 89.5919 10.8467C92.8906 10.8467 95.7384 11.5586 98.1115 12.9588C100.485 14.3589 102.312 16.3524 103.593 18.9153C104.875 21.4783 105.492 24.4922 105.492 27.957C105.492 31.4218 104.851 34.4357 103.593 36.9986C102.312 39.5616 100.508 41.5313 98.1115 42.9552C95.7146 44.3791 92.8906 45.0673 89.5919 45.0673ZM89.5919 37.8767C91.4667 37.8767 93.0093 37.5919 94.1721 36.9986C95.3349 36.4291 96.213 35.4086 96.7588 33.9848C97.3046 32.5371 97.5657 30.5437 97.5657 27.957C97.5657 25.3465 97.3046 23.3294 96.7588 21.9055C96.213 20.4816 95.3587 19.4849 94.1721 18.9153C93.0093 18.3458 91.4667 18.0373 89.5919 18.0373C87.6697 18.0373 86.1272 18.3221 84.9643 18.9153C83.8015 19.4849 82.9235 20.4816 82.3777 21.9055C81.8318 23.3294 81.5708 25.3465 81.5708 27.957C81.5708 30.5437 81.8318 32.5371 82.3777 33.9848C82.9235 35.4324 83.7778 36.4291 84.9643 36.9986C86.1272 37.5919 87.6697 37.8767 89.5919 37.8767Z" fill="white"/>
<path d="M116.74 44.5693H109.359V19.6514H116.241V26.7471L116.74 26.9844V44.5693ZM116.74 28.9778H115.363V23.6857H116.55C117.167 22.428 118.069 21.36 119.208 20.482C120.347 19.6039 121.795 19.1768 123.551 19.1768C125.307 19.1768 126.707 19.5565 127.727 20.3396C128.772 21.1227 129.507 22.1669 129.982 23.5196C130.433 24.8485 130.67 26.3674 130.67 28.0523V30.3305H123.29V28.9778C123.29 27.6251 123.052 26.6996 122.601 26.2012C122.127 25.7029 121.32 25.4656 120.133 25.4656C119.018 25.4656 118.164 25.7029 117.618 26.2012C117.001 26.6996 116.74 27.6251 116.74 28.9778Z" fill="white"/>
<path d="M140.663 44.5693H133.781V11.3691H141.162V38.6602L140.663 39.301V44.5693ZM149.088 45.0677C147.142 45.0677 145.457 44.7117 144.033 43.9998C142.609 43.2878 141.565 42.2674 140.901 40.9147H139.856L140.212 34.1275H141.162C141.162 35.2192 141.375 36.0972 141.802 36.7854C142.23 37.4736 142.847 37.9483 143.653 38.2805C144.46 38.589 145.457 38.7551 146.644 38.7551C147.712 38.7551 148.59 38.6127 149.302 38.3517C150.013 38.0907 150.583 37.6872 150.986 37.1651C151.39 36.643 151.698 35.9548 151.864 35.1005C152.031 34.2699 152.102 33.2732 152.102 32.1578C152.102 31.0424 152.031 30.0457 151.864 29.2151C151.698 28.3845 151.414 27.6726 150.986 27.1268C150.583 26.5809 150.013 26.1775 149.302 25.9165C148.59 25.6554 147.712 25.513 146.644 25.513C145.457 25.513 144.46 25.6792 143.653 25.9877C142.847 26.2962 142.23 26.7945 141.802 27.459C141.375 28.1235 141.162 29.0016 141.162 30.1407H140.212L139.856 23.1636H141.446C142.016 22.0957 142.942 21.1702 144.247 20.3871C145.552 19.6039 147.142 19.2005 149.017 19.2005C152.458 19.2005 155.044 20.3633 156.824 22.7127C158.58 25.0621 159.482 28.2184 159.482 32.1815C159.482 36.0735 158.604 39.206 156.824 41.5792C155.068 43.8811 152.482 45.0677 149.088 45.0677Z" fill="white"/>
<path d="M170.138 16.8274H162.853L162.758 11.3691H170.138V16.8274ZM170.281 44.5693H162.853V19.6514H170.281V44.5693Z" fill="white"/>
<path d="M190.806 25.7972H172.367V19.6508H190.806V25.7972ZM185.941 44.6637C182.714 44.6637 180.293 44.0229 178.703 42.7414C177.113 41.4599 176.33 39.3478 176.33 36.4051V20.4102L177.92 13.8604H183.758V35.5508C183.758 36.6425 184.019 37.3069 184.541 37.5917C185.063 37.8528 186.131 37.9951 187.721 37.9951H190.783V44.189C190.189 44.3314 189.454 44.4263 188.576 44.545C187.721 44.6162 186.843 44.6637 185.941 44.6637Z" fill="white"/>
<path d="M81.6052 51.5368H75.9006V50.5467C75.9006 49.5881 76.5292 48.9909 77.4878 48.9909C77.7864 48.9909 78.2264 49.0538 78.6193 49.1324L78.855 47.8123C78.2736 47.6552 77.7864 47.5766 77.2992 47.5766C75.5549 47.5766 74.282 48.7081 74.282 50.5467V51.5368H72.1919V52.904H74.282V58.9229H75.9006V52.904H79.9865V58.9229H81.6052V51.5368ZM87.9031 51.3482C86.9602 51.3482 86.1587 51.6468 85.5144 52.1968V51.5368H83.88V58.9229H85.5144V53.9412C86.0959 53.2183 86.8659 52.8254 87.5731 52.8254C88.7674 52.8254 89.4903 53.5483 89.4903 54.8998V58.9229H91.1247V54.8055C91.1247 52.6683 89.8203 51.3482 87.9031 51.3482ZM98.9319 51.5368V52.1182C98.3033 51.6311 97.5018 51.3482 96.5589 51.3482C94.4845 51.3482 92.8187 53.0769 92.8187 55.2298C92.8187 57.3828 94.4845 59.1114 96.5589 59.1114C97.5018 59.1114 98.3033 58.8286 98.9319 58.3414V58.9229H100.551V51.5368H98.9319ZM96.7946 57.6342C95.4431 57.6342 94.4531 56.5499 94.4531 55.2298C94.4531 53.9097 95.4431 52.8254 96.7946 52.8254C97.6118 52.8254 98.3819 53.1083 98.9319 53.894V56.5656C98.3819 57.3513 97.6118 57.6342 96.7946 57.6342ZM106.841 51.3482C105.898 51.3482 105.097 51.6468 104.452 52.1968V51.5368H102.818V58.9229H104.452V53.9412C105.034 53.2183 105.804 52.8254 106.511 52.8254C107.705 52.8254 108.428 53.5483 108.428 54.8998V58.9229H110.063V54.8055C110.063 52.6683 108.758 51.3482 106.841 51.3482ZM115.654 57.6342C114.287 57.6342 113.391 56.5656 113.391 55.2298C113.391 53.894 114.287 52.8254 115.654 52.8254C116.644 52.8254 117.383 53.3912 117.587 54.2241H119.253C118.986 52.5268 117.508 51.3482 115.654 51.3482C113.438 51.3482 111.757 53.0454 111.757 55.2298C111.757 57.4299 113.438 59.1114 115.654 59.1114C117.508 59.1114 118.986 57.9328 119.253 56.2356H117.587C117.383 57.0685 116.644 57.6342 115.654 57.6342ZM124.599 51.3482C122.352 51.3482 120.796 53.0454 120.796 55.2298C120.796 57.4299 122.367 59.1114 124.693 59.1114C126.296 59.1114 127.6 58.3257 128.072 56.9899H126.28C125.982 57.4614 125.432 57.6814 124.709 57.6814C123.326 57.6814 122.619 56.8327 122.462 55.717H128.26C128.575 53.2183 127.05 51.3482 124.599 51.3482ZM124.615 52.7311C125.762 52.7311 126.548 53.3754 126.642 54.5855H122.493C122.682 53.5483 123.389 52.7311 124.615 52.7311Z" fill="white"/>
</svg>
