<svg width="65" height="65" viewBox="0 0 65 65" fill="none" xmlns="http://www.w3.org/2000/svg">
<g filter="url(#filter0_i_2285_59272)">
<g clip-path="url(#clip0_2285_59272)">
<rect x="0.5" y="0.599609" width="64" height="64" rx="32" fill="#FDF5EC"/>
<rect x="-6.69059" y="11.4285" width="57.9901" height="55.8074" rx="4.82273" fill="url(#paint0_linear_2285_59272)" stroke="url(#paint1_linear_2285_59272)" stroke-width="0.459307"/>
<rect x="18.1063" y="-16.2453" width="57.9901" height="55.8074" rx="4.82273" fill="url(#paint2_linear_2285_59272)" stroke="url(#paint3_linear_2285_59272)" stroke-width="0.459307"/>
<g filter="url(#filter1_d_2285_59272)">
<path fill-rule="evenodd" clip-rule="evenodd" d="M23.4996 28.0996C23.4996 25.7127 24.4478 23.4235 26.1357 21.7356C27.8235 20.0478 30.1127 19.0996 32.4996 19.0996C34.8866 19.0996 37.1758 20.0478 38.8636 21.7356C40.5514 23.4235 41.4996 25.7127 41.4996 28.0996V29.0996C41.4996 31.9303 42.5663 34.5089 44.3236 36.4596C44.4331 36.5809 44.5112 36.7272 44.551 36.8857C44.5909 37.0442 44.5913 37.21 44.5522 37.3687C44.5131 37.5273 44.4358 37.674 44.3269 37.7958C44.218 37.9177 44.0809 38.011 43.9276 38.0676C41.869 38.8276 39.7143 39.3876 37.4863 39.7249C37.5365 40.4105 37.4447 41.099 37.2169 41.7474C36.989 42.3959 36.6299 42.9905 36.1619 43.4939C35.694 43.9974 35.1272 44.3989 34.4971 44.6735C33.867 44.9481 33.187 45.0898 32.4996 45.0898C31.8123 45.0898 31.1323 44.9481 30.5022 44.6735C29.8721 44.3989 29.3053 43.9974 28.8374 43.4939C28.3694 42.9905 28.0103 42.3959 27.7824 41.7474C27.5545 41.099 27.4628 40.4105 27.513 39.7249C25.3152 39.3919 23.157 38.8361 21.0716 38.0663C20.9185 38.0097 20.7815 37.9166 20.6727 37.7949C20.5638 37.6732 20.4864 37.5267 20.4472 37.3682C20.408 37.2097 20.4082 37.0441 20.4478 36.8857C20.4874 36.7273 20.5652 36.581 20.6743 36.4596C22.4967 34.4418 23.5037 31.8185 23.4996 29.0996V28.0996ZM29.5023 39.9663C29.4852 40.3705 29.5501 40.7741 29.6931 41.1526C29.836 41.5311 30.0541 41.8768 30.3341 42.1689C30.6141 42.4609 30.9503 42.6934 31.3224 42.8521C31.6946 43.0109 32.095 43.0927 32.4996 43.0927C32.9043 43.0927 33.3047 43.0109 33.6768 42.8521C34.049 42.6934 34.3852 42.4609 34.6652 42.1689C34.9452 41.8768 35.1633 41.5311 35.3062 41.1526C35.4491 40.7741 35.514 40.3705 35.497 39.9663C33.5028 40.1459 31.4965 40.1459 29.5023 39.9663Z" fill="#F2AB6A" shape-rendering="crispEdges"/>
<path d="M44.0012 38.2668L44.0012 38.2668C44.187 38.1982 44.3532 38.085 44.4852 37.9373C44.6172 37.7896 44.711 37.6118 44.7584 37.4194C44.8057 37.2271 44.8053 37.026 44.757 36.8339C44.7087 36.6419 44.6141 36.4645 44.4814 36.3175C42.7579 34.4043 41.712 31.8758 41.712 29.0996V28.0996C41.712 25.6563 40.7414 23.3132 39.0137 21.5855C37.2861 19.8579 34.9429 18.8873 32.4996 18.8873C30.0564 18.8873 27.7132 19.8579 25.9855 21.5855C24.2579 23.3132 23.2873 25.6563 23.2873 28.0996L23.2873 29.0996L23.2873 29.0999C23.2913 31.7662 22.3038 34.3386 20.5167 36.3173L20.5164 36.3176C20.3841 36.4648 20.2898 36.6422 20.2418 36.8342L20.4476 36.8856L20.2418 36.8342C20.1938 37.0262 20.1936 37.2271 20.2411 37.4192L20.4472 37.3682L20.2411 37.4192C20.2886 37.6113 20.3824 37.7889 20.5144 37.9364C20.6464 38.084 20.8124 38.1969 20.9981 38.2655C23.0366 39.0181 25.1443 39.5673 27.2906 39.9054C27.2676 40.5549 27.3662 41.2036 27.5821 41.8178C27.8196 42.4939 28.194 43.1137 28.6818 43.6385C29.1697 44.1633 29.7605 44.5819 30.4174 44.8682C31.0742 45.1544 31.7831 45.3022 32.4996 45.3022C33.2162 45.3022 33.925 45.1544 34.5819 44.8682C35.2388 44.5819 35.8296 44.1633 36.3174 43.6385C36.8053 43.1137 37.1797 42.4939 37.4172 41.8178C37.633 41.2036 37.7317 40.5549 37.7087 39.9055C39.8834 39.5632 41.9879 39.0101 44.0012 38.2668ZM29.8917 41.0776C29.7852 40.7954 29.7253 40.4982 29.714 40.1977C31.5679 40.3519 33.4314 40.3519 35.2853 40.1977C35.274 40.4982 35.2141 40.7954 35.1075 41.0776C34.9747 41.4293 34.7721 41.7505 34.5119 42.0219C34.2517 42.2933 33.9393 42.5093 33.5935 42.6568C33.2477 42.8043 32.8756 42.8804 32.4996 42.8804C32.1237 42.8804 31.7516 42.8043 31.4058 42.6568C31.0599 42.5093 30.7475 42.2933 30.4873 42.0219C30.2272 41.7505 30.0246 41.4293 29.8917 41.0776Z" stroke="url(#paint4_linear_2285_59272)" stroke-width="0.42468" shape-rendering="crispEdges"/>
</g>
</g>
</g>
<defs>
<filter id="filter0_i_2285_59272" x="0.5" y="-1.40039" width="64" height="66" filterUnits="userSpaceOnUse" color-interpolation-filters="sRGB">
<feFlood flood-opacity="0" result="BackgroundImageFix"/>
<feBlend mode="normal" in="SourceGraphic" in2="BackgroundImageFix" result="shape"/>
<feColorMatrix in="SourceAlpha" type="matrix" values="0 0 0 0 0 0 0 0 0 0 0 0 0 0 0 0 0 0 127 0" result="hardAlpha"/>
<feOffset dy="-2"/>
<feGaussianBlur stdDeviation="1"/>
<feComposite in2="hardAlpha" operator="arithmetic" k2="-1" k3="1"/>
<feColorMatrix type="matrix" values="0 0 0 0 0.937255 0 0 0 0 0.588235 0 0 0 0 0.270588 0 0 0 0.3 0"/>
<feBlend mode="normal" in2="shape" result="effect1_innerShadow_2285_59272"/>
</filter>
<filter id="filter1_d_2285_59272" x="19.1428" y="18.6748" width="26.7143" height="28.5386" filterUnits="userSpaceOnUse" color-interpolation-filters="sRGB">
<feFlood flood-opacity="0" result="BackgroundImageFix"/>
<feColorMatrix in="SourceAlpha" type="matrix" values="0 0 0 0 0 0 0 0 0 0 0 0 0 0 0 0 0 0 127 0" result="hardAlpha"/>
<feOffset dy="0.84936"/>
<feGaussianBlur stdDeviation="0.42468"/>
<feComposite in2="hardAlpha" operator="out"/>
<feColorMatrix type="matrix" values="0 0 0 0 0.937255 0 0 0 0 0.588235 0 0 0 0 0.270588 0 0 0 0.5 0"/>
<feBlend mode="normal" in2="BackgroundImageFix" result="effect1_dropShadow_2285_59272"/>
<feBlend mode="normal" in="SourceGraphic" in2="effect1_dropShadow_2285_59272" result="shape"/>
</filter>
<linearGradient id="paint0_linear_2285_59272" x1="25.1877" y1="67.0063" x2="25.1877" y2="-2.27836" gradientUnits="userSpaceOnUse">
<stop stop-color="white"/>
<stop offset="1" stop-color="#FFE3CA"/>
</linearGradient>
<linearGradient id="paint1_linear_2285_59272" x1="-17.2204" y1="-7.76459" x2="57.5484" y2="32.7505" gradientUnits="userSpaceOnUse">
<stop stop-color="#FFD1A8"/>
<stop offset="1" stop-color="white"/>
</linearGradient>
<linearGradient id="paint2_linear_2285_59272" x1="104.28" y1="30.4243" x2="0.274297" y2="31.6596" gradientUnits="userSpaceOnUse">
<stop stop-color="white"/>
<stop offset="1" stop-color="#FFDEBF" stop-opacity="0"/>
</linearGradient>
<linearGradient id="paint3_linear_2285_59272" x1="7.57644" y1="-35.4384" x2="82.3453" y2="5.07671" gradientUnits="userSpaceOnUse">
<stop stop-color="#FFCEA2"/>
<stop offset="1" stop-color="white"/>
</linearGradient>
<linearGradient id="paint4_linear_2285_59272" x1="32.4996" y1="19.0996" x2="32.4996" y2="45.0898" gradientUnits="userSpaceOnUse">
<stop stop-color="#EF9645"/>
<stop offset="1" stop-color="#EF9645" stop-opacity="0"/>
</linearGradient>
<clipPath id="clip0_2285_59272">
<rect x="0.5" y="0.599609" width="64" height="64" rx="32" fill="white"/>
</clipPath>
</defs>
</svg>
