<svg width="66" height="66" viewBox="0 0 66 66" fill="none" xmlns="http://www.w3.org/2000/svg">
<g filter="url(#filter0_i_2332_64816)">
<g clip-path="url(#clip0_2332_64816)">
<rect x="1" y="1.49219" width="64" height="64" rx="32" fill="url(#paint0_linear_2332_64816)"/>
<rect x="-12.6289" y="14.0898" width="63.1278" height="60.7517" rx="5.25" fill="url(#paint1_linear_2332_64816)" stroke="url(#paint2_linear_2332_64816)" stroke-width="0.5"/>
<rect x="18.0156" y="-18.499" width="63.1278" height="60.7517" rx="5.25" fill="url(#paint3_linear_2332_64816)" stroke="url(#paint4_linear_2332_64816)" stroke-width="0.5"/>
<g clip-path="url(#clip1_2332_64816)">
<g filter="url(#filter1_d_2332_64816)">
<path fill-rule="evenodd" clip-rule="evenodd" d="M33 19.4922C30.4387 19.4922 27.912 19.6402 25.4267 19.9282C23.4307 20.1602 22 21.8749 22 23.8349V46.4922C22 46.6556 22.0401 46.8166 22.1168 46.961C22.1935 47.1053 22.3043 47.2287 22.4397 47.3203C22.5751 47.4119 22.7309 47.4688 22.8934 47.4863C23.056 47.5037 23.2203 47.481 23.372 47.4202L28 45.5695L32.6293 47.4202C32.8673 47.5152 33.1327 47.5152 33.3707 47.4202L38 45.5695L42.628 47.4202C42.7797 47.481 42.944 47.5037 43.1066 47.4863C43.2691 47.4688 43.4249 47.4119 43.5603 47.3203C43.6957 47.2287 43.8065 47.1053 43.8832 46.961C43.9599 46.8166 44 46.6556 44 46.4922V23.8349C44 21.8749 42.5693 20.1602 40.5733 19.9282C38.0594 19.6371 35.5307 19.4915 33 19.4922ZM37.7067 29.1989C37.8833 29.0093 37.9795 28.7586 37.9749 28.4995C37.9703 28.2404 37.8654 27.9932 37.6822 27.81C37.4989 27.6268 37.2518 27.5219 36.9927 27.5173C36.7336 27.5127 36.4829 27.6089 36.2933 27.7855L28.2933 35.7855C28.1951 35.8771 28.1163 35.9875 28.0616 36.1101C28.007 36.2328 27.9776 36.3652 27.9752 36.4995C27.9728 36.6338 27.9975 36.7671 28.0478 36.8917C28.0981 37.0162 28.173 37.1293 28.2679 37.2242C28.3629 37.3192 28.476 37.3941 28.6005 37.4444C28.7251 37.4946 28.8584 37.5193 28.9927 37.517C29.127 37.5146 29.2594 37.4852 29.3821 37.4306C29.5047 37.3759 29.6151 37.2971 29.7067 37.1989L37.7067 29.1989ZM28.5 29.4922C28.5 29.0944 28.658 28.7128 28.9393 28.4315C29.2206 28.1502 29.6022 27.9922 30 27.9922C30.3978 27.9922 30.7794 28.1502 31.0607 28.4315C31.342 28.7128 31.5 29.0944 31.5 29.4922C31.5 29.89 31.342 30.2715 31.0607 30.5529C30.7794 30.8342 30.3978 30.9922 30 30.9922C29.6022 30.9922 29.2206 30.8342 28.9393 30.5529C28.658 30.2715 28.5 29.89 28.5 29.4922ZM36 33.9922C35.6022 33.9922 35.2206 34.1502 34.9393 34.4315C34.658 34.7128 34.5 35.0944 34.5 35.4922C34.5 35.89 34.658 36.2715 34.9393 36.5529C35.2206 36.8342 35.6022 36.9922 36 36.9922C36.3978 36.9922 36.7794 36.8342 37.0607 36.5529C37.342 36.2715 37.5 35.89 37.5 35.4922C37.5 35.0944 37.342 34.7128 37.0607 34.4315C36.7794 34.1502 36.3978 33.9922 36 33.9922Z" fill="#00CC74"/>
<path d="M33.0001 19.7422L33 19.7422C30.4483 19.7422 27.9313 19.8896 25.4555 20.1765L33.0001 19.7422ZM33.0001 19.7422C35.5211 19.7415 38.0401 19.8865 40.5445 20.1765C42.4079 20.3931 43.75 21.995 43.75 23.8349V46.4921C43.75 46.4922 43.75 46.4922 43.75 46.4922C43.75 46.6148 43.7199 46.7355 43.6624 46.8437C43.6049 46.952 43.5217 47.0445 43.4202 47.1132C43.3187 47.1819 43.2018 47.2246 43.0799 47.2377C42.958 47.2507 42.8348 47.2337 42.721 47.1881L42.7208 47.1881L38.0928 45.3374L38 45.3003L37.9072 45.3374L33.278 47.188C33.0995 47.2592 32.9005 47.2592 32.722 47.188L28.0928 45.3374L28 45.3003L27.9072 45.3374L23.2792 47.1881L23.279 47.1881M33.0001 19.7422L23.279 47.1881M23.279 47.1881C23.1652 47.2337 23.042 47.2507 22.9201 47.2377C22.7982 47.2246 22.6813 47.1819 22.5798 47.1132C22.4783 47.0445 22.3951 46.952 22.3376 46.8437C22.2801 46.7355 22.25 46.6148 22.25 46.4922C22.25 46.4922 22.25 46.4922 22.25 46.4921V23.8349C22.25 21.9951 23.5921 20.3932 25.4554 20.1765L23.279 47.1881ZM37.8834 29.3756L37.8836 29.3757L37.8896 29.3693C38.1104 29.1323 38.2306 28.8189 38.2249 28.4951C38.2191 28.1712 38.088 27.8623 37.8589 27.6333C37.6299 27.4042 37.3209 27.273 36.9971 27.2673C36.6733 27.2616 36.3599 27.3818 36.1229 27.6026L36.1228 27.6025L36.1166 27.6087L28.1195 35.6058C27.9983 35.7196 27.901 35.8565 27.8333 36.0084C27.7649 36.1617 27.7282 36.3272 27.7253 36.4951C27.7223 36.6629 27.7532 36.8296 27.816 36.9853C27.8789 37.1409 27.9725 37.2823 28.0912 37.401L28.2679 37.2242L28.0912 37.401C28.2099 37.5197 28.3513 37.6133 28.5069 37.6762C28.6626 37.739 28.8293 37.7699 28.9971 37.7669C29.1649 37.764 29.3305 37.7272 29.4838 37.6589C29.6357 37.5912 29.7726 37.4939 29.8864 37.3727L37.8834 29.3756ZM28.7626 28.2548C28.4344 28.5829 28.25 29.0281 28.25 29.4922C28.25 29.9563 28.4344 30.4014 28.7626 30.7296C29.0908 31.0578 29.5359 31.2422 30 31.2422C30.4641 31.2422 30.9092 31.0578 31.2374 30.7296C31.5656 30.4014 31.75 29.9563 31.75 29.4922C31.75 29.0281 31.5656 28.5829 31.2374 28.2548C30.9092 27.9266 30.4641 27.7422 30 27.7422C29.5359 27.7422 29.0908 27.9266 28.7626 28.2548ZM36 33.7422C35.5359 33.7422 35.0908 33.9266 34.7626 34.2548C34.4344 34.5829 34.25 35.0281 34.25 35.4922C34.25 35.9563 34.4344 36.4014 34.7626 36.7296C35.0908 37.0578 35.5359 37.2422 36 37.2422C36.4641 37.2422 36.9092 37.0578 37.2374 36.7296C37.5656 36.4014 37.75 35.9563 37.75 35.4922C37.75 35.0281 37.5656 34.5829 37.2374 34.2548C36.9092 33.9266 36.4641 33.7422 36 33.7422Z" stroke="url(#paint5_linear_2332_64816)" stroke-width="0.5"/>
</g>
</g>
</g>
<rect x="0.75" y="1.24219" width="64.5" height="64.5" rx="32.25" stroke="url(#paint6_linear_2332_64816)" stroke-width="0.5"/>
</g>
<defs>
<filter id="filter0_i_2332_64816" x="0.5" y="-3.00781" width="65" height="69" filterUnits="userSpaceOnUse" color-interpolation-filters="sRGB">
<feFlood flood-opacity="0" result="BackgroundImageFix"/>
<feBlend mode="normal" in="SourceGraphic" in2="BackgroundImageFix" result="shape"/>
<feColorMatrix in="SourceAlpha" type="matrix" values="0 0 0 0 0 0 0 0 0 0 0 0 0 0 0 0 0 0 127 0" result="hardAlpha"/>
<feOffset dy="-4"/>
<feGaussianBlur stdDeviation="2"/>
<feComposite in2="hardAlpha" operator="arithmetic" k2="-1" k3="1"/>
<feColorMatrix type="matrix" values="0 0 0 0 0.403922 0 0 0 0 0.807843 0 0 0 0 0.403922 0 0 0 0.5 0"/>
<feBlend mode="normal" in2="shape" result="effect1_innerShadow_2332_64816"/>
</filter>
<filter id="filter1_d_2332_64816" x="21" y="19.4922" width="24" height="30" filterUnits="userSpaceOnUse" color-interpolation-filters="sRGB">
<feFlood flood-opacity="0" result="BackgroundImageFix"/>
<feColorMatrix in="SourceAlpha" type="matrix" values="0 0 0 0 0 0 0 0 0 0 0 0 0 0 0 0 0 0 127 0" result="hardAlpha"/>
<feOffset dy="1"/>
<feGaussianBlur stdDeviation="0.5"/>
<feComposite in2="hardAlpha" operator="out"/>
<feColorMatrix type="matrix" values="0 0 0 0 0.403922 0 0 0 0 0.807843 0 0 0 0 0.403922 0 0 0 0.5 0"/>
<feBlend mode="normal" in2="BackgroundImageFix" result="effect1_dropShadow_2332_64816"/>
<feBlend mode="normal" in="SourceGraphic" in2="effect1_dropShadow_2332_64816" result="shape"/>
</filter>
<linearGradient id="paint0_linear_2332_64816" x1="96.6082" y1="55.1916" x2="-19.0938" y2="56.5136" gradientUnits="userSpaceOnUse">
<stop stop-color="#67CE67"/>
<stop offset="1" stop-color="white" stop-opacity="0.58"/>
</linearGradient>
<linearGradient id="paint1_linear_2332_64816" x1="81.1794" y1="64.8942" x2="-32.0407" y2="66.2388" gradientUnits="userSpaceOnUse">
<stop stop-color="#67CE67"/>
<stop offset="1" stop-color="white" stop-opacity="0.58"/>
</linearGradient>
<linearGradient id="paint2_linear_2332_64816" x1="-12.3789" y1="28.039" x2="34.4259" y2="82.8708" gradientUnits="userSpaceOnUse">
<stop stop-color="white"/>
<stop offset="1" stop-color="#00CC74" stop-opacity="0"/>
</linearGradient>
<linearGradient id="paint3_linear_2332_64816" x1="111.824" y1="32.3053" x2="-1.3962" y2="33.65" gradientUnits="userSpaceOnUse">
<stop stop-color="#67CE67"/>
<stop offset="1" stop-color="white" stop-opacity="0.58"/>
</linearGradient>
<linearGradient id="paint4_linear_2332_64816" x1="18.2656" y1="-4.54989" x2="65.0704" y2="50.282" gradientUnits="userSpaceOnUse">
<stop stop-color="white"/>
<stop offset="1" stop-color="#00CC74" stop-opacity="0"/>
</linearGradient>
<linearGradient id="paint5_linear_2332_64816" x1="33" y1="19.4922" x2="33" y2="47.492" gradientUnits="userSpaceOnUse">
<stop stop-color="white"/>
<stop offset="1" stop-color="#8FC074" stop-opacity="0"/>
</linearGradient>
<linearGradient id="paint6_linear_2332_64816" x1="1" y1="16.0436" x2="50.9827" y2="72.3768" gradientUnits="userSpaceOnUse">
<stop stop-color="white"/>
<stop offset="1" stop-color="#00CC74" stop-opacity="0"/>
</linearGradient>
<clipPath id="clip0_2332_64816">
<rect x="1" y="1.49219" width="64" height="64" rx="32" fill="white"/>
</clipPath>
<clipPath id="clip1_2332_64816">
<rect width="32" height="32" fill="white" transform="translate(17 17.4922)"/>
</clipPath>
</defs>
</svg>
