<svg width="65" height="65" viewBox="0 0 65 65" fill="none" xmlns="http://www.w3.org/2000/svg">
<g filter="url(#filter0_i_2284_52570)">
<g clip-path="url(#clip0_2284_52570)">
<rect x="0.5" y="0.5" width="64" height="64" rx="32" fill="#FDF5EC"/>
<rect x="-6.69059" y="11.3289" width="57.9901" height="55.8074" rx="4.82273" fill="url(#paint0_linear_2284_52570)" stroke="url(#paint1_linear_2284_52570)" stroke-width="0.459307"/>
<rect x="18.1063" y="-16.3449" width="57.9901" height="55.8074" rx="4.82273" fill="url(#paint2_linear_2284_52570)" stroke="url(#paint3_linear_2284_52570)" stroke-width="0.459307"/>
<g filter="url(#filter1_d_2284_52570)">
<path d="M22.5 25C22.5 23.5413 23.0795 22.1424 24.1109 21.1109C25.1424 20.0795 26.5413 19.5 28 19.5C29.4587 19.5 30.8576 20.0795 31.8891 21.1109C32.9205 22.1424 33.5 23.5413 33.5 25C33.5 26.4587 32.9205 27.8576 31.8891 28.8891C30.8576 29.9205 29.4587 30.5 28 30.5C26.5413 30.5 25.1424 29.9205 24.1109 28.8891C23.0795 27.8576 22.5 26.4587 22.5 25ZM35.5 28C35.5 27.4091 35.6164 26.8239 35.8425 26.2779C36.0687 25.732 36.4002 25.2359 36.818 24.818C37.2359 24.4002 37.732 24.0687 38.2779 23.8425C38.8239 23.6164 39.4091 23.5 40 23.5C40.591 23.5 41.1761 23.6164 41.7221 23.8425C42.268 24.0687 42.7641 24.4002 43.182 24.818C43.5998 25.2359 43.9313 25.732 44.1575 26.2779C44.3836 26.8239 44.5 27.4091 44.5 28C44.5 29.1935 44.0259 30.3381 43.182 31.182C42.3381 32.0259 41.1935 32.5 40 32.5C38.8065 32.5 37.6619 32.0259 36.818 31.182C35.9741 30.3381 35.5 29.1935 35.5 28ZM18.5 42C18.5 39.4804 19.5009 37.0641 21.2825 35.2825C23.0641 33.5009 25.4804 32.5 28 32.5C30.5196 32.5 32.9359 33.5009 34.7175 35.2825C36.4991 37.0641 37.5 39.4804 37.5 42V42.004L37.4987 42.1627C37.4958 42.3322 37.4499 42.4983 37.3653 42.6452C37.2806 42.7922 37.16 42.9152 37.0147 43.0027C34.2936 44.6413 31.1764 45.5049 28 45.5C24.704 45.5 21.6187 44.588 18.9867 43.0027C18.8411 42.9153 18.7202 42.7924 18.6353 42.6455C18.5504 42.4985 18.5043 42.3324 18.5013 42.1627L18.5 42ZM39.5 42.004L39.4987 42.196C39.4912 42.6404 39.3851 43.0776 39.188 43.476C41.5156 43.6196 43.8405 43.1555 45.9347 42.1293C46.0966 42.0502 46.2342 41.9287 46.3327 41.7778C46.4313 41.6269 46.4873 41.4521 46.4947 41.272C46.5417 40.1537 46.2992 39.0421 45.7906 38.045C45.2819 37.0479 44.5244 36.1991 43.5914 35.5807C42.6584 34.9623 41.5815 34.5953 40.465 34.5153C39.3485 34.4353 38.2303 34.645 37.2187 35.124C38.7029 37.1088 39.503 39.5216 39.4987 42V42.004H39.5Z" fill="#F2AB6A" shape-rendering="crispEdges"/>
<path d="M27.9997 45.7123C31.2147 45.7173 34.37 44.8432 37.1242 43.1846C37.3003 43.0785 37.4466 42.9294 37.5493 42.7512C37.6519 42.5731 37.7076 42.3718 37.711 42.1662L37.711 42.1644L37.7123 42.0058V42.004V42C37.7123 39.4241 36.6891 36.9538 34.8677 35.1323C33.0462 33.3109 30.5759 32.2877 28 32.2877C25.4241 32.2877 22.9538 33.3109 21.1323 35.1323C19.3109 36.9538 18.2877 39.4241 18.2877 42L18.2877 42.0017L18.8771 43.1846L18.9867 43.0027L18.8774 43.1847C21.5414 44.7893 24.6643 45.7123 27.9997 45.7123ZM27.9997 45.7123L28 45.5V45.7123C27.9999 45.7123 27.9998 45.7123 27.9997 45.7123ZM46.7068 41.2809C46.7554 40.126 46.505 38.9782 45.9797 37.9485C45.4545 36.9188 44.6722 36.0423 43.7087 35.4037C42.7452 34.7651 41.6331 34.3861 40.4802 34.3035C39.3272 34.2209 38.1725 34.4374 37.1278 34.9321L36.8931 35.0432L37.0486 35.2512C38.5053 37.1991 39.2906 39.5672 39.2863 41.9996V42V42.004V42.1941C39.2792 42.6065 39.1806 43.0122 38.9977 43.3818L38.856 43.6683L39.1749 43.6879C41.5392 43.8338 43.9008 43.3624 46.0279 42.3201C46.2243 42.2241 46.391 42.0769 46.5105 41.8939C46.63 41.711 46.6978 41.4992 46.7068 41.2809ZM46.7068 41.2809L46.4947 41.272L46.7068 41.2807C46.7068 41.2808 46.7068 41.2809 46.7068 41.2809ZM23.9608 20.9608C22.8895 22.032 22.2877 23.485 22.2877 25C22.2877 26.515 22.8895 27.968 23.9608 29.0392C25.032 30.1105 26.485 30.7123 28 30.7123C29.515 30.7123 30.968 30.1105 32.0392 29.0392C33.1105 27.968 33.7123 26.515 33.7123 25C33.7123 23.485 33.1105 22.032 32.0392 20.9608C30.968 19.8895 29.515 19.2877 28 19.2877C26.485 19.2877 25.032 19.8895 23.9608 20.9608ZM35.6464 26.1967C35.4095 26.7684 35.2877 27.3812 35.2877 28C35.2877 29.2498 35.7841 30.4484 36.6679 31.3321C37.5516 32.2159 38.7502 32.7123 40 32.7123C41.2498 32.7123 42.4484 32.2159 43.3321 31.3321C44.2159 30.4484 44.7123 29.2498 44.7123 28C44.7123 27.3812 44.5905 26.7684 44.3536 26.1967C44.1168 25.6249 43.7697 25.1055 43.3321 24.6679C42.8945 24.2303 42.3751 23.8832 41.8033 23.6464C41.2316 23.4095 40.6188 23.2877 40 23.2877C39.3812 23.2877 38.7684 23.4095 38.1967 23.6464C37.6249 23.8832 37.1055 24.2303 36.6679 24.6679C36.2303 25.1055 35.8832 25.6249 35.6464 26.1967Z" stroke="url(#paint4_linear_2284_52570)" stroke-width="0.42468" shape-rendering="crispEdges"/>
</g>
</g>
</g>
<defs>
<filter id="filter0_i_2284_52570" x="0.5" y="-1.5" width="64" height="66" filterUnits="userSpaceOnUse" color-interpolation-filters="sRGB">
<feFlood flood-opacity="0" result="BackgroundImageFix"/>
<feBlend mode="normal" in="SourceGraphic" in2="BackgroundImageFix" result="shape"/>
<feColorMatrix in="SourceAlpha" type="matrix" values="0 0 0 0 0 0 0 0 0 0 0 0 0 0 0 0 0 0 127 0" result="hardAlpha"/>
<feOffset dy="-2"/>
<feGaussianBlur stdDeviation="1"/>
<feComposite in2="hardAlpha" operator="arithmetic" k2="-1" k3="1"/>
<feColorMatrix type="matrix" values="0 0 0 0 0.937255 0 0 0 0 0.588235 0 0 0 0 0.270588 0 0 0 0.3 0"/>
<feBlend mode="normal" in2="shape" result="effect1_innerShadow_2284_52570"/>
</filter>
<filter id="filter1_d_2284_52570" x="17.2249" y="19.0752" width="30.5503" height="28.5483" filterUnits="userSpaceOnUse" color-interpolation-filters="sRGB">
<feFlood flood-opacity="0" result="BackgroundImageFix"/>
<feColorMatrix in="SourceAlpha" type="matrix" values="0 0 0 0 0 0 0 0 0 0 0 0 0 0 0 0 0 0 127 0" result="hardAlpha"/>
<feOffset dy="0.84936"/>
<feGaussianBlur stdDeviation="0.42468"/>
<feComposite in2="hardAlpha" operator="out"/>
<feColorMatrix type="matrix" values="0 0 0 0 0.937255 0 0 0 0 0.588235 0 0 0 0 0.270588 0 0 0 0.5 0"/>
<feBlend mode="normal" in2="BackgroundImageFix" result="effect1_dropShadow_2284_52570"/>
<feBlend mode="normal" in="SourceGraphic" in2="effect1_dropShadow_2284_52570" result="shape"/>
</filter>
<linearGradient id="paint0_linear_2284_52570" x1="25.1877" y1="66.9067" x2="25.1877" y2="-2.37797" gradientUnits="userSpaceOnUse">
<stop stop-color="white"/>
<stop offset="1" stop-color="#FFE3CA"/>
</linearGradient>
<linearGradient id="paint1_linear_2284_52570" x1="-17.2204" y1="-7.8642" x2="57.5484" y2="32.6509" gradientUnits="userSpaceOnUse">
<stop stop-color="#FFD1A8"/>
<stop offset="1" stop-color="white"/>
</linearGradient>
<linearGradient id="paint2_linear_2284_52570" x1="104.28" y1="30.3247" x2="0.274297" y2="31.5599" gradientUnits="userSpaceOnUse">
<stop stop-color="white"/>
<stop offset="1" stop-color="#FFDEBF" stop-opacity="0"/>
</linearGradient>
<linearGradient id="paint3_linear_2284_52570" x1="7.57644" y1="-35.538" x2="82.3453" y2="4.9771" gradientUnits="userSpaceOnUse">
<stop stop-color="#FFCEA2"/>
<stop offset="1" stop-color="white"/>
</linearGradient>
<linearGradient id="paint4_linear_2284_52570" x1="32.5002" y1="19.5" x2="32.5002" y2="45.5" gradientUnits="userSpaceOnUse">
<stop stop-color="#EF9645"/>
<stop offset="1" stop-color="#EF9645" stop-opacity="0"/>
</linearGradient>
<clipPath id="clip0_2284_52570">
<rect x="0.5" y="0.5" width="64" height="64" rx="32" fill="white"/>
</clipPath>
</defs>
</svg>
