<svg width="127" height="43" viewBox="0 0 127 43" fill="none" xmlns="http://www.w3.org/2000/svg">
<path d="M34.2869 26.622C34.0354 25.8048 33.7054 24.9719 33.3125 24.139C33.2497 24.2333 28.6608 30.6137 18.3829 36.6956C18.4301 36.7271 18.4929 36.7585 18.5401 36.7899C18.6815 36.8685 18.8072 36.9471 18.9487 37.0099C19.0901 37.0885 19.2473 37.1671 19.3887 37.23C20.0645 37.5757 20.7402 37.8743 21.3846 38.1257C21.526 38.1886 21.6674 38.2357 21.8089 38.2829C21.8246 38.2829 21.8403 38.2986 21.856 38.2986C22.0132 38.3615 22.1703 38.4086 22.3275 38.4558C23.1604 38.7229 23.9933 38.9115 24.7634 39.0215C24.9205 39.0372 25.0777 39.0687 25.2348 39.0844C25.4706 39.1001 25.6749 39.1158 25.8634 39.1315C26.0049 39.1315 26.1463 39.1472 26.272 39.1472C28.1893 39.1472 29.7609 38.5658 30.8767 37.4657L33.234 35.1084C35.0569 33.2854 35.4184 30.268 34.2869 26.622ZM21.856 37.3085C21.8089 37.2928 21.7617 37.2771 21.6989 37.2457C21.1174 37.0257 20.6774 36.8685 20.0645 36.5699L22.3118 35.1241C22.3746 35.1555 22.8932 35.407 22.9404 35.4384C23.0347 35.4855 23.1447 35.517 23.239 35.5641C23.3176 35.5955 23.3961 35.627 23.4747 35.6584L21.856 37.3085ZM25.1091 38.1415C25.0305 38.1257 24.9677 38.1257 24.8891 38.11C24.229 38.0157 23.5376 37.8586 22.8304 37.6386L24.4648 36.0041C24.5591 36.0356 24.6534 36.067 24.7477 36.0984C24.8419 36.1299 24.9362 36.1613 25.0305 36.177C25.1248 36.2085 25.2034 36.2242 25.2977 36.2556H25.3134C25.4077 36.287 25.502 36.3027 25.5963 36.3342C25.7849 36.3813 25.9577 36.4285 26.1463 36.4599C26.2249 36.4756 26.3035 36.4913 26.3821 36.507C26.4606 36.5228 26.5235 36.5385 26.6021 36.5542C26.6335 36.5542 26.6492 36.5699 26.6807 36.5699L25.1091 38.1415ZM30.2323 36.8056C29.3208 37.7171 27.985 38.2043 26.3506 38.22L27.8279 36.7428C27.8593 36.7428 27.8907 36.7428 27.9379 36.7585C28.0007 36.7585 28.0793 36.7742 28.1422 36.7742C28.2365 36.7742 28.3151 36.7899 28.4093 36.7899C28.4879 36.7899 28.5822 36.7899 28.6608 36.7899C28.6922 36.7899 28.7236 36.7899 28.7708 36.7899C28.8022 36.7899 28.8494 36.7899 28.8808 36.7899H28.9122C28.9908 36.7899 29.0537 36.7899 29.1322 36.7742C29.148 36.7742 29.148 36.7742 29.1637 36.7742C29.2422 36.7742 29.3051 36.7585 29.3837 36.7585C29.4623 36.7585 29.5251 36.7428 29.6037 36.7428C29.6037 36.7428 29.6037 36.7428 29.6194 36.7428C29.7766 36.7271 29.918 36.7113 30.0595 36.6799C30.1223 36.6642 30.2009 36.6485 30.2637 36.6485C30.3423 36.6328 30.4052 36.6171 30.4838 36.6013L30.2323 36.8056ZM38.7815 10.4508C37.4614 8.58065 34.6798 8.56493 32.5896 8.87924C29.9337 9.27213 26.6492 10.4194 23.1132 12.2109C23.0975 12.2266 22.9718 12.2738 22.9561 12.2895C22.9247 12.2581 22.8775 12.2424 22.8461 12.2109C20.866 10.8751 18.8387 9.8536 16.8742 9.2407C13.2283 8.09347 10.2266 8.45493 8.41936 10.2779L6.06206 12.6352C4.8834 13.8139 4.30194 15.5583 4.38052 17.6485C4.38052 17.8528 4.39623 18.0571 4.42766 18.2928C4.42766 18.3085 4.42766 18.3242 4.42766 18.3242C4.44338 18.4657 4.45909 18.6071 4.47481 18.7643L4.53767 19.2043C4.61625 19.6286 4.82054 20.4301 4.96198 20.9173L5.04056 21.1687V21.1845C5.0877 21.3259 5.13485 21.4831 5.19771 21.6716C5.19771 21.6874 5.21343 21.7031 5.21343 21.7188C5.27629 21.8759 5.32344 22.0174 5.37058 22.1431C5.62203 22.8032 5.92062 23.4789 6.26636 24.1547C6.29779 24.2018 6.31351 24.2647 6.34494 24.3118C6.37637 24.3747 6.4078 24.4376 6.43923 24.5004C4.09764 26.952 2.33751 29.3408 1.34744 31.4152C-0.145521 34.5112 0.373092 36.3185 1.04885 37.2771C1.99178 38.6129 3.68904 39.0058 5.33915 39.0058C5.9992 39.0058 6.64352 38.9429 7.24071 38.8486C9.86518 38.4558 13.0868 37.34 16.5599 35.5955C16.6071 35.5641 16.6699 35.5484 16.7171 35.517C16.7171 35.517 16.7328 35.517 16.7328 35.5013C16.7485 35.5013 16.7485 35.4855 16.7485 35.4855C16.89 35.407 17.0314 35.3441 17.1728 35.2655C17.2514 35.2184 17.3457 35.1712 17.44 35.1241C17.4557 35.1084 17.4714 35.1084 17.5029 35.0926C17.55 35.0612 17.5972 35.0455 17.66 35.0141C17.9743 34.8412 18.3043 34.6683 18.6344 34.4955C19.0272 34.2754 19.4359 34.0397 19.8445 33.804C19.8916 33.7725 19.9387 33.7568 19.9859 33.7254C20.0016 33.7097 20.033 33.694 20.0487 33.694C20.1745 33.6154 20.3002 33.5368 20.4259 33.474C20.5674 33.3797 20.7245 33.3011 20.866 33.2068C21.4946 32.8296 22.1075 32.4367 22.7361 32.0281L22.9561 31.8867C23.5533 31.4938 24.1505 31.0852 24.7319 30.6609C27.0892 28.9793 29.2737 27.2035 31.2538 25.3648C31.8667 24.7833 32.4639 24.2018 33.0297 23.6204C33.0454 23.6046 33.0454 23.5889 33.0611 23.5889C33.1082 23.5418 33.1554 23.4946 33.2025 23.4475C35.6227 20.933 37.4457 18.4814 38.4672 16.3441C39.9759 13.2167 39.4573 11.4251 38.7815 10.4508ZM14.5484 29.6551C14.6427 29.7337 14.7212 29.828 14.8155 29.9065C15.0513 30.1266 15.287 30.3466 15.5227 30.5509C15.6327 30.6452 15.7427 30.7552 15.8527 30.8495C15.8999 30.8809 15.9313 30.928 15.9785 30.9595L14.2655 32.6725L14.2341 32.6567C13.7469 32.2324 13.2597 31.7924 12.804 31.3524L14.5169 29.6394C14.5327 29.6394 14.5484 29.6551 14.5484 29.6551ZM12.5682 27.5492C12.5997 27.5807 12.6154 27.6121 12.6468 27.6435L12.6625 27.6749C12.6782 27.7064 12.7097 27.7221 12.7254 27.7378C12.7411 27.7535 12.7725 27.785 12.7882 27.8007C12.8511 27.8793 12.9297 27.9578 13.0083 28.0364C13.0868 28.115 13.1497 28.1936 13.2283 28.2721C13.2597 28.3036 13.2754 28.335 13.3069 28.3507C13.4011 28.445 13.4954 28.5393 13.574 28.6493C13.684 28.7593 13.7783 28.8693 13.8883 28.9793L12.1753 30.6923C11.7353 30.2366 11.2953 29.7651 10.871 29.2622C10.871 29.2465 10.8552 29.2465 10.8552 29.2465L12.5682 27.5492C12.5525 27.5335 12.5525 27.5335 12.5682 27.5492ZM10.9024 25.4591C10.9338 25.4905 10.9653 25.5376 10.981 25.5691C11.0596 25.6791 11.1381 25.7734 11.2167 25.8834C11.2796 25.9777 11.3581 26.072 11.421 26.1663C11.4682 26.2291 11.531 26.292 11.5782 26.3706C11.6567 26.4649 11.7353 26.5749 11.8139 26.6692C11.861 26.732 11.9082 26.7792 11.9553 26.842L10.2581 28.5393C9.84947 28.0364 9.45659 27.5178 9.09513 27.0149C9.07942 26.9992 9.0637 26.9835 9.0637 26.952L10.761 25.2548C10.8081 25.3176 10.8553 25.3962 10.9024 25.4591ZM9.34657 23.0703C9.42515 23.2118 9.50373 23.3532 9.59802 23.4946C9.67659 23.6361 9.77089 23.7775 9.84947 23.919C9.86518 23.9347 9.86519 23.9504 9.8809 23.9661C9.89662 23.9818 9.89661 23.9975 9.91232 24.0132C9.92804 24.029 9.94376 24.0604 9.95948 24.0761C9.97519 24.0918 9.99091 24.1232 10.0066 24.139C10.0852 24.2647 10.1638 24.3747 10.2424 24.4847L8.54509 26.182C8.37222 25.9148 8.19935 25.6476 8.0422 25.3962C8.0422 25.3962 8.0422 25.3962 8.05791 25.3805L8.02648 25.3491C7.86932 25.0819 7.71218 24.8147 7.57074 24.5476C7.55502 24.5161 7.53931 24.4847 7.52359 24.4533L9.20513 22.7717C9.22085 22.866 9.28371 22.976 9.34657 23.0703ZM6.7221 13.2796L6.94212 13.0596V13.0753C6.92641 13.1381 6.91069 13.1853 6.91069 13.2481C6.89497 13.2953 6.89497 13.3581 6.87926 13.4053C6.87926 13.421 6.87926 13.421 6.87926 13.4367C6.86354 13.4682 6.86355 13.5153 6.86355 13.5467C6.84783 13.5939 6.84783 13.641 6.84783 13.6882C6.84783 13.7353 6.83211 13.7825 6.83211 13.8453C6.83211 13.8768 6.8164 13.9082 6.8164 13.9553C6.80069 14.0811 6.78497 14.2068 6.78497 14.3325C6.78497 14.3797 6.78496 14.4425 6.76925 14.4897C6.75353 14.7254 6.75353 14.9611 6.76925 15.1969C6.76925 15.244 6.76925 15.2912 6.76925 15.3383C6.76925 15.4012 6.76925 15.4483 6.78497 15.5112C6.78497 15.574 6.80068 15.6526 6.80068 15.7312L5.32344 17.2084C5.30772 15.5426 5.7949 14.1911 6.7221 13.2796ZM5.60632 19.6601C5.57488 19.44 5.41773 18.5443 5.3863 18.3871L6.9264 16.847C7.05212 17.5542 7.24072 18.2928 7.49216 19.0472L5.87348 20.6658C5.7949 20.3673 5.68489 19.9901 5.60632 19.6601ZM6.25064 21.7974C6.23493 21.7502 6.21922 21.7031 6.18779 21.6559L7.8379 20.0058C7.86933 20.0844 7.90076 20.1472 7.93219 20.2258C8.10506 20.6658 8.30936 21.1059 8.52937 21.5459C8.57652 21.6402 8.62367 21.7345 8.67082 21.8288C8.68653 21.8602 8.70224 21.8759 8.71796 21.9074L7.03641 23.5732C6.73782 22.9917 6.47066 22.3788 6.25064 21.7974ZM2.16464 34.8726V34.8255C2.16464 34.8412 2.16464 34.8569 2.16464 34.8726ZM2.36894 33.6783C2.36894 33.6468 2.38466 33.6311 2.38466 33.5997C2.38466 33.6311 2.38466 33.6468 2.36894 33.6783ZM9.51944 35.8941C9.03226 35.957 8.51366 36.0199 7.97933 36.0199C6.64353 36.0199 5.27629 35.7056 4.50624 34.6369C3.9562 33.8668 3.5476 32.421 4.74197 29.9223C5.26058 28.8693 6.01491 27.7064 6.98927 26.4963C6.64353 26.8892 6.31351 27.2663 5.9992 27.6278C6.4078 27.1249 6.86355 26.6063 7.36644 26.072C7.50788 26.3077 7.64932 26.5277 7.80647 26.7634C7.88505 26.8892 7.97934 27.0149 8.07363 27.1563C8.07363 27.1563 8.07363 27.1563 8.07363 27.1721C8.16792 27.2978 8.24649 27.4235 8.34079 27.5492C8.71796 28.0835 9.12656 28.6179 9.56659 29.1522C9.66089 29.2779 9.77089 29.3879 9.86518 29.5137C9.95947 29.6394 10.0695 29.7494 10.1638 29.8751C10.6038 30.378 11.0596 30.8809 11.5153 31.3524C11.6253 31.4624 11.7353 31.5724 11.8453 31.6824C11.9553 31.7924 12.0653 31.9024 12.1753 32.0124C12.6468 32.4682 13.134 32.9239 13.6526 33.3639C13.7783 33.474 13.8883 33.5683 14.014 33.6625C14.1398 33.7568 14.2498 33.8668 14.3755 33.9611C14.5169 34.0869 14.6741 34.1969 14.8312 34.3226C12.8668 35.1241 11.0595 35.6584 9.51944 35.8941ZM17.9586 32.8296C17.9115 32.8453 17.88 32.8768 17.8329 32.8925C17.8172 32.9082 17.8014 32.9082 17.7857 32.9239C17.7229 32.9553 17.6443 33.0025 17.5814 33.0339C17.4714 33.0968 17.3457 33.1439 17.2357 33.2068C17.2357 33.2068 17.22 33.2068 17.22 33.2225C17.22 33.2225 17.2043 33.2225 17.2043 33.2382C17.1571 33.2539 17.1257 33.2854 17.0785 33.3011C16.6385 33.5211 16.2142 33.7254 15.7899 33.914C15.5227 33.7097 15.2556 33.5054 14.9884 33.3011L16.7014 31.5881C16.7642 31.6352 16.8114 31.6824 16.8742 31.7295C16.9528 31.7924 17.0314 31.8553 17.1257 31.9181C17.2043 31.981 17.2828 32.0438 17.3771 32.1067C17.4243 32.1381 17.4714 32.1853 17.5186 32.2167C17.5657 32.2481 17.6129 32.2796 17.66 32.3267C17.6757 32.3424 17.6914 32.3582 17.7072 32.3582C17.7386 32.3739 17.77 32.4053 17.7857 32.421C17.8329 32.4524 17.88 32.4839 17.9272 32.531C17.99 32.5782 18.0529 32.6253 18.1158 32.6725C18.1472 32.6882 18.1786 32.7196 18.2101 32.7353C18.1 32.751 18.0372 32.7825 17.9586 32.8296ZM34.8055 17.8214C34.2083 19.0629 33.2654 20.4301 32.0553 21.8602C32.0553 21.8445 32.0396 21.8445 32.0396 21.8288C30.8295 19.8329 29.2737 17.8685 27.4664 16.0612C26.5392 15.134 25.5806 14.2854 24.5905 13.4996C26.6021 12.651 28.4565 12.0852 30.028 11.8495C31.7253 11.598 33.9569 11.6137 35.0412 13.1067C35.607 13.8768 36.0156 15.3226 34.8055 17.8214ZM20.8188 3.47312V2.86022C22.3903 2.86022 23.679 1.57155 23.679 0H24.2919C24.2919 1.57155 25.5806 2.86022 27.1521 2.86022V3.47312C25.5806 3.47312 24.2919 4.76179 24.2919 6.33333H23.679C23.679 4.76179 22.3903 3.47312 20.8188 3.47312Z" fill="#7FBBF8"/>
<path d="M59.592 29.5138C57.3761 29.5138 55.4903 29.0423 53.9344 28.1151C52.3629 27.1879 51.1685 25.8678 50.3042 24.1705C49.4556 22.4732 49.0312 20.4774 49.0312 18.1829C49.0312 15.8885 49.4556 13.8926 50.3042 12.1953C51.1528 10.498 52.3629 9.19366 53.9344 8.25073C55.4903 7.32352 57.3918 6.85205 59.592 6.85205C61.7764 6.85205 63.6623 7.32352 65.2338 8.25073C66.8053 9.17794 68.0154 10.498 68.8641 12.1953C69.7127 13.8926 70.1213 15.8885 70.1213 18.1829C70.1213 20.4774 69.697 22.4732 68.8641 24.1705C68.0154 25.8678 66.8211 27.1722 65.2338 28.1151C63.6466 29.058 61.7764 29.5138 59.592 29.5138ZM59.592 24.752C60.8335 24.752 61.855 24.5634 62.6251 24.1705C63.3951 23.7933 63.9766 23.1176 64.338 22.1746C64.6995 21.216 64.8724 19.8959 64.8724 18.1829C64.8724 16.4542 64.6995 15.1184 64.338 14.1755C63.9766 13.2325 63.4108 12.5725 62.6251 12.1953C61.855 11.8181 60.8335 11.6138 59.592 11.6138C58.319 11.6138 57.2975 11.8024 56.5275 12.1953C55.7574 12.5725 55.176 13.2325 54.8145 14.1755C54.4531 15.1184 54.2802 16.4542 54.2802 18.1829C54.2802 19.8959 54.4531 21.216 54.8145 22.1746C55.176 23.1333 55.7417 23.7933 56.5275 24.1705C57.2975 24.5634 58.319 24.752 59.592 24.752Z" fill="#7FBBF8"/>
<path d="M77.5711 29.1842H72.6836V12.683H77.2411V17.3819L77.5711 17.539V29.1842ZM77.5711 18.8591H76.6596V15.3546H77.4454C77.854 14.5217 78.4511 13.8145 79.2055 13.233C79.9598 12.6515 80.9185 12.3687 82.0814 12.3687C83.2443 12.3687 84.1715 12.6201 84.8473 13.1387C85.5388 13.6573 86.026 14.3488 86.3403 15.2446C86.6389 16.1246 86.796 17.1304 86.796 18.2462V19.7549H81.9085V18.8591C81.9085 17.9634 81.7514 17.3505 81.4528 17.0204C81.1385 16.6904 80.6042 16.5333 79.8184 16.5333C79.0798 16.5333 78.514 16.6904 78.1526 17.0204C77.744 17.3505 77.5711 17.9634 77.5711 18.8591Z" fill="#7FBBF8"/>
<path d="M93.4129 29.1842H88.8555V7.19824H93.7429V25.271L93.4129 25.6954V29.1842ZM98.9919 29.5142C97.7032 29.5142 96.5874 29.2785 95.6445 28.807C94.7016 28.3356 94.0101 27.6598 93.5701 26.764H92.8786L93.1143 22.2694H93.7429C93.7429 22.9923 93.8844 23.5738 94.1673 24.0295C94.4501 24.4853 94.8587 24.7996 95.3931 25.0196C95.9274 25.2239 96.5874 25.3339 97.3732 25.3339C98.0804 25.3339 98.6619 25.2396 99.1333 25.0667C99.6048 24.8939 99.982 24.6267 100.249 24.281C100.516 23.9352 100.721 23.4795 100.831 22.9137C100.941 22.3637 100.988 21.7036 100.988 20.965C100.988 20.2264 100.941 19.5663 100.831 19.0163C100.721 18.4662 100.532 17.9948 100.249 17.6333C99.982 17.2719 99.6048 17.0047 99.1333 16.8318C98.6619 16.659 98.0804 16.5647 97.3732 16.5647C96.5874 16.5647 95.9274 16.6747 95.3931 16.879C94.8587 17.0833 94.4501 17.4133 94.1673 17.8533C93.8844 18.2934 93.7429 18.8748 93.7429 19.6292H93.1143L92.8786 15.0088H93.9315C94.3087 14.3016 94.9216 13.6887 95.7859 13.1701C96.6503 12.6515 97.7032 12.3843 98.9447 12.3843C101.223 12.3843 102.936 13.1544 104.115 14.7102C105.278 16.2661 105.875 18.3562 105.875 20.9807C105.875 23.5581 105.294 25.6325 104.115 27.204C102.952 28.7284 101.239 29.5142 98.9919 29.5142Z" fill="#7FBBF8"/>
<path d="M112.93 10.8128H108.106L108.043 7.19824H112.93V10.8128ZM113.025 29.1842H108.106V12.6829H113.025V29.1842Z" fill="#7FBBF8"/>
<path d="M126.617 16.7525H114.406V12.6822H126.617V16.7525ZM123.395 29.2463C121.258 29.2463 119.655 28.822 118.602 27.9734C117.549 27.1248 117.031 25.7261 117.031 23.7774V13.1851L118.084 8.84766H121.95V23.2116C121.95 23.9345 122.123 24.3745 122.468 24.5631C122.814 24.736 123.521 24.8303 124.574 24.8303H126.601V28.932C126.208 29.0263 125.721 29.0892 125.14 29.1678C124.574 29.2149 123.993 29.2463 123.395 29.2463Z" fill="#7FBBF8"/>
<path d="M54.3014 33.1888V38.0801H53.2295V34.0942H50.5237V38.0801H49.4518V34.0942H48.0677V33.1888H49.4518V32.5332C49.4518 31.3156 50.2947 30.5663 51.4499 30.5663C51.7725 30.5663 52.0951 30.6184 52.4802 30.7224L52.3241 31.5966C52.0639 31.5446 51.7725 31.5029 51.5748 31.5029C50.94 31.5029 50.5237 31.8984 50.5237 32.5332V33.1888H54.3014ZM58.472 33.064C59.7416 33.064 60.6054 33.9381 60.6054 35.3535V38.0801H59.5231V35.4159C59.5231 34.5209 59.0444 34.0422 58.2535 34.0422C57.7852 34.0422 57.2752 34.3024 56.8902 34.7811V38.0801H55.8078V33.1888H56.8902V33.6259C57.3168 33.2617 57.8476 33.064 58.472 33.064ZM65.7755 33.1888H66.8474V38.0801H65.7755V37.695C65.3592 38.0176 64.8285 38.205 64.2041 38.205C62.8304 38.205 61.7272 37.0602 61.7272 35.6345C61.7272 34.2087 62.8304 33.064 64.2041 33.064C64.8285 33.064 65.3592 33.2513 65.7755 33.5739V33.1888ZM64.3602 37.2267C64.9013 37.2267 65.4113 37.0394 65.7755 36.519V34.7499C65.4113 34.2295 64.9013 34.0422 64.3602 34.0422C63.4652 34.0422 62.8096 34.7603 62.8096 35.6345C62.8096 36.5086 63.4652 37.2267 64.3602 37.2267ZM71.0131 33.064C72.2827 33.064 73.1465 33.9381 73.1465 35.3535V38.0801H72.0642V35.4159C72.0642 34.5209 71.5855 34.0422 70.7946 34.0422C70.3262 34.0422 69.8163 34.3024 69.4313 34.7811V38.0801H68.3489V33.1888H69.4313V33.6259C69.8579 33.2617 70.3887 33.064 71.0131 33.064ZM76.8492 37.2267C77.5049 37.2267 77.994 36.8521 78.1293 36.3005H79.2324C79.0555 37.4244 78.0772 38.205 76.8492 38.205C75.3819 38.205 74.2683 37.0914 74.2683 35.6345C74.2683 34.1879 75.3819 33.064 76.8492 33.064C78.0772 33.064 79.0555 33.8445 79.2324 34.9684H78.1293C77.994 34.4169 77.5049 34.0422 76.8492 34.0422C75.9438 34.0422 75.3506 34.7499 75.3506 35.6345C75.3506 36.519 75.9438 37.2267 76.8492 37.2267ZM82.7728 33.064C84.3962 33.064 85.4057 34.3024 85.1976 35.9571H81.3574C81.4615 36.696 81.9298 37.2579 82.8456 37.2579C83.3243 37.2579 83.6886 37.1122 83.8863 36.8H85.0727C84.7605 37.6846 83.8967 38.205 82.8352 38.205C81.295 38.205 80.2543 37.0914 80.2543 35.6345C80.2543 34.1879 81.2846 33.064 82.7728 33.064ZM82.7832 33.9798C81.9714 33.9798 81.5031 34.5209 81.3783 35.2078H84.1257C84.0632 34.4065 83.5429 33.9798 82.7832 33.9798Z" fill="#7FBBF8"/>
</svg>
