<svg width="97" height="97" viewBox="0 0 97 97" fill="none" xmlns="http://www.w3.org/2000/svg">
<path fill-rule="evenodd" clip-rule="evenodd" d="M84.9473 48.4424C84.9473 68.5733 68.628 84.8926 48.4971 84.8926C28.3662 84.8926 12.0469 68.5733 12.0469 48.4424C12.0469 28.3115 28.3662 11.9922 48.4971 11.9922C68.628 11.9922 84.9473 28.3115 84.9473 48.4424ZM48.4971 96.8926C75.2554 96.8926 96.9473 75.2007 96.9473 48.4424C96.9473 21.6841 75.2554 -0.0078125 48.4971 -0.0078125C21.7388 -0.0078125 0.046875 21.6841 0.046875 48.4424C0.046875 75.2007 21.7388 96.8926 48.4971 96.8926Z" fill="white"/>
<path fill-rule="evenodd" clip-rule="evenodd" d="M70.5234 10.3533C70.5234 9.3185 69.9655 8.35863 69.0428 7.89021C62.8723 4.75773 55.8909 2.99219 48.4971 2.99219C23.3956 2.99219 3.04688 23.3409 3.04688 48.4424C3.04688 73.5438 23.3956 93.8926 48.4971 93.8926C55.8909 93.8926 62.8723 92.127 69.0428 88.9946C69.9655 88.5261 70.5234 87.5663 70.5234 86.5315C70.5234 84.2498 67.9407 82.8521 65.8935 83.8596C60.6459 86.4421 54.7409 87.8926 48.4971 87.8926C26.7093 87.8926 9.04688 70.2301 9.04688 48.4424C9.04688 26.6546 26.7093 8.99219 48.4971 8.99219C54.7409 8.99219 60.6459 10.4427 65.8935 13.0252C67.9407 14.0326 70.5234 12.635 70.5234 10.3533Z" fill="#DFEFFB"/>
<path d="M87.9473 48.442C87.9473 60.0853 82.9032 70.5505 74.8811 77.7717C74.1762 78.4062 73.75 79.3001 73.75 80.2485C73.75 82.805 76.5736 84.2765 78.4936 82.5885C87.968 74.259 93.9473 62.0488 93.9473 48.442C93.9473 34.8353 87.968 22.625 78.4936 14.2955C76.5736 12.6075 73.75 14.079 73.75 16.6355C73.75 17.5839 74.1762 18.4779 74.8811 19.1124C82.9032 26.3335 87.9473 36.7987 87.9473 48.442Z" fill="#DFEFFB"/>
</svg>
