<svg width="577" height="174" viewBox="0 0 577 174" fill="none" xmlns="http://www.w3.org/2000/svg">
<g clip-path="url(#clip0_2711_436543)">
<path d="M55.7988 148.139V142.956" stroke="#F2F7FA" stroke-width="0.863772"/>
<path d="M56.1914 158.242C55.6368 158.242 55.1644 158.091 54.7743 157.789C54.3841 157.485 54.086 157.044 53.8798 156.468C53.6737 155.888 53.5706 155.189 53.5706 154.369C53.5706 153.555 53.6737 152.859 53.8798 152.282C54.0884 151.703 54.3878 151.262 54.778 150.957C55.1706 150.651 55.6417 150.497 56.1914 150.497C56.7411 150.497 57.211 150.651 57.6012 150.957C57.9938 151.262 58.2932 151.703 58.4993 152.282C58.7079 152.859 58.8122 153.555 58.8122 154.369C58.8122 155.189 58.7091 155.888 58.503 156.468C58.2969 157.044 57.9987 157.485 57.6085 157.789C57.2184 158.091 56.746 158.242 56.1914 158.242ZM56.1914 157.432C56.7411 157.432 57.1681 157.167 57.4723 156.637C57.7766 156.107 57.9288 155.351 57.9288 154.369C57.9288 153.717 57.8588 153.161 57.719 152.702C57.5815 152.243 57.3828 151.893 57.1227 151.653C56.865 151.413 56.5546 151.292 56.1914 151.292C55.6466 151.292 55.2209 151.561 54.9142 152.098C54.6074 152.633 54.454 153.39 54.454 154.369C54.454 155.022 54.5228 155.577 54.6602 156.033C54.7976 156.49 54.9951 156.837 55.2528 157.075C55.5129 157.313 55.8258 157.432 56.1914 157.432Z" fill="#A6B0BF"/>
<path d="M107.799 148.139V142.956" stroke="#F2F7FA" stroke-width="0.863772"/>
<path d="M98.373 150.6H99.2858V155.989C99.2858 156.47 99.1975 156.879 99.0208 157.215C98.8441 157.551 98.5951 157.806 98.2736 157.98C97.9522 158.155 97.573 158.242 97.1362 158.242C96.724 158.242 96.3571 158.167 96.0357 158.017C95.7142 157.865 95.4614 157.649 95.2774 157.369C95.0934 157.09 95.0013 156.757 95.0013 156.372H95.8995C95.8995 156.585 95.9522 156.772 96.0577 156.931C96.1657 157.088 96.3129 157.211 96.4994 157.299C96.6859 157.388 96.8982 157.432 97.1362 157.432C97.3988 157.432 97.6221 157.377 97.8061 157.266C97.9902 157.156 98.1301 156.994 98.2258 156.78C98.3239 156.564 98.373 156.301 98.373 155.989V150.6ZM102.661 158.271C102.303 158.271 101.978 158.204 101.686 158.069C101.394 157.931 101.162 157.734 100.99 157.476C100.818 157.216 100.732 156.902 100.732 156.534C100.732 156.21 100.796 155.947 100.924 155.746C101.051 155.542 101.222 155.383 101.435 155.268C101.649 155.152 101.885 155.066 102.142 155.01C102.402 154.951 102.664 154.904 102.926 154.87C103.27 154.826 103.548 154.793 103.762 154.771C103.978 154.746 104.135 154.706 104.233 154.649C104.334 154.593 104.384 154.495 104.384 154.355V154.325C104.384 153.962 104.284 153.68 104.086 153.479C103.889 153.277 103.591 153.177 103.191 153.177C102.777 153.177 102.451 153.268 102.216 153.449C101.98 153.631 101.815 153.825 101.719 154.031L100.894 153.736C101.042 153.393 101.238 153.125 101.483 152.934C101.731 152.74 102.001 152.605 102.293 152.529C102.588 152.451 102.877 152.411 103.162 152.411C103.343 152.411 103.552 152.433 103.788 152.478C104.026 152.519 104.255 152.606 104.476 152.739C104.699 152.871 104.884 153.071 105.032 153.339C105.179 153.606 105.253 153.965 105.253 154.414V158.139H104.384V157.373H104.34C104.281 157.496 104.183 157.627 104.045 157.767C103.908 157.907 103.725 158.026 103.497 158.124C103.269 158.222 102.99 158.271 102.661 158.271ZM102.794 157.491C103.137 157.491 103.427 157.423 103.662 157.288C103.9 157.153 104.08 156.979 104.2 156.766C104.322 156.552 104.384 156.328 104.384 156.092V155.297C104.347 155.341 104.266 155.382 104.141 155.419C104.018 155.453 103.876 155.484 103.714 155.511C103.554 155.535 103.399 155.557 103.246 155.577C103.097 155.594 102.975 155.609 102.882 155.621C102.656 155.65 102.445 155.698 102.249 155.765C102.055 155.828 101.898 155.925 101.778 156.055C101.66 156.183 101.601 156.357 101.601 156.578C101.601 156.88 101.713 157.108 101.936 157.263C102.162 157.415 102.448 157.491 102.794 157.491ZM107.707 154.738V158.139H106.838V152.485H107.677V153.368H107.751C107.883 153.081 108.085 152.851 108.355 152.676C108.624 152.5 108.973 152.411 109.4 152.411C109.783 152.411 110.118 152.49 110.405 152.647C110.692 152.801 110.915 153.037 111.075 153.354C111.234 153.668 111.314 154.065 111.314 154.546V158.139H110.445V154.605C110.445 154.161 110.33 153.815 110.099 153.567C109.869 153.317 109.552 153.192 109.15 153.192C108.872 153.192 108.624 153.252 108.406 153.372C108.19 153.492 108.02 153.668 107.894 153.898C107.769 154.129 107.707 154.409 107.707 154.738ZM118.452 150.6V158.139H117.539V151.557H117.495L115.655 152.779V151.852L117.539 150.6H118.452Z" fill="#A6B0BF"/>
<path d="M159.453 148.139V142.956" stroke="#F2F7FA" stroke-width="0.863772"/>
<path d="M149.935 150.6H150.848V155.989C150.848 156.47 150.76 156.879 150.583 157.215C150.406 157.551 150.157 157.806 149.836 157.98C149.514 158.155 149.135 158.242 148.698 158.242C148.286 158.242 147.919 158.167 147.598 158.017C147.276 157.865 147.024 157.649 146.84 157.369C146.656 157.09 146.564 156.757 146.564 156.372H147.462C147.462 156.585 147.514 156.772 147.62 156.931C147.728 157.088 147.875 157.211 148.062 157.299C148.248 157.388 148.46 157.432 148.698 157.432C148.961 157.432 149.184 157.377 149.368 157.266C149.552 157.156 149.692 156.994 149.788 156.78C149.886 156.564 149.935 156.301 149.935 155.989V150.6ZM154.223 158.271C153.865 158.271 153.54 158.204 153.248 158.069C152.956 157.931 152.724 157.734 152.552 157.476C152.381 157.216 152.295 156.902 152.295 156.534C152.295 156.21 152.358 155.947 152.486 155.746C152.614 155.542 152.784 155.383 152.998 155.268C153.211 155.152 153.447 155.066 153.704 155.01C153.965 154.951 154.226 154.904 154.488 154.87C154.832 154.826 155.11 154.793 155.324 154.771C155.54 154.746 155.697 154.706 155.795 154.649C155.896 154.593 155.946 154.495 155.946 154.355V154.325C155.946 153.962 155.847 153.68 155.648 153.479C155.452 153.277 155.153 153.177 154.753 153.177C154.339 153.177 154.014 153.268 153.778 153.449C153.542 153.631 153.377 153.825 153.281 154.031L152.457 153.736C152.604 153.393 152.8 153.125 153.046 152.934C153.293 152.74 153.563 152.605 153.855 152.529C154.15 152.451 154.439 152.411 154.724 152.411C154.906 152.411 155.114 152.433 155.35 152.478C155.588 152.519 155.817 152.606 156.038 152.739C156.261 152.871 156.447 153.071 156.594 153.339C156.741 153.606 156.815 153.965 156.815 154.414V158.139H155.946V157.373H155.902C155.843 157.496 155.745 157.627 155.607 157.767C155.47 157.907 155.287 158.026 155.059 158.124C154.831 158.222 154.552 158.271 154.223 158.271ZM154.356 157.491C154.699 157.491 154.989 157.423 155.225 157.288C155.463 157.153 155.642 156.979 155.762 156.766C155.885 156.552 155.946 156.328 155.946 156.092V155.297C155.909 155.341 155.828 155.382 155.703 155.419C155.58 155.453 155.438 155.484 155.276 155.511C155.117 155.535 154.961 155.557 154.809 155.577C154.659 155.594 154.537 155.609 154.444 155.621C154.218 155.65 154.007 155.698 153.811 155.765C153.617 155.828 153.46 155.925 153.34 156.055C153.222 156.183 153.163 156.357 153.163 156.578C153.163 156.88 153.275 157.108 153.498 157.263C153.724 157.415 154.01 157.491 154.356 157.491ZM159.269 154.738V158.139H158.4V152.485H159.239V153.368H159.313C159.446 153.081 159.647 152.851 159.917 152.676C160.187 152.5 160.535 152.411 160.962 152.411C161.345 152.411 161.68 152.49 161.967 152.647C162.254 152.801 162.477 153.037 162.637 153.354C162.796 153.668 162.876 154.065 162.876 154.546V158.139H162.007V154.605C162.007 154.161 161.892 153.815 161.661 153.567C161.431 153.317 161.114 153.192 160.712 153.192C160.435 153.192 160.187 153.252 159.968 153.372C159.752 153.492 159.582 153.668 159.457 153.898C159.331 154.129 159.269 154.409 159.269 154.738ZM167.364 158.139V157.476L169.852 154.752C170.144 154.433 170.385 154.156 170.574 153.92C170.763 153.682 170.903 153.459 170.993 153.251C171.087 153.039 171.133 152.819 171.133 152.588C171.133 152.323 171.069 152.093 170.942 151.9C170.817 151.706 170.645 151.556 170.426 151.451C170.208 151.345 169.963 151.292 169.69 151.292C169.401 151.292 169.148 151.352 168.932 151.473C168.719 151.59 168.553 151.756 168.435 151.97C168.32 152.183 168.262 152.433 168.262 152.72H167.393C167.393 152.279 167.495 151.891 167.699 151.557C167.903 151.224 168.18 150.963 168.531 150.777C168.884 150.59 169.281 150.497 169.72 150.497C170.161 150.497 170.553 150.59 170.894 150.777C171.235 150.963 171.503 151.215 171.696 151.532C171.89 151.848 171.987 152.2 171.987 152.588C171.987 152.865 171.937 153.136 171.836 153.401C171.738 153.664 171.566 153.957 171.321 154.281C171.078 154.603 170.741 154.995 170.309 155.459L168.616 157.27V157.329H172.12V158.139H167.364Z" fill="#A6B0BF"/>
<path d="M211.107 148.139V142.956" stroke="#F2F7FA" stroke-width="0.863772"/>
<path d="M200.928 150.6H201.84V155.989C201.84 156.47 201.752 156.879 201.575 157.215C201.399 157.551 201.15 157.806 200.828 157.98C200.507 158.155 200.128 158.242 199.691 158.242C199.279 158.242 198.912 158.167 198.59 158.017C198.269 157.865 198.016 157.649 197.832 157.369C197.648 157.09 197.556 156.757 197.556 156.372H198.454C198.454 156.585 198.507 156.772 198.612 156.931C198.72 157.088 198.867 157.211 199.054 157.299C199.24 157.388 199.453 157.432 199.691 157.432C199.953 157.432 200.177 157.377 200.361 157.266C200.545 157.156 200.685 156.994 200.78 156.78C200.878 156.564 200.928 156.301 200.928 155.989V150.6ZM205.216 158.271C204.857 158.271 204.532 158.204 204.24 158.069C203.948 157.931 203.716 157.734 203.545 157.476C203.373 157.216 203.287 156.902 203.287 156.534C203.287 156.21 203.351 155.947 203.478 155.746C203.606 155.542 203.777 155.383 203.99 155.268C204.203 155.152 204.439 155.066 204.697 155.01C204.957 154.951 205.218 154.904 205.481 154.87C205.824 154.826 206.103 154.793 206.316 154.771C206.532 154.746 206.689 154.706 206.787 154.649C206.888 154.593 206.938 154.495 206.938 154.355V154.325C206.938 153.962 206.839 153.68 206.64 153.479C206.444 153.277 206.146 153.177 205.746 153.177C205.331 153.177 205.006 153.268 204.77 153.449C204.535 153.631 204.369 153.825 204.273 154.031L203.449 153.736C203.596 153.393 203.792 153.125 204.038 152.934C204.286 152.74 204.556 152.605 204.848 152.529C205.142 152.451 205.432 152.411 205.716 152.411C205.898 152.411 206.106 152.433 206.342 152.478C206.58 152.519 206.81 152.606 207.03 152.739C207.254 152.871 207.439 153.071 207.586 153.339C207.733 153.606 207.807 153.965 207.807 154.414V158.139H206.938V157.373H206.894C206.835 157.496 206.737 157.627 206.6 157.767C206.462 157.907 206.279 158.026 206.051 158.124C205.823 158.222 205.545 158.271 205.216 158.271ZM205.348 157.491C205.692 157.491 205.981 157.423 206.217 157.288C206.455 157.153 206.634 156.979 206.754 156.766C206.877 156.552 206.938 156.328 206.938 156.092V155.297C206.902 155.341 206.821 155.382 206.695 155.419C206.573 155.453 206.43 155.484 206.268 155.511C206.109 155.535 205.953 155.557 205.801 155.577C205.651 155.594 205.53 155.609 205.437 155.621C205.211 155.65 205 155.698 204.803 155.765C204.61 155.828 204.453 155.925 204.332 156.055C204.215 156.183 204.156 156.357 204.156 156.578C204.156 156.88 204.267 157.108 204.491 157.263C204.716 157.415 205.002 157.491 205.348 157.491ZM210.261 154.738V158.139H209.393V152.485H210.232V153.368H210.305C210.438 153.081 210.639 152.851 210.909 152.676C211.179 152.5 211.527 152.411 211.954 152.411C212.337 152.411 212.672 152.49 212.959 152.647C213.246 152.801 213.47 153.037 213.629 153.354C213.789 153.668 213.868 154.065 213.868 154.546V158.139H213V154.605C213 154.161 212.884 153.815 212.654 153.567C212.423 153.317 212.107 153.192 211.704 153.192C211.427 153.192 211.179 153.252 210.961 153.372C210.745 153.492 210.574 153.668 210.449 153.898C210.324 154.129 210.261 154.409 210.261 154.738ZM220.904 158.242C220.418 158.242 219.985 158.158 219.604 157.991C219.226 157.825 218.926 157.593 218.702 157.296C218.482 156.996 218.361 156.649 218.342 156.254H219.269C219.289 156.497 219.372 156.707 219.52 156.884C219.667 157.058 219.859 157.193 220.097 157.288C220.335 157.384 220.599 157.432 220.889 157.432C221.213 157.432 221.5 157.376 221.75 157.263C222 157.15 222.197 156.993 222.339 156.791C222.481 156.59 222.553 156.357 222.553 156.092C222.553 155.815 222.484 155.571 222.346 155.36C222.209 155.146 222.008 154.979 221.743 154.859C221.478 154.739 221.154 154.679 220.771 154.679H220.167V153.869H220.771C221.07 153.869 221.333 153.815 221.559 153.707C221.787 153.599 221.965 153.447 222.092 153.251C222.222 153.054 222.288 152.824 222.288 152.559C222.288 152.303 222.231 152.081 222.118 151.892C222.005 151.703 221.846 151.556 221.64 151.451C221.436 151.345 221.196 151.292 220.918 151.292C220.658 151.292 220.413 151.34 220.182 151.436C219.954 151.529 219.767 151.665 219.623 151.844C219.478 152.021 219.399 152.235 219.387 152.485H218.504C218.518 152.09 218.637 151.744 218.861 151.447C219.084 151.148 219.376 150.914 219.737 150.748C220.1 150.581 220.499 150.497 220.933 150.497C221.399 150.497 221.799 150.592 222.133 150.781C222.467 150.967 222.723 151.214 222.902 151.521C223.081 151.827 223.171 152.159 223.171 152.514C223.171 152.939 223.059 153.301 222.836 153.6C222.615 153.9 222.314 154.107 221.934 154.222V154.281C222.41 154.36 222.782 154.562 223.049 154.888C223.317 155.212 223.451 155.614 223.451 156.092C223.451 156.502 223.339 156.87 223.116 157.196C222.895 157.52 222.593 157.775 222.21 157.962C221.827 158.148 221.392 158.242 220.904 158.242Z" fill="#A6B0BF"/>
<path d="M262.758 148.139V142.956" stroke="#F2F7FA" stroke-width="0.863772"/>
<path d="M252.553 150.6H253.465V155.989C253.465 156.47 253.377 156.879 253.2 157.215C253.024 157.551 252.775 157.806 252.453 157.98C252.132 158.155 251.753 158.242 251.316 158.242C250.904 158.242 250.537 158.167 250.215 158.017C249.894 157.865 249.641 157.649 249.457 157.369C249.273 157.09 249.181 156.757 249.181 156.372H250.079C250.079 156.585 250.132 156.772 250.237 156.931C250.345 157.088 250.493 157.211 250.679 157.299C250.866 157.388 251.078 157.432 251.316 157.432C251.578 157.432 251.802 157.377 251.986 157.266C252.17 157.156 252.31 156.994 252.405 156.78C252.504 156.564 252.553 156.301 252.553 155.989V150.6ZM256.841 158.271C256.483 158.271 256.157 158.204 255.865 158.069C255.573 157.931 255.341 157.734 255.17 157.476C254.998 157.216 254.912 156.902 254.912 156.534C254.912 156.21 254.976 155.947 255.103 155.746C255.231 155.542 255.402 155.383 255.615 155.268C255.829 155.152 256.064 155.066 256.322 155.01C256.582 154.951 256.843 154.904 257.106 154.87C257.449 154.826 257.728 154.793 257.941 154.771C258.157 154.746 258.314 154.706 258.413 154.649C258.513 154.593 258.563 154.495 258.563 154.355V154.325C258.563 153.962 258.464 153.68 258.265 153.479C258.069 153.277 257.771 153.177 257.371 153.177C256.956 153.177 256.631 153.268 256.395 153.449C256.16 153.631 255.994 153.825 255.899 154.031L255.074 153.736C255.221 153.393 255.418 153.125 255.663 152.934C255.911 152.74 256.181 152.605 256.473 152.529C256.767 152.451 257.057 152.411 257.341 152.411C257.523 152.411 257.732 152.433 257.967 152.478C258.205 152.519 258.435 152.606 258.655 152.739C258.879 152.871 259.064 153.071 259.211 153.339C259.359 153.606 259.432 153.965 259.432 154.414V158.139H258.563V157.373H258.519C258.46 157.496 258.362 157.627 258.225 157.767C258.087 157.907 257.905 158.026 257.676 158.124C257.448 158.222 257.17 158.271 256.841 158.271ZM256.973 157.491C257.317 157.491 257.606 157.423 257.842 157.288C258.08 157.153 258.259 156.979 258.379 156.766C258.502 156.552 258.563 156.328 258.563 156.092V155.297C258.527 155.341 258.446 155.382 258.321 155.419C258.198 155.453 258.055 155.484 257.894 155.511C257.734 155.535 257.578 155.557 257.426 155.577C257.276 155.594 257.155 155.609 257.062 155.621C256.836 155.65 256.625 155.698 256.429 155.765C256.235 155.828 256.078 155.925 255.957 156.055C255.84 156.183 255.781 156.357 255.781 156.578C255.781 156.88 255.892 157.108 256.116 157.263C256.341 157.415 256.627 157.491 256.973 157.491ZM261.886 154.738V158.139H261.018V152.485H261.857V153.368H261.931C262.063 153.081 262.264 152.851 262.534 152.676C262.804 152.5 263.153 152.411 263.58 152.411C263.962 152.411 264.297 152.49 264.584 152.647C264.872 152.801 265.095 153.037 265.254 153.354C265.414 153.668 265.494 154.065 265.494 154.546V158.139H264.625V154.605C264.625 154.161 264.51 153.815 264.279 153.567C264.048 153.317 263.732 153.192 263.329 153.192C263.052 153.192 262.804 153.252 262.586 153.372C262.37 153.492 262.199 153.668 262.074 153.898C261.949 154.129 261.886 154.409 261.886 154.738ZM269.805 156.593V155.842L273.118 150.6H273.662V151.763H273.294L270.791 155.724V155.783H275.252V156.593H269.805ZM273.353 158.139V156.365V156.015V150.6H274.222V158.139H273.353Z" fill="#A6B0BF"/>
<path d="M314.412 148.139V142.956" stroke="#F2F7FA" stroke-width="0.863772"/>
<path d="M304.879 150.6H305.792V155.989C305.792 156.47 305.704 156.879 305.527 157.215C305.35 157.551 305.101 157.806 304.78 157.98C304.458 158.155 304.079 158.242 303.642 158.242C303.23 158.242 302.863 158.167 302.542 158.017C302.22 157.865 301.967 157.649 301.783 157.369C301.599 157.09 301.507 156.757 301.507 156.372H302.405C302.405 156.585 302.458 156.772 302.564 156.931C302.672 157.088 302.819 157.211 303.005 157.299C303.192 157.388 303.404 157.432 303.642 157.432C303.905 157.432 304.128 157.377 304.312 157.266C304.496 157.156 304.636 156.994 304.732 156.78C304.83 156.564 304.879 156.301 304.879 155.989V150.6ZM309.167 158.271C308.809 158.271 308.484 158.204 308.192 158.069C307.9 157.931 307.668 157.734 307.496 157.476C307.324 157.216 307.238 156.902 307.238 156.534C307.238 156.21 307.302 155.947 307.43 155.746C307.557 155.542 307.728 155.383 307.941 155.268C308.155 155.152 308.391 155.066 308.648 155.01C308.908 154.951 309.17 154.904 309.432 154.87C309.776 154.826 310.054 154.793 310.268 154.771C310.484 154.746 310.641 154.706 310.739 154.649C310.84 154.593 310.89 154.495 310.89 154.355V154.325C310.89 153.962 310.79 153.68 310.592 153.479C310.395 153.277 310.097 153.177 309.697 153.177C309.283 153.177 308.957 153.268 308.722 153.449C308.486 153.631 308.321 153.825 308.225 154.031L307.4 153.736C307.548 153.393 307.744 153.125 307.989 152.934C308.237 152.74 308.507 152.605 308.799 152.529C309.094 152.451 309.383 152.411 309.668 152.411C309.849 152.411 310.058 152.433 310.294 152.478C310.532 152.519 310.761 152.606 310.982 152.739C311.205 152.871 311.39 153.071 311.538 153.339C311.685 153.606 311.759 153.965 311.759 154.414V158.139H310.89V157.373H310.846C310.787 157.496 310.689 157.627 310.551 157.767C310.414 157.907 310.231 158.026 310.003 158.124C309.775 158.222 309.496 158.271 309.167 158.271ZM309.3 157.491C309.643 157.491 309.933 157.423 310.168 157.288C310.406 157.153 310.586 156.979 310.706 156.766C310.828 156.552 310.89 156.328 310.89 156.092V155.297C310.853 155.341 310.772 155.382 310.647 155.419C310.524 155.453 310.382 155.484 310.22 155.511C310.06 155.535 309.905 155.557 309.752 155.577C309.603 155.594 309.481 155.609 309.388 155.621C309.162 155.65 308.951 155.698 308.755 155.765C308.561 155.828 308.404 155.925 308.284 156.055C308.166 156.183 308.107 156.357 308.107 156.578C308.107 156.88 308.219 157.108 308.442 157.263C308.668 157.415 308.954 157.491 309.3 157.491ZM314.213 154.738V158.139H313.344V152.485H314.183V153.368H314.257C314.389 153.081 314.591 152.851 314.861 152.676C315.13 152.5 315.479 152.411 315.906 152.411C316.289 152.411 316.624 152.49 316.911 152.647C317.198 152.801 317.421 153.037 317.581 153.354C317.74 153.668 317.82 154.065 317.82 154.546V158.139H316.951V154.605C316.951 154.161 316.836 153.815 316.605 153.567C316.375 153.317 316.058 153.192 315.656 153.192C315.378 153.192 315.13 153.252 314.912 153.372C314.696 153.492 314.526 153.668 314.4 153.898C314.275 154.129 314.213 154.409 314.213 154.738ZM324.664 158.242C324.232 158.242 323.843 158.156 323.497 157.984C323.151 157.812 322.873 157.577 322.665 157.277C322.456 156.978 322.342 156.637 322.323 156.254H323.206C323.24 156.595 323.395 156.877 323.67 157.101C323.947 157.322 324.278 157.432 324.664 157.432C324.973 157.432 325.248 157.36 325.488 157.215C325.731 157.07 325.921 156.871 326.059 156.618C326.198 156.363 326.268 156.075 326.268 155.753C326.268 155.425 326.196 155.131 326.051 154.874C325.909 154.614 325.713 154.409 325.462 154.259C325.212 154.109 324.926 154.033 324.605 154.031C324.374 154.028 324.137 154.064 323.894 154.138C323.651 154.209 323.451 154.301 323.294 154.414L322.44 154.311L322.897 150.6H326.813V151.41H323.662L323.397 153.633H323.442C323.596 153.511 323.79 153.409 324.023 153.328C324.256 153.247 324.499 153.206 324.752 153.206C325.213 153.206 325.624 153.317 325.985 153.538C326.348 153.756 326.633 154.055 326.839 154.436C327.048 154.816 327.152 155.25 327.152 155.739C327.152 156.22 327.044 156.649 326.828 157.027C326.614 157.403 326.32 157.699 325.944 157.918C325.569 158.134 325.142 158.242 324.664 158.242Z" fill="#A6B0BF"/>
<path d="M366.066 148.139V142.956" stroke="#F2F7FA" stroke-width="0.863772"/>
<path d="M356.452 150.6H357.365V155.989C357.365 156.47 357.277 156.879 357.1 157.215C356.923 157.551 356.674 157.806 356.353 157.98C356.031 158.155 355.652 158.242 355.216 158.242C354.803 158.242 354.436 158.167 354.115 158.017C353.794 157.865 353.541 157.649 353.357 157.369C353.173 157.09 353.081 156.757 353.081 156.372H353.979C353.979 156.585 354.032 156.772 354.137 156.931C354.245 157.088 354.392 157.211 354.579 157.299C354.765 157.388 354.978 157.432 355.216 157.432C355.478 157.432 355.701 157.377 355.885 157.266C356.07 157.156 356.209 156.994 356.305 156.78C356.403 156.564 356.452 156.301 356.452 155.989V150.6ZM360.741 158.271C360.382 158.271 360.057 158.204 359.765 158.069C359.473 157.931 359.241 157.734 359.069 157.476C358.898 157.216 358.812 156.902 358.812 156.534C358.812 156.21 358.876 155.947 359.003 155.746C359.131 155.542 359.301 155.383 359.515 155.268C359.728 155.152 359.964 155.066 360.222 155.01C360.482 154.951 360.743 154.904 361.006 154.87C361.349 154.826 361.628 154.793 361.841 154.771C362.057 154.746 362.214 154.706 362.312 154.649C362.413 154.593 362.463 154.495 362.463 154.355V154.325C362.463 153.962 362.364 153.68 362.165 153.479C361.969 153.277 361.671 153.177 361.271 153.177C360.856 153.177 360.531 153.268 360.295 153.449C360.06 153.631 359.894 153.825 359.798 154.031L358.974 153.736C359.121 153.393 359.317 153.125 359.563 152.934C359.81 152.74 360.08 152.605 360.372 152.529C360.667 152.451 360.956 152.411 361.241 152.411C361.423 152.411 361.631 152.433 361.867 152.478C362.105 152.519 362.334 152.606 362.555 152.739C362.778 152.871 362.964 153.071 363.111 153.339C363.258 153.606 363.332 153.965 363.332 154.414V158.139H362.463V157.373H362.419C362.36 157.496 362.262 157.627 362.125 157.767C361.987 157.907 361.804 158.026 361.576 158.124C361.348 158.222 361.069 158.271 360.741 158.271ZM360.873 157.491C361.217 157.491 361.506 157.423 361.742 157.288C361.98 157.153 362.159 156.979 362.279 156.766C362.402 156.552 362.463 156.328 362.463 156.092V155.297C362.426 155.341 362.345 155.382 362.22 155.419C362.098 155.453 361.955 155.484 361.793 155.511C361.634 155.535 361.478 155.557 361.326 155.577C361.176 155.594 361.055 155.609 360.961 155.621C360.736 155.65 360.525 155.698 360.328 155.765C360.134 155.828 359.977 155.925 359.857 156.055C359.739 156.183 359.68 156.357 359.68 156.578C359.68 156.88 359.792 157.108 360.015 157.263C360.241 157.415 360.527 157.491 360.873 157.491ZM365.786 154.738V158.139H364.917V152.485H365.757V153.368H365.83C365.963 153.081 366.164 152.851 366.434 152.676C366.704 152.5 367.052 152.411 367.479 152.411C367.862 152.411 368.197 152.49 368.484 152.647C368.771 152.801 368.995 153.037 369.154 153.354C369.314 153.668 369.393 154.065 369.393 154.546V158.139H368.525V154.605C368.525 154.161 368.409 153.815 368.179 153.567C367.948 153.317 367.631 153.192 367.229 153.192C366.952 153.192 366.704 153.252 366.485 153.372C366.269 153.492 366.099 153.668 365.974 153.898C365.849 154.129 365.786 154.409 365.786 154.738ZM376.384 158.242C376.075 158.237 375.766 158.178 375.457 158.065C375.147 157.952 374.865 157.762 374.61 157.495C374.355 157.225 374.15 156.86 373.995 156.401C373.841 155.94 373.763 155.361 373.763 154.664C373.763 153.996 373.826 153.405 373.951 152.89C374.076 152.372 374.258 151.936 374.496 151.583C374.734 151.227 375.021 150.957 375.357 150.773C375.696 150.589 376.077 150.497 376.502 150.497C376.924 150.497 377.299 150.582 377.628 150.751C377.96 150.918 378.229 151.151 378.438 151.451C378.647 151.75 378.782 152.095 378.843 152.485H377.945C377.861 152.146 377.699 151.865 377.459 151.642C377.218 151.419 376.899 151.307 376.502 151.307C375.918 151.307 375.458 151.561 375.122 152.069C374.788 152.577 374.62 153.29 374.617 154.208H374.676C374.814 153.999 374.977 153.821 375.166 153.674C375.357 153.524 375.568 153.409 375.799 153.328C376.03 153.247 376.274 153.206 376.531 153.206C376.963 153.206 377.358 153.314 377.717 153.53C378.075 153.744 378.362 154.039 378.578 154.417C378.794 154.793 378.902 155.223 378.902 155.709C378.902 156.176 378.798 156.603 378.589 156.99C378.38 157.376 378.087 157.682 377.709 157.91C377.334 158.136 376.892 158.247 376.384 158.242ZM376.384 157.432C376.693 157.432 376.971 157.355 377.216 157.2C377.464 157.045 377.659 156.838 377.801 156.578C377.946 156.318 378.018 156.028 378.018 155.709C378.018 155.398 377.948 155.114 377.809 154.859C377.671 154.601 377.481 154.396 377.238 154.244C376.998 154.092 376.723 154.016 376.414 154.016C376.18 154.016 375.963 154.063 375.762 154.156C375.561 154.247 375.384 154.372 375.232 154.531C375.082 154.691 374.965 154.874 374.879 155.08C374.793 155.284 374.75 155.498 374.75 155.724C374.75 156.023 374.82 156.303 374.96 156.563C375.102 156.823 375.296 157.033 375.541 157.193C375.789 157.352 376.07 157.432 376.384 157.432Z" fill="#A6B0BF"/>
<path d="M417.721 148.139V142.956" stroke="#F2F7FA" stroke-width="0.863772"/>
<path d="M409.243 150.6H410.156V155.989C410.156 156.47 410.068 156.879 409.891 157.215C409.714 157.551 409.465 157.806 409.144 157.98C408.822 158.155 408.443 158.242 408.006 158.242C407.594 158.242 407.227 158.167 406.906 158.017C406.584 157.865 406.332 157.649 406.148 157.369C405.964 157.09 405.872 156.757 405.872 156.372H406.77C406.77 156.585 406.822 156.772 406.928 156.931C407.036 157.088 407.183 157.211 407.37 157.299C407.556 157.388 407.768 157.432 408.006 157.432C408.269 157.432 408.492 157.377 408.676 157.266C408.86 157.156 409 156.994 409.096 156.78C409.194 156.564 409.243 156.301 409.243 155.989V150.6ZM413.531 158.271C413.173 158.271 412.848 158.204 412.556 158.069C412.264 157.931 412.032 157.734 411.86 157.476C411.689 157.216 411.603 156.902 411.603 156.534C411.603 156.21 411.666 155.947 411.794 155.746C411.922 155.542 412.092 155.383 412.306 155.268C412.519 155.152 412.755 155.066 413.012 155.01C413.273 154.951 413.534 154.904 413.796 154.87C414.14 154.826 414.418 154.793 414.632 154.771C414.848 154.746 415.005 154.706 415.103 154.649C415.204 154.593 415.254 154.495 415.254 154.355V154.325C415.254 153.962 415.155 153.68 414.956 153.479C414.76 153.277 414.461 153.177 414.061 153.177C413.647 153.177 413.322 153.268 413.086 153.449C412.85 153.631 412.685 153.825 412.589 154.031L411.765 153.736C411.912 153.393 412.108 153.125 412.354 152.934C412.601 152.74 412.871 152.605 413.163 152.529C413.458 152.451 413.747 152.411 414.032 152.411C414.214 152.411 414.422 152.433 414.658 152.478C414.896 152.519 415.125 152.606 415.346 152.739C415.569 152.871 415.755 153.071 415.902 153.339C416.049 153.606 416.123 153.965 416.123 154.414V158.139H415.254V157.373H415.21C415.151 157.496 415.053 157.627 414.915 157.767C414.778 157.907 414.595 158.026 414.367 158.124C414.139 158.222 413.86 158.271 413.531 158.271ZM413.664 157.491C414.007 157.491 414.297 157.423 414.533 157.288C414.771 157.153 414.95 156.979 415.07 156.766C415.193 156.552 415.254 156.328 415.254 156.092V155.297C415.217 155.341 415.136 155.382 415.011 155.419C414.888 155.453 414.746 155.484 414.584 155.511C414.425 155.535 414.269 155.557 414.117 155.577C413.967 155.594 413.845 155.609 413.752 155.621C413.526 155.65 413.315 155.698 413.119 155.765C412.925 155.828 412.768 155.925 412.648 156.055C412.53 156.183 412.471 156.357 412.471 156.578C412.471 156.88 412.583 157.108 412.806 157.263C413.032 157.415 413.318 157.491 413.664 157.491ZM418.577 154.738V158.139H417.708V152.485H418.547V153.368H418.621C418.754 153.081 418.955 152.851 419.225 152.676C419.495 152.5 419.843 152.411 420.27 152.411C420.653 152.411 420.988 152.49 421.275 152.647C421.562 152.801 421.785 153.037 421.945 153.354C422.104 153.668 422.184 154.065 422.184 154.546V158.139H421.315V154.605C421.315 154.161 421.2 153.815 420.969 153.567C420.739 153.317 420.422 153.192 420.02 153.192C419.743 153.192 419.495 153.252 419.276 153.372C419.06 153.492 418.89 153.668 418.765 153.898C418.639 154.129 418.577 154.409 418.577 154.738ZM426.908 158.139L430.279 151.469V151.41H426.392V150.6H431.222V151.454L427.865 158.139H426.908Z" fill="#A6B0BF"/>
<path d="M469.375 148.139V142.956" stroke="#F2F7FA" stroke-width="0.863772"/>
<path d="M459.801 150.6H460.714V155.989C460.714 156.47 460.626 156.879 460.449 157.215C460.273 157.551 460.023 157.806 459.702 157.98C459.381 158.155 459.001 158.242 458.565 158.242C458.152 158.242 457.786 158.167 457.464 158.017C457.143 157.865 456.89 157.649 456.706 157.369C456.522 157.09 456.43 156.757 456.43 156.372H457.328C457.328 156.585 457.381 156.772 457.486 156.931C457.594 157.088 457.741 157.211 457.928 157.299C458.114 157.388 458.327 157.432 458.565 157.432C458.827 157.432 459.051 157.377 459.235 157.266C459.419 157.156 459.558 156.994 459.654 156.78C459.752 156.564 459.801 156.301 459.801 155.989V150.6ZM464.09 158.271C463.731 158.271 463.406 158.204 463.114 158.069C462.822 157.931 462.59 157.734 462.418 157.476C462.247 157.216 462.161 156.902 462.161 156.534C462.161 156.21 462.225 155.947 462.352 155.746C462.48 155.542 462.65 155.383 462.864 155.268C463.077 155.152 463.313 155.066 463.571 155.01C463.831 154.951 464.092 154.904 464.355 154.87C464.698 154.826 464.977 154.793 465.19 154.771C465.406 154.746 465.563 154.706 465.661 154.649C465.762 154.593 465.812 154.495 465.812 154.355V154.325C465.812 153.962 465.713 153.68 465.514 153.479C465.318 153.277 465.02 153.177 464.62 153.177C464.205 153.177 463.88 153.268 463.644 153.449C463.409 153.631 463.243 153.825 463.147 154.031L462.323 153.736C462.47 153.393 462.666 153.125 462.912 152.934C463.16 152.74 463.429 152.605 463.722 152.529C464.016 152.451 464.306 152.411 464.59 152.411C464.772 152.411 464.98 152.433 465.216 152.478C465.454 152.519 465.683 152.606 465.904 152.739C466.128 152.871 466.313 153.071 466.46 153.339C466.607 153.606 466.681 153.965 466.681 154.414V158.139H465.812V157.373H465.768C465.709 157.496 465.611 157.627 465.474 157.767C465.336 157.907 465.153 158.026 464.925 158.124C464.697 158.222 464.418 158.271 464.09 158.271ZM464.222 157.491C464.566 157.491 464.855 157.423 465.091 157.288C465.329 157.153 465.508 156.979 465.628 156.766C465.751 156.552 465.812 156.328 465.812 156.092V155.297C465.775 155.341 465.694 155.382 465.569 155.419C465.447 155.453 465.304 155.484 465.142 155.511C464.983 155.535 464.827 155.557 464.675 155.577C464.525 155.594 464.404 155.609 464.31 155.621C464.085 155.65 463.874 155.698 463.677 155.765C463.483 155.828 463.326 155.925 463.206 156.055C463.088 156.183 463.03 156.357 463.03 156.578C463.03 156.88 463.141 157.108 463.364 157.263C463.59 157.415 463.876 157.491 464.222 157.491ZM469.135 154.738V158.139H468.266V152.485H469.106V153.368H469.179C469.312 153.081 469.513 152.851 469.783 152.676C470.053 152.5 470.401 152.411 470.828 152.411C471.211 152.411 471.546 152.49 471.833 152.647C472.12 152.801 472.344 153.037 472.503 153.354C472.663 153.668 472.742 154.065 472.742 154.546V158.139H471.874V154.605C471.874 154.161 471.758 153.815 471.528 153.567C471.297 153.317 470.98 153.192 470.578 153.192C470.301 153.192 470.053 153.252 469.834 153.372C469.619 153.492 469.448 153.668 469.323 153.898C469.198 154.129 469.135 154.409 469.135 154.738ZM479.645 158.242C479.139 158.242 478.693 158.152 478.305 157.973C477.92 157.791 477.619 157.542 477.403 157.226C477.187 156.907 477.081 156.544 477.083 156.136C477.081 155.817 477.143 155.523 477.271 155.253C477.398 154.981 477.573 154.754 477.793 154.572C478.017 154.388 478.266 154.271 478.541 154.222V154.178C478.18 154.085 477.893 153.882 477.679 153.571C477.466 153.257 477.36 152.9 477.363 152.5C477.36 152.117 477.457 151.774 477.654 151.473C477.85 151.171 478.12 150.933 478.463 150.759C478.809 150.584 479.203 150.497 479.645 150.497C480.082 150.497 480.472 150.584 480.815 150.759C481.159 150.933 481.429 151.171 481.625 151.473C481.824 151.774 481.925 152.117 481.927 152.5C481.925 152.9 481.815 153.257 481.599 153.571C481.386 153.882 481.102 154.085 480.749 154.178V154.222C481.021 154.271 481.267 154.388 481.485 154.572C481.704 154.754 481.878 154.981 482.008 155.253C482.138 155.523 482.204 155.817 482.207 156.136C482.204 156.544 482.094 156.907 481.875 157.226C481.66 157.542 481.359 157.791 480.974 157.973C480.591 158.152 480.148 158.242 479.645 158.242ZM479.645 157.432C479.986 157.432 480.28 157.377 480.528 157.266C480.776 157.156 480.968 157 481.102 156.799C481.237 156.598 481.306 156.362 481.309 156.092C481.306 155.807 481.233 155.556 481.088 155.338C480.943 155.119 480.745 154.947 480.495 154.822C480.247 154.697 479.964 154.635 479.645 154.635C479.323 154.635 479.036 154.697 478.784 154.822C478.533 154.947 478.336 155.119 478.191 155.338C478.049 155.556 477.979 155.807 477.981 156.092C477.979 156.362 478.044 156.598 478.176 156.799C478.311 157 478.504 157.156 478.754 157.266C479.004 157.377 479.301 157.432 479.645 157.432ZM479.645 153.854C479.915 153.854 480.154 153.8 480.363 153.692C480.574 153.584 480.739 153.433 480.86 153.239C480.98 153.046 481.041 152.819 481.044 152.559C481.041 152.303 480.981 152.081 480.863 151.892C480.745 151.701 480.582 151.554 480.374 151.451C480.165 151.345 479.922 151.292 479.645 151.292C479.363 151.292 479.116 151.345 478.905 151.451C478.694 151.554 478.531 151.701 478.415 151.892C478.3 152.081 478.244 152.303 478.246 152.559C478.244 152.819 478.301 153.046 478.419 153.239C478.539 153.433 478.705 153.584 478.916 153.692C479.127 153.8 479.37 153.854 479.645 153.854Z" fill="#A6B0BF"/>
<path d="M521.027 148.139V142.956" stroke="#F2F7FA" stroke-width="0.863772"/>
<path d="M511.413 150.6H512.326V155.989C512.326 156.47 512.238 156.879 512.061 157.215C511.884 157.551 511.635 157.806 511.314 157.98C510.992 158.155 510.613 158.242 510.176 158.242C509.764 158.242 509.397 158.167 509.076 158.017C508.754 157.865 508.502 157.649 508.318 157.369C508.134 157.09 508.042 156.757 508.042 156.372H508.94C508.94 156.585 508.992 156.772 509.098 156.931C509.206 157.088 509.353 157.211 509.54 157.299C509.726 157.388 509.938 157.432 510.176 157.432C510.439 157.432 510.662 157.377 510.846 157.266C511.03 157.156 511.17 156.994 511.266 156.78C511.364 156.564 511.413 156.301 511.413 155.989V150.6ZM515.701 158.271C515.343 158.271 515.018 158.204 514.726 158.069C514.434 157.931 514.202 157.734 514.03 157.476C513.859 157.216 513.773 156.902 513.773 156.534C513.773 156.21 513.836 155.947 513.964 155.746C514.092 155.542 514.262 155.383 514.476 155.268C514.689 155.152 514.925 155.066 515.182 155.01C515.443 154.951 515.704 154.904 515.966 154.87C516.31 154.826 516.589 154.793 516.802 154.771C517.018 154.746 517.175 154.706 517.273 154.649C517.374 154.593 517.424 154.495 517.424 154.355V154.325C517.424 153.962 517.325 153.68 517.126 153.479C516.93 153.277 516.631 153.177 516.231 153.177C515.817 153.177 515.492 153.268 515.256 153.449C515.02 153.631 514.855 153.825 514.759 154.031L513.935 153.736C514.082 153.393 514.278 153.125 514.524 152.934C514.771 152.74 515.041 152.605 515.333 152.529C515.628 152.451 515.917 152.411 516.202 152.411C516.384 152.411 516.592 152.433 516.828 152.478C517.066 152.519 517.295 152.606 517.516 152.739C517.739 152.871 517.925 153.071 518.072 153.339C518.219 153.606 518.293 153.965 518.293 154.414V158.139H517.424V157.373H517.38C517.321 157.496 517.223 157.627 517.085 157.767C516.948 157.907 516.765 158.026 516.537 158.124C516.309 158.222 516.03 158.271 515.701 158.271ZM515.834 157.491C516.178 157.491 516.467 157.423 516.703 157.288C516.941 157.153 517.12 156.979 517.24 156.766C517.363 156.552 517.424 156.328 517.424 156.092V155.297C517.387 155.341 517.306 155.382 517.181 155.419C517.058 155.453 516.916 155.484 516.754 155.511C516.595 155.535 516.439 155.557 516.287 155.577C516.137 155.594 516.016 155.609 515.922 155.621C515.697 155.65 515.486 155.698 515.289 155.765C515.095 155.828 514.938 155.925 514.818 156.055C514.7 156.183 514.641 156.357 514.641 156.578C514.641 156.88 514.753 157.108 514.976 157.263C515.202 157.415 515.488 157.491 515.834 157.491ZM520.747 154.738V158.139H519.878V152.485H520.718V153.368H520.791C520.924 153.081 521.125 152.851 521.395 152.676C521.665 152.5 522.013 152.411 522.44 152.411C522.823 152.411 523.158 152.49 523.445 152.647C523.732 152.801 523.955 153.037 524.115 153.354C524.274 153.668 524.354 154.065 524.354 154.546V158.139H523.486V154.605C523.486 154.161 523.37 153.815 523.14 153.567C522.909 153.317 522.592 153.192 522.19 153.192C521.913 153.192 521.665 153.252 521.446 153.372C521.23 153.492 521.06 153.668 520.935 153.898C520.81 154.129 520.747 154.409 520.747 154.738ZM531.242 150.497C531.551 150.5 531.86 150.559 532.17 150.674C532.479 150.789 532.761 150.981 533.016 151.248C533.271 151.513 533.476 151.875 533.631 152.334C533.785 152.793 533.863 153.368 533.863 154.06C533.863 154.73 533.799 155.325 533.671 155.846C533.546 156.363 533.365 156.8 533.127 157.156C532.891 157.512 532.604 157.782 532.265 157.966C531.929 158.15 531.549 158.242 531.124 158.242C530.702 158.242 530.325 158.158 529.994 157.991C529.665 157.822 529.395 157.588 529.184 157.288C528.976 156.987 528.842 156.637 528.783 156.239H529.681C529.762 156.585 529.923 156.871 530.164 157.097C530.406 157.32 530.727 157.432 531.124 157.432C531.706 157.432 532.165 157.178 532.501 156.67C532.839 156.162 533.009 155.444 533.009 154.517H532.95C532.812 154.723 532.649 154.901 532.46 155.05C532.271 155.2 532.062 155.315 531.831 155.396C531.6 155.477 531.355 155.518 531.095 155.518C530.663 155.518 530.267 155.411 529.906 155.198C529.548 154.982 529.26 154.686 529.045 154.311C528.831 153.933 528.724 153.501 528.724 153.015C528.724 152.554 528.827 152.132 529.033 151.749C529.242 151.363 529.534 151.057 529.91 150.829C530.287 150.6 530.732 150.49 531.242 150.497ZM531.242 151.307C530.933 151.307 530.654 151.384 530.406 151.539C530.161 151.691 529.966 151.897 529.821 152.157C529.679 152.415 529.608 152.701 529.608 153.015C529.608 153.329 529.676 153.615 529.814 153.873C529.954 154.128 530.144 154.331 530.384 154.484C530.627 154.633 530.903 154.708 531.213 154.708C531.446 154.708 531.663 154.663 531.864 154.572C532.065 154.479 532.241 154.352 532.39 154.193C532.543 154.031 532.662 153.848 532.747 153.644C532.833 153.438 532.876 153.224 532.876 153C532.876 152.706 532.805 152.43 532.663 152.172C532.523 151.914 532.329 151.706 532.081 151.546C531.836 151.387 531.556 151.307 531.242 151.307Z" fill="#A6B0BF"/>
<path d="M572.682 148.139V142.956" stroke="#F2F7FA" stroke-width="0.863772"/>
<path d="M553.968 150.6H554.881V155.989C554.881 156.47 554.792 156.879 554.616 157.215C554.439 157.551 554.19 157.806 553.868 157.98C553.547 158.155 553.168 158.242 552.731 158.242C552.319 158.242 551.952 158.167 551.63 158.017C551.309 157.865 551.056 157.649 550.872 157.369C550.688 157.09 550.596 156.757 550.596 156.372H551.494C551.494 156.585 551.547 156.772 551.653 156.931C551.761 157.088 551.908 157.211 552.094 157.299C552.281 157.388 552.493 157.432 552.731 157.432C552.994 157.432 553.217 157.377 553.401 157.266C553.585 157.156 553.725 156.994 553.821 156.78C553.919 156.564 553.968 156.301 553.968 155.989V150.6ZM558.256 158.271C557.898 158.271 557.573 158.204 557.281 158.069C556.989 157.931 556.757 157.734 556.585 157.476C556.413 157.216 556.327 156.902 556.327 156.534C556.327 156.21 556.391 155.947 556.519 155.746C556.646 155.542 556.817 155.383 557.03 155.268C557.244 155.152 557.479 155.066 557.737 155.01C557.997 154.951 558.258 154.904 558.521 154.87C558.865 154.826 559.143 154.793 559.357 154.771C559.573 154.746 559.73 154.706 559.828 154.649C559.928 154.593 559.979 154.495 559.979 154.355V154.325C559.979 153.962 559.879 153.68 559.681 153.479C559.484 153.277 559.186 153.177 558.786 153.177C558.371 153.177 558.046 153.268 557.811 153.449C557.575 153.631 557.409 153.825 557.314 154.031L556.489 153.736C556.636 153.393 556.833 153.125 557.078 152.934C557.326 152.74 557.596 152.605 557.888 152.529C558.182 152.451 558.472 152.411 558.757 152.411C558.938 152.411 559.147 152.433 559.382 152.478C559.62 152.519 559.85 152.606 560.071 152.739C560.294 152.871 560.479 153.071 560.626 153.339C560.774 153.606 560.847 153.965 560.847 154.414V158.139H559.979V157.373H559.934C559.876 157.496 559.777 157.627 559.64 157.767C559.503 157.907 559.32 158.026 559.092 158.124C558.863 158.222 558.585 158.271 558.256 158.271ZM558.389 157.491C558.732 157.491 559.022 157.423 559.257 157.288C559.495 157.153 559.674 156.979 559.795 156.766C559.917 156.552 559.979 156.328 559.979 156.092V155.297C559.942 155.341 559.861 155.382 559.736 155.419C559.613 155.453 559.471 155.484 559.309 155.511C559.149 155.535 558.993 155.557 558.841 155.577C558.692 155.594 558.57 155.609 558.477 155.621C558.251 155.65 558.04 155.698 557.844 155.765C557.65 155.828 557.493 155.925 557.373 156.055C557.255 156.183 557.196 156.357 557.196 156.578C557.196 156.88 557.308 157.108 557.531 157.263C557.757 157.415 558.043 157.491 558.389 157.491ZM563.302 154.738V158.139H562.433V152.485H563.272V153.368H563.346C563.478 153.081 563.679 152.851 563.949 152.676C564.219 152.5 564.568 152.411 564.995 152.411C565.378 152.411 565.713 152.49 566 152.647C566.287 152.801 566.51 153.037 566.67 153.354C566.829 153.668 566.909 154.065 566.909 154.546V158.139H566.04V154.605C566.04 154.161 565.925 153.815 565.694 153.567C565.463 153.317 565.147 153.192 564.744 153.192C564.467 153.192 564.219 153.252 564.001 153.372C563.785 153.492 563.614 153.668 563.489 153.898C563.364 154.129 563.302 154.409 563.302 154.738ZM574.047 150.6V158.139H573.134V151.557H573.09L571.249 152.779V151.852L573.134 150.6H574.047ZM578.674 158.242C578.119 158.242 577.647 158.091 577.257 157.789C576.866 157.485 576.568 157.044 576.362 156.468C576.156 155.888 576.053 155.189 576.053 154.369C576.053 153.555 576.156 152.859 576.362 152.282C576.571 151.703 576.87 151.262 577.26 150.957C577.653 150.651 578.124 150.497 578.674 150.497C579.223 150.497 579.693 150.651 580.083 150.957C580.476 151.262 580.775 151.703 580.982 152.282C581.19 152.859 581.294 153.555 581.294 154.369C581.294 155.189 581.191 155.888 580.985 156.468C580.779 157.044 580.481 157.485 580.091 157.789C579.701 158.091 579.228 158.242 578.674 158.242ZM578.674 157.432C579.223 157.432 579.65 157.167 579.955 156.637C580.259 156.107 580.411 155.351 580.411 154.369C580.411 153.717 580.341 153.161 580.201 152.702C580.064 152.243 579.865 151.893 579.605 151.653C579.347 151.413 579.037 151.292 578.674 151.292C578.129 151.292 577.703 151.561 577.396 152.098C577.09 152.633 576.936 153.39 576.936 154.369C576.936 155.022 577.005 155.577 577.142 156.033C577.28 156.49 577.477 156.837 577.735 157.075C577.995 157.313 578.308 157.432 578.674 157.432Z" fill="#A6B0BF"/>
<path d="M50.9629 142.955H56.1455" stroke="#E5ECF5" stroke-width="0.863772"/>
<path d="M43.3566 142.693C42.802 142.693 42.3296 142.542 41.9394 142.24C41.5493 141.936 41.2511 141.495 41.045 140.919C40.8389 140.34 40.7358 139.64 40.7358 138.821C40.7358 138.006 40.8389 137.31 41.045 136.734C41.2536 136.154 41.5529 135.713 41.9431 135.409C42.3357 135.102 42.8069 134.948 43.3566 134.948C43.9062 134.948 44.3762 135.102 44.7663 135.409C45.1589 135.713 45.4583 136.154 45.6644 136.734C45.873 137.31 45.9773 138.006 45.9773 138.821C45.9773 139.64 45.8743 140.34 45.6681 140.919C45.462 141.495 45.1639 141.936 44.7737 142.24C44.3835 142.542 43.9111 142.693 43.3566 142.693ZM43.3566 141.883C43.9062 141.883 44.3332 141.618 44.6375 141.088C44.9418 140.558 45.0939 139.802 45.0939 138.821C45.0939 138.168 45.024 137.612 44.8841 137.153C44.7467 136.694 44.5479 136.345 44.2878 136.104C44.0302 135.864 43.7197 135.743 43.3566 135.743C42.8118 135.743 42.386 136.012 42.0793 136.55C41.7726 137.085 41.6192 137.842 41.6192 138.821C41.6192 139.473 41.6879 140.028 41.8253 140.484C41.9627 140.941 42.1603 141.288 42.4179 141.526C42.6781 141.764 42.9909 141.883 43.3566 141.883Z" fill="#A6B0BF"/>
<path d="M50.9629 108.404H56.1455" stroke="#E5ECF5" stroke-width="0.863772"/>
<path d="M28.3157 112.49V111.828L30.8039 109.104C31.096 108.785 31.3364 108.508 31.5254 108.272C31.7143 108.034 31.8542 107.811 31.945 107.602C32.0383 107.391 32.0849 107.17 32.0849 106.94C32.0849 106.674 32.0211 106.445 31.8935 106.251C31.7683 106.057 31.5966 105.908 31.3782 105.802C31.1598 105.697 30.9144 105.644 30.642 105.644C30.3524 105.644 30.0997 105.704 29.8837 105.824C29.6702 105.942 29.5046 106.108 29.3868 106.321C29.2715 106.535 29.2138 106.785 29.2138 107.072H28.3451C28.3451 106.63 28.447 106.243 28.6506 105.909C28.8543 105.575 29.1316 105.315 29.4825 105.129C29.8359 104.942 30.2322 104.849 30.6714 104.849C31.1131 104.849 31.5045 104.942 31.8456 105.129C32.1867 105.315 32.4542 105.567 32.648 105.883C32.8419 106.2 32.9388 106.552 32.9388 106.94C32.9388 107.217 32.8885 107.488 32.7879 107.753C32.6898 108.016 32.518 108.309 32.2726 108.633C32.0297 108.954 31.6923 109.347 31.2604 109.811L29.5672 111.622V111.68H33.0713V112.49H28.3157ZM36.9473 112.593C36.5154 112.593 36.1264 112.507 35.7804 112.336C35.4345 112.164 35.1572 111.928 34.9486 111.629C34.74 111.33 34.6259 110.988 34.6063 110.606H35.4897C35.524 110.947 35.6786 111.229 35.9534 111.452C36.2307 111.673 36.562 111.784 36.9473 111.784C37.2565 111.784 37.5313 111.711 37.7718 111.566C38.0147 111.422 38.2049 111.223 38.3423 110.97C38.4822 110.715 38.5521 110.427 38.5521 110.105C38.5521 109.776 38.4797 109.483 38.335 109.225C38.1926 108.965 37.9963 108.76 37.746 108.611C37.4957 108.461 37.2098 108.385 36.8884 108.382C36.6577 108.38 36.4209 108.416 36.178 108.489C35.935 108.56 35.7351 108.652 35.578 108.765L34.724 108.662L35.1805 104.952H39.0969V105.762H35.9461L35.6811 107.985H35.7252C35.8798 107.862 36.0737 107.76 36.3068 107.679C36.5399 107.598 36.7829 107.558 37.0356 107.558C37.497 107.558 37.908 107.668 38.2687 107.889C38.6319 108.108 38.9165 108.407 39.1227 108.787C39.3312 109.168 39.4355 109.602 39.4355 110.09C39.4355 110.571 39.3276 111.001 39.1116 111.379C38.8981 111.754 38.6037 112.051 38.2282 112.269C37.8528 112.485 37.4258 112.593 36.9473 112.593ZM43.3566 112.593C42.802 112.593 42.3296 112.442 41.9394 112.141C41.5493 111.836 41.2511 111.396 41.045 110.819C40.8389 110.24 40.7358 109.541 40.7358 108.721C40.7358 107.906 40.8389 107.211 41.045 106.634C41.2536 106.055 41.5529 105.613 41.9431 105.309C42.3357 105.002 42.8069 104.849 43.3566 104.849C43.9062 104.849 44.3762 105.002 44.7663 105.309C45.1589 105.613 45.4583 106.055 45.6644 106.634C45.873 107.211 45.9773 107.906 45.9773 108.721C45.9773 109.541 45.8743 110.24 45.6681 110.819C45.462 111.396 45.1639 111.836 44.7737 112.141C44.3835 112.442 43.9111 112.593 43.3566 112.593ZM43.3566 111.784C43.9062 111.784 44.3332 111.518 44.6375 110.988C44.9418 110.458 45.0939 109.703 45.0939 108.721C45.0939 108.068 45.024 107.512 44.8841 107.054C44.7467 106.595 44.5479 106.245 44.2878 106.005C44.0302 105.764 43.7197 105.644 43.3566 105.644C42.8118 105.644 42.386 105.913 42.0793 106.45C41.7726 106.985 41.6192 107.742 41.6192 108.721C41.6192 109.374 41.6879 109.928 41.8253 110.385C41.9627 110.841 42.1603 111.188 42.4179 111.426C42.6781 111.664 42.9909 111.784 43.3566 111.784Z" fill="#A6B0BF"/>
<path d="M50.9629 73.8525H56.1455" stroke="#E5ECF5" stroke-width="0.863772"/>
<path d="M30.469 77.4556C30.0371 77.4556 29.6482 77.3697 29.3022 77.1979C28.9562 77.0262 28.6789 76.7906 28.4703 76.4912C28.2617 76.1918 28.1476 75.8508 28.128 75.4679H29.0114C29.0457 75.809 29.2003 76.0912 29.4752 76.3145C29.7524 76.5354 30.0837 76.6458 30.469 76.6458C30.7782 76.6458 31.053 76.5734 31.2935 76.4286C31.5364 76.2839 31.7266 76.0851 31.864 75.8323C32.0039 75.5771 32.0738 75.2888 32.0738 74.9673C32.0738 74.6385 32.0014 74.3453 31.8567 74.0876C31.7143 73.8275 31.518 73.6226 31.2677 73.4729C31.0174 73.3232 30.7316 73.2472 30.4101 73.2447C30.1794 73.2423 29.9426 73.2778 29.6997 73.3515C29.4568 73.4226 29.2568 73.5146 29.0997 73.6275L28.2458 73.5245L28.7022 69.8142H32.6186V70.6239H29.4678L29.2028 72.8472H29.2469C29.4015 72.7245 29.5954 72.6226 29.8285 72.5417C30.0616 72.4607 30.3046 72.4202 30.5573 72.4202C31.0187 72.4202 31.4297 72.5306 31.7904 72.7515C32.1536 72.9699 32.4382 73.2693 32.6444 73.6496C32.8529 74.03 32.9572 74.4643 32.9572 74.9526C32.9572 75.4336 32.8493 75.863 32.6333 76.2409C32.4198 76.6164 32.1254 76.9133 31.7499 77.1317C31.3745 77.3476 30.9475 77.4556 30.469 77.4556ZM36.8783 77.4556C36.3237 77.4556 35.8513 77.3047 35.4611 77.0029C35.071 76.6986 34.7728 76.2581 34.5667 75.6814C34.3606 75.1023 34.2575 74.403 34.2575 73.5833C34.2575 72.7687 34.3606 72.073 34.5667 71.4963C34.7753 70.9172 35.0746 70.4755 35.4648 70.1712C35.8574 69.8645 36.3286 69.7111 36.8783 69.7111C37.4279 69.7111 37.8979 69.8645 38.288 70.1712C38.6807 70.4755 38.98 70.9172 39.1862 71.4963C39.3947 72.073 39.499 72.7687 39.499 73.5833C39.499 74.403 39.396 75.1023 39.1898 75.6814C38.9837 76.2581 38.6856 76.6986 38.2954 77.0029C37.9052 77.3047 37.4328 77.4556 36.8783 77.4556ZM36.8783 76.6458C37.4279 76.6458 37.8549 76.3808 38.1592 75.8508C38.4635 75.3207 38.6156 74.5649 38.6156 73.5833C38.6156 72.9306 38.5457 72.3748 38.4058 71.9159C38.2684 71.457 38.0696 71.1074 37.8095 70.8669C37.5519 70.6264 37.2414 70.5062 36.8783 70.5062C36.3335 70.5062 35.9077 70.7749 35.601 71.3123C35.2943 71.8472 35.1409 72.6042 35.1409 73.5833C35.1409 74.2361 35.2096 74.7907 35.347 75.2471C35.4844 75.7035 35.682 76.0507 35.9396 76.2888C36.1998 76.5268 36.5126 76.6458 36.8783 76.6458ZM43.3566 77.4556C42.802 77.4556 42.3296 77.3047 41.9394 77.0029C41.5493 76.6986 41.2511 76.2581 41.045 75.6814C40.8389 75.1023 40.7358 74.403 40.7358 73.5833C40.7358 72.7687 40.8389 72.073 41.045 71.4963C41.2536 70.9172 41.5529 70.4755 41.9431 70.1712C42.3357 69.8645 42.8069 69.7111 43.3566 69.7111C43.9062 69.7111 44.3762 69.8645 44.7663 70.1712C45.1589 70.4755 45.4583 70.9172 45.6644 71.4963C45.873 72.073 45.9773 72.7687 45.9773 73.5833C45.9773 74.403 45.8743 75.1023 45.6681 75.6814C45.462 76.2581 45.1639 76.6986 44.7737 77.0029C44.3835 77.3047 43.9111 77.4556 43.3566 77.4556ZM43.3566 76.6458C43.9062 76.6458 44.3332 76.3808 44.6375 75.8508C44.9418 75.3207 45.0939 74.5649 45.0939 73.5833C45.0939 72.9306 45.024 72.3748 44.8841 71.9159C44.7467 71.457 44.5479 71.1074 44.2878 70.8669C44.0302 70.6264 43.7197 70.5062 43.3566 70.5062C42.8118 70.5062 42.386 70.7749 42.0793 71.3123C41.7726 71.8472 41.6192 72.6042 41.6192 73.5833C41.6192 74.2361 41.6879 74.7907 41.8253 75.2471C41.9627 75.7035 42.1603 76.0507 42.4179 76.2888C42.6781 76.5268 42.9909 76.6458 43.3566 76.6458Z" fill="#A6B0BF"/>
<path d="M50.9629 39.3018H56.1455" stroke="#E5ECF5" stroke-width="0.863772"/>
<path d="M29.0068 42.8018L32.3784 36.1321V36.0732H28.4914V35.2634H33.3207V36.1173L29.9638 42.8018H29.0068ZM36.9473 42.9048C36.5154 42.9048 36.1265 42.8189 35.7805 42.6472C35.4345 42.4754 35.1572 42.2398 34.9486 41.9404C34.74 41.6411 34.6259 41.3 34.6063 40.9172H35.4897C35.524 41.2583 35.6786 41.5405 35.9535 41.7638C36.2307 41.9846 36.562 42.095 36.9473 42.095C37.2565 42.095 37.5313 42.0226 37.7718 41.8779C38.0147 41.7331 38.2049 41.5343 38.3423 41.2816C38.4822 41.0264 38.5521 40.738 38.5521 40.4166C38.5521 40.0877 38.4797 39.7945 38.335 39.5368C38.1926 39.2767 37.9963 39.0718 37.746 38.9221C37.4957 38.7725 37.2098 38.6964 36.8884 38.6939C36.6577 38.6915 36.4209 38.7271 36.178 38.8007C35.935 38.8718 35.7351 38.9639 35.578 39.0767L34.724 38.9737L35.1805 35.2634H39.0969V36.0732H35.9461L35.6811 38.2964H35.7252C35.8798 38.1737 36.0737 38.0719 36.3068 37.9909C36.5399 37.9099 36.7829 37.8694 37.0356 37.8694C37.497 37.8694 37.908 37.9798 38.2687 38.2007C38.6319 38.4191 38.9165 38.7185 39.1227 39.0988C39.3312 39.4792 39.4355 39.9135 39.4355 40.4018C39.4355 40.8828 39.3276 41.3122 39.1116 41.6901C38.8981 42.0656 38.6037 42.3625 38.2282 42.5809C37.8528 42.7969 37.4258 42.9048 36.9473 42.9048ZM43.3566 42.9048C42.802 42.9048 42.3296 42.7539 41.9394 42.4521C41.5493 42.1478 41.2511 41.7073 41.045 41.1307C40.8389 40.5515 40.7358 39.8522 40.7358 39.0326C40.7358 38.2179 40.8389 37.5222 41.045 36.9455C41.2536 36.3664 41.5529 35.9247 41.9431 35.6204C42.3357 35.3137 42.8069 35.1603 43.3566 35.1603C43.9062 35.1603 44.3762 35.3137 44.7663 35.6204C45.1589 35.9247 45.4583 36.3664 45.6644 36.9455C45.873 37.5222 45.9773 38.2179 45.9773 39.0326C45.9773 39.8522 45.8743 40.5515 45.6681 41.1307C45.462 41.7073 45.1639 42.1478 44.7737 42.4521C44.3835 42.7539 43.9111 42.9048 43.3566 42.9048ZM43.3566 42.095C43.9062 42.095 44.3332 41.83 44.6375 41.3C44.9418 40.7699 45.0939 40.0141 45.0939 39.0326C45.0939 38.3798 45.024 37.824 44.8841 37.3651C44.7467 36.9063 44.5479 36.5566 44.2878 36.3161C44.0302 36.0756 43.7197 35.9554 43.3566 35.9554C42.8118 35.9554 42.386 36.2241 42.0793 36.7615C41.7726 37.2964 41.6192 38.0535 41.6192 39.0326C41.6192 39.6853 41.6879 40.2399 41.8253 40.6963C41.9627 41.1527 42.1603 41.5 42.4179 41.738C42.6781 41.976 42.9909 42.095 43.3566 42.095Z" fill="#A6B0BF"/>
<path d="M50.9648 4.75195H56.1475" stroke="#E5ECF5" stroke-width="0.863772"/>
<path d="M25.7731 0.473341V8.01172H24.8603V1.43036H24.8161L22.9757 2.6524V1.72483L24.8603 0.473341H25.7731ZM30.4 8.11478C29.8454 8.11478 29.373 7.96387 28.9828 7.66204C28.5927 7.35775 28.2945 6.91728 28.0884 6.34061C27.8823 5.76149 27.7792 5.06213 27.7792 4.24253C27.7792 3.42784 27.8823 2.73215 28.0884 2.15549C28.297 1.57637 28.5964 1.13467 28.9865 0.830383C29.3791 0.523645 29.8503 0.370277 30.4 0.370277C30.9496 0.370277 31.4196 0.523645 31.8097 0.830383C32.2024 1.13467 32.5017 1.57637 32.7079 2.15549C32.9164 2.73215 33.0207 3.42784 33.0207 4.24253C33.0207 5.06213 32.9177 5.76149 32.7115 6.34061C32.5054 6.91728 32.2073 7.35775 31.8171 7.66204C31.4269 7.96387 30.9546 8.11478 30.4 8.11478ZM30.4 7.305C30.9496 7.305 31.3766 7.03997 31.6809 6.50993C31.9852 5.97989 32.1373 5.22409 32.1373 4.24253C32.1373 3.58979 32.0674 3.03398 31.9275 2.57511C31.7901 2.11623 31.5913 1.76655 31.3312 1.52606C31.0736 1.28558 30.7631 1.16534 30.4 1.16534C29.8552 1.16534 29.4295 1.43404 29.1227 1.97145C28.816 2.5064 28.6626 3.26342 28.6626 4.24253C28.6626 4.89527 28.7313 5.44985 28.8687 5.90627C29.0062 6.3627 29.2037 6.70993 29.4614 6.94795C29.7215 7.18598 30.0343 7.305 30.4 7.305ZM36.8783 8.11478C36.3237 8.11478 35.8513 7.96387 35.4611 7.66204C35.071 7.35775 34.7728 6.91728 34.5667 6.34061C34.3606 5.76149 34.2575 5.06213 34.2575 4.24253C34.2575 3.42784 34.3606 2.73215 34.5667 2.15549C34.7753 1.57637 35.0746 1.13467 35.4648 0.830383C35.8574 0.523645 36.3286 0.370277 36.8783 0.370277C37.4279 0.370277 37.8979 0.523645 38.288 0.830383C38.6807 1.13467 38.98 1.57637 39.1862 2.15549C39.3947 2.73215 39.499 3.42784 39.499 4.24253C39.499 5.06213 39.396 5.76149 39.1898 6.34061C38.9837 6.91728 38.6856 7.35775 38.2954 7.66204C37.9052 7.96387 37.4328 8.11478 36.8783 8.11478ZM36.8783 7.305C37.4279 7.305 37.8549 7.03997 38.1592 6.50993C38.4635 5.97989 38.6156 5.22409 38.6156 4.24253C38.6156 3.58979 38.5457 3.03398 38.4058 2.57511C38.2684 2.11623 38.0696 1.76655 37.8095 1.52606C37.5519 1.28558 37.2414 1.16534 36.8783 1.16534C36.3335 1.16534 35.9077 1.43404 35.601 1.97145C35.2943 2.5064 35.1409 3.26342 35.1409 4.24253C35.1409 4.89527 35.2096 5.44985 35.347 5.90627C35.4844 6.3627 35.682 6.70993 35.9396 6.94795C36.1998 7.18598 36.5126 7.305 36.8783 7.305ZM43.3566 8.11478C42.802 8.11478 42.3296 7.96387 41.9394 7.66204C41.5493 7.35775 41.2511 6.91728 41.045 6.34061C40.8389 5.76149 40.7358 5.06213 40.7358 4.24253C40.7358 3.42784 40.8389 2.73215 41.045 2.15549C41.2536 1.57637 41.5529 1.13467 41.9431 0.830383C42.3357 0.523645 42.8069 0.370277 43.3566 0.370277C43.9062 0.370277 44.3762 0.523645 44.7663 0.830383C45.1589 1.13467 45.4583 1.57637 45.6644 2.15549C45.873 2.73215 45.9773 3.42784 45.9773 4.24253C45.9773 5.06213 45.8743 5.76149 45.6681 6.34061C45.462 6.91728 45.1639 7.35775 44.7737 7.66204C44.3835 7.96387 43.9111 8.11478 43.3566 8.11478ZM43.3566 7.305C43.9062 7.305 44.3332 7.03997 44.6375 6.50993C44.9418 5.97989 45.0939 5.22409 45.0939 4.24253C45.0939 3.58979 45.024 3.03398 44.8841 2.57511C44.7467 2.11623 44.5479 1.76655 44.2878 1.52606C44.0302 1.28558 43.7197 1.16534 43.3566 1.16534C42.8118 1.16534 42.386 1.43404 42.0793 1.97145C41.7726 2.5064 41.6192 3.26342 41.6192 4.24253C41.6192 4.89527 41.6879 5.44985 41.8253 5.90627C41.9627 6.3627 42.1603 6.70993 42.4179 6.94795C42.6781 7.18598 42.9909 7.305 43.3566 7.305Z" fill="#A6B0BF"/>
<path d="M56.1465 89.6082L107.8 25.7581L159.454 126.37L211.107 69.2923L262.761 63.0731L314.414 111.583L366.068 20.0918L417.722 61.2765L469.375 43.5864L521.029 139.638L572.682 140.882V142.955H521.029H469.375H417.722H366.068H314.414H262.761H211.107H159.454H107.8H56.1465V89.6082Z" fill="url(#paint0_linear_2711_436543)"/>
<path d="M56.1465 89.6082L107.8 25.7581L159.454 126.37L211.107 69.2923L262.761 63.0731L314.414 111.583L366.068 20.0918L417.722 61.2765L469.375 43.5864L521.029 139.638L572.682 140.882V142.955" stroke="#7FBBF8" stroke-width="0.863772"/>
<path d="M56.1441 92.1992C57.5752 92.1992 58.7354 91.0391 58.7354 89.6079C58.7354 88.1768 57.5752 87.0166 56.1441 87.0166C54.7129 87.0166 53.5527 88.1768 53.5527 89.6079C53.5527 91.0391 54.7129 92.1992 56.1441 92.1992Z" fill="#7FBBF8"/>
<path d="M107.798 28.3487C109.229 28.3487 110.39 27.1885 110.39 25.7573C110.39 24.3262 109.229 23.166 107.798 23.166C106.367 23.166 105.207 24.3262 105.207 25.7573C105.207 27.1885 106.367 28.3487 107.798 28.3487Z" fill="#7FBBF8"/>
<path d="M159.451 128.961C160.882 128.961 162.042 127.801 162.042 126.37C162.042 124.938 160.882 123.778 159.451 123.778C158.02 123.778 156.859 124.938 156.859 126.37C156.859 127.801 158.02 128.961 159.451 128.961Z" fill="#7FBBF8"/>
<path d="M211.105 71.8828C212.536 71.8828 213.696 70.7227 213.696 69.2915C213.696 67.8604 212.536 66.7002 211.105 66.7002C209.674 66.7002 208.514 67.8604 208.514 69.2915C208.514 70.7227 209.674 71.8828 211.105 71.8828Z" fill="#7FBBF8"/>
<path d="M262.757 65.6641C264.188 65.6641 265.349 64.5039 265.349 63.0728C265.349 61.6416 264.188 60.4814 262.757 60.4814C261.326 60.4814 260.166 61.6416 260.166 63.0728C260.166 64.5039 261.326 65.6641 262.757 65.6641Z" fill="#7FBBF8"/>
<path d="M314.412 114.173C315.843 114.173 317.003 113.013 317.003 111.582C317.003 110.15 315.843 108.99 314.412 108.99C312.98 108.99 311.82 110.15 311.82 111.582C311.82 113.013 312.98 114.173 314.412 114.173Z" fill="#7FBBF8"/>
<path d="M366.066 22.6826C367.497 22.6826 368.657 21.5225 368.657 20.0913C368.657 18.6602 367.497 17.5 366.066 17.5C364.635 17.5 363.475 18.6602 363.475 20.0913C363.475 21.5225 364.635 22.6826 366.066 22.6826Z" fill="#7FBBF8"/>
<path d="M417.718 63.8672C419.149 63.8672 420.31 62.707 420.31 61.2759C420.31 59.8447 419.149 58.6846 417.718 58.6846C416.287 58.6846 415.127 59.8447 415.127 61.2759C415.127 62.707 416.287 63.8672 417.718 63.8672Z" fill="#7FBBF8"/>
<path d="M469.373 46.1778C470.804 46.1778 471.964 45.0176 471.964 43.5864C471.964 42.1553 470.804 40.9951 469.373 40.9951C467.941 40.9951 466.781 42.1553 466.781 43.5864C466.781 45.0176 467.941 46.1778 469.373 46.1778Z" fill="#7FBBF8"/>
<path d="M521.025 142.23C522.456 142.23 523.616 141.069 523.616 139.638C523.616 138.207 522.456 137.047 521.025 137.047C519.594 137.047 518.434 138.207 518.434 139.638C518.434 141.069 519.594 142.23 521.025 142.23Z" fill="#7FBBF8"/>
<path d="M572.679 143.473C574.11 143.473 575.271 142.313 575.271 140.881C575.271 139.45 574.11 138.29 572.679 138.29C571.248 138.29 570.088 139.45 570.088 140.881C570.088 142.313 571.248 143.473 572.679 143.473Z" fill="#7FBBF8"/>
<line x1="366.611" y1="142.955" x2="366.611" y2="-0.429688" stroke="#7FBBF8"/>
</g>
<defs>
<linearGradient id="paint0_linear_2711_436543" x1="314.414" y1="20.0918" x2="314.414" y2="161.302" gradientUnits="userSpaceOnUse">
<stop stop-color="#C8E7FF"/>
<stop offset="0.938561" stop-color="#F1F7FC" stop-opacity="0.2"/>
</linearGradient>
<clipPath id="clip0_2711_436543">
<rect width="577" height="172.754" fill="white" transform="translate(0 0.431641)"/>
</clipPath>
</defs>
</svg>
