<svg width="40" height="40" viewBox="0 0 40 40" fill="none" xmlns="http://www.w3.org/2000/svg">
<path d="M34.2888 27.0087C34.0374 26.1915 33.7074 25.3586 33.3145 24.5257C33.2516 24.62 28.6627 31.0005 18.3849 37.0823C18.432 37.1138 18.4949 37.1452 18.542 37.1766C18.6835 37.2552 18.8092 37.3338 18.9506 37.3967C19.0921 37.4752 19.2492 37.5538 19.3907 37.6167C20.0664 37.9624 20.7422 38.261 21.3865 38.5125C21.5279 38.5753 21.6694 38.6225 21.8108 38.6696C21.8265 38.6696 21.8423 38.6853 21.858 38.6853C22.0151 38.7482 22.1723 38.7953 22.3294 38.8425C23.1623 39.1096 23.9953 39.2982 24.7653 39.4082C24.9225 39.424 25.0796 39.4554 25.2368 39.4711C25.4725 39.4868 25.6768 39.5025 25.8654 39.5182C26.0068 39.5182 26.1483 39.534 26.274 39.534C28.1913 39.534 29.7628 38.9525 30.8786 37.8524L33.2359 35.4951C35.0589 33.6721 35.4203 30.6547 34.2888 27.0087ZM21.858 37.6953C21.8108 37.6795 21.7637 37.6638 21.7008 37.6324C21.1193 37.4124 20.6793 37.2552 20.0664 36.9566L22.3137 35.5108C22.3766 35.5422 22.8952 35.7937 22.9423 35.8251C23.0366 35.8723 23.1466 35.9037 23.2409 35.9508C23.3195 35.9823 23.3981 36.0137 23.4767 36.0451L21.858 37.6953ZM25.1111 38.5282C25.0325 38.5125 24.9696 38.5125 24.891 38.4967C24.231 38.4024 23.5395 38.2453 22.8323 38.0253L24.4667 36.3909C24.561 36.4223 24.6553 36.4537 24.7496 36.4852C24.8439 36.5166 24.9382 36.548 25.0325 36.5637C25.1268 36.5952 25.2054 36.6109 25.2996 36.6423H25.3154C25.4096 36.6737 25.5039 36.6895 25.5982 36.7209C25.7868 36.768 25.9597 36.8152 26.1483 36.8466C26.2269 36.8623 26.3054 36.878 26.384 36.8938C26.4626 36.9095 26.5254 36.9252 26.604 36.9409C26.6355 36.9409 26.6512 36.9566 26.6826 36.9566L25.1111 38.5282ZM30.2343 37.1924C29.3228 38.1039 27.987 38.591 26.3526 38.6068L27.8298 37.1295C27.8612 37.1295 27.8927 37.1295 27.9398 37.1452C28.0027 37.1452 28.0813 37.1609 28.1441 37.1609C28.2384 37.1609 28.317 37.1766 28.4113 37.1766C28.4899 37.1766 28.5842 37.1766 28.6627 37.1766C28.6942 37.1766 28.7256 37.1766 28.7727 37.1766C28.8042 37.1766 28.8513 37.1766 28.8828 37.1766H28.9142C28.9928 37.1766 29.0556 37.1766 29.1342 37.1609C29.1499 37.1609 29.1499 37.1609 29.1656 37.1609C29.2442 37.1609 29.3071 37.1452 29.3856 37.1452C29.4642 37.1452 29.5271 37.1295 29.6057 37.1295C29.6057 37.1295 29.6057 37.1295 29.6214 37.1295C29.7785 37.1138 29.92 37.0981 30.0614 37.0666C30.1243 37.0509 30.2028 37.0352 30.2657 37.0352C30.3443 37.0195 30.4071 37.0038 30.4857 36.9881L30.2343 37.1924ZM38.7835 10.8375C37.4634 8.96737 34.6817 8.95165 32.5916 9.26596C29.9357 9.65885 26.6512 10.8061 23.1152 12.5976C23.0995 12.6134 22.9738 12.6605 22.958 12.6762C22.9266 12.6448 22.8795 12.6291 22.848 12.5976C20.8679 11.2618 18.8406 10.2403 16.8762 9.62741C13.2302 8.48019 10.2286 8.84165 8.42132 10.6646L6.06401 13.022C4.88535 14.2006 4.30389 15.945 4.38247 18.0352C4.38247 18.2395 4.39818 18.4438 4.42961 18.6795C4.42961 18.6952 4.42961 18.711 4.42961 18.711C4.44533 18.8524 4.46104 18.9938 4.47676 19.151L4.53962 19.591C4.6182 20.0153 4.82249 20.8168 4.96393 21.304L5.04251 21.5555V21.5712C5.08965 21.7126 5.1368 21.8698 5.19966 22.0584C5.19966 22.0741 5.21538 22.0898 5.21538 22.1055C5.27825 22.2627 5.32539 22.4041 5.37254 22.5298C5.62398 23.1899 5.92258 23.8656 6.26832 24.5414C6.29975 24.5885 6.31546 24.6514 6.34689 24.6986C6.37832 24.7614 6.40975 24.8243 6.44118 24.8871C4.09959 27.3388 2.33946 29.7275 1.34939 31.802C-0.143568 34.8979 0.375045 36.7052 1.05081 37.6638C1.99373 38.9996 3.69099 39.3925 5.3411 39.3925C6.00115 39.3925 6.64548 39.3297 7.24266 39.2354C9.86713 38.8425 13.0888 37.7267 16.5619 35.9823C16.609 35.9508 16.6719 35.9351 16.719 35.9037C16.719 35.9037 16.7348 35.9037 16.7348 35.888C16.7505 35.888 16.7505 35.8723 16.7505 35.8723C16.8919 35.7937 17.0334 35.7308 17.1748 35.6522C17.2534 35.6051 17.3477 35.5579 17.442 35.5108C17.4577 35.4951 17.4734 35.4951 17.5048 35.4794C17.552 35.4479 17.5991 35.4322 17.662 35.4008C17.9763 35.2279 18.3063 35.055 18.6363 34.8822C19.0292 34.6622 19.4378 34.4264 19.8464 34.1907C19.8936 34.1593 19.9407 34.1436 19.9878 34.1121C20.0036 34.0964 20.035 34.0807 20.0507 34.0807C20.1764 34.0021 20.3022 33.9235 20.4279 33.8607C20.5693 33.7664 20.7265 33.6878 20.8679 33.5935C21.4965 33.2163 22.1094 32.8235 22.738 32.4148L22.958 32.2734C23.5552 31.8805 24.1524 31.4719 24.7339 31.0476C27.0912 29.366 29.2756 27.5902 31.2558 25.7515C31.8687 25.17 32.4659 24.5885 33.0316 24.0071C33.0473 23.9914 33.0473 23.9756 33.063 23.9756C33.1102 23.9285 33.1573 23.8814 33.2045 23.8342C35.6247 21.3197 37.4476 18.8681 38.4691 16.7308C39.9778 13.6034 39.4592 11.8119 38.7835 10.8375ZM14.5503 30.0418C14.6446 30.1204 14.7232 30.2147 14.8175 30.2933C15.0532 30.5133 15.2889 30.7333 15.5247 30.9376C15.6347 31.0319 15.7447 31.1419 15.8547 31.2362C15.9018 31.2676 15.9333 31.3148 15.9804 31.3462L14.2674 33.0592L14.236 33.0435C13.7488 32.6192 13.2617 32.1791 12.8059 31.7391L14.5189 30.0261C14.5346 30.0261 14.5503 30.0418 14.5503 30.0418ZM12.5702 27.9359C12.6016 27.9674 12.6173 27.9988 12.6488 28.0302L12.6645 28.0617C12.6802 28.0931 12.7116 28.1088 12.7273 28.1245C12.7431 28.1402 12.7745 28.1717 12.7902 28.1874C12.8531 28.266 12.9316 28.3445 13.0102 28.4231C13.0888 28.5017 13.1517 28.5803 13.2302 28.6589C13.2617 28.6903 13.2774 28.7217 13.3088 28.7374C13.4031 28.8317 13.4974 28.926 13.576 29.036C13.686 29.146 13.7803 29.256 13.8903 29.3661L12.1773 31.079C11.7373 30.6233 11.2972 30.1518 10.8729 29.6489C10.8729 29.6332 10.8572 29.6332 10.8572 29.6332L12.5702 27.9359C12.5545 27.9202 12.5545 27.9202 12.5702 27.9359ZM10.9044 25.8458C10.9358 25.8772 10.9672 25.9244 10.9829 25.9558C11.0615 26.0658 11.1401 26.1601 11.2187 26.2701C11.2815 26.3644 11.3601 26.4587 11.423 26.553C11.4701 26.6158 11.533 26.6787 11.5801 26.7573C11.6587 26.8516 11.7373 26.9616 11.8158 27.0559C11.863 27.1187 11.9101 27.1659 11.9573 27.2287L10.26 28.926C9.85142 28.4231 9.45854 27.9045 9.09709 27.4016C9.08137 27.3859 9.06565 27.3702 9.06565 27.3388L10.7629 25.6415C10.8101 25.7043 10.8572 25.7829 10.9044 25.8458ZM9.34853 23.457C9.4271 23.5985 9.50568 23.7399 9.59997 23.8813C9.67855 24.0228 9.77285 24.1642 9.85142 24.3057C9.86714 24.3214 9.86714 24.3371 9.88285 24.3528C9.89857 24.3685 9.89856 24.3842 9.91428 24.4C9.92999 24.4157 9.94572 24.4471 9.96143 24.4628C9.97715 24.4785 9.99286 24.51 10.0086 24.5257C10.0872 24.6514 10.1657 24.7614 10.2443 24.8714L8.54705 26.5687C8.37418 26.3015 8.20131 26.0344 8.04415 25.7829C8.04415 25.7829 8.04415 25.7829 8.05986 25.7672L8.02843 25.7358C7.87128 25.4686 7.71413 25.2015 7.57269 24.9343C7.55698 24.9029 7.54126 24.8714 7.52555 24.84L9.20709 23.1584C9.2228 23.2527 9.28567 23.3627 9.34853 23.457ZM6.72406 13.6663L6.94408 13.4463V13.462C6.92836 13.5249 6.91264 13.572 6.91264 13.6349C6.89693 13.682 6.89693 13.7449 6.88121 13.792C6.88121 13.8077 6.88121 13.8077 6.88121 13.8234C6.8655 13.8549 6.8655 13.902 6.8655 13.9335C6.84978 13.9806 6.84978 14.0277 6.84978 14.0749C6.84978 14.122 6.83407 14.1692 6.83407 14.232C6.83407 14.2635 6.81836 14.2949 6.81836 14.3421C6.80264 14.4678 6.78692 14.5935 6.78692 14.7192C6.78692 14.7664 6.78692 14.8292 6.7712 14.8764C6.75549 15.1121 6.75549 15.3479 6.7712 15.5836C6.7712 15.6307 6.7712 15.6779 6.7712 15.725C6.7712 15.7879 6.77121 15.835 6.78692 15.8979C6.78692 15.9608 6.80263 16.0393 6.80263 16.1179L5.32539 17.5952C5.30968 15.9293 5.79685 14.5778 6.72406 13.6663ZM5.60827 20.0468C5.57684 19.8268 5.41968 18.931 5.38825 18.7738L6.92835 17.2337C7.05408 17.9409 7.24267 18.6795 7.49411 19.4339L5.87543 21.0526C5.79685 20.754 5.68685 20.3768 5.60827 20.0468ZM6.2526 22.1841C6.23688 22.1369 6.22117 22.0898 6.18974 22.0426L7.83985 20.3925C7.87129 20.4711 7.90271 20.534 7.93414 20.6125C8.10701 21.0526 8.31131 21.4926 8.53133 21.9326C8.57847 22.0269 8.62562 22.1212 8.67277 22.2155C8.68848 22.2469 8.7042 22.2627 8.71991 22.2941L7.03836 23.9599C6.73977 23.3785 6.47261 22.7656 6.2526 22.1841ZM2.1666 35.2594V35.2122C2.1666 35.2279 2.1666 35.2436 2.1666 35.2594ZM2.37089 34.065C2.37089 34.0335 2.38661 34.0178 2.38661 33.9864C2.38661 34.0178 2.38661 34.0335 2.37089 34.065ZM9.52139 36.2809C9.03422 36.3437 8.51561 36.4066 7.98129 36.4066C6.64548 36.4066 5.27825 36.0923 4.50819 35.0236C3.95815 34.2536 3.54955 32.8077 4.74392 30.309C5.26253 29.256 6.01687 28.0931 6.99122 26.883C6.64548 27.2759 6.31546 27.6531 6.00115 28.0145C6.40975 27.5116 6.8655 26.993 7.36839 26.4587C7.50983 26.6944 7.65127 26.9144 7.80842 27.1502C7.887 27.2759 7.98129 27.4016 8.07559 27.5431C8.07559 27.5431 8.07559 27.5431 8.07559 27.5588C8.16988 27.6845 8.24845 27.8102 8.34274 27.9359C8.71991 28.4703 9.12852 29.0046 9.56855 29.5389C9.66284 29.6646 9.77284 29.7747 9.86713 29.9004C9.96143 30.0261 10.0714 30.1361 10.1657 30.2618C10.6058 30.7647 11.0615 31.2676 11.5173 31.7391C11.6273 31.8491 11.7373 31.9591 11.8473 32.0691C11.9573 32.1791 12.0673 32.2891 12.1773 32.3991C12.6488 32.8549 13.1359 33.3106 13.6545 33.7507C13.7803 33.8607 13.8903 33.955 14.016 34.0493C14.1417 34.1436 14.2517 34.2536 14.3775 34.3479C14.5189 34.4736 14.676 34.5836 14.8332 34.7093C12.8688 35.5108 11.0615 36.0451 9.52139 36.2809ZM17.9606 33.2163C17.9134 33.2321 17.882 33.2635 17.8348 33.2792C17.8191 33.2949 17.8034 33.2949 17.7877 33.3106C17.7248 33.3421 17.6463 33.3892 17.5834 33.4206C17.4734 33.4835 17.3477 33.5306 17.2376 33.5935C17.2376 33.5935 17.2219 33.5935 17.2219 33.6092C17.2219 33.6092 17.2062 33.6092 17.2062 33.6249C17.1591 33.6407 17.1276 33.6721 17.0805 33.6878C16.6405 33.9078 16.2162 34.1121 15.7918 34.3007C15.5247 34.0964 15.2575 33.8921 14.9904 33.6878L16.7033 31.9748C16.7662 32.022 16.8133 32.0691 16.8762 32.1163C16.9548 32.1791 17.0334 32.242 17.1276 32.3048C17.2062 32.3677 17.2848 32.4306 17.3791 32.4934C17.4262 32.5249 17.4734 32.572 17.5205 32.6034C17.5677 32.6349 17.6148 32.6663 17.662 32.7134C17.6777 32.7292 17.6934 32.7449 17.7091 32.7449C17.7405 32.7606 17.772 32.792 17.7877 32.8077C17.8348 32.8392 17.882 32.8706 17.9291 32.9177C17.992 32.9649 18.0549 33.012 18.1177 33.0592C18.1492 33.0749 18.1806 33.1063 18.212 33.122C18.102 33.1378 18.0391 33.1692 17.9606 33.2163ZM34.8074 18.2081C34.2103 19.4496 33.2673 20.8168 32.0573 22.2469C32.0573 22.2312 32.0415 22.2312 32.0415 22.2155C30.8315 20.2196 29.2756 18.2552 27.4684 16.4479C26.5412 15.5207 25.5825 14.6721 24.5925 13.8863C26.604 13.0377 28.4584 12.4719 30.03 12.2362C31.7272 11.9847 33.9588 12.0005 35.0432 13.4934C35.6089 14.2635 36.0175 15.7093 34.8074 18.2081ZM20.8208 3.85983V3.24694C22.3923 3.24694 23.681 1.95827 23.681 0.386719H24.2939C24.2939 1.95827 25.5825 3.24694 27.1541 3.24694V3.85983C25.5825 3.85983 24.2939 5.1485 24.2939 6.72005H23.681C23.681 5.1485 22.3923 3.85983 20.8208 3.85983Z" fill="#A6B0BF"/>
</svg>
