<svg width="135" height="45" viewBox="0 0 135 45" fill="none" xmlns="http://www.w3.org/2000/svg">
<path d="M36.0596 28.3144C35.7921 27.4452 35.4411 26.5593 35.0233 25.6735C34.9564 25.7738 30.0758 32.5599 19.1445 39.0284C19.1946 39.0618 19.2615 39.0952 19.3116 39.1287C19.4621 39.2122 19.5958 39.2958 19.7462 39.3627C19.8966 39.4462 20.0638 39.5298 20.2142 39.5967C20.9329 39.9644 21.6517 40.282 22.337 40.5494C22.4874 40.6162 22.6378 40.6664 22.7883 40.7165C22.805 40.7165 22.8217 40.7333 22.8384 40.7333C23.0055 40.8001 23.1727 40.8503 23.3398 40.9004C24.2257 41.1845 25.1116 41.3851 25.9306 41.5021C26.0977 41.5188 26.2649 41.5523 26.432 41.569C26.6827 41.5857 26.9 41.6024 27.1006 41.6191C27.251 41.6191 27.4014 41.6358 27.5352 41.6358C29.5743 41.6358 31.2458 41.0174 32.4325 39.8474L34.9397 37.3402C36.8786 35.4013 37.263 32.1921 36.0596 28.3144ZM22.8384 39.6802C22.7882 39.6635 22.7381 39.6468 22.6712 39.6134C22.0528 39.3794 21.5848 39.2122 20.9329 38.8947L23.3231 37.3569C23.39 37.3904 23.9415 37.6578 23.9917 37.6912C24.092 37.7414 24.209 37.7748 24.3093 37.8249C24.3928 37.8584 24.4764 37.8918 24.56 37.9252L22.8384 39.6802ZM26.2983 40.5661C26.2147 40.5494 26.1479 40.5494 26.0643 40.5327C25.3623 40.4324 24.6269 40.2652 23.8747 40.0312L25.613 38.2929C25.7133 38.3264 25.8136 38.3598 25.9139 38.3932C26.0141 38.4267 26.1144 38.4601 26.2147 38.4768C26.315 38.5102 26.3986 38.5269 26.4989 38.5604H26.5156C26.6159 38.5938 26.7162 38.6105 26.8164 38.6439C27.017 38.6941 27.2009 38.7442 27.4015 38.7777C27.485 38.7944 27.5686 38.8111 27.6522 38.8278C27.7357 38.8445 27.8026 38.8612 27.8862 38.8779C27.9196 38.8779 27.9363 38.8947 27.9698 38.8947L26.2983 40.5661ZM31.7472 39.1454C30.7778 40.1148 29.357 40.633 27.6187 40.6497L29.1899 39.0785C29.2233 39.0785 29.2568 39.0785 29.3069 39.0952C29.3738 39.0952 29.4573 39.1119 29.5242 39.1119C29.6245 39.1119 29.7081 39.1287 29.8083 39.1287C29.8919 39.1287 29.9922 39.1287 30.0758 39.1287C30.1092 39.1287 30.1426 39.1287 30.1928 39.1287C30.2262 39.1287 30.2764 39.1287 30.3098 39.1287H30.3432C30.4268 39.1287 30.4936 39.1287 30.5772 39.1119C30.5939 39.1119 30.5939 39.1119 30.6106 39.1119C30.6942 39.1119 30.7611 39.0952 30.8446 39.0952C30.9282 39.0952 30.9951 39.0785 31.0786 39.0785C31.0786 39.0785 31.0786 39.0785 31.0954 39.0785C31.2625 39.0618 31.4129 39.0451 31.5634 39.0117C31.6302 38.9949 31.7138 38.9782 31.7806 38.9782C31.8642 38.9615 31.9311 38.9448 32.0147 38.9281L31.7472 39.1454ZM40.8399 11.1151C39.4359 9.12612 36.4774 9.10941 34.2544 9.4437C31.4297 9.86156 27.9363 11.0817 24.1755 12.9872C24.1588 13.0039 24.0251 13.054 24.0084 13.0707C23.975 13.0373 23.9248 13.0206 23.8914 12.9872C21.7854 11.5664 19.6292 10.48 17.5399 9.82813C13.6621 8.60797 10.4697 8.99241 8.54748 10.9313L6.04031 13.4385C4.78672 14.6921 4.16829 16.5474 4.25186 18.7704C4.25186 18.9877 4.26858 19.205 4.302 19.4557C4.302 19.4724 4.302 19.4891 4.302 19.4891C4.31872 19.6395 4.33543 19.79 4.35215 19.9571L4.41901 20.4251C4.50258 20.8764 4.71986 21.7289 4.87029 22.247L4.95386 22.5144V22.5312C5.00401 22.6816 5.05415 22.8487 5.12101 23.0493C5.12101 23.066 5.13773 23.0827 5.13773 23.0995C5.20459 23.2666 5.25473 23.417 5.30487 23.5507C5.57231 24.2528 5.88988 24.9715 6.2576 25.6902C6.29103 25.7403 6.30775 25.8072 6.34118 25.8573C6.37461 25.9242 6.40803 25.9911 6.44146 26.0579C3.951 28.6654 2.07897 31.206 1.02596 33.4123C-0.561923 36.7051 -0.0103382 38.6272 0.708386 39.6468C1.71126 41.0675 3.51642 41.4854 5.27144 41.4854C5.97345 41.4854 6.65874 41.4186 7.2939 41.3183C10.0852 40.9004 13.5117 39.7137 17.2056 37.8584C17.2558 37.8249 17.3226 37.8082 17.3728 37.7748C17.3728 37.7748 17.3895 37.7748 17.3895 37.7581C17.4062 37.7581 17.4062 37.7414 17.4062 37.7414C17.5566 37.6578 17.707 37.5909 17.8575 37.5074C17.941 37.4572 18.0413 37.4071 18.1416 37.3569C18.1583 37.3402 18.175 37.3402 18.2085 37.3235C18.2586 37.2901 18.3088 37.2733 18.3756 37.2399C18.7099 37.0561 19.0609 36.8722 19.4119 36.6883C19.8298 36.4543 20.2644 36.2036 20.6989 35.9529C20.7491 35.9195 20.7992 35.9028 20.8494 35.8693C20.8661 35.8526 20.8995 35.8359 20.9162 35.8359C21.0499 35.7523 21.1837 35.6688 21.3174 35.6019C21.4678 35.5016 21.635 35.418 21.7854 35.3178C22.454 34.9166 23.1058 34.4987 23.7744 34.0642L24.0084 33.9137C24.6436 33.4959 25.2787 33.0613 25.8972 32.61C28.4043 30.8215 30.7276 28.9328 32.8337 26.9772C33.4855 26.3588 34.1207 25.7403 34.7224 25.1219C34.7391 25.1052 34.7391 25.0885 34.7558 25.0885C34.806 25.0383 34.8561 24.9882 34.9063 24.938C37.4803 22.2637 39.4192 19.6563 40.5056 17.3831C42.1102 14.0569 41.5586 12.1514 40.8399 11.1151ZM15.0661 31.5403C15.1664 31.6238 15.25 31.7241 15.3503 31.8077C15.601 32.0417 15.8517 32.2757 16.1024 32.493C16.2194 32.5933 16.3365 32.7103 16.4535 32.8106C16.5036 32.844 16.537 32.8941 16.5872 32.9276L14.7653 34.7495L14.7319 34.7327C14.2137 34.2815 13.6956 33.8134 13.2108 33.3454L15.0327 31.5236C15.0494 31.5236 15.0661 31.5403 15.0661 31.5403ZM12.9601 29.3005C12.9935 29.334 13.0103 29.3674 13.0437 29.4008L13.0604 29.4342C13.0771 29.4677 13.1105 29.4844 13.1273 29.5011C13.144 29.5178 13.1774 29.5513 13.1941 29.568C13.261 29.6515 13.3445 29.7351 13.4281 29.8187C13.5117 29.9023 13.5786 29.9858 13.6621 30.0694C13.6956 30.1028 13.7123 30.1363 13.7457 30.153C13.846 30.2533 13.9463 30.3535 14.0299 30.4705C14.1469 30.5875 14.2471 30.7046 14.3641 30.8216L12.5423 32.6434C12.0742 32.1587 11.6062 31.6573 11.155 31.1224C11.155 31.1057 11.1382 31.1057 11.1382 31.1057L12.9601 29.3005C12.9434 29.2838 12.9434 29.2838 12.9601 29.3005ZM11.1884 27.0775C11.2218 27.1109 11.2552 27.1611 11.272 27.1945C11.3555 27.3115 11.4391 27.4118 11.5227 27.5288C11.5895 27.6291 11.6731 27.7294 11.74 27.8297C11.7901 27.8965 11.857 27.9634 11.9071 28.0469C11.9907 28.1472 12.0743 28.2642 12.1578 28.3645C12.208 28.4314 12.2581 28.4815 12.3082 28.5484L10.5031 30.3535C10.0685 29.8187 9.65065 29.2671 9.26622 28.7322C9.2495 28.7155 9.23278 28.6988 9.23278 28.6654L11.0379 26.8602C11.0881 26.9271 11.1382 27.0106 11.1884 27.0775ZM9.53364 24.5369C9.61722 24.6873 9.70078 24.8378 9.80107 24.9882C9.88464 25.1386 9.98494 25.2891 10.0685 25.4395C10.0852 25.4562 10.0852 25.4729 10.1019 25.4896C10.1187 25.5063 10.1186 25.5231 10.1354 25.5398C10.1521 25.5565 10.1688 25.5899 10.1855 25.6066C10.2022 25.6233 10.2189 25.6568 10.2357 25.6735C10.3192 25.8072 10.4028 25.9242 10.4864 26.0412L8.68121 27.8464C8.49735 27.5622 8.31349 27.2781 8.14634 27.0106C8.14634 27.0106 8.14634 27.0106 8.16305 26.9939L8.12962 26.9605C7.96248 26.6764 7.79534 26.3922 7.64491 26.1081C7.62819 26.0746 7.61148 26.0412 7.59476 26.0078L9.38321 24.2193C9.39992 24.3196 9.46679 24.4366 9.53364 24.5369ZM6.74232 14.1238L6.97633 13.8898V13.9065C6.95961 13.9733 6.94289 14.0235 6.94289 14.0903C6.92618 14.1405 6.92618 14.2073 6.90946 14.2575C6.90946 14.2742 6.90946 14.2742 6.90946 14.2909C6.89275 14.3243 6.89275 14.3745 6.89275 14.4079C6.87604 14.4581 6.87603 14.5082 6.87603 14.5583C6.87603 14.6085 6.85932 14.6586 6.85932 14.7255C6.85932 14.7589 6.84261 14.7923 6.84261 14.8425C6.8259 14.9762 6.80918 15.1099 6.80918 15.2436C6.80918 15.2938 6.80917 15.3606 6.79246 15.4108C6.77575 15.6615 6.77575 15.9122 6.79246 16.1629C6.79246 16.2131 6.79246 16.2632 6.79246 16.3134C6.79246 16.3802 6.79247 16.4304 6.80918 16.4972C6.80918 16.5641 6.82589 16.6476 6.82589 16.7312L5.25473 18.3024C5.23802 16.5306 5.75616 15.0932 6.74232 14.1238ZM5.55559 20.9098C5.52216 20.6758 5.35501 19.7231 5.32159 19.556L6.95961 17.918C7.09332 18.6701 7.2939 19.4557 7.56133 20.258L5.83974 21.9796C5.75617 21.662 5.63917 21.2608 5.55559 20.9098ZM6.24088 23.183C6.22417 23.1329 6.20746 23.0827 6.17403 23.0326L7.92905 21.2776C7.96248 21.3611 7.99591 21.428 8.02934 21.5116C8.2132 21.9796 8.43048 22.4476 8.66449 22.9156C8.71463 23.0159 8.76478 23.1162 8.81492 23.2165C8.83164 23.2499 8.84835 23.2666 8.86506 23.3L7.07661 25.0718C6.75903 24.4533 6.47489 23.8015 6.24088 23.183ZM1.89511 37.0895V37.0393C1.89511 37.0561 1.89511 37.0728 1.89511 37.0895ZM2.1124 35.8192C2.1124 35.7858 2.12912 35.769 2.12912 35.7356C2.12912 35.769 2.12911 35.7858 2.1124 35.8192ZM9.7175 38.1759C9.19935 38.2428 8.64777 38.3097 8.07948 38.3097C6.65875 38.3097 5.20459 37.9754 4.38558 36.8388C3.80057 36.0198 3.36599 34.482 4.63629 31.8244C5.18787 30.7046 5.99017 29.4677 7.02647 28.1807C6.65875 28.5985 6.30775 28.9997 5.97346 29.3841C6.40803 28.8492 6.89276 28.2977 7.42762 27.7294C7.57805 27.9801 7.72848 28.2141 7.89562 28.4648C7.9792 28.5985 8.07948 28.7322 8.17977 28.8827C8.17977 28.8827 8.17977 28.8827 8.17977 28.8994C8.28006 29.0331 8.36362 29.1668 8.46391 29.3005C8.86506 29.8688 9.29964 30.4371 9.76765 31.0054C9.86794 31.1391 9.98493 31.2561 10.0852 31.3898C10.1855 31.5236 10.3025 31.6406 10.4028 31.7743C10.8708 32.3091 11.3555 32.844 11.8402 33.3454C11.9572 33.4624 12.0743 33.5794 12.1913 33.6964C12.3083 33.8134 12.4253 33.9305 12.5423 34.0475C13.0437 34.5322 13.5618 35.0169 14.1134 35.4849C14.2471 35.6019 14.3641 35.7022 14.4979 35.8025C14.6316 35.9028 14.7486 36.0198 14.8823 36.12C15.0327 36.2538 15.1999 36.3708 15.367 36.5045C13.2777 37.3569 11.3555 37.9252 9.7175 38.1759ZM18.6932 34.9166C18.6431 34.9333 18.6096 34.9667 18.5595 34.9835C18.5428 35.0002 18.526 35.0002 18.5093 35.0169C18.4425 35.0503 18.3589 35.1005 18.292 35.1339C18.175 35.2008 18.0413 35.2509 17.9243 35.3178C17.9243 35.3178 17.9076 35.3178 17.9076 35.3345C17.9076 35.3345 17.8909 35.3345 17.8909 35.3512C17.8408 35.3679 17.8073 35.4013 17.7572 35.418C17.2892 35.6521 16.8379 35.8693 16.3866 36.0699C16.1024 35.8526 15.8183 35.6353 15.5342 35.418L17.356 33.5962C17.4229 33.6463 17.473 33.6964 17.5399 33.7466C17.6235 33.8135 17.707 33.8803 17.8073 33.9472C17.8909 34.014 17.9745 34.0809 18.0748 34.1477C18.1249 34.1812 18.175 34.2313 18.2252 34.2647C18.2753 34.2982 18.3255 34.3316 18.3756 34.3817C18.3923 34.3985 18.409 34.4152 18.4258 34.4152C18.4592 34.4319 18.4926 34.4653 18.5093 34.482C18.5595 34.5155 18.6096 34.5489 18.6598 34.599C18.7266 34.6492 18.7935 34.6993 18.8603 34.7495C18.8938 34.7662 18.9272 34.7996 18.9606 34.8163C18.8436 34.833 18.7768 34.8665 18.6932 34.9166ZM36.6111 18.9543C35.976 20.2747 34.9731 21.7289 33.6861 23.2499C33.6861 23.2332 33.6694 23.2332 33.6694 23.2165C32.3824 21.0937 30.7276 19.0044 28.8055 17.0822C27.8193 16.0961 26.7997 15.1935 25.7467 14.3578C27.8862 13.4552 29.8585 12.8535 31.5299 12.6027C33.3351 12.3353 35.7086 12.352 36.8619 13.9399C37.4636 14.7589 37.8982 16.2966 36.6111 18.9543ZM21.7352 3.6939V3.04204C23.4067 3.04204 24.7773 1.67145 24.7773 0H25.4291C25.4291 1.67145 26.7997 3.04204 28.4712 3.04204V3.6939C26.7997 3.6939 25.4291 5.06449 25.4291 6.73594H24.7773C24.7773 5.06449 23.4067 3.6939 21.7352 3.6939Z" fill="#CCFFE9"/>
<path d="M62.9685 31.3894C60.6117 31.3894 58.606 30.888 56.9512 29.9018C55.2798 28.9157 54.0095 27.5117 53.0902 25.7065C52.1876 23.9013 51.7363 21.7786 51.7363 19.3383C51.7363 16.898 52.1876 14.7752 53.0902 12.97C53.9928 11.1649 55.2798 9.77758 56.9512 8.7747C58.606 7.78855 60.6284 7.28711 62.9685 7.28711C65.2918 7.28711 67.2975 7.78855 68.969 8.7747C70.6404 9.76086 71.9274 11.1649 72.83 12.97C73.7326 14.7752 74.1672 16.898 74.1672 19.3383C74.1672 21.7786 73.7159 23.9013 72.83 25.7065C71.9274 27.5117 70.6571 28.899 68.969 29.9018C67.2808 30.9047 65.2918 31.3894 62.9685 31.3894ZM62.9685 26.3249C64.2889 26.3249 65.3754 26.1244 66.1944 25.7065C67.0134 25.3054 67.6318 24.5866 68.0163 23.5838C68.4007 22.5642 68.5846 21.1602 68.5846 19.3383C68.5846 17.4997 68.4007 16.0789 68.0163 15.0761C67.6318 14.0732 67.0301 13.3712 66.1944 12.97C65.3754 12.5689 64.2889 12.3516 62.9685 12.3516C61.6146 12.3516 60.5282 12.5522 59.7091 12.97C58.8901 13.3712 58.2717 14.0732 57.8873 15.0761C57.5028 16.0789 57.319 17.4997 57.319 19.3383C57.319 21.1602 57.5028 22.5642 57.8873 23.5838C58.2717 24.6033 58.8734 25.3054 59.7091 25.7065C60.5282 26.1244 61.6146 26.3249 62.9685 26.3249Z" fill="#CCFFE9"/>
<path d="M82.0908 31.0388H76.8926V13.4886H81.7398V18.4862L82.0908 18.6534V31.0388ZM82.0908 20.0574H81.1214V16.3301H81.9571C82.3917 15.4442 83.0268 14.692 83.8291 14.0736C84.6314 13.4552 85.651 13.1543 86.8879 13.1543C88.1247 13.1543 89.1109 13.4217 89.8296 13.9733C90.565 14.5249 91.0832 15.2603 91.4175 16.213C91.7351 17.1491 91.9022 18.2188 91.9022 19.4055V21.0101H86.704V20.0574C86.704 19.1047 86.5369 18.4528 86.2193 18.1018C85.885 17.7508 85.3167 17.5836 84.481 17.5836C83.6954 17.5836 83.0937 17.7508 82.7092 18.1018C82.2747 18.4528 82.0908 19.1047 82.0908 20.0574Z" fill="#CCFFE9"/>
<path d="M98.939 31.0389H94.0918V7.65527H99.29V26.877L98.939 27.3283V31.0389ZM104.873 31.3899C103.502 31.3899 102.315 31.1392 101.312 30.6377C100.31 30.1363 99.5742 29.4176 99.1061 28.4648H98.3707L98.6214 23.6845H99.29C99.29 24.4534 99.4404 25.0718 99.7413 25.5565C100.042 26.0412 100.477 26.3755 101.045 26.6095C101.613 26.8268 102.315 26.9438 103.151 26.9438C103.903 26.9438 104.522 26.8435 105.023 26.6597C105.525 26.4758 105.926 26.1917 106.21 25.8239C106.494 25.4562 106.711 24.9715 106.828 24.3698C106.945 23.7848 106.995 23.0828 106.995 22.2972C106.995 21.5116 106.945 20.8096 106.828 20.2246C106.711 19.6396 106.511 19.1381 106.21 18.7537C105.926 18.3693 105.525 18.0851 105.023 17.9013C104.522 17.7174 103.903 17.6171 103.151 17.6171C102.315 17.6171 101.613 17.7341 101.045 17.9514C100.477 18.1687 100.042 18.5197 99.7413 18.9877C99.4404 19.4557 99.29 20.0742 99.29 20.8765H98.6214L98.3707 15.9624H99.4906C99.8917 15.2102 100.544 14.5584 101.463 14.0068C102.382 13.4552 103.502 13.1711 104.823 13.1711C107.246 13.1711 109.068 13.9901 110.322 15.6448C111.558 17.2995 112.194 19.5226 112.194 22.3139C112.194 25.0551 111.575 27.2614 110.322 28.9328C109.085 30.5541 107.263 31.3899 104.873 31.3899Z" fill="#CCFFE9"/>
<path d="M119.698 11.4996H114.567L114.5 7.65527H119.698V11.4996ZM119.798 31.0389H114.567V13.4886H119.798V31.0389Z" fill="#CCFFE9"/>
<path d="M134.257 17.8176H121.27V13.4885H134.257V17.8176ZM130.83 31.1056C128.557 31.1056 126.852 30.6543 125.732 29.7517C124.612 28.8491 124.061 27.3615 124.061 25.2889V14.0234L125.181 9.41016H129.292V24.6872C129.292 25.4561 129.476 25.9241 129.844 26.1247C130.212 26.3085 130.964 26.4088 132.084 26.4088H134.24V30.7713C133.822 30.8716 133.304 30.9384 132.686 31.022C132.084 31.0722 131.465 31.1056 130.83 31.1056Z" fill="#CCFFE9"/>
<path d="M57.3436 35.79H53.3257V35.0927C53.3257 34.4175 53.7684 33.9969 54.4436 33.9969C54.6539 33.9969 54.9638 34.0412 55.2405 34.0965L55.4066 33.1668C54.997 33.0561 54.6539 33.0008 54.3108 33.0008C53.0822 33.0008 52.1857 33.7977 52.1857 35.0927V35.79H50.7135V36.753H52.1857V40.9922H53.3257V36.753H56.2035V40.9922H57.3436V35.79ZM61.7793 35.6572C61.1152 35.6572 60.5507 35.8675 60.0969 36.2549V35.79H58.9458V40.9922H60.0969V37.4835C60.5065 36.9743 61.0488 36.6976 61.5469 36.6976C62.3881 36.6976 62.8972 37.2068 62.8972 38.1587V40.9922H64.0484V38.0922C64.0484 36.5869 63.1297 35.6572 61.7793 35.6572ZM69.5471 35.79V36.1995C69.1044 35.8564 68.5399 35.6572 67.8758 35.6572C66.4148 35.6572 65.2415 36.8747 65.2415 38.3911C65.2415 39.9075 66.4148 41.125 67.8758 41.125C68.5399 41.125 69.1044 40.9258 69.5471 40.5827V40.9922H70.6872V35.79H69.5471ZM68.0418 40.0846C67.0899 40.0846 66.3926 39.3208 66.3926 38.3911C66.3926 37.4613 67.0899 36.6976 68.0418 36.6976C68.6174 36.6976 69.1597 36.8969 69.5471 37.4503V39.3319C69.1597 39.8853 68.6174 40.0846 68.0418 40.0846ZM75.1177 35.6572C74.4536 35.6572 73.8891 35.8675 73.4353 36.2549V35.79H72.2842V40.9922H73.4353V37.4835C73.8448 36.9743 74.3872 36.6976 74.8853 36.6976C75.7265 36.6976 76.2356 37.2068 76.2356 38.1587V40.9922H77.3867V38.0922C77.3867 36.5869 76.468 35.6572 75.1177 35.6572ZM81.3249 40.0846C80.3619 40.0846 79.731 39.3319 79.731 38.3911C79.731 37.4503 80.3619 36.6976 81.3249 36.6976C82.0222 36.6976 82.5424 37.0961 82.6863 37.6827H83.8595C83.6714 36.4873 82.6309 35.6572 81.3249 35.6572C79.7642 35.6572 78.5799 36.8526 78.5799 38.3911C78.5799 39.9407 79.7642 41.125 81.3249 41.125C82.6309 41.125 83.6714 40.2949 83.8595 39.0995H82.6863C82.5424 39.6861 82.0222 40.0846 81.3249 40.0846ZM87.625 35.6572C86.0422 35.6572 84.9464 36.8526 84.9464 38.3911C84.9464 39.9407 86.0533 41.125 87.6914 41.125C88.8204 41.125 89.739 40.5716 90.0711 39.6308H88.8093C88.599 39.9628 88.2116 40.1178 87.7025 40.1178C86.7284 40.1178 86.2303 39.5201 86.1197 38.7342H90.2039C90.4253 36.9743 89.3517 35.6572 87.625 35.6572ZM87.636 36.6312C88.444 36.6312 88.9975 37.085 89.0639 37.9373H86.1418C86.2746 37.2068 86.7727 36.6312 87.636 36.6312Z" fill="#CCFFE9"/>
</svg>
