<svg width="805" height="804" viewBox="0 0 805 804" fill="none" xmlns="http://www.w3.org/2000/svg">
<path fill-rule="evenodd" clip-rule="evenodd" d="M30.2079 0H36.9207V67.1286H30.2079V0ZM114.454 2.68514L120.16 6.04157L86.5959 64.1078L80.89 60.7514L114.454 2.68514ZM47.3257 69.8137L53.0316 73.1702L19.4673 131.236L13.7614 127.88L47.3257 69.8137ZM195.344 13.7614L198.701 19.4673L140.634 53.0316L137.278 47.3257L195.344 13.7614ZM61.087 148.019L64.4435 153.724L6.37722 187.289L3.02079 181.583L61.087 148.019ZM268.514 30.2079V36.9207H201.386V30.2079H268.514ZM67.1286 231.594V238.307H0V231.594H67.1286ZM333.293 46.99L329.937 52.6959L271.871 19.1316L275.227 13.4257L333.293 46.99ZM64.7791 315.504L61.4227 321.21L3.35643 287.646L6.71286 281.94L64.7791 315.504ZM389.01 61.087L383.304 64.4435L349.74 6.37722L355.446 3.02079L389.01 61.087ZM53.3672 396.73L47.6613 400.086L14.097 342.02L19.8029 338.664L53.3672 396.73ZM128.216 80.89L131.572 86.5959L73.5058 120.16L70.1494 114.454L128.216 80.89ZM201.386 97.3365V104.049H134.257V97.3365H201.386ZM266.165 114.119L262.808 119.825L204.742 86.2602L208.099 80.5543L266.165 114.119ZM321.882 128.216L316.176 131.572L282.611 73.5058L288.317 70.1494L321.882 128.216ZM372.564 134.257H365.851V67.1286H372.564V134.257ZM382.969 136.942L388.675 140.299L355.11 198.365L349.404 195.009L382.969 136.942ZM134.257 164.465V171.178H67.1286V164.465H134.257ZM199.036 181.247L195.68 186.953L137.614 153.389L140.97 147.683L199.036 181.247ZM254.753 195.344L249.047 198.701L215.483 140.634L221.189 137.278L254.753 195.344ZM305.435 201.386H298.722V134.257H305.435V201.386ZM315.84 204.071L321.546 207.427L287.982 265.494L282.276 262.137L315.84 204.071ZM396.73 215.147L400.086 220.853L342.02 254.417L338.664 248.711L396.73 215.147ZM131.908 248.376L128.551 254.082L70.485 220.517L73.8415 214.811L131.908 248.376ZM187.624 262.473L181.918 265.829L148.354 207.763L154.06 204.407L187.624 262.473ZM238.307 268.514H231.594V201.386H238.307V268.514ZM248.711 271.2L254.417 274.556L220.853 332.622L215.147 329.266L248.711 271.2ZM329.601 282.276L332.958 287.982L274.892 321.546L271.535 315.84L329.601 282.276ZM402.772 298.722V305.435H335.643V298.722H402.772ZM120.496 329.601L114.79 332.958L81.2256 274.892L86.9315 271.535L120.496 329.601ZM171.178 335.643H164.465V268.514H171.178V335.643ZM181.583 338.328L187.289 341.685L153.724 399.751L148.019 396.394L181.583 338.328ZM262.473 349.404L265.829 355.11L207.763 388.675L204.407 382.969L262.473 349.404ZM335.643 365.851V372.564H268.514V365.851H335.643ZM400.422 382.633L397.066 388.339L338.999 354.775L342.356 349.069L400.422 382.633ZM104.049 402.772H97.3365V335.643H104.049V402.772Z" fill="white" fill-opacity="0.35"/>
<path fill-rule="evenodd" clip-rule="evenodd" d="M30.2079 400.714H36.9207V467.842H30.2079V400.714ZM114.454 403.399L120.16 406.755L86.5959 464.822L80.89 461.465L114.454 403.399ZM47.3257 470.528L53.0316 473.884L19.4673 531.95L13.7614 528.594L47.3257 470.528ZM195.344 414.475L198.701 420.181L140.634 453.745L137.278 448.04L195.344 414.475ZM61.087 548.732L64.4435 554.438L6.37722 588.003L3.02079 582.297L61.087 548.732ZM268.514 430.922V437.635H201.386V430.922H268.514ZM67.1286 632.308V639.02H0V632.308H67.1286ZM333.293 447.704L329.937 453.41L271.871 419.846L275.227 414.14L333.293 447.704ZM64.7791 716.218L61.4227 721.924L3.35643 688.36L6.71286 682.654L64.7791 716.218ZM389.01 461.801L383.304 465.157L349.74 407.091L355.446 403.735L389.01 461.801ZM53.3672 797.444L47.6613 800.8L14.097 742.734L19.8029 739.378L53.3672 797.444ZM128.216 481.604L131.572 487.31L73.5058 520.874L70.1494 515.168L128.216 481.604ZM201.386 498.05V504.763H134.257V498.05H201.386ZM266.165 514.832L262.808 520.538L204.742 486.974L208.099 481.268L266.165 514.832ZM321.882 528.929L316.176 532.286L282.611 474.22L288.317 470.863L321.882 528.929ZM372.564 534.971H365.851V467.842H372.564V534.971ZM382.969 537.656L388.675 541.013L355.11 599.079L349.404 595.722L382.969 537.656ZM134.257 565.179V571.892H67.1286V565.179H134.257ZM199.036 581.961L195.68 587.667L137.614 554.103L140.97 548.397L199.036 581.961ZM254.753 596.058L249.047 599.415L215.483 541.348L221.189 537.992L254.753 596.058ZM305.435 602.1H298.722V534.971H305.435V602.1ZM315.84 604.785L321.546 608.141L287.982 666.207L282.276 662.851L315.84 604.785ZM396.73 615.861L400.086 621.567L342.02 655.131L338.664 649.425L396.73 615.861ZM131.908 649.09L128.551 654.796L70.485 621.231L73.8415 615.525L131.908 649.09ZM187.624 663.187L181.918 666.543L148.354 608.477L154.06 605.12L187.624 663.187ZM238.307 669.228H231.594V602.1H238.307V669.228ZM248.711 671.913L254.417 675.27L220.853 733.336L215.147 729.98L248.711 671.913ZM329.601 682.99L332.958 688.696L274.892 722.26L271.535 716.554L329.601 682.99ZM402.772 699.436V706.149H335.643V699.436H402.772ZM120.496 730.315L114.79 733.672L81.2256 675.605L86.9315 672.249L120.496 730.315ZM171.178 736.357H164.465V669.228H171.178V736.357ZM181.583 739.042L187.289 742.398L153.724 800.465L148.019 797.108L181.583 739.042ZM262.473 750.118L265.829 755.824L207.763 789.388L204.407 783.682L262.473 750.118ZM335.643 766.565V773.278H268.514V766.565H335.643ZM400.422 783.347L397.066 789.053L338.999 755.488L342.356 749.783L400.422 783.347ZM104.049 803.485H97.3365V736.357H104.049V803.485Z" fill="white" fill-opacity="0.35"/>
<path fill-rule="evenodd" clip-rule="evenodd" d="M431.89 0H438.602V67.1286H431.89V0ZM516.136 2.68514L521.842 6.04157L488.278 64.1078L482.572 60.7514L516.136 2.68514ZM449.007 69.8137L454.713 73.1702L421.149 131.236L415.443 127.88L449.007 69.8137ZM597.026 13.7614L600.382 19.4673L542.316 53.0316L538.96 47.3257L597.026 13.7614ZM462.769 148.019L466.125 153.724L408.059 187.289L404.702 181.583L462.769 148.019ZM670.196 30.2079V36.9207H603.067V30.2079H670.196ZM468.81 231.594V238.307H401.682V231.594H468.81ZM734.975 46.99L731.619 52.6959L673.552 19.1316L676.909 13.4257L734.975 46.99ZM466.461 315.504L463.104 321.21L405.038 287.646L408.394 281.94L466.461 315.504ZM790.692 61.087L784.986 64.4435L751.422 6.37722L757.128 3.02079L790.692 61.087ZM455.049 396.73L449.343 400.086L415.779 342.02L421.485 338.664L455.049 396.73ZM529.897 80.89L533.254 86.5959L475.187 120.16L471.831 114.454L529.897 80.89ZM603.067 97.3365V104.049H535.939V97.3365H603.067ZM667.847 114.119L664.49 119.825L606.424 86.2602L609.78 80.5543L667.847 114.119ZM723.563 128.216L717.857 131.572L684.293 73.5058L689.999 70.1494L723.563 128.216ZM774.245 134.257H767.532V67.1286H774.245V134.257ZM784.65 136.942L790.356 140.299L756.792 198.365L751.086 195.009L784.65 136.942ZM535.939 164.465V171.178H468.81V164.465H535.939ZM600.718 181.247L597.361 186.953L539.295 153.389L542.652 147.683L600.718 181.247ZM656.435 195.344L650.729 198.701L617.164 140.634L622.87 137.278L656.435 195.344ZM707.117 201.386H700.404V134.257H707.117V201.386ZM717.522 204.071L723.228 207.427L689.663 265.494L683.957 262.137L717.522 204.071ZM798.412 215.147L801.768 220.853L743.702 254.417L740.345 248.711L798.412 215.147ZM533.589 248.376L530.233 254.082L472.167 220.517L475.523 214.811L533.589 248.376ZM589.306 262.473L583.6 265.829L550.036 207.763L555.742 204.407L589.306 262.473ZM639.988 268.514H633.275V201.386H639.988V268.514ZM650.393 271.2L656.099 274.556L622.535 332.622L616.829 329.266L650.393 271.2ZM731.283 282.276L734.639 287.982L676.573 321.546L673.217 315.84L731.283 282.276ZM804.453 298.722V305.435H737.325V298.722H804.453ZM522.177 329.601L516.472 332.958L482.907 274.892L488.613 271.535L522.177 329.601ZM572.86 335.643H566.147V268.514H572.86V335.643ZM583.264 338.328L588.97 341.685L555.406 399.751L549.7 396.394L583.264 338.328ZM664.154 349.404L667.511 355.11L609.445 388.675L606.088 382.969L664.154 349.404ZM737.325 365.851V372.564H670.196V365.851H737.325ZM802.104 382.633L798.747 388.339L740.681 354.775L744.037 349.069L802.104 382.633ZM505.731 402.772H499.018V335.643H505.731V402.772Z" fill="white" fill-opacity="0.35"/>
<path fill-rule="evenodd" clip-rule="evenodd" d="M431.89 400.714H438.602V467.842H431.89V400.714ZM516.136 403.399L521.842 406.755L488.278 464.822L482.572 461.465L516.136 403.399ZM449.007 470.528L454.713 473.884L421.149 531.95L415.443 528.594L449.007 470.528ZM597.026 414.475L600.382 420.181L542.316 453.745L538.96 448.04L597.026 414.475ZM462.769 548.732L466.125 554.438L408.059 588.003L404.702 582.297L462.769 548.732ZM670.196 430.922V437.635H603.067V430.922H670.196ZM468.81 632.308V639.02H401.682V632.308H468.81ZM734.975 447.704L731.619 453.41L673.552 419.846L676.909 414.14L734.975 447.704ZM466.461 716.218L463.104 721.924L405.038 688.36L408.394 682.654L466.461 716.218ZM790.692 461.801L784.986 465.157L751.422 407.091L757.128 403.735L790.692 461.801ZM455.049 797.444L449.343 800.8L415.779 742.734L421.485 739.378L455.049 797.444ZM529.897 481.604L533.254 487.31L475.187 520.874L471.831 515.168L529.897 481.604ZM603.067 498.05V504.763H535.939V498.05H603.067ZM667.847 514.832L664.49 520.538L606.424 486.974L609.78 481.268L667.847 514.832ZM723.563 528.929L717.857 532.286L684.293 474.22L689.999 470.863L723.563 528.929ZM774.245 534.971H767.532V467.842H774.245V534.971ZM784.65 537.656L790.356 541.013L756.792 599.079L751.086 595.722L784.65 537.656ZM535.939 565.179V571.892H468.81V565.179H535.939ZM600.718 581.961L597.361 587.667L539.295 554.103L542.652 548.397L600.718 581.961ZM656.435 596.058L650.729 599.415L617.164 541.348L622.87 537.992L656.435 596.058ZM707.117 602.1H700.404V534.971H707.117V602.1ZM717.522 604.785L723.228 608.141L689.663 666.207L683.957 662.851L717.522 604.785ZM798.412 615.861L801.768 621.567L743.702 655.131L740.345 649.425L798.412 615.861ZM533.589 649.09L530.233 654.796L472.167 621.231L475.523 615.525L533.589 649.09ZM589.306 663.187L583.6 666.543L550.036 608.477L555.742 605.12L589.306 663.187ZM639.988 669.228H633.275V602.1H639.988V669.228ZM650.393 671.913L656.099 675.27L622.535 733.336L616.829 729.98L650.393 671.913ZM731.283 682.99L734.639 688.696L676.573 722.26L673.217 716.554L731.283 682.99ZM804.453 699.436V706.149H737.325V699.436H804.453ZM522.177 730.315L516.472 733.672L482.907 675.605L488.613 672.249L522.177 730.315ZM572.86 736.357H566.147V669.228H572.86V736.357ZM583.264 739.042L588.97 742.398L555.406 800.465L549.7 797.108L583.264 739.042ZM664.154 750.118L667.511 755.824L609.445 789.388L606.088 783.682L664.154 750.118ZM737.325 766.565V773.278H670.196V766.565H737.325ZM802.104 783.347L798.747 789.053L740.681 755.488L744.037 749.783L802.104 783.347ZM505.731 803.485H499.018V736.357H505.731V803.485Z" fill="white" fill-opacity="0.35"/>
</svg>
