<svg width="278" height="231" viewBox="0 0 278 231" fill="none" xmlns="http://www.w3.org/2000/svg">
<rect width="8.27338" height="8.27338" transform="translate(221.977 81.7578) rotate(38.9039)" fill="#FFB992"/>
<rect width="8.27338" height="8.27338" transform="translate(131.836 197.664) rotate(-60)" fill="#E35BAD"/>
<rect x="53.9492" y="152.895" width="8.27338" height="8.27338" rx="4.13669" fill="#FE7122"/>
<rect x="168.785" y="29.6953" width="8.27338" height="8.27338" rx="4.13669" fill="#796CF7"/>
<path d="M51.9333 82.4607L59.3885 88.3903L50.5257 91.8819L51.9333 82.4607Z" fill="#A684DA"/>
<path d="M93.7339 41.2334L84.2681 40.1663L89.9252 32.5023L93.7339 41.2334Z" fill="#FFB992"/>
<path d="M222.094 143.978L224.559 153.179L215.358 150.714L222.094 143.978Z" fill="#41BCC4"/>
<rect x="68.6797" y="40.2109" width="140.647" height="140.647" rx="70.3237" fill="#EFF7FD"/>
<rect x="103.84" y="74.957" width="70.3237" height="71.1511" rx="35.1619" fill="#5DADEC"/>
<path fill-rule="evenodd" clip-rule="evenodd" d="M139 100.031C137.608 100.031 136.272 100.584 135.288 101.569C134.303 102.554 133.75 103.889 133.75 105.281V108.281C132.954 108.281 132.191 108.597 131.629 109.16C131.066 109.723 130.75 110.486 130.75 111.281V118.031C130.75 118.827 131.066 119.59 131.629 120.153C132.191 120.715 132.954 121.031 133.75 121.031H144.25C145.046 121.031 145.809 120.715 146.371 120.153C146.934 119.59 147.25 118.827 147.25 118.031V111.281C147.25 110.486 146.934 109.723 146.371 109.16C145.809 108.597 145.046 108.281 144.25 108.281V105.281C144.25 102.381 141.9 100.031 139 100.031ZM142.75 108.281V105.281C142.75 104.287 142.355 103.333 141.652 102.63C140.948 101.926 139.995 101.531 139 101.531C138.005 101.531 137.052 101.926 136.348 102.63C135.645 103.333 135.25 104.287 135.25 105.281V108.281H142.75Z" fill="white"/>
<rect x="68.1758" y="40.8125" width="140.647" height="140.647" rx="70.3237" fill="#EFF7FD"/>
<rect x="103.336" y="75.5586" width="70.3237" height="71.1511" rx="35.1619" fill="#5DADEC"/>
<path fill-rule="evenodd" clip-rule="evenodd" d="M138.496 100.633C137.104 100.633 135.768 101.186 134.784 102.171C133.799 103.155 133.246 104.49 133.246 105.883V108.883C132.45 108.883 131.687 109.199 131.125 109.761C130.562 110.324 130.246 111.087 130.246 111.883V118.633C130.246 119.428 130.562 120.192 131.125 120.754C131.687 121.317 132.45 121.633 133.246 121.633H143.746C144.542 121.633 145.305 121.317 145.867 120.754C146.43 120.192 146.746 119.428 146.746 118.633V111.883C146.746 111.087 146.43 110.324 145.867 109.761C145.305 109.199 144.542 108.883 143.746 108.883V105.883C143.746 102.983 141.396 100.633 138.496 100.633ZM142.246 108.883V105.883C142.246 104.888 141.851 103.934 141.148 103.231C140.444 102.528 139.491 102.133 138.496 102.133C137.502 102.133 136.548 102.528 135.844 103.231C135.141 103.934 134.746 104.888 134.746 105.883V108.883H142.246Z" fill="white"/>
</svg>
