<svg width="278" height="231" viewBox="0 0 278 231" fill="none" xmlns="http://www.w3.org/2000/svg">
<rect width="8.27338" height="8.27338" transform="translate(221.977 81.7598) rotate(38.9039)" fill="#FFB992"/>
<rect width="8.27338" height="8.27338" transform="translate(131.836 197.664) rotate(-60)" fill="#E35BAD"/>
<rect x="53.9492" y="152.896" width="8.27338" height="8.27338" rx="4.13669" fill="#FE7122"/>
<rect x="168.785" y="29.6953" width="8.27338" height="8.27338" rx="4.13669" fill="#796CF7"/>
<path d="M51.9333 82.4588L59.3885 88.3884L50.5257 91.8799L51.9333 82.4588Z" fill="#A684DA"/>
<path d="M93.7339 41.2354L84.2681 40.1683L89.9252 32.5042L93.7339 41.2354Z" fill="#FFB992"/>
<path d="M222.094 143.978L224.559 153.179L215.358 150.714L222.094 143.978Z" fill="#41BCC4"/>
<rect x="68.6797" y="40.2129" width="140.647" height="140.647" rx="70.3237" fill="#EFF7FD"/>
<g clip-path="url(#clip0_2398_375709)">
<path d="M151.374 131.013L104.43 145.595C102.386 146.225 100.481 144.32 101.111 142.276L115.693 95.332L151.374 131.013Z" fill="#5DADEC"/>
<path d="M152.82 130.182C156.241 126.761 150.89 115.864 140.868 105.843C130.847 95.8213 119.95 90.4701 116.529 93.8906C113.109 97.3111 118.46 108.208 128.481 118.229C138.503 128.251 149.4 133.602 152.82 130.182Z" fill="#9ECEF4"/>
<path d="M144.644 133.104L135.563 135.931C133.55 135.209 131.567 134.348 129.616 133.334C125.375 131.137 121.303 128.263 117.507 124.775C116.893 124.206 116.216 123.561 115.494 122.854C113.635 120.995 111.499 118.628 109.348 115.801L111.207 109.777C114.618 114.91 118.306 118.721 120.888 121.087C128.141 127.741 136.131 131.782 144.644 133.104Z" fill="#EFF7FD"/>
<path d="M129.478 137.805L122.317 140.033C118.214 137.866 114.281 135.054 110.593 131.674C109.978 131.105 109.302 130.46 108.58 129.753C107.735 128.908 106.828 127.955 105.891 126.895L107.642 121.225C109.978 124.113 112.222 126.372 113.973 127.986C118.844 132.442 124.023 135.73 129.478 137.805Z" fill="#EFF7FD"/>
<path d="M116.508 141.846L110.223 143.798C107.98 142.261 105.782 140.509 103.692 138.589C103.339 138.266 102.97 137.928 102.586 137.544L104.261 132.135C105.275 133.195 106.243 134.117 107.073 134.885C110.1 137.667 113.25 139.987 116.508 141.846Z" fill="#EFF7FD"/>
<path d="M128.31 101.278L126.082 99.05C129.616 95.5158 131.629 90.9827 132.075 85.5584C132.413 81.4402 131.675 78.3208 131.66 78.2901L134.718 77.5371C134.749 77.6754 135.578 81.0867 135.225 85.6967C134.749 91.8586 132.352 97.2368 128.31 101.278Z" fill="#00CC74"/>
<path d="M145.982 121.177L143.754 118.949C148.103 114.6 154.265 112.403 161.564 112.618C166.988 112.772 171.106 114.185 171.275 114.247L170.246 117.212L170.753 115.722L170.246 117.212C170.199 117.197 166.342 115.891 161.379 115.753C154.941 115.584 149.747 117.412 145.982 121.177Z" fill="#5DADEC"/>
<path d="M135.102 98.0971C136.239 96.2071 137.745 95.7154 138.836 95.3466C139.758 95.0392 140.326 94.8548 140.864 93.9636C141.402 93.0723 141.31 92.4884 141.141 91.5203C140.941 90.3832 140.68 88.8312 141.817 86.9411C142.954 85.0511 144.46 84.5594 145.551 84.1906C146.473 83.8832 147.041 83.6988 147.579 82.8076C148.117 81.9163 148.025 81.3324 147.856 80.3643C147.656 79.2272 147.395 77.6752 148.532 75.7852L151.221 77.3986C150.683 78.2899 150.775 78.8738 150.944 79.8419C151.144 80.979 151.405 82.531 150.268 84.4211C149.131 86.3111 147.625 86.8029 146.534 87.1716C145.612 87.479 145.044 87.6634 144.506 88.5546C143.968 89.4459 144.06 90.0298 144.229 90.9979C144.429 92.135 144.69 93.687 143.553 95.5771C142.416 97.4671 140.91 97.9588 139.819 98.3276C138.897 98.635 138.329 98.8194 137.791 99.7106L135.102 98.0971Z" fill="#EF4444"/>
<path d="M148.072 106.533L146.535 103.798C148.517 102.676 150.116 102.999 151.283 103.245C152.298 103.444 152.897 103.567 153.88 103.029C154.848 102.492 155.064 101.908 155.417 100.924C155.816 99.8025 156.385 98.2812 158.367 97.1595C160.35 96.0378 161.948 96.3605 163.115 96.5909C164.13 96.7907 164.729 96.9136 165.712 96.3758C166.68 95.838 166.896 95.2387 167.249 94.2706C167.649 93.1489 168.217 91.6276 170.199 90.5059L171.736 93.2411C170.768 93.7789 170.553 94.3782 170.199 95.3463C169.8 96.468 169.231 97.9893 167.249 99.111C165.267 100.233 163.669 99.9101 162.501 99.6796C161.487 99.4798 160.887 99.3569 159.904 99.8947C158.936 100.433 158.721 101.016 158.367 102C157.968 103.122 157.399 104.643 155.417 105.765C153.435 106.886 151.837 106.564 150.669 106.318C149.655 106.103 149.04 105.98 148.072 106.533Z" fill="#A700FF"/>
<path d="M168.001 106.734C168.867 106.734 169.568 106.033 169.568 105.167C169.568 104.301 168.867 103.6 168.001 103.6C167.135 103.6 166.434 104.301 166.434 105.167C166.434 106.033 167.135 106.734 168.001 106.734Z" fill="#7416EF"/>
<path d="M160.993 125.082C161.859 125.082 162.561 124.38 162.561 123.515C162.561 122.649 161.859 121.947 160.993 121.947C160.128 121.947 159.426 122.649 159.426 123.515C159.426 124.38 160.128 125.082 160.993 125.082Z" fill="#EF4444"/>
<path d="M175.454 111.742C176.32 111.742 177.021 111.04 177.021 110.175C177.021 109.309 176.32 108.607 175.454 108.607C174.588 108.607 173.887 109.309 173.887 110.175C173.887 111.04 174.588 111.742 175.454 111.742Z" fill="#5DADEC"/>
<path d="M162.653 90.0605C163.519 90.0605 164.221 89.3588 164.221 88.4932C164.221 87.6275 163.519 86.9258 162.653 86.9258C161.788 86.9258 161.086 87.6275 161.086 88.4932C161.086 89.3588 161.788 90.0605 162.653 90.0605Z" fill="#EF4444"/>
<path d="M139.544 78.4902C140.41 78.4902 141.111 77.7885 141.111 76.9228C141.111 76.0572 140.41 75.3555 139.544 75.3555C138.678 75.3555 137.977 76.0572 137.977 76.9228C137.977 77.7885 138.678 78.4902 139.544 78.4902Z" fill="#5DADEC"/>
<path d="M150.438 92.0586C151.304 92.0586 152.006 91.3568 152.006 90.4912C152.006 89.6256 151.304 88.9238 150.438 88.9238C149.573 88.9238 148.871 89.6256 148.871 90.4912C148.871 91.3568 149.573 92.0586 150.438 92.0586Z" fill="#EF9645"/>
<path d="M138.528 111.512C139.394 111.512 140.096 110.81 140.096 109.944C140.096 109.079 139.394 108.377 138.528 108.377C137.663 108.377 136.961 109.079 136.961 109.944C136.961 110.81 137.663 111.512 138.528 111.512Z" fill="#EF9645"/>
<path d="M122.087 85.9433C122.953 85.9433 123.654 85.2416 123.654 84.376C123.654 83.5103 122.953 82.8086 122.087 82.8086C121.221 82.8086 120.52 83.5103 120.52 84.376C120.52 85.2416 121.221 85.9433 122.087 85.9433Z" fill="#45B6A8"/>
</g>
<defs>
<clipPath id="clip0_2398_375709">
<rect width="76.0329" height="70.3627" fill="white" transform="translate(100.988 75.3555)"/>
</clipPath>
</defs>
</svg>
