<svg width="277" height="230" viewBox="0 0 277 230" fill="none" xmlns="http://www.w3.org/2000/svg">
<rect width="8.27338" height="8.27338" transform="translate(221.477 81.2593) rotate(38.9039)" fill="#FFB992"/>
<rect width="8.27338" height="8.27338" transform="translate(131.336 197.165) rotate(-60)" fill="#E35BAD"/>
<rect x="53.4492" y="152.396" width="8.27338" height="8.27338" rx="4.13669" fill="#FE7122"/>
<rect x="168.285" y="29.1953" width="8.27338" height="8.27338" rx="4.13669" fill="#796CF7"/>
<path d="M51.4333 81.9592L58.8885 87.8889L50.0257 91.3804L51.4333 81.9592Z" fill="#A684DA"/>
<path d="M93.2339 40.7344L83.7681 39.6673L89.4252 32.0032L93.2339 40.7344Z" fill="#FFB992"/>
<path d="M221.594 143.479L224.059 152.68L214.858 150.215L221.594 143.479Z" fill="#41BCC4"/>
<rect x="68.1797" y="39.7119" width="140.647" height="140.647" rx="70.3237" fill="#EFF7FD"/>
<rect x="103.34" y="74.46" width="70.3237" height="71.1511" rx="35.1619" fill="#5DADEC"/>
<path fill-rule="evenodd" clip-rule="evenodd" d="M138.5 99.5352C137.108 99.5352 135.772 100.088 134.788 101.073C133.803 102.057 133.25 103.393 133.25 104.785V107.785C132.454 107.785 131.691 108.101 131.129 108.664C130.566 109.226 130.25 109.99 130.25 110.785V117.535C130.25 118.331 130.566 119.094 131.129 119.656C131.691 120.219 132.454 120.535 133.25 120.535H143.75C144.546 120.535 145.309 120.219 145.871 119.656C146.434 119.094 146.75 118.331 146.75 117.535V110.785C146.75 109.99 146.434 109.226 145.871 108.664C145.309 108.101 144.546 107.785 143.75 107.785V104.785C143.75 101.885 141.4 99.5352 138.5 99.5352ZM142.25 107.785V104.785C142.25 103.791 141.855 102.837 141.152 102.134C140.448 101.43 139.495 101.035 138.5 101.035C137.505 101.035 136.552 101.43 135.848 102.134C135.145 102.837 134.75 103.791 134.75 104.785V107.785H142.25Z" fill="white"/>
</svg>
